G04*
G04 #@! TF.GenerationSoftware,Altium Limited,Altium Designer,18.1.6 (161)*
G04*
G04 Layer_Color=2752767*
%FSTAX24Y24*%
%MOIN*%
G70*
G01*
G75*
%ADD151C,0.0020*%
%ADD152C,0.0027*%
%ADD153C,0.0013*%
G36*
X10415Y040525D02*
D01*
D02*
G37*
D151*
X12267Y03917D02*
Y03933D01*
X12283D01*
Y03917D01*
X12267D01*
X11917D02*
Y03933D01*
X11933D01*
Y03917D01*
X11917D01*
X12267Y042195D02*
Y042355D01*
X12283D01*
Y042195D01*
X12267D01*
X11917D02*
Y042355D01*
X11933D01*
Y042195D01*
X11917D01*
X1132Y044609D02*
X11312Y044769D01*
X11328D01*
X1132Y044609D01*
Y043609D02*
X11312Y043769D01*
X11328D01*
X1132Y043609D01*
X115365Y044609D02*
X115285Y044769D01*
X115445D01*
X115365Y044609D01*
Y043609D02*
X115285Y043769D01*
X115445D01*
X115365Y043609D01*
X112452Y043144D02*
X112492Y043184D01*
X112532D01*
X112492Y043224D01*
X112532Y043264D01*
X112492D01*
X112452Y043304D01*
X112412Y043264D01*
X112372D01*
X112412Y043224D01*
X112372Y043184D01*
X112412D01*
X112452Y043144D01*
X114203Y043361D02*
X114243Y043441D01*
X114203Y043521D01*
X114283Y043481D01*
X114363Y043521D01*
X114323Y043441D01*
X114363Y043361D01*
X114283Y043401D01*
X114203Y043361D01*
Y044857D02*
X114243Y044937D01*
X114203Y045017D01*
X114283Y044977D01*
X114363Y045017D01*
X114323Y044937D01*
X114363Y044857D01*
X114283Y044897D01*
X114203Y044857D01*
X11051Y05456D02*
Y05452D01*
X11059D01*
Y05456D01*
X11063D01*
Y05464D01*
X11059D01*
Y05468D01*
X11051D01*
Y05464D01*
X11047D01*
Y05456D01*
X11051D01*
Y05256D02*
Y05252D01*
X11059D01*
Y05256D01*
X11063D01*
Y05264D01*
X11059D01*
Y05268D01*
X11051D01*
Y05264D01*
X11047D01*
Y05256D01*
X11051D01*
Y05056D02*
Y05052D01*
X11059D01*
Y05056D01*
X11063D01*
Y05064D01*
X11059D01*
Y05068D01*
X11051D01*
Y05064D01*
X11047D01*
Y05056D01*
X11051D01*
Y04856D02*
Y04852D01*
X11059D01*
Y04856D01*
X11063D01*
Y04864D01*
X11059D01*
Y04868D01*
X11051D01*
Y04864D01*
X11047D01*
Y04856D01*
X11051D01*
Y04656D02*
Y04652D01*
X11059D01*
Y04656D01*
X11063D01*
Y04664D01*
X11059D01*
Y04668D01*
X11051D01*
Y04664D01*
X11047D01*
Y04656D01*
X11051D01*
Y04556D02*
Y04552D01*
X11059D01*
Y04556D01*
X11063D01*
Y04564D01*
X11059D01*
Y04568D01*
X11051D01*
Y04564D01*
X11047D01*
Y04556D01*
X11051D01*
Y04456D02*
Y04452D01*
X11059D01*
Y04456D01*
X11063D01*
Y04464D01*
X11059D01*
Y04468D01*
X11051D01*
Y04464D01*
X11047D01*
Y04456D01*
X11051D01*
Y04356D02*
Y04352D01*
X11059D01*
Y04356D01*
X11063D01*
Y04364D01*
X11059D01*
Y04368D01*
X11051D01*
Y04364D01*
X11047D01*
Y04356D01*
X11051D01*
Y04756D02*
Y04752D01*
X11059D01*
Y04756D01*
X11063D01*
Y04764D01*
X11059D01*
Y04768D01*
X11051D01*
Y04764D01*
X11047D01*
Y04756D01*
X11051D01*
Y04956D02*
Y04952D01*
X11059D01*
Y04956D01*
X11063D01*
Y04964D01*
X11059D01*
Y04968D01*
X11051D01*
Y04964D01*
X11047D01*
Y04956D01*
X11051D01*
Y05156D02*
Y05152D01*
X11059D01*
Y05156D01*
X11063D01*
Y05164D01*
X11059D01*
Y05168D01*
X11051D01*
Y05164D01*
X11047D01*
Y05156D01*
X11051D01*
Y05356D02*
Y05352D01*
X11059D01*
Y05356D01*
X11063D01*
Y05364D01*
X11059D01*
Y05368D01*
X11051D01*
Y05364D01*
X11047D01*
Y05356D01*
X11051D01*
X1132Y04169D02*
X11312Y04185D01*
X11328D01*
X1132Y04169D01*
Y04069D02*
X11312Y04085D01*
X11328D01*
X1132Y04069D01*
X115365Y04169D02*
X115285Y04185D01*
X115445D01*
X115365Y04169D01*
Y04069D02*
X115285Y04085D01*
X115445D01*
X115365Y04069D01*
X112452Y040226D02*
X112492Y040266D01*
X112532D01*
X112492Y040306D01*
X112532Y040346D01*
X112492D01*
X112452Y040386D01*
X112412Y040346D01*
X112372D01*
X112412Y040306D01*
X112372Y040266D01*
X112412D01*
X112452Y040226D01*
X114203Y040442D02*
X114243Y040522D01*
X114203Y040602D01*
X114283Y040562D01*
X114363Y040602D01*
X114323Y040522D01*
X114363Y040442D01*
X114283Y040482D01*
X114203Y040442D01*
Y041939D02*
X114243Y042018D01*
X114203Y042098D01*
X114283Y042059D01*
X114363Y042098D01*
X114323Y042018D01*
X114363Y041939D01*
X114283Y041979D01*
X114203Y041939D01*
X1132Y038772D02*
X11312Y038932D01*
X11328D01*
X1132Y038772D01*
Y037772D02*
X11312Y037932D01*
X11328D01*
X1132Y037772D01*
X115365Y038772D02*
X115285Y038932D01*
X115445D01*
X115365Y038772D01*
Y037772D02*
X115285Y037932D01*
X115445D01*
X115365Y037772D01*
X112452Y037307D02*
X112492Y037347D01*
X112532D01*
X112492Y037387D01*
X112532Y037427D01*
X112492D01*
X112452Y037467D01*
X112412Y037427D01*
X112372D01*
X112412Y037387D01*
X112372Y037347D01*
X112412D01*
X112452Y037307D01*
X114203Y037524D02*
X114243Y037604D01*
X114203Y037684D01*
X114283Y037644D01*
X114363Y037684D01*
X114323Y037604D01*
X114363Y037524D01*
X114283Y037564D01*
X114203Y037524D01*
Y03902D02*
X114243Y0391D01*
X114203Y03918D01*
X114283Y03914D01*
X114363Y03918D01*
X114323Y0391D01*
X114363Y03902D01*
X114283Y03906D01*
X114203Y03902D01*
X1132Y053364D02*
X11312Y053524D01*
X11328D01*
X1132Y053364D01*
Y052364D02*
X11312Y052524D01*
X11328D01*
X1132Y052364D01*
X115365Y053364D02*
X115285Y053524D01*
X115445D01*
X115365Y053364D01*
Y052364D02*
X115285Y052524D01*
X115445D01*
X115365Y052364D01*
X112452Y0519D02*
X112492Y05194D01*
X112532D01*
X112492Y05198D01*
X112532Y05202D01*
X112492D01*
X112452Y05206D01*
X112412Y05202D01*
X112372D01*
X112412Y05198D01*
X112372Y05194D01*
X112412D01*
X112452Y0519D01*
X114203Y052116D02*
X114243Y052196D01*
X114203Y052276D01*
X114283Y052236D01*
X114363Y052276D01*
X114323Y052196D01*
X114363Y052116D01*
X114283Y052156D01*
X114203Y052116D01*
Y053613D02*
X114243Y053693D01*
X114203Y053773D01*
X114283Y053733D01*
X114363Y053773D01*
X114323Y053693D01*
X114363Y053613D01*
X114283Y053653D01*
X114203Y053613D01*
X1132Y050446D02*
X11312Y050606D01*
X11328D01*
X1132Y050446D01*
Y049446D02*
X11312Y049606D01*
X11328D01*
X1132Y049446D01*
X115365Y050446D02*
X115285Y050606D01*
X115445D01*
X115365Y050446D01*
Y049446D02*
X115285Y049606D01*
X115445D01*
X115365Y049446D01*
X112452Y048981D02*
X112492Y049021D01*
X112532D01*
X112492Y049061D01*
X112532Y049101D01*
X112492D01*
X112452Y049141D01*
X112412Y049101D01*
X112372D01*
X112412Y049061D01*
X112372Y049021D01*
X112412D01*
X112452Y048981D01*
X114203Y049198D02*
X114243Y049278D01*
X114203Y049358D01*
X114283Y049318D01*
X114363Y049358D01*
X114323Y049278D01*
X114363Y049198D01*
X114283Y049238D01*
X114203Y049198D01*
Y050694D02*
X114243Y050774D01*
X114203Y050854D01*
X114283Y050814D01*
X114363Y050854D01*
X114323Y050774D01*
X114363Y050694D01*
X114283Y050734D01*
X114203Y050694D01*
X1132Y047527D02*
X11312Y047687D01*
X11328D01*
X1132Y047527D01*
Y046527D02*
X11312Y046687D01*
X11328D01*
X1132Y046527D01*
X115365Y047527D02*
X115285Y047687D01*
X115445D01*
X115365Y047527D01*
Y046527D02*
X115285Y046687D01*
X115445D01*
X115365Y046527D01*
X112452Y046063D02*
X112492Y046103D01*
X112532D01*
X112492Y046143D01*
X112532Y046183D01*
X112492D01*
X112452Y046223D01*
X112412Y046183D01*
X112372D01*
X112412Y046143D01*
X112372Y046103D01*
X112412D01*
X112452Y046063D01*
X114203Y046279D02*
X114243Y046359D01*
X114203Y046439D01*
X114283Y046399D01*
X114363Y046439D01*
X114323Y046359D01*
X114363Y046279D01*
X114283Y046319D01*
X114203Y046279D01*
Y047776D02*
X114243Y047856D01*
X114203Y047936D01*
X114283Y047896D01*
X114363Y047936D01*
X114323Y047856D01*
X114363Y047776D01*
X114283Y047816D01*
X114203Y047776D01*
X11325Y06212D02*
X11317Y06228D01*
X11333D01*
X11325Y06212D01*
Y06112D02*
X11317Y06128D01*
X11333D01*
X11325Y06112D01*
X115415Y06212D02*
X115335Y06228D01*
X115495D01*
X115415Y06212D01*
Y06112D02*
X115335Y06128D01*
X115495D01*
X115415Y06112D01*
X112502Y060655D02*
X112542Y060695D01*
X112582D01*
X112542Y060735D01*
X112582Y060775D01*
X112542D01*
X112502Y060815D01*
X112462Y060775D01*
X112422D01*
X112462Y060735D01*
X112422Y060695D01*
X112462D01*
X112502Y060655D01*
X114253Y060872D02*
X114293Y060952D01*
X114253Y061032D01*
X114333Y060992D01*
X114413Y061032D01*
X114373Y060952D01*
X114413Y060872D01*
X114333Y060912D01*
X114253Y060872D01*
Y062368D02*
X114293Y062448D01*
X114253Y062528D01*
X114333Y062488D01*
X114413Y062528D01*
X114373Y062448D01*
X114413Y062368D01*
X114333Y062408D01*
X114253Y062368D01*
X11325Y059201D02*
X11317Y059361D01*
X11333D01*
X11325Y059201D01*
Y058201D02*
X11317Y058361D01*
X11333D01*
X11325Y058201D01*
X115415Y059201D02*
X115335Y059361D01*
X115495D01*
X115415Y059201D01*
Y058201D02*
X115335Y058361D01*
X115495D01*
X115415Y058201D01*
X112502Y057737D02*
X112542Y057777D01*
X112582D01*
X112542Y057817D01*
X112582Y057857D01*
X112542D01*
X112502Y057897D01*
X112462Y057857D01*
X112422D01*
X112462Y057817D01*
X112422Y057777D01*
X112462D01*
X112502Y057737D01*
X114253Y057953D02*
X114293Y058033D01*
X114253Y058113D01*
X114333Y058073D01*
X114413Y058113D01*
X114373Y058033D01*
X114413Y057953D01*
X114333Y057993D01*
X114253Y057953D01*
Y05945D02*
X114293Y05953D01*
X114253Y05961D01*
X114333Y05957D01*
X114413Y05961D01*
X114373Y05953D01*
X114413Y05945D01*
X114333Y05949D01*
X114253Y05945D01*
X1132Y056283D02*
X11312Y056443D01*
X11328D01*
X1132Y056283D01*
Y055283D02*
X11312Y055443D01*
X11328D01*
X1132Y055283D01*
X115365Y056283D02*
X115285Y056443D01*
X115445D01*
X115365Y056283D01*
Y055283D02*
X115285Y055443D01*
X115445D01*
X115365Y055283D01*
X112452Y054818D02*
X112492Y054858D01*
X112532D01*
X112492Y054898D01*
X112532Y054938D01*
X112492D01*
X112452Y054978D01*
X112412Y054938D01*
X112372D01*
X112412Y054898D01*
X112372Y054858D01*
X112412D01*
X112452Y054818D01*
X114203Y055035D02*
X114243Y055115D01*
X114203Y055195D01*
X114283Y055155D01*
X114363Y055195D01*
X114323Y055115D01*
X114363Y055035D01*
X114283Y055075D01*
X114203Y055035D01*
Y056531D02*
X114243Y056611D01*
X114203Y056691D01*
X114283Y056651D01*
X114363Y056691D01*
X114323Y056611D01*
X114363Y056531D01*
X114283Y056571D01*
X114203Y056531D01*
X10147Y05457D02*
X10151D01*
X10155Y05461D01*
X10159Y05457D01*
X10163D01*
Y05461D01*
X10159Y05465D01*
X10163Y05469D01*
Y05473D01*
X10159D01*
X10155Y05469D01*
X10151Y05473D01*
X10147D01*
Y05469D01*
X10151Y05465D01*
X10147Y05461D01*
Y05457D01*
X10397D02*
X10401D01*
X10405Y05461D01*
X10409Y05457D01*
X10413D01*
Y05461D01*
X10409Y05465D01*
X10413Y05469D01*
Y05473D01*
X10409D01*
X10405Y05469D01*
X10401Y05473D01*
X10397D01*
Y05469D01*
X10401Y05465D01*
X10397Y05461D01*
Y05457D01*
X10247Y05657D02*
X10251D01*
X10255Y05661D01*
X10259Y05657D01*
X10263D01*
Y05661D01*
X10259Y05665D01*
X10263Y05669D01*
Y05673D01*
X10259D01*
X10255Y05669D01*
X10251Y05673D01*
X10247D01*
Y05669D01*
X10251Y05665D01*
X10247Y05661D01*
Y05657D01*
X09982Y0619D02*
X0999Y06198D01*
X09998Y0619D01*
X0999Y06182D01*
X09982Y0619D01*
Y05365D02*
X0999Y05373D01*
X09998Y05365D01*
X0999Y05357D01*
X09982Y05365D01*
X10192Y06357D02*
Y06373D01*
X10208D01*
Y06357D01*
X10192D01*
X10196Y06361D02*
Y06369D01*
X10204D01*
Y06361D01*
X10196D01*
X10092Y06357D02*
Y06373D01*
X10108D01*
Y06357D01*
X10092D01*
X10096Y06361D02*
Y06369D01*
X10104D01*
Y06361D01*
X10096D01*
X09992Y06357D02*
Y06373D01*
X10008D01*
Y06357D01*
X09992D01*
X09996Y06361D02*
Y06369D01*
X10004D01*
Y06361D01*
X09996D01*
X093835Y06926D02*
Y06922D01*
X093915D01*
Y06926D01*
X093955D01*
Y06934D01*
X093915D01*
Y06938D01*
X093835D01*
Y06934D01*
X093795D01*
Y06926D01*
X093835D01*
X095835D02*
Y06922D01*
X095915D01*
Y06926D01*
X095955D01*
Y06934D01*
X095915D01*
Y06938D01*
X095835D01*
Y06934D01*
X095795D01*
Y06926D01*
X095835D01*
X097835D02*
Y06922D01*
X097915D01*
Y06926D01*
X097955D01*
Y06934D01*
X097915D01*
Y06938D01*
X097835D01*
Y06934D01*
X097795D01*
Y06926D01*
X097835D01*
X099835D02*
Y06922D01*
X099915D01*
Y06926D01*
X099955D01*
Y06934D01*
X099915D01*
Y06938D01*
X099835D01*
Y06934D01*
X099795D01*
Y06926D01*
X099835D01*
X101835D02*
Y06922D01*
X101915D01*
Y06926D01*
X101955D01*
Y06934D01*
X101915D01*
Y06938D01*
X101835D01*
Y06934D01*
X101795D01*
Y06926D01*
X101835D01*
X102835D02*
Y06922D01*
X102915D01*
Y06926D01*
X102955D01*
Y06934D01*
X102915D01*
Y06938D01*
X102835D01*
Y06934D01*
X102795D01*
Y06926D01*
X102835D01*
X103835D02*
Y06922D01*
X103915D01*
Y06926D01*
X103955D01*
Y06934D01*
X103915D01*
Y06938D01*
X103835D01*
Y06934D01*
X103795D01*
Y06926D01*
X103835D01*
X104835D02*
Y06922D01*
X104915D01*
Y06926D01*
X104955D01*
Y06934D01*
X104915D01*
Y06938D01*
X104835D01*
Y06934D01*
X104795D01*
Y06926D01*
X104835D01*
X100835D02*
Y06922D01*
X100915D01*
Y06926D01*
X100955D01*
Y06934D01*
X100915D01*
Y06938D01*
X100835D01*
Y06934D01*
X100795D01*
Y06926D01*
X100835D01*
X098835D02*
Y06922D01*
X098915D01*
Y06926D01*
X098955D01*
Y06934D01*
X098915D01*
Y06938D01*
X098835D01*
Y06934D01*
X098795D01*
Y06926D01*
X098835D01*
X096835D02*
Y06922D01*
X096915D01*
Y06926D01*
X096955D01*
Y06934D01*
X096915D01*
Y06938D01*
X096835D01*
Y06934D01*
X096795D01*
Y06926D01*
X096835D01*
X094835D02*
Y06922D01*
X094915D01*
Y06926D01*
X094955D01*
Y06934D01*
X094915D01*
Y06938D01*
X094835D01*
Y06934D01*
X094795D01*
Y06926D01*
X094835D01*
X10616Y048385D02*
Y048345D01*
X10624D01*
Y048385D01*
X10628D01*
Y048465D01*
X10624D01*
Y048505D01*
X10616D01*
Y048465D01*
X10612D01*
Y048385D01*
X10616D01*
Y046385D02*
Y046345D01*
X10624D01*
Y046385D01*
X10628D01*
Y046465D01*
X10624D01*
Y046505D01*
X10616D01*
Y046465D01*
X10612D01*
Y046385D01*
X10616D01*
Y044385D02*
Y044345D01*
X10624D01*
Y044385D01*
X10628D01*
Y044465D01*
X10624D01*
Y044505D01*
X10616D01*
Y044465D01*
X10612D01*
Y044385D01*
X10616D01*
Y040385D02*
Y040345D01*
X10624D01*
Y040385D01*
X10628D01*
Y040465D01*
X10624D01*
Y040505D01*
X10616D01*
Y040465D01*
X10612D01*
Y040385D01*
X10616D01*
Y041385D02*
Y041345D01*
X10624D01*
Y041385D01*
X10628D01*
Y041465D01*
X10624D01*
Y041505D01*
X10616D01*
Y041465D01*
X10612D01*
Y041385D01*
X10616D01*
Y042385D02*
Y042345D01*
X10624D01*
Y042385D01*
X10628D01*
Y042465D01*
X10624D01*
Y042505D01*
X10616D01*
Y042465D01*
X10612D01*
Y042385D01*
X10616D01*
Y043385D02*
Y043345D01*
X10624D01*
Y043385D01*
X10628D01*
Y043465D01*
X10624D01*
Y043505D01*
X10616D01*
Y043465D01*
X10612D01*
Y043385D01*
X10616D01*
Y045385D02*
Y045345D01*
X10624D01*
Y045385D01*
X10628D01*
Y045465D01*
X10624D01*
Y045505D01*
X10616D01*
Y045465D01*
X10612D01*
Y045385D01*
X10616D01*
Y047385D02*
Y047345D01*
X10624D01*
Y047385D01*
X10628D01*
Y047465D01*
X10624D01*
Y047505D01*
X10616D01*
Y047465D01*
X10612D01*
Y047385D01*
X10616D01*
Y049385D02*
Y049345D01*
X10624D01*
Y049385D01*
X10628D01*
Y049465D01*
X10624D01*
Y049505D01*
X10616D01*
Y049465D01*
X10612D01*
Y049385D01*
X10616D01*
X08671Y041385D02*
Y041345D01*
X08679D01*
Y041385D01*
X08683D01*
Y041465D01*
X08679D01*
Y041505D01*
X08671D01*
Y041465D01*
X08667D01*
Y041385D01*
X08671D01*
Y043385D02*
Y043345D01*
X08679D01*
Y043385D01*
X08683D01*
Y043465D01*
X08679D01*
Y043505D01*
X08671D01*
Y043465D01*
X08667D01*
Y043385D01*
X08671D01*
Y045385D02*
Y045345D01*
X08679D01*
Y045385D01*
X08683D01*
Y045465D01*
X08679D01*
Y045505D01*
X08671D01*
Y045465D01*
X08667D01*
Y045385D01*
X08671D01*
Y049385D02*
Y049345D01*
X08679D01*
Y049385D01*
X08683D01*
Y049465D01*
X08679D01*
Y049505D01*
X08671D01*
Y049465D01*
X08667D01*
Y049385D01*
X08671D01*
Y048385D02*
Y048345D01*
X08679D01*
Y048385D01*
X08683D01*
Y048465D01*
X08679D01*
Y048505D01*
X08671D01*
Y048465D01*
X08667D01*
Y048385D01*
X08671D01*
Y047385D02*
Y047345D01*
X08679D01*
Y047385D01*
X08683D01*
Y047465D01*
X08679D01*
Y047505D01*
X08671D01*
Y047465D01*
X08667D01*
Y047385D01*
X08671D01*
Y046385D02*
Y046345D01*
X08679D01*
Y046385D01*
X08683D01*
Y046465D01*
X08679D01*
Y046505D01*
X08671D01*
Y046465D01*
X08667D01*
Y046385D01*
X08671D01*
Y044385D02*
Y044345D01*
X08679D01*
Y044385D01*
X08683D01*
Y044465D01*
X08679D01*
Y044505D01*
X08671D01*
Y044465D01*
X08667D01*
Y044385D01*
X08671D01*
Y042385D02*
Y042345D01*
X08679D01*
Y042385D01*
X08683D01*
Y042465D01*
X08679D01*
Y042505D01*
X08671D01*
Y042465D01*
X08667D01*
Y042385D01*
X08671D01*
Y040385D02*
Y040345D01*
X08679D01*
Y040385D01*
X08683D01*
Y040465D01*
X08679D01*
Y040505D01*
X08671D01*
Y040465D01*
X08667D01*
Y040385D01*
X08671D01*
X08731Y05711D02*
Y05707D01*
X08739D01*
Y05711D01*
X08743D01*
Y05719D01*
X08739D01*
Y05723D01*
X08731D01*
Y05719D01*
X08727D01*
Y05711D01*
X08731D01*
Y05611D02*
Y05607D01*
X08739D01*
Y05611D01*
X08743D01*
Y05619D01*
X08739D01*
Y05623D01*
X08731D01*
Y05619D01*
X08727D01*
Y05611D01*
X08731D01*
Y05511D02*
Y05507D01*
X08739D01*
Y05511D01*
X08743D01*
Y05519D01*
X08739D01*
Y05523D01*
X08731D01*
Y05519D01*
X08727D01*
Y05511D01*
X08731D01*
Y05411D02*
Y05407D01*
X08739D01*
Y05411D01*
X08743D01*
Y05419D01*
X08739D01*
Y05423D01*
X08731D01*
Y05419D01*
X08727D01*
Y05411D01*
X08731D01*
X0907Y05962D02*
X09062Y05978D01*
X09078D01*
X0907Y05962D01*
Y05966D02*
X09066Y05974D01*
X09074D01*
X0907Y05966D01*
Y06162D02*
X09062Y06178D01*
X09078D01*
X0907Y06162D01*
Y06166D02*
X09066Y06174D01*
X09074D01*
X0907Y06166D01*
Y055217D02*
X09062Y055377D01*
X09078D01*
X0907Y055217D01*
Y055257D02*
X09066Y055337D01*
X09074D01*
X0907Y055257D01*
Y053217D02*
X09062Y053377D01*
X09078D01*
X0907Y053217D01*
Y053257D02*
X09066Y053337D01*
X09074D01*
X0907Y053257D01*
X088083Y06142D02*
Y06158D01*
X088243D01*
Y06142D01*
X088083D01*
X088123Y06146D02*
Y06154D01*
X088203D01*
Y06146D01*
X088123D01*
X088083Y06042D02*
Y06058D01*
X088243D01*
Y06042D01*
X088083D01*
X088123Y06046D02*
Y06054D01*
X088203D01*
Y06046D01*
X088123D01*
X088083Y05942D02*
Y05958D01*
X088243D01*
Y05942D01*
X088083D01*
X088123Y05946D02*
Y05954D01*
X088203D01*
Y05946D01*
X088123D01*
X10031Y03871D02*
Y03867D01*
X10039D01*
Y03871D01*
X10043D01*
Y03879D01*
X10039D01*
Y03883D01*
X10031D01*
Y03879D01*
X10027D01*
Y03871D01*
X10031D01*
X10131D02*
Y03867D01*
X10139D01*
Y03871D01*
X10143D01*
Y03879D01*
X10139D01*
Y03883D01*
X10131D01*
Y03879D01*
X10127D01*
Y03871D01*
X10131D01*
X10231D02*
Y03867D01*
X10239D01*
Y03871D01*
X10243D01*
Y03879D01*
X10239D01*
Y03883D01*
X10231D01*
Y03879D01*
X10227D01*
Y03871D01*
X10231D01*
X10331D02*
Y03867D01*
X10339D01*
Y03871D01*
X10343D01*
Y03879D01*
X10339D01*
Y03883D01*
X10331D01*
Y03879D01*
X10327D01*
Y03871D01*
X10331D01*
X09241Y03826D02*
Y03822D01*
X09249D01*
Y03826D01*
X09253D01*
Y03834D01*
X09249D01*
Y03838D01*
X09241D01*
Y03834D01*
X09237D01*
Y03826D01*
X09241D01*
X09141D02*
Y03822D01*
X09149D01*
Y03826D01*
X09153D01*
Y03834D01*
X09149D01*
Y03838D01*
X09141D01*
Y03834D01*
X09137D01*
Y03826D01*
X09141D01*
X09041D02*
Y03822D01*
X09049D01*
Y03826D01*
X09053D01*
Y03834D01*
X09049D01*
Y03838D01*
X09041D01*
Y03834D01*
X09037D01*
Y03826D01*
X09041D01*
X08941D02*
Y03822D01*
X08949D01*
Y03826D01*
X08953D01*
Y03834D01*
X08949D01*
Y03838D01*
X08941D01*
Y03834D01*
X08937D01*
Y03826D01*
X08941D01*
X116913Y070103D02*
X116953Y070143D01*
X116993D01*
X116953Y070183D01*
X116993Y070223D01*
X116953D01*
X116913Y070263D01*
X116873Y070223D01*
X116833D01*
X116873Y070183D01*
X116833Y070143D01*
X116873D01*
X116913Y070103D01*
Y070143D02*
X116933Y070163D01*
X116953D01*
X116933Y070183D01*
X116953Y070203D01*
X116933D01*
X116913Y070223D01*
X116893Y070203D01*
X116873D01*
X116893Y070183D01*
X116873Y070163D01*
X116893D01*
X116913Y070143D01*
X112145Y067709D02*
X112185Y067789D01*
X112145Y067869D01*
X112225Y067829D01*
X112305Y067869D01*
X112265Y067789D01*
X112305Y067709D01*
X112225Y067749D01*
X112145Y067709D01*
X112185Y067749D02*
X112205Y067789D01*
X112185Y067829D01*
X112225Y067809D01*
X112265Y067829D01*
X112245Y067789D01*
X112265Y067749D01*
X112225Y067769D01*
X112185Y067749D01*
X115294Y067709D02*
X115334Y067789D01*
X115294Y067869D01*
X115374Y067829D01*
X115454Y067869D01*
X115414Y067789D01*
X115454Y067709D01*
X115374Y067749D01*
X115294Y067709D01*
X115334Y067749D02*
X115354Y067789D01*
X115334Y067829D01*
X115374Y067809D01*
X115414Y067829D01*
X115394Y067789D01*
X115414Y067749D01*
X115374Y067769D01*
X115334Y067749D01*
X1086Y06422D02*
X10864Y06426D01*
X10868D01*
X10864Y0643D01*
X10868Y06434D01*
X10864D01*
X1086Y06438D01*
X10856Y06434D01*
X10852D01*
X10856Y0643D01*
X10852Y06426D01*
X10856D01*
X1086Y06422D01*
Y06426D02*
X10862Y06428D01*
X10864D01*
X10862Y0643D01*
X10864Y06432D01*
X10862D01*
X1086Y06434D01*
X10858Y06432D01*
X10856D01*
X10858Y0643D01*
X10856Y06428D01*
X10858D01*
X1086Y06426D01*
X118416Y06422D02*
X118456Y06426D01*
X118496D01*
X118456Y0643D01*
X118496Y06434D01*
X118456D01*
X118416Y06438D01*
X118376Y06434D01*
X118336D01*
X118376Y0643D01*
X118336Y06426D01*
X118376D01*
X118416Y06422D01*
Y06426D02*
X118436Y06428D01*
X118456D01*
X118436Y0643D01*
X118456Y06432D01*
X118436D01*
X118416Y06434D01*
X118396Y06432D01*
X118376D01*
X118396Y0643D01*
X118376Y06428D01*
X118396D01*
X118416Y06426D01*
X119796Y055123D02*
Y055083D01*
X119876D01*
Y055123D01*
X119916D01*
Y055203D01*
X119876D01*
Y055243D01*
X119796D01*
Y055203D01*
X119756D01*
Y055123D01*
X119796D01*
X119816Y055143D02*
Y055123D01*
X119856D01*
Y055143D01*
X119876D01*
Y055183D01*
X119856D01*
Y055203D01*
X119816D01*
Y055183D01*
X119796D01*
Y055143D01*
X119816D01*
X120269Y055123D02*
Y055083D01*
X120349D01*
Y055123D01*
X120389D01*
Y055203D01*
X120349D01*
Y055243D01*
X120269D01*
Y055203D01*
X120229D01*
Y055123D01*
X120269D01*
X120289Y055143D02*
Y055123D01*
X120329D01*
Y055143D01*
X120349D01*
Y055183D01*
X120329D01*
Y055203D01*
X120289D01*
Y055183D01*
X120269D01*
Y055143D01*
X120289D01*
X119796Y054651D02*
Y054611D01*
X119876D01*
Y054651D01*
X119916D01*
Y054731D01*
X119876D01*
Y054771D01*
X119796D01*
Y054731D01*
X119756D01*
Y054651D01*
X119796D01*
X119816Y054671D02*
Y054651D01*
X119856D01*
Y054671D01*
X119876D01*
Y054711D01*
X119856D01*
Y054731D01*
X119816D01*
Y054711D01*
X119796D01*
Y054671D01*
X119816D01*
X120269Y054651D02*
Y054611D01*
X120349D01*
Y054651D01*
X120389D01*
Y054731D01*
X120349D01*
Y054771D01*
X120269D01*
Y054731D01*
X120229D01*
Y054651D01*
X120269D01*
X120289Y054671D02*
Y054651D01*
X120329D01*
Y054671D01*
X120349D01*
Y054711D01*
X120329D01*
Y054731D01*
X120289D01*
Y054711D01*
X120269D01*
Y054671D01*
X120289D01*
X1086Y03672D02*
X10864Y03676D01*
X10868D01*
X10864Y0368D01*
X10868Y03684D01*
X10864D01*
X1086Y03688D01*
X10856Y03684D01*
X10852D01*
X10856Y0368D01*
X10852Y03676D01*
X10856D01*
X1086Y03672D01*
Y03676D02*
X10862Y03678D01*
X10864D01*
X10862Y0368D01*
X10864Y03682D01*
X10862D01*
X1086Y03684D01*
X10858Y03682D01*
X10856D01*
X10858Y0368D01*
X10856Y03678D01*
X10858D01*
X1086Y03676D01*
Y063413D02*
X10864Y063453D01*
X10868D01*
X10864Y063493D01*
X10868Y063533D01*
X10864D01*
X1086Y063573D01*
X10856Y063533D01*
X10852D01*
X10856Y063493D01*
X10852Y063453D01*
X10856D01*
X1086Y063413D01*
Y063453D02*
X10862Y063473D01*
X10864D01*
X10862Y063493D01*
X10864Y063513D01*
X10862D01*
X1086Y063533D01*
X10858Y063513D01*
X10856D01*
X10858Y063493D01*
X10856Y063473D01*
X10858D01*
X1086Y063453D01*
X118537Y036733D02*
X118577Y036773D01*
X118617D01*
X118577Y036813D01*
X118617Y036853D01*
X118577D01*
X118537Y036893D01*
X118497Y036853D01*
X118457D01*
X118497Y036813D01*
X118457Y036773D01*
X118497D01*
X118537Y036733D01*
Y036773D02*
X118557Y036793D01*
X118577D01*
X118557Y036813D01*
X118577Y036833D01*
X118557D01*
X118537Y036853D01*
X118517Y036833D01*
X118497D01*
X118517Y036813D01*
X118497Y036793D01*
X118517D01*
X118537Y036773D01*
X10972Y03752D02*
X10976D01*
X1098Y03756D01*
X10984Y03752D01*
X10988D01*
Y03756D01*
X10984Y0376D01*
X10988Y03764D01*
Y03768D01*
X10984D01*
X1098Y03764D01*
X10976Y03768D01*
X10972D01*
Y03764D01*
X10976Y0376D01*
X10972Y03756D01*
Y03752D01*
X10976Y03756D02*
X10978D01*
X1098Y03758D01*
X10982Y03756D01*
X10984D01*
Y03758D01*
X10982Y0376D01*
X10984Y03762D01*
Y03764D01*
X10982D01*
X1098Y03762D01*
X10978Y03764D01*
X10976D01*
Y03762D01*
X10978Y0376D01*
X10976Y03758D01*
Y03756D01*
X1086Y070575D02*
X10864Y070615D01*
X10868D01*
X10864Y070655D01*
X10868Y070695D01*
X10864D01*
X1086Y070735D01*
X10856Y070695D01*
X10852D01*
X10856Y070655D01*
X10852Y070615D01*
X10856D01*
X1086Y070575D01*
Y070615D02*
X10862Y070635D01*
X10864D01*
X10862Y070655D01*
X10864Y070675D01*
X10862D01*
X1086Y070695D01*
X10858Y070675D01*
X10856D01*
X10858Y070655D01*
X10856Y070635D01*
X10858D01*
X1086Y070615D01*
X119975Y059262D02*
X120015Y059302D01*
X120055D01*
X120015Y059342D01*
X120055Y059382D01*
X120015D01*
X119975Y059422D01*
X119935Y059382D01*
X119895D01*
X119935Y059342D01*
X119895Y059302D01*
X119935D01*
X119975Y059262D01*
Y059302D02*
X119995Y059322D01*
X120015D01*
X119995Y059342D01*
X120015Y059362D01*
X119995D01*
X119975Y059382D01*
X119955Y059362D01*
X119935D01*
X119955Y059342D01*
X119935Y059322D01*
X119955D01*
X119975Y059302D01*
X120025Y057053D02*
X120065Y057093D01*
X120105D01*
X120065Y057133D01*
X120105Y057173D01*
X120065D01*
X120025Y057213D01*
X119985Y057173D01*
X119945D01*
X119985Y057133D01*
X119945Y057093D01*
X119985D01*
X120025Y057053D01*
Y057093D02*
X120045Y057113D01*
X120065D01*
X120045Y057133D01*
X120065Y057153D01*
X120045D01*
X120025Y057173D01*
X120005Y057153D01*
X119985D01*
X120005Y057133D01*
X119985Y057113D01*
X120005D01*
X120025Y057093D01*
X121616Y057053D02*
X121656Y057093D01*
X121696D01*
X121656Y057133D01*
X121696Y057173D01*
X121656D01*
X121616Y057213D01*
X121576Y057173D01*
X121536D01*
X121576Y057133D01*
X121536Y057093D01*
X121576D01*
X121616Y057053D01*
Y057093D02*
X121636Y057113D01*
X121656D01*
X121636Y057133D01*
X121656Y057153D01*
X121636D01*
X121616Y057173D01*
X121596Y057153D01*
X121576D01*
X121596Y057133D01*
X121576Y057113D01*
X121596D01*
X121616Y057093D01*
X121625Y059253D02*
X121665Y059293D01*
X121705D01*
X121665Y059333D01*
X121705Y059373D01*
X121665D01*
X121625Y059413D01*
X121585Y059373D01*
X121545D01*
X121585Y059333D01*
X121545Y059293D01*
X121585D01*
X121625Y059253D01*
Y059293D02*
X121645Y059313D01*
X121665D01*
X121645Y059333D01*
X121665Y059353D01*
X121645D01*
X121625Y059373D01*
X121605Y059353D01*
X121585D01*
X121605Y059333D01*
X121585Y059313D01*
X121605D01*
X121625Y059293D01*
X122725Y058103D02*
X122765Y058143D01*
X122805D01*
X122765Y058183D01*
X122805Y058223D01*
X122765D01*
X122725Y058263D01*
X122685Y058223D01*
X122645D01*
X122685Y058183D01*
X122645Y058143D01*
X122685D01*
X122725Y058103D01*
Y058143D02*
X122745Y058163D01*
X122765D01*
X122745Y058183D01*
X122765Y058203D01*
X122745D01*
X122725Y058223D01*
X122705Y058203D01*
X122685D01*
X122705Y058183D01*
X122685Y058163D01*
X122705D01*
X122725Y058143D01*
Y061103D02*
X122765Y061143D01*
X122805D01*
X122765Y061183D01*
X122805Y061223D01*
X122765D01*
X122725Y061263D01*
X122685Y061223D01*
X122645D01*
X122685Y061183D01*
X122645Y061143D01*
X122685D01*
X122725Y061103D01*
Y061143D02*
X122745Y061163D01*
X122765D01*
X122745Y061183D01*
X122765Y061203D01*
X122745D01*
X122725Y061223D01*
X122705Y061203D01*
X122685D01*
X122705Y061183D01*
X122685Y061163D01*
X122705D01*
X122725Y061143D01*
X12164Y061253D02*
X12168Y061293D01*
X12172D01*
X12168Y061333D01*
X12172Y061373D01*
X12168D01*
X12164Y061413D01*
X1216Y061373D01*
X12156D01*
X1216Y061333D01*
X12156Y061293D01*
X1216D01*
X12164Y061253D01*
Y061293D02*
X12166Y061313D01*
X12168D01*
X12166Y061333D01*
X12168Y061353D01*
X12166D01*
X12164Y061373D01*
X12162Y061353D01*
X1216D01*
X12162Y061333D01*
X1216Y061313D01*
X12162D01*
X12164Y061293D01*
X120007Y061253D02*
X120047Y061293D01*
X120087D01*
X120047Y061333D01*
X120087Y061373D01*
X120047D01*
X120007Y061413D01*
X119967Y061373D01*
X119927D01*
X119967Y061333D01*
X119927Y061293D01*
X119967D01*
X120007Y061253D01*
Y061293D02*
X120027Y061313D01*
X120047D01*
X120027Y061333D01*
X120047Y061353D01*
X120027D01*
X120007Y061373D01*
X119987Y061353D01*
X119967D01*
X119987Y061333D01*
X119967Y061313D01*
X119987D01*
X120007Y061293D01*
X122375Y063453D02*
X122415Y063493D01*
X122455D01*
X122415Y063533D01*
X122455Y063573D01*
X122415D01*
X122375Y063613D01*
X122335Y063573D01*
X122295D01*
X122335Y063533D01*
X122295Y063493D01*
X122335D01*
X122375Y063453D01*
Y063493D02*
X122395Y063513D01*
X122415D01*
X122395Y063533D01*
X122415Y063553D01*
X122395D01*
X122375Y063573D01*
X122355Y063553D01*
X122335D01*
X122355Y063533D01*
X122335Y063513D01*
X122355D01*
X122375Y063493D01*
X123575Y063303D02*
X123615Y063343D01*
X123655D01*
X123615Y063383D01*
X123655Y063423D01*
X123615D01*
X123575Y063463D01*
X123535Y063423D01*
X123495D01*
X123535Y063383D01*
X123495Y063343D01*
X123535D01*
X123575Y063303D01*
Y063343D02*
X123595Y063363D01*
X123615D01*
X123595Y063383D01*
X123615Y063403D01*
X123595D01*
X123575Y063423D01*
X123555Y063403D01*
X123535D01*
X123555Y063383D01*
X123535Y063363D01*
X123555D01*
X123575Y063343D01*
X123638Y065303D02*
X123678Y065343D01*
X123717D01*
X123678Y065383D01*
X123717Y065423D01*
X123678D01*
X123638Y065463D01*
X123597Y065423D01*
X123558D01*
X123597Y065383D01*
X123558Y065343D01*
X123597D01*
X123638Y065303D01*
Y065343D02*
X123658Y065363D01*
X123678D01*
X123658Y065383D01*
X123678Y065403D01*
X123658D01*
X123638Y065423D01*
X123617Y065403D01*
X123597D01*
X123617Y065383D01*
X123597Y065363D01*
X123617D01*
X123638Y065343D01*
X122023Y063158D02*
X122063Y063198D01*
X122103D01*
X122063Y063238D01*
X122103Y063278D01*
X122063D01*
X122023Y063318D01*
X121983Y063278D01*
X121943D01*
X121983Y063238D01*
X121943Y063198D01*
X121983D01*
X122023Y063158D01*
Y063198D02*
X122043Y063218D01*
X122063D01*
X122043Y063238D01*
X122063Y063258D01*
X122043D01*
X122023Y063278D01*
X122003Y063258D01*
X121983D01*
X122003Y063238D01*
X121983Y063218D01*
X122003D01*
X122023Y063198D01*
X119975Y062745D02*
X120015Y062785D01*
X120055D01*
X120015Y062825D01*
X120055Y062865D01*
X120015D01*
X119975Y062905D01*
X119935Y062865D01*
X119895D01*
X119935Y062825D01*
X119895Y062785D01*
X119935D01*
X119975Y062745D01*
Y062785D02*
X119995Y062805D01*
X120015D01*
X119995Y062825D01*
X120015Y062845D01*
X119995D01*
X119975Y062865D01*
X119955Y062845D01*
X119935D01*
X119955Y062825D01*
X119935Y062805D01*
X119955D01*
X119975Y062785D01*
X120003Y063825D02*
X120043Y063865D01*
X120083D01*
X120043Y063905D01*
X120083Y063945D01*
X120043D01*
X120003Y063985D01*
X119963Y063945D01*
X119923D01*
X119963Y063905D01*
X119923Y063865D01*
X119963D01*
X120003Y063825D01*
Y063865D02*
X120023Y063885D01*
X120043D01*
X120023Y063905D01*
X120043Y063925D01*
X120023D01*
X120003Y063945D01*
X119983Y063925D01*
X119963D01*
X119983Y063905D01*
X119963Y063885D01*
X119983D01*
X120003Y063865D01*
X121625Y065806D02*
X121665Y065846D01*
X121705D01*
X121665Y065886D01*
X121705Y065926D01*
X121665D01*
X121625Y065966D01*
X121585Y065926D01*
X121545D01*
X121585Y065886D01*
X121545Y065846D01*
X121585D01*
X121625Y065806D01*
Y065846D02*
X121645Y065866D01*
X121665D01*
X121645Y065886D01*
X121665Y065906D01*
X121645D01*
X121625Y065926D01*
X121605Y065906D01*
X121585D01*
X121605Y065886D01*
X121585Y065866D01*
X121605D01*
X121625Y065846D01*
X119988Y065806D02*
X120028Y065846D01*
X120068D01*
X120028Y065886D01*
X120068Y065926D01*
X120028D01*
X119988Y065966D01*
X119948Y065926D01*
X119908D01*
X119948Y065886D01*
X119908Y065846D01*
X119948D01*
X119988Y065806D01*
Y065846D02*
X120008Y065866D01*
X120028D01*
X120008Y065886D01*
X120028Y065906D01*
X120008D01*
X119988Y065926D01*
X119968Y065906D01*
X119948D01*
X119968Y065886D01*
X119948Y065866D01*
X119968D01*
X119988Y065846D01*
X120325Y066956D02*
X120365Y066996D01*
X120405D01*
X120365Y067036D01*
X120405Y067076D01*
X120365D01*
X120325Y067116D01*
X120285Y067076D01*
X120245D01*
X120285Y067036D01*
X120245Y066996D01*
X120285D01*
X120325Y066956D01*
Y066996D02*
X120345Y067016D01*
X120365D01*
X120345Y067036D01*
X120365Y067056D01*
X120345D01*
X120325Y067076D01*
X120305Y067056D01*
X120285D01*
X120305Y067036D01*
X120285Y067016D01*
X120305D01*
X120325Y066996D01*
X12035Y068103D02*
X12039Y068143D01*
X12043D01*
X12039Y068183D01*
X12043Y068223D01*
X12039D01*
X12035Y068263D01*
X12031Y068223D01*
X12027D01*
X12031Y068183D01*
X12027Y068143D01*
X12031D01*
X12035Y068103D01*
Y068143D02*
X12037Y068163D01*
X12039D01*
X12037Y068183D01*
X12039Y068203D01*
X12037D01*
X12035Y068223D01*
X12033Y068203D01*
X12031D01*
X12033Y068183D01*
X12031Y068163D01*
X12033D01*
X12035Y068143D01*
X123425Y068803D02*
X123465Y068843D01*
X123505D01*
X123465Y068883D01*
X123505Y068923D01*
X123465D01*
X123425Y068963D01*
X123385Y068923D01*
X123345D01*
X123385Y068883D01*
X123345Y068843D01*
X123385D01*
X123425Y068803D01*
Y068843D02*
X123445Y068863D01*
X123465D01*
X123445Y068883D01*
X123465Y068903D01*
X123445D01*
X123425Y068923D01*
X123405Y068903D01*
X123385D01*
X123405Y068883D01*
X123385Y068863D01*
X123405D01*
X123425Y068843D01*
X122425Y068803D02*
X122465Y068843D01*
X122505D01*
X122465Y068883D01*
X122505Y068923D01*
X122465D01*
X122425Y068963D01*
X122385Y068923D01*
X122345D01*
X122385Y068883D01*
X122345Y068843D01*
X122385D01*
X122425Y068803D01*
Y068843D02*
X122445Y068863D01*
X122465D01*
X122445Y068883D01*
X122465Y068903D01*
X122445D01*
X122425Y068923D01*
X122405Y068903D01*
X122385D01*
X122405Y068883D01*
X122385Y068863D01*
X122405D01*
X122425Y068843D01*
X121275Y068803D02*
X121315Y068843D01*
X121355D01*
X121315Y068883D01*
X121355Y068923D01*
X121315D01*
X121275Y068963D01*
X121235Y068923D01*
X121195D01*
X121235Y068883D01*
X121195Y068843D01*
X121235D01*
X121275Y068803D01*
Y068843D02*
X121295Y068863D01*
X121315D01*
X121295Y068883D01*
X121315Y068903D01*
X121295D01*
X121275Y068923D01*
X121255Y068903D01*
X121235D01*
X121255Y068883D01*
X121235Y068863D01*
X121255D01*
X121275Y068843D01*
X120188Y068753D02*
X120228Y068793D01*
X120268D01*
X120228Y068833D01*
X120268Y068873D01*
X120228D01*
X120188Y068913D01*
X120148Y068873D01*
X120108D01*
X120148Y068833D01*
X120108Y068793D01*
X120148D01*
X120188Y068753D01*
Y068793D02*
X120208Y068813D01*
X120228D01*
X120208Y068833D01*
X120228Y068853D01*
X120208D01*
X120188Y068873D01*
X120168Y068853D01*
X120148D01*
X120168Y068833D01*
X120148Y068813D01*
X120168D01*
X120188Y068793D01*
X119125Y068753D02*
X119165Y068793D01*
X119205D01*
X119165Y068833D01*
X119205Y068873D01*
X119165D01*
X119125Y068913D01*
X119085Y068873D01*
X119045D01*
X119085Y068833D01*
X119045Y068793D01*
X119085D01*
X119125Y068753D01*
Y068793D02*
X119145Y068813D01*
X119165D01*
X119145Y068833D01*
X119165Y068853D01*
X119145D01*
X119125Y068873D01*
X119105Y068853D01*
X119085D01*
X119105Y068833D01*
X119085Y068813D01*
X119105D01*
X119125Y068793D01*
X122325Y059603D02*
X122365Y059643D01*
X122405D01*
X122365Y059683D01*
X122405Y059723D01*
X122365D01*
X122325Y059763D01*
X122285Y059723D01*
X122245D01*
X122285Y059683D01*
X122245Y059643D01*
X122285D01*
X122325Y059603D01*
Y059643D02*
X122345Y059663D01*
X122365D01*
X122345Y059683D01*
X122365Y059703D01*
X122345D01*
X122325Y059723D01*
X122305Y059703D01*
X122285D01*
X122305Y059683D01*
X122285Y059663D01*
X122305D01*
X122325Y059643D01*
X1211Y0378D02*
Y037933D01*
X121167Y038D01*
X121233Y037933D01*
Y0378D01*
Y0379D01*
X1211D01*
X10972Y06287D02*
X10976D01*
X1098Y06291D01*
X10984Y06287D01*
X10988D01*
Y06291D01*
X10984Y06295D01*
X10988Y06299D01*
Y06303D01*
X10984D01*
X1098Y06299D01*
X10976Y06303D01*
X10972D01*
Y06299D01*
X10976Y06295D01*
X10972Y06291D01*
Y06287D01*
X10976Y06291D02*
X10978D01*
X1098Y06293D01*
X10982Y06291D01*
X10984D01*
Y06293D01*
X10982Y06295D01*
X10984Y06297D01*
Y06299D01*
X10982D01*
X1098Y06297D01*
X10978Y06299D01*
X10976D01*
Y06297D01*
X10978Y06295D01*
X10976Y06293D01*
Y06291D01*
X11665Y039023D02*
X11669Y039063D01*
X11673D01*
X11669Y039103D01*
X11673Y039143D01*
X11669D01*
X11665Y039183D01*
X11661Y039143D01*
X11657D01*
X11661Y039103D01*
X11657Y039063D01*
X11661D01*
X11665Y039023D01*
Y039063D02*
X11667Y039083D01*
X11669D01*
X11667Y039103D01*
X11669Y039123D01*
X11667D01*
X11665Y039143D01*
X11663Y039123D01*
X11661D01*
X11663Y039103D01*
X11661Y039083D01*
X11663D01*
X11665Y039063D01*
X116659Y04962D02*
X116699Y04966D01*
X116739D01*
X116699Y0497D01*
X116739Y04974D01*
X116699D01*
X116659Y04978D01*
X116619Y04974D01*
X116579D01*
X116619Y0497D01*
X116579Y04966D01*
X116619D01*
X116659Y04962D01*
Y04966D02*
X116679Y04968D01*
X116699D01*
X116679Y0497D01*
X116699Y04972D01*
X116679D01*
X116659Y04974D01*
X116639Y04972D01*
X116619D01*
X116639Y0497D01*
X116619Y04968D01*
X116639D01*
X116659Y04966D01*
X11665Y06122D02*
X11669Y06126D01*
X11673D01*
X11669Y0613D01*
X11673Y06134D01*
X11669D01*
X11665Y06138D01*
X11661Y06134D01*
X11657D01*
X11661Y0613D01*
X11657Y06126D01*
X11661D01*
X11665Y06122D01*
Y06126D02*
X11667Y06128D01*
X11669D01*
X11667Y0613D01*
X11669Y06132D01*
X11667D01*
X11665Y06134D01*
X11663Y06132D01*
X11661D01*
X11663Y0613D01*
X11661Y06128D01*
X11663D01*
X11665Y06126D01*
X09625Y05482D02*
X09629Y05486D01*
X09633D01*
X09629Y0549D01*
X09633Y05494D01*
X09629D01*
X09625Y05498D01*
X09621Y05494D01*
X09617D01*
X09621Y0549D01*
X09617Y05486D01*
X09621D01*
X09625Y05482D01*
Y05486D02*
X09627Y05488D01*
X09629D01*
X09627Y0549D01*
X09629Y05492D01*
X09627D01*
X09625Y05494D01*
X09623Y05492D01*
X09621D01*
X09623Y0549D01*
X09621Y05488D01*
X09623D01*
X09625Y05486D01*
X1005Y04547D02*
X10054Y04551D01*
X10058D01*
X10054Y04555D01*
X10058Y04559D01*
X10054D01*
X1005Y04563D01*
X10046Y04559D01*
X10042D01*
X10046Y04555D01*
X10042Y04551D01*
X10046D01*
X1005Y04547D01*
Y04551D02*
X10052Y04553D01*
X10054D01*
X10052Y04555D01*
X10054Y04557D01*
X10052D01*
X1005Y04559D01*
X10048Y04557D01*
X10046D01*
X10048Y04555D01*
X10046Y04553D01*
X10048D01*
X1005Y04551D01*
X09945Y04547D02*
X09949Y04551D01*
X09953D01*
X09949Y04555D01*
X09953Y04559D01*
X09949D01*
X09945Y04563D01*
X09941Y04559D01*
X09937D01*
X09941Y04555D01*
X09937Y04551D01*
X09941D01*
X09945Y04547D01*
Y04551D02*
X09947Y04553D01*
X09949D01*
X09947Y04555D01*
X09949Y04557D01*
X09947D01*
X09945Y04559D01*
X09943Y04557D01*
X09941D01*
X09943Y04555D01*
X09941Y04553D01*
X09943D01*
X09945Y04551D01*
X09625Y04632D02*
X09629Y04636D01*
X09633D01*
X09629Y0464D01*
X09633Y04644D01*
X09629D01*
X09625Y04648D01*
X09621Y04644D01*
X09617D01*
X09621Y0464D01*
X09617Y04636D01*
X09621D01*
X09625Y04632D01*
Y04636D02*
X09627Y04638D01*
X09629D01*
X09627Y0464D01*
X09629Y04642D01*
X09627D01*
X09625Y04644D01*
X09623Y04642D01*
X09621D01*
X09623Y0464D01*
X09621Y04638D01*
X09623D01*
X09625Y04636D01*
Y04577D02*
X09629Y04581D01*
X09633D01*
X09629Y04585D01*
X09633Y04589D01*
X09629D01*
X09625Y04593D01*
X09621Y04589D01*
X09617D01*
X09621Y04585D01*
X09617Y04581D01*
X09621D01*
X09625Y04577D01*
Y04581D02*
X09627Y04583D01*
X09629D01*
X09627Y04585D01*
X09629Y04587D01*
X09627D01*
X09625Y04589D01*
X09623Y04587D01*
X09621D01*
X09623Y04585D01*
X09621Y04583D01*
X09623D01*
X09625Y04581D01*
Y04527D02*
X09629Y04531D01*
X09633D01*
X09629Y04535D01*
X09633Y04539D01*
X09629D01*
X09625Y04543D01*
X09621Y04539D01*
X09617D01*
X09621Y04535D01*
X09617Y04531D01*
X09621D01*
X09625Y04527D01*
Y04531D02*
X09627Y04533D01*
X09629D01*
X09627Y04535D01*
X09629Y04537D01*
X09627D01*
X09625Y04539D01*
X09623Y04537D01*
X09621D01*
X09623Y04535D01*
X09621Y04533D01*
X09623D01*
X09625Y04531D01*
Y04472D02*
X09629Y04476D01*
X09633D01*
X09629Y0448D01*
X09633Y04484D01*
X09629D01*
X09625Y04488D01*
X09621Y04484D01*
X09617D01*
X09621Y0448D01*
X09617Y04476D01*
X09621D01*
X09625Y04472D01*
Y04476D02*
X09627Y04478D01*
X09629D01*
X09627Y0448D01*
X09629Y04482D01*
X09627D01*
X09625Y04484D01*
X09623Y04482D01*
X09621D01*
X09623Y0448D01*
X09621Y04478D01*
X09623D01*
X09625Y04476D01*
Y04417D02*
X09629Y04421D01*
X09633D01*
X09629Y04425D01*
X09633Y04429D01*
X09629D01*
X09625Y04433D01*
X09621Y04429D01*
X09617D01*
X09621Y04425D01*
X09617Y04421D01*
X09621D01*
X09625Y04417D01*
Y04421D02*
X09627Y04423D01*
X09629D01*
X09627Y04425D01*
X09629Y04427D01*
X09627D01*
X09625Y04429D01*
X09623Y04427D01*
X09621D01*
X09623Y04425D01*
X09621Y04423D01*
X09623D01*
X09625Y04421D01*
X09685Y04417D02*
X09689Y04421D01*
X09693D01*
X09689Y04425D01*
X09693Y04429D01*
X09689D01*
X09685Y04433D01*
X09681Y04429D01*
X09677D01*
X09681Y04425D01*
X09677Y04421D01*
X09681D01*
X09685Y04417D01*
Y04421D02*
X09687Y04423D01*
X09689D01*
X09687Y04425D01*
X09689Y04427D01*
X09687D01*
X09685Y04429D01*
X09683Y04427D01*
X09681D01*
X09683Y04425D01*
X09681Y04423D01*
X09683D01*
X09685Y04421D01*
Y044707D02*
X09689Y044748D01*
X09693D01*
X09689Y044788D01*
X09693Y044827D01*
X09689D01*
X09685Y044868D01*
X09681Y044827D01*
X09677D01*
X09681Y044788D01*
X09677Y044748D01*
X09681D01*
X09685Y044707D01*
Y044748D02*
X09687Y044767D01*
X09689D01*
X09687Y044788D01*
X09689Y044808D01*
X09687D01*
X09685Y044827D01*
X09683Y044808D01*
X09681D01*
X09683Y044788D01*
X09681Y044767D01*
X09683D01*
X09685Y044748D01*
Y045245D02*
X09689Y045285D01*
X09693D01*
X09689Y045325D01*
X09693Y045365D01*
X09689D01*
X09685Y045405D01*
X09681Y045365D01*
X09677D01*
X09681Y045325D01*
X09677Y045285D01*
X09681D01*
X09685Y045245D01*
Y045285D02*
X09687Y045305D01*
X09689D01*
X09687Y045325D01*
X09689Y045345D01*
X09687D01*
X09685Y045365D01*
X09683Y045345D01*
X09681D01*
X09683Y045325D01*
X09681Y045305D01*
X09683D01*
X09685Y045285D01*
Y045782D02*
X09689Y045823D01*
X09693D01*
X09689Y045862D01*
X09693Y045903D01*
X09689D01*
X09685Y045943D01*
X09681Y045903D01*
X09677D01*
X09681Y045862D01*
X09677Y045823D01*
X09681D01*
X09685Y045782D01*
Y045823D02*
X09687Y045842D01*
X09689D01*
X09687Y045862D01*
X09689Y045883D01*
X09687D01*
X09685Y045903D01*
X09683Y045883D01*
X09681D01*
X09683Y045862D01*
X09681Y045842D01*
X09683D01*
X09685Y045823D01*
Y04632D02*
X09689Y04636D01*
X09693D01*
X09689Y0464D01*
X09693Y04644D01*
X09689D01*
X09685Y04648D01*
X09681Y04644D01*
X09677D01*
X09681Y0464D01*
X09677Y04636D01*
X09681D01*
X09685Y04632D01*
Y04636D02*
X09687Y04638D01*
X09689D01*
X09687Y0464D01*
X09689Y04642D01*
X09687D01*
X09685Y04644D01*
X09683Y04642D01*
X09681D01*
X09683Y0464D01*
X09681Y04638D01*
X09683D01*
X09685Y04636D01*
X097126Y057671D02*
X097166Y057711D01*
X097206D01*
X097166Y057751D01*
X097206Y057791D01*
X097166D01*
X097126Y057831D01*
X097086Y057791D01*
X097046D01*
X097086Y057751D01*
X097046Y057711D01*
X097086D01*
X097126Y057671D01*
Y057711D02*
X097146Y057731D01*
X097166D01*
X097146Y057751D01*
X097166Y057771D01*
X097146D01*
X097126Y057791D01*
X097106Y057771D01*
X097086D01*
X097106Y057751D01*
X097086Y057731D01*
X097106D01*
X097126Y057711D01*
X0932Y04547D02*
X09324Y04551D01*
X09328D01*
X09324Y04555D01*
X09328Y04559D01*
X09324D01*
X0932Y04563D01*
X09316Y04559D01*
X09312D01*
X09316Y04555D01*
X09312Y04551D01*
X09316D01*
X0932Y04547D01*
Y04551D02*
X09322Y04553D01*
X09324D01*
X09322Y04555D01*
X09324Y04557D01*
X09322D01*
X0932Y04559D01*
X09318Y04557D01*
X09316D01*
X09318Y04555D01*
X09316Y04553D01*
X09318D01*
X0932Y04551D01*
X09215Y04547D02*
X09219Y04551D01*
X09223D01*
X09219Y04555D01*
X09223Y04559D01*
X09219D01*
X09215Y04563D01*
X09211Y04559D01*
X09207D01*
X09211Y04555D01*
X09207Y04551D01*
X09211D01*
X09215Y04547D01*
Y04551D02*
X09217Y04553D01*
X09219D01*
X09217Y04555D01*
X09219Y04557D01*
X09217D01*
X09215Y04559D01*
X09213Y04557D01*
X09211D01*
X09213Y04555D01*
X09211Y04553D01*
X09213D01*
X09215Y04551D01*
X10245Y045395D02*
X10249Y045435D01*
X10253D01*
X10249Y045475D01*
X10253Y045515D01*
X10249D01*
X10245Y045555D01*
X10241Y045515D01*
X10237D01*
X10241Y045475D01*
X10237Y045435D01*
X10241D01*
X10245Y045395D01*
Y045435D02*
X10247Y045455D01*
X10249D01*
X10247Y045475D01*
X10249Y045495D01*
X10247D01*
X10245Y045515D01*
X10243Y045495D01*
X10241D01*
X10243Y045475D01*
X10241Y045455D01*
X10243D01*
X10245Y045435D01*
X103017Y045395D02*
X103057Y045435D01*
X103097D01*
X103057Y045475D01*
X103097Y045515D01*
X103057D01*
X103017Y045555D01*
X102977Y045515D01*
X102937D01*
X102977Y045475D01*
X102937Y045435D01*
X102977D01*
X103017Y045395D01*
Y045435D02*
X103037Y045455D01*
X103057D01*
X103037Y045475D01*
X103057Y045495D01*
X103037D01*
X103017Y045515D01*
X102997Y045495D01*
X102977D01*
X102997Y045475D01*
X102977Y045455D01*
X102997D01*
X103017Y045435D01*
X1033Y045395D02*
X10334Y045435D01*
X10338D01*
X10334Y045475D01*
X10338Y045515D01*
X10334D01*
X1033Y045555D01*
X10326Y045515D01*
X10322D01*
X10326Y045475D01*
X10322Y045435D01*
X10326D01*
X1033Y045395D01*
Y045435D02*
X10332Y045455D01*
X10334D01*
X10332Y045475D01*
X10334Y045495D01*
X10332D01*
X1033Y045515D01*
X10328Y045495D01*
X10326D01*
X10328Y045475D01*
X10326Y045455D01*
X10328D01*
X1033Y045435D01*
X1012Y06257D02*
X10124Y06261D01*
X10128D01*
X10124Y06265D01*
X10128Y06269D01*
X10124D01*
X1012Y06273D01*
X10116Y06269D01*
X10112D01*
X10116Y06265D01*
X10112Y06261D01*
X10116D01*
X1012Y06257D01*
Y06261D02*
X10122Y06263D01*
X10124D01*
X10122Y06265D01*
X10124Y06267D01*
X10122D01*
X1012Y06269D01*
X10118Y06267D01*
X10116D01*
X10118Y06265D01*
X10116Y06263D01*
X10118D01*
X1012Y06261D01*
X09045Y06337D02*
X09049Y06341D01*
X09053D01*
X09049Y06345D01*
X09053Y06349D01*
X09049D01*
X09045Y06353D01*
X09041Y06349D01*
X09037D01*
X09041Y06345D01*
X09037Y06341D01*
X09041D01*
X09045Y06337D01*
Y06341D02*
X09047Y06343D01*
X09049D01*
X09047Y06345D01*
X09049Y06347D01*
X09047D01*
X09045Y06349D01*
X09043Y06347D01*
X09041D01*
X09043Y06345D01*
X09041Y06343D01*
X09043D01*
X09045Y06341D01*
X09915Y06557D02*
X09919Y06561D01*
X09923D01*
X09919Y06565D01*
X09923Y06569D01*
X09919D01*
X09915Y06573D01*
X09911Y06569D01*
X09907D01*
X09911Y06565D01*
X09907Y06561D01*
X09911D01*
X09915Y06557D01*
Y06561D02*
X09917Y06563D01*
X09919D01*
X09917Y06565D01*
X09919Y06567D01*
X09917D01*
X09915Y06569D01*
X09913Y06567D01*
X09911D01*
X09913Y06565D01*
X09911Y06563D01*
X09913D01*
X09915Y06561D01*
X103875Y066775D02*
Y066575D01*
X103975D01*
X104008Y066608D01*
Y066642D01*
X103975Y066675D01*
X103875D01*
X103975D01*
X104008Y066708D01*
Y066742D01*
X103975Y066775D01*
X103875D01*
X102Y06675D02*
Y06655D01*
X1021D01*
X102133Y066583D01*
Y066617D01*
X1021Y06665D01*
X102D01*
X1021D01*
X102133Y066683D01*
Y066717D01*
X1021Y06675D01*
X102D01*
X1039Y06647D02*
X10394Y06651D01*
X10398D01*
X10394Y06655D01*
X10398Y06659D01*
X10394D01*
X1039Y06663D01*
X10386Y06659D01*
X10382D01*
X10386Y06655D01*
X10382Y06651D01*
X10386D01*
X1039Y06647D01*
Y06651D02*
X10392Y06653D01*
X10394D01*
X10392Y06655D01*
X10394Y06657D01*
X10392D01*
X1039Y06659D01*
X10388Y06657D01*
X10386D01*
X10388Y06655D01*
X10386Y06653D01*
X10388D01*
X1039Y06651D01*
X099148Y066672D02*
X099188Y066712D01*
X099228D01*
X099188Y066752D01*
X099228Y066792D01*
X099188D01*
X099148Y066832D01*
X099108Y066792D01*
X099068D01*
X099108Y066752D01*
X099068Y066712D01*
X099108D01*
X099148Y066672D01*
Y066712D02*
X099168Y066732D01*
X099188D01*
X099168Y066752D01*
X099188Y066772D01*
X099168D01*
X099148Y066792D01*
X099128Y066772D01*
X099108D01*
X099128Y066752D01*
X099108Y066732D01*
X099128D01*
X099148Y066712D01*
X0999Y06777D02*
X09994Y06781D01*
X09998D01*
X09994Y06785D01*
X09998Y06789D01*
X09994D01*
X0999Y06793D01*
X09986Y06789D01*
X09982D01*
X09986Y06785D01*
X09982Y06781D01*
X09986D01*
X0999Y06777D01*
Y06781D02*
X09992Y06783D01*
X09994D01*
X09992Y06785D01*
X09994Y06787D01*
X09992D01*
X0999Y06789D01*
X09988Y06787D01*
X09986D01*
X09988Y06785D01*
X09986Y06783D01*
X09988D01*
X0999Y06781D01*
X10035Y065602D02*
X10039Y065642D01*
X10043D01*
X10039Y065682D01*
X10043Y065722D01*
X10039D01*
X10035Y065762D01*
X10031Y065722D01*
X10027D01*
X10031Y065682D01*
X10027Y065642D01*
X10031D01*
X10035Y065602D01*
Y065642D02*
X10037Y065662D01*
X10039D01*
X10037Y065682D01*
X10039Y065702D01*
X10037D01*
X10035Y065722D01*
X10033Y065702D01*
X10031D01*
X10033Y065682D01*
X10031Y065662D01*
X10033D01*
X10035Y065642D01*
X0989Y06627D02*
X09894Y06631D01*
X09898D01*
X09894Y06635D01*
X09898Y06639D01*
X09894D01*
X0989Y06643D01*
X09886Y06639D01*
X09882D01*
X09886Y06635D01*
X09882Y06631D01*
X09886D01*
X0989Y06627D01*
Y06631D02*
X09892Y06633D01*
X09894D01*
X09892Y06635D01*
X09894Y06637D01*
X09892D01*
X0989Y06639D01*
X09888Y06637D01*
X09886D01*
X09888Y06635D01*
X09886Y06633D01*
X09888D01*
X0989Y06631D01*
X10025Y06627D02*
X10029Y06631D01*
X10033D01*
X10029Y06635D01*
X10033Y06639D01*
X10029D01*
X10025Y06643D01*
X10021Y06639D01*
X10017D01*
X10021Y06635D01*
X10017Y06631D01*
X10021D01*
X10025Y06627D01*
Y06631D02*
X10027Y06633D01*
X10029D01*
X10027Y06635D01*
X10029Y06637D01*
X10027D01*
X10025Y06639D01*
X10023Y06637D01*
X10021D01*
X10023Y06635D01*
X10021Y06633D01*
X10023D01*
X10025Y06631D01*
X10085Y06497D02*
X10089Y06501D01*
X10093D01*
X10089Y06505D01*
X10093Y06509D01*
X10089D01*
X10085Y06513D01*
X10081Y06509D01*
X10077D01*
X10081Y06505D01*
X10077Y06501D01*
X10081D01*
X10085Y06497D01*
Y06501D02*
X10087Y06503D01*
X10089D01*
X10087Y06505D01*
X10089Y06507D01*
X10087D01*
X10085Y06509D01*
X10083Y06507D01*
X10081D01*
X10083Y06505D01*
X10081Y06503D01*
X10083D01*
X10085Y06501D01*
Y06732D02*
X10089Y06736D01*
X10093D01*
X10089Y0674D01*
X10093Y06744D01*
X10089D01*
X10085Y06748D01*
X10081Y06744D01*
X10077D01*
X10081Y0674D01*
X10077Y06736D01*
X10081D01*
X10085Y06732D01*
Y06736D02*
X10087Y06738D01*
X10089D01*
X10087Y0674D01*
X10089Y06742D01*
X10087D01*
X10085Y06744D01*
X10083Y06742D01*
X10081D01*
X10083Y0674D01*
X10081Y06738D01*
X10083D01*
X10085Y06736D01*
X0986Y06732D02*
X09864Y06736D01*
X09868D01*
X09864Y0674D01*
X09868Y06744D01*
X09864D01*
X0986Y06748D01*
X09856Y06744D01*
X09852D01*
X09856Y0674D01*
X09852Y06736D01*
X09856D01*
X0986Y06732D01*
Y06736D02*
X09862Y06738D01*
X09864D01*
X09862Y0674D01*
X09864Y06742D01*
X09862D01*
X0986Y06744D01*
X09858Y06742D01*
X09856D01*
X09858Y0674D01*
X09856Y06738D01*
X09858D01*
X0986Y06736D01*
X086393Y069367D02*
X08636Y0694D01*
X086293D01*
X08626Y069367D01*
Y069233D01*
X086293Y0692D01*
X08636D01*
X086393Y069233D01*
X106793Y069367D02*
X10676Y0694D01*
X106693D01*
X10666Y069367D01*
Y069233D01*
X106693Y0692D01*
X10676D01*
X106793Y069233D01*
X1063Y06727D02*
X10634Y06731D01*
X10638D01*
X10634Y06735D01*
X10638Y06739D01*
X10634D01*
X1063Y06743D01*
X10626Y06739D01*
X10622D01*
X10626Y06735D01*
X10622Y06731D01*
X10626D01*
X1063Y06727D01*
Y06731D02*
X10632Y06733D01*
X10634D01*
X10632Y06735D01*
X10634Y06737D01*
X10632D01*
X1063Y06739D01*
X10628Y06737D01*
X10626D01*
X10628Y06735D01*
X10626Y06733D01*
X10628D01*
X1063Y06731D01*
X1035Y06322D02*
X10354Y06326D01*
X10358D01*
X10354Y0633D01*
X10358Y06334D01*
X10354D01*
X1035Y06338D01*
X10346Y06334D01*
X10342D01*
X10346Y0633D01*
X10342Y06326D01*
X10346D01*
X1035Y06322D01*
Y06326D02*
X10352Y06328D01*
X10354D01*
X10352Y0633D01*
X10354Y06332D01*
X10352D01*
X1035Y06334D01*
X10348Y06332D01*
X10346D01*
X10348Y0633D01*
X10346Y06328D01*
X10348D01*
X1035Y06326D01*
X1062Y06132D02*
X10624Y06136D01*
X10628D01*
X10624Y0614D01*
X10628Y06144D01*
X10624D01*
X1062Y06148D01*
X10616Y06144D01*
X10612D01*
X10616Y0614D01*
X10612Y06136D01*
X10616D01*
X1062Y06132D01*
Y06136D02*
X10622Y06138D01*
X10624D01*
X10622Y0614D01*
X10624Y06142D01*
X10622D01*
X1062Y06144D01*
X10618Y06142D01*
X10616D01*
X10618Y0614D01*
X10616Y06138D01*
X10618D01*
X1062Y06136D01*
X0905Y06512D02*
X09054Y06516D01*
X09058D01*
X09054Y0652D01*
X09058Y06524D01*
X09054D01*
X0905Y06528D01*
X09046Y06524D01*
X09042D01*
X09046Y0652D01*
X09042Y06516D01*
X09046D01*
X0905Y06512D01*
Y06516D02*
X09052Y06518D01*
X09054D01*
X09052Y0652D01*
X09054Y06522D01*
X09052D01*
X0905Y06524D01*
X09048Y06522D01*
X09046D01*
X09048Y0652D01*
X09046Y06518D01*
X09048D01*
X0905Y06516D01*
X0956Y063953D02*
X09564Y063993D01*
X09568D01*
X09564Y064033D01*
X09568Y064073D01*
X09564D01*
X0956Y064113D01*
X09556Y064073D01*
X09552D01*
X09556Y064033D01*
X09552Y063993D01*
X09556D01*
X0956Y063953D01*
Y063993D02*
X09562Y064013D01*
X09564D01*
X09562Y064033D01*
X09564Y064053D01*
X09562D01*
X0956Y064073D01*
X09558Y064053D01*
X09556D01*
X09558Y064033D01*
X09556Y064013D01*
X09558D01*
X0956Y063993D01*
X0947Y063953D02*
X09474Y063993D01*
X09478D01*
X09474Y064033D01*
X09478Y064073D01*
X09474D01*
X0947Y064113D01*
X09466Y064073D01*
X09462D01*
X09466Y064033D01*
X09462Y063993D01*
X09466D01*
X0947Y063953D01*
Y063993D02*
X09472Y064013D01*
X09474D01*
X09472Y064033D01*
X09474Y064053D01*
X09472D01*
X0947Y064073D01*
X09468Y064053D01*
X09466D01*
X09468Y064033D01*
X09466Y064013D01*
X09468D01*
X0947Y063993D01*
X0892Y064095D02*
X08924Y064135D01*
X08928D01*
X08924Y064175D01*
X08928Y064215D01*
X08924D01*
X0892Y064255D01*
X08916Y064215D01*
X08912D01*
X08916Y064175D01*
X08912Y064135D01*
X08916D01*
X0892Y064095D01*
Y064135D02*
X08922Y064155D01*
X08924D01*
X08922Y064175D01*
X08924Y064195D01*
X08922D01*
X0892Y064215D01*
X08918Y064195D01*
X08916D01*
X08918Y064175D01*
X08916Y064155D01*
X08918D01*
X0892Y064135D01*
X10025Y04107D02*
X10029Y04111D01*
X10033D01*
X10029Y04115D01*
X10033Y04119D01*
X10029D01*
X10025Y04123D01*
X10021Y04119D01*
X10017D01*
X10021Y04115D01*
X10017Y04111D01*
X10021D01*
X10025Y04107D01*
Y04111D02*
X10027Y04113D01*
X10029D01*
X10027Y04115D01*
X10029Y04117D01*
X10027D01*
X10025Y04119D01*
X10023Y04117D01*
X10021D01*
X10023Y04115D01*
X10021Y04113D01*
X10023D01*
X10025Y04111D01*
X09125Y04997D02*
X09129Y05001D01*
X09133D01*
X09129Y05005D01*
X09133Y05009D01*
X09129D01*
X09125Y05013D01*
X09121Y05009D01*
X09117D01*
X09121Y05005D01*
X09117Y05001D01*
X09121D01*
X09125Y04997D01*
Y05001D02*
X09127Y05003D01*
X09129D01*
X09127Y05005D01*
X09129Y05007D01*
X09127D01*
X09125Y05009D01*
X09123Y05007D01*
X09121D01*
X09123Y05005D01*
X09121Y05003D01*
X09123D01*
X09125Y05001D01*
X08845Y04027D02*
X08849Y04031D01*
X08853D01*
X08849Y04035D01*
X08853Y04039D01*
X08849D01*
X08845Y04043D01*
X08841Y04039D01*
X08837D01*
X08841Y04035D01*
X08837Y04031D01*
X08841D01*
X08845Y04027D01*
Y04031D02*
X08847Y04033D01*
X08849D01*
X08847Y04035D01*
X08849Y04037D01*
X08847D01*
X08845Y04039D01*
X08843Y04037D01*
X08841D01*
X08843Y04035D01*
X08841Y04033D01*
X08843D01*
X08845Y04031D01*
X0883Y04242D02*
X08834Y04246D01*
X08838D01*
X08834Y0425D01*
X08838Y04254D01*
X08834D01*
X0883Y04258D01*
X08826Y04254D01*
X08822D01*
X08826Y0425D01*
X08822Y04246D01*
X08826D01*
X0883Y04242D01*
Y04246D02*
X08832Y04248D01*
X08834D01*
X08832Y0425D01*
X08834Y04252D01*
X08832D01*
X0883Y04254D01*
X08828Y04252D01*
X08826D01*
X08828Y0425D01*
X08826Y04248D01*
X08828D01*
X0883Y04246D01*
X10435Y06507D02*
X10439Y06511D01*
X10443D01*
X10439Y06515D01*
X10443Y06519D01*
X10439D01*
X10435Y06523D01*
X10431Y06519D01*
X10427D01*
X10431Y06515D01*
X10427Y06511D01*
X10431D01*
X10435Y06507D01*
Y06511D02*
X10437Y06513D01*
X10439D01*
X10437Y06515D01*
X10439Y06517D01*
X10437D01*
X10435Y06519D01*
X10433Y06517D01*
X10431D01*
X10433Y06515D01*
X10431Y06513D01*
X10433D01*
X10435Y06511D01*
X1063Y06407D02*
X10634Y06411D01*
X10638D01*
X10634Y06415D01*
X10638Y06419D01*
X10634D01*
X1063Y06423D01*
X10626Y06419D01*
X10622D01*
X10626Y06415D01*
X10622Y06411D01*
X10626D01*
X1063Y06407D01*
Y06411D02*
X10632Y06413D01*
X10634D01*
X10632Y06415D01*
X10634Y06417D01*
X10632D01*
X1063Y06419D01*
X10628Y06417D01*
X10626D01*
X10628Y06415D01*
X10626Y06413D01*
X10628D01*
X1063Y06411D01*
Y06487D02*
X10634Y06491D01*
X10638D01*
X10634Y06495D01*
X10638Y06499D01*
X10634D01*
X1063Y06503D01*
X10626Y06499D01*
X10622D01*
X10626Y06495D01*
X10622Y06491D01*
X10626D01*
X1063Y06487D01*
Y06491D02*
X10632Y06493D01*
X10634D01*
X10632Y06495D01*
X10634Y06497D01*
X10632D01*
X1063Y06499D01*
X10628Y06497D01*
X10626D01*
X10628Y06495D01*
X10626Y06493D01*
X10628D01*
X1063Y06491D01*
Y06567D02*
X10634Y06571D01*
X10638D01*
X10634Y06575D01*
X10638Y06579D01*
X10634D01*
X1063Y06583D01*
X10626Y06579D01*
X10622D01*
X10626Y06575D01*
X10622Y06571D01*
X10626D01*
X1063Y06567D01*
Y06571D02*
X10632Y06573D01*
X10634D01*
X10632Y06575D01*
X10634Y06577D01*
X10632D01*
X1063Y06579D01*
X10628Y06577D01*
X10626D01*
X10628Y06575D01*
X10626Y06573D01*
X10628D01*
X1063Y06571D01*
Y06647D02*
X10634Y06651D01*
X10638D01*
X10634Y06655D01*
X10638Y06659D01*
X10634D01*
X1063Y06663D01*
X10626Y06659D01*
X10622D01*
X10626Y06655D01*
X10622Y06651D01*
X10626D01*
X1063Y06647D01*
Y06651D02*
X10632Y06653D01*
X10634D01*
X10632Y06655D01*
X10634Y06657D01*
X10632D01*
X1063Y06659D01*
X10628Y06657D01*
X10626D01*
X10628Y06655D01*
X10626Y06653D01*
X10628D01*
X1063Y06651D01*
X087125Y06397D02*
X087165Y06401D01*
X087205D01*
X087165Y06405D01*
X087205Y06409D01*
X087165D01*
X087125Y06413D01*
X087085Y06409D01*
X087045D01*
X087085Y06405D01*
X087045Y06401D01*
X087085D01*
X087125Y06397D01*
Y06401D02*
X087145Y06403D01*
X087165D01*
X087145Y06405D01*
X087165Y06407D01*
X087145D01*
X087125Y06409D01*
X087105Y06407D01*
X087085D01*
X087105Y06405D01*
X087085Y06403D01*
X087105D01*
X087125Y06401D01*
Y06477D02*
X087165Y06481D01*
X087205D01*
X087165Y06485D01*
X087205Y06489D01*
X087165D01*
X087125Y06493D01*
X087085Y06489D01*
X087045D01*
X087085Y06485D01*
X087045Y06481D01*
X087085D01*
X087125Y06477D01*
Y06481D02*
X087145Y06483D01*
X087165D01*
X087145Y06485D01*
X087165Y06487D01*
X087145D01*
X087125Y06489D01*
X087105Y06487D01*
X087085D01*
X087105Y06485D01*
X087085Y06483D01*
X087105D01*
X087125Y06481D01*
Y06557D02*
X087165Y06561D01*
X087205D01*
X087165Y06565D01*
X087205Y06569D01*
X087165D01*
X087125Y06573D01*
X087085Y06569D01*
X087045D01*
X087085Y06565D01*
X087045Y06561D01*
X087085D01*
X087125Y06557D01*
Y06561D02*
X087145Y06563D01*
X087165D01*
X087145Y06565D01*
X087165Y06567D01*
X087145D01*
X087125Y06569D01*
X087105Y06567D01*
X087085D01*
X087105Y06565D01*
X087085Y06563D01*
X087105D01*
X087125Y06561D01*
Y06637D02*
X087165Y06641D01*
X087205D01*
X087165Y06645D01*
X087205Y06649D01*
X087165D01*
X087125Y06653D01*
X087085Y06649D01*
X087045D01*
X087085Y06645D01*
X087045Y06641D01*
X087085D01*
X087125Y06637D01*
Y06641D02*
X087145Y06643D01*
X087165D01*
X087145Y06645D01*
X087165Y06647D01*
X087145D01*
X087125Y06649D01*
X087105Y06647D01*
X087085D01*
X087105Y06645D01*
X087085Y06643D01*
X087105D01*
X087125Y06641D01*
Y06712D02*
X087165Y06716D01*
X087205D01*
X087165Y0672D01*
X087205Y06724D01*
X087165D01*
X087125Y06728D01*
X087085Y06724D01*
X087045D01*
X087085Y0672D01*
X087045Y06716D01*
X087085D01*
X087125Y06712D01*
Y06716D02*
X087145Y06718D01*
X087165D01*
X087145Y0672D01*
X087165Y06722D01*
X087145D01*
X087125Y06724D01*
X087105Y06722D01*
X087085D01*
X087105Y0672D01*
X087085Y06718D01*
X087105D01*
X087125Y06716D01*
X097094Y06397D02*
X097134Y06401D01*
X097174D01*
X097134Y06405D01*
X097174Y06409D01*
X097134D01*
X097094Y06413D01*
X097054Y06409D01*
X097014D01*
X097054Y06405D01*
X097014Y06401D01*
X097054D01*
X097094Y06397D01*
Y06401D02*
X097114Y06403D01*
X097134D01*
X097114Y06405D01*
X097134Y06407D01*
X097114D01*
X097094Y06409D01*
X097074Y06407D01*
X097054D01*
X097074Y06405D01*
X097054Y06403D01*
X097074D01*
X097094Y06401D01*
X09375Y06402D02*
X09379Y06406D01*
X09383D01*
X09379Y0641D01*
X09383Y06414D01*
X09379D01*
X09375Y06418D01*
X09371Y06414D01*
X09367D01*
X09371Y0641D01*
X09367Y06406D01*
X09371D01*
X09375Y06402D01*
Y06406D02*
X09377Y06408D01*
X09379D01*
X09377Y0641D01*
X09379Y06412D01*
X09377D01*
X09375Y06414D01*
X09373Y06412D01*
X09371D01*
X09373Y0641D01*
X09371Y06408D01*
X09373D01*
X09375Y06406D01*
X09135Y06402D02*
X09139Y06406D01*
X09143D01*
X09139Y0641D01*
X09143Y06414D01*
X09139D01*
X09135Y06418D01*
X09131Y06414D01*
X09127D01*
X09131Y0641D01*
X09127Y06406D01*
X09131D01*
X09135Y06402D01*
Y06406D02*
X09137Y06408D01*
X09139D01*
X09137Y0641D01*
X09139Y06412D01*
X09137D01*
X09135Y06414D01*
X09133Y06412D01*
X09131D01*
X09133Y0641D01*
X09131Y06408D01*
X09133D01*
X09135Y06406D01*
X0922Y06402D02*
X09224Y06406D01*
X09228D01*
X09224Y0641D01*
X09228Y06414D01*
X09224D01*
X0922Y06418D01*
X09216Y06414D01*
X09212D01*
X09216Y0641D01*
X09212Y06406D01*
X09216D01*
X0922Y06402D01*
Y06406D02*
X09222Y06408D01*
X09224D01*
X09222Y0641D01*
X09224Y06412D01*
X09222D01*
X0922Y06414D01*
X09218Y06412D01*
X09216D01*
X09218Y0641D01*
X09216Y06408D01*
X09218D01*
X0922Y06406D01*
X0969Y06095D02*
Y06075D01*
X097D01*
X097033Y060783D01*
Y060817D01*
X097Y06085D01*
X0969D01*
X097D01*
X097033Y060883D01*
Y060917D01*
X097Y06095D01*
X0969D01*
X09725D02*
Y06075D01*
X09735D01*
X097383Y060783D01*
Y060817D01*
X09735Y06085D01*
X09725D01*
X09735D01*
X097383Y060883D01*
Y060917D01*
X09735Y06095D01*
X09725D01*
X09885D02*
Y06075D01*
X09895D01*
X098983Y060783D01*
Y060817D01*
X09895Y06085D01*
X09885D01*
X09895D01*
X098983Y060883D01*
Y060917D01*
X09895Y06095D01*
X09885D01*
X0969Y061669D02*
Y061469D01*
X097D01*
X097033Y061503D01*
Y061536D01*
X097Y061569D01*
X0969D01*
X097D01*
X097033Y061603D01*
Y061636D01*
X097Y061669D01*
X0969D01*
X09885Y061639D02*
Y061439D01*
X09895D01*
X098983Y061472D01*
Y061505D01*
X09895Y061539D01*
X09885D01*
X09895D01*
X098983Y061572D01*
Y061605D01*
X09895Y061639D01*
X09885D01*
X09725Y061669D02*
Y061469D01*
X09735D01*
X097383Y061503D01*
Y061536D01*
X09735Y061569D01*
X09725D01*
X09735D01*
X097383Y061603D01*
Y061636D01*
X09735Y061669D01*
X09725D01*
X094163Y05482D02*
X094203Y05486D01*
X094243D01*
X094203Y0549D01*
X094243Y05494D01*
X094203D01*
X094163Y05498D01*
X094123Y05494D01*
X094083D01*
X094123Y0549D01*
X094083Y05486D01*
X094123D01*
X094163Y05482D01*
Y05486D02*
X094183Y05488D01*
X094203D01*
X094183Y0549D01*
X094203Y05492D01*
X094183D01*
X094163Y05494D01*
X094143Y05492D01*
X094123D01*
X094143Y0549D01*
X094123Y05488D01*
X094143D01*
X094163Y05486D01*
X1017Y06035D02*
Y06015D01*
X1018D01*
X101833Y060183D01*
Y060217D01*
X1018Y06025D01*
X1017D01*
X1018D01*
X101833Y060283D01*
Y060317D01*
X1018Y06035D01*
X1017D01*
Y06D02*
Y0598D01*
X1018D01*
X101833Y059833D01*
Y059867D01*
X1018Y0599D01*
X1017D01*
X1018D01*
X101833Y059933D01*
Y059967D01*
X1018Y06D01*
X1017D01*
Y05965D02*
Y05945D01*
X1018D01*
X101833Y059483D01*
Y059517D01*
X1018Y05955D01*
X1017D01*
X1018D01*
X101833Y059583D01*
Y059617D01*
X1018Y05965D01*
X1017D01*
X106793Y038067D02*
X10676Y0381D01*
X106693D01*
X10666Y038067D01*
Y037933D01*
X106693Y0379D01*
X10676D01*
X106793Y037933D01*
X086393Y038067D02*
X08636Y0381D01*
X086293D01*
X08626Y038067D01*
Y037933D01*
X086293Y0379D01*
X08636D01*
X086393Y037933D01*
X10145Y041095D02*
X10149Y041135D01*
X10153D01*
X10149Y041175D01*
X10153Y041215D01*
X10149D01*
X10145Y041255D01*
X10141Y041215D01*
X10137D01*
X10141Y041175D01*
X10137Y041135D01*
X10141D01*
X10145Y041095D01*
Y041135D02*
X10147Y041155D01*
X10149D01*
X10147Y041175D01*
X10149Y041195D01*
X10147D01*
X10145Y041215D01*
X10143Y041195D01*
X10141D01*
X10143Y041175D01*
X10141Y041155D01*
X10143D01*
X10145Y041135D01*
Y049895D02*
X10149Y049935D01*
X10153D01*
X10149Y049975D01*
X10153Y050015D01*
X10149D01*
X10145Y050055D01*
X10141Y050015D01*
X10137D01*
X10141Y049975D01*
X10137Y049935D01*
X10141D01*
X10145Y049895D01*
Y049935D02*
X10147Y049955D01*
X10149D01*
X10147Y049975D01*
X10149Y049995D01*
X10147D01*
X10145Y050015D01*
X10143Y049995D01*
X10141D01*
X10143Y049975D01*
X10141Y049955D01*
X10143D01*
X10145Y049935D01*
X1033Y049895D02*
X10334Y049935D01*
X10338D01*
X10334Y049975D01*
X10338Y050015D01*
X10334D01*
X1033Y050055D01*
X10326Y050015D01*
X10322D01*
X10326Y049975D01*
X10322Y049935D01*
X10326D01*
X1033Y049895D01*
Y049935D02*
X10332Y049955D01*
X10334D01*
X10332Y049975D01*
X10334Y049995D01*
X10332D01*
X1033Y050015D01*
X10328Y049995D01*
X10326D01*
X10328Y049975D01*
X10326Y049955D01*
X10328D01*
X1033Y049935D01*
X10015Y04547D02*
X10019Y04551D01*
X10023D01*
X10019Y04555D01*
X10023Y04559D01*
X10019D01*
X10015Y04563D01*
X10011Y04559D01*
X10007D01*
X10011Y04555D01*
X10007Y04551D01*
X10011D01*
X10015Y04547D01*
Y04551D02*
X10017Y04553D01*
X10019D01*
X10017Y04555D01*
X10019Y04557D01*
X10017D01*
X10015Y04559D01*
X10013Y04557D01*
X10011D01*
X10013Y04555D01*
X10011Y04553D01*
X10013D01*
X10015Y04551D01*
X0998Y04547D02*
X09984Y04551D01*
X09988D01*
X09984Y04555D01*
X09988Y04559D01*
X09984D01*
X0998Y04563D01*
X09976Y04559D01*
X09972D01*
X09976Y04555D01*
X09972Y04551D01*
X09976D01*
X0998Y04547D01*
Y04551D02*
X09982Y04553D01*
X09984D01*
X09982Y04555D01*
X09984Y04557D01*
X09982D01*
X0998Y04559D01*
X09978Y04557D01*
X09976D01*
X09978Y04555D01*
X09976Y04553D01*
X09978D01*
X0998Y04551D01*
X103Y045395D02*
X10304Y045435D01*
X10308D01*
X10304Y045475D01*
X10308Y045515D01*
X10304D01*
X103Y045555D01*
X10296Y045515D01*
X10292D01*
X10296Y045475D01*
X10292Y045435D01*
X10296D01*
X103Y045395D01*
Y045435D02*
X10302Y045455D01*
X10304D01*
X10302Y045475D01*
X10304Y045495D01*
X10302D01*
X103Y045515D01*
X10298Y045495D01*
X10296D01*
X10298Y045475D01*
X10296Y045455D01*
X10298D01*
X103Y045435D01*
X102733Y045395D02*
X102773Y045435D01*
X102813D01*
X102773Y045475D01*
X102813Y045515D01*
X102773D01*
X102733Y045555D01*
X102693Y045515D01*
X102653D01*
X102693Y045475D01*
X102653Y045435D01*
X102693D01*
X102733Y045395D01*
Y045435D02*
X102753Y045455D01*
X102773D01*
X102753Y045475D01*
X102773Y045495D01*
X102753D01*
X102733Y045515D01*
X102713Y045495D01*
X102693D01*
X102713Y045475D01*
X102693Y045455D01*
X102713D01*
X102733Y045435D01*
X10285Y049725D02*
Y049525D01*
X10295D01*
X102983Y049558D01*
Y049592D01*
X10295Y049625D01*
X10285D01*
X10295D01*
X102983Y049658D01*
Y049692D01*
X10295Y049725D01*
X10285D01*
X0991Y042195D02*
X09914Y042235D01*
X09918D01*
X09914Y042275D01*
X09918Y042315D01*
X09914D01*
X0991Y042355D01*
X09906Y042315D01*
X09902D01*
X09906Y042275D01*
X09902Y042235D01*
X09906D01*
X0991Y042195D01*
Y042235D02*
X09912Y042255D01*
X09914D01*
X09912Y042275D01*
X09914Y042295D01*
X09912D01*
X0991Y042315D01*
X09908Y042295D01*
X09906D01*
X09908Y042275D01*
X09906Y042255D01*
X09908D01*
X0991Y042235D01*
X1038Y042425D02*
Y042225D01*
X1039D01*
X103933Y042258D01*
Y042292D01*
X1039Y042325D01*
X1038D01*
X1039D01*
X103933Y042358D01*
Y042392D01*
X1039Y042425D01*
X1038D01*
X10095Y042375D02*
Y042175D01*
X10105D01*
X101083Y042208D01*
Y042242D01*
X10105Y042275D01*
X10095D01*
X10105D01*
X101083Y042308D01*
Y042342D01*
X10105Y042375D01*
X10095D01*
X1038Y042145D02*
X10384Y042185D01*
X10388D01*
X10384Y042225D01*
X10388Y042265D01*
X10384D01*
X1038Y042305D01*
X10376Y042265D01*
X10372D01*
X10376Y042225D01*
X10372Y042185D01*
X10376D01*
X1038Y042145D01*
Y042185D02*
X10382Y042205D01*
X10384D01*
X10382Y042225D01*
X10384Y042245D01*
X10382D01*
X1038Y042265D01*
X10378Y042245D01*
X10376D01*
X10378Y042225D01*
X10376Y042205D01*
X10378D01*
X1038Y042185D01*
X10095Y042095D02*
X10099Y042135D01*
X10103D01*
X10099Y042175D01*
X10103Y042215D01*
X10099D01*
X10095Y042255D01*
X10091Y042215D01*
X10087D01*
X10091Y042175D01*
X10087Y042135D01*
X10091D01*
X10095Y042095D01*
Y042135D02*
X10097Y042155D01*
X10099D01*
X10097Y042175D01*
X10099Y042195D01*
X10097D01*
X10095Y042215D01*
X10093Y042195D01*
X10091D01*
X10093Y042175D01*
X10091Y042155D01*
X10093D01*
X10095Y042135D01*
X10195Y042245D02*
X10199Y042285D01*
X10203D01*
X10199Y042325D01*
X10203Y042365D01*
X10199D01*
X10195Y042405D01*
X10191Y042365D01*
X10187D01*
X10191Y042325D01*
X10187Y042285D01*
X10191D01*
X10195Y042245D01*
Y042285D02*
X10197Y042305D01*
X10199D01*
X10197Y042325D01*
X10199Y042345D01*
X10197D01*
X10195Y042365D01*
X10193Y042345D01*
X10191D01*
X10193Y042325D01*
X10191Y042305D01*
X10193D01*
X10195Y042285D01*
X1038Y048945D02*
X10384Y048985D01*
X10388D01*
X10384Y049025D01*
X10388Y049065D01*
X10384D01*
X1038Y049105D01*
X10376Y049065D01*
X10372D01*
X10376Y049025D01*
X10372Y048985D01*
X10376D01*
X1038Y048945D01*
Y048985D02*
X10382Y049005D01*
X10384D01*
X10382Y049025D01*
X10384Y049045D01*
X10382D01*
X1038Y049065D01*
X10378Y049045D01*
X10376D01*
X10378Y049025D01*
X10376Y049005D01*
X10378D01*
X1038Y048985D01*
X0998Y049695D02*
X09984Y049735D01*
X09988D01*
X09984Y049775D01*
X09988Y049815D01*
X09984D01*
X0998Y049855D01*
X09976Y049815D01*
X09972D01*
X09976Y049775D01*
X09972Y049735D01*
X09976D01*
X0998Y049695D01*
Y049735D02*
X09982Y049755D01*
X09984D01*
X09982Y049775D01*
X09984Y049795D01*
X09982D01*
X0998Y049815D01*
X09978Y049795D01*
X09976D01*
X09978Y049775D01*
X09976Y049755D01*
X09978D01*
X0998Y049735D01*
X0936Y050545D02*
X09364Y050585D01*
X09368D01*
X09364Y050625D01*
X09368Y050665D01*
X09364D01*
X0936Y050705D01*
X09356Y050665D01*
X09352D01*
X09356Y050625D01*
X09352Y050585D01*
X09356D01*
X0936Y050545D01*
Y050585D02*
X09362Y050605D01*
X09364D01*
X09362Y050625D01*
X09364Y050645D01*
X09362D01*
X0936Y050665D01*
X09358Y050645D01*
X09356D01*
X09358Y050625D01*
X09356Y050605D01*
X09358D01*
X0936Y050585D01*
X0928Y05035D02*
Y05015D01*
X0929D01*
X092933Y050183D01*
Y050217D01*
X0929Y05025D01*
X0928D01*
X0929D01*
X092933Y050283D01*
Y050317D01*
X0929Y05035D01*
X0928D01*
X09235Y04092D02*
X09239Y04096D01*
X09243D01*
X09239Y041D01*
X09243Y04104D01*
X09239D01*
X09235Y04108D01*
X09231Y04104D01*
X09227D01*
X09231Y041D01*
X09227Y04096D01*
X09231D01*
X09235Y04092D01*
Y04096D02*
X09237Y04098D01*
X09239D01*
X09237Y041D01*
X09239Y04102D01*
X09237D01*
X09235Y04104D01*
X09233Y04102D01*
X09231D01*
X09233Y041D01*
X09231Y04098D01*
X09233D01*
X09235Y04096D01*
X093625Y0423D02*
Y0421D01*
X093725D01*
X093758Y042133D01*
Y042167D01*
X093725Y0422D01*
X093625D01*
X093725D01*
X093758Y042233D01*
Y042267D01*
X093725Y0423D01*
X093625D01*
X09005Y04092D02*
X09009Y04096D01*
X09013D01*
X09009Y041D01*
X09013Y04104D01*
X09009D01*
X09005Y04108D01*
X09001Y04104D01*
X08997D01*
X09001Y041D01*
X08997Y04096D01*
X09001D01*
X09005Y04092D01*
Y04096D02*
X09007Y04098D01*
X09009D01*
X09007Y041D01*
X09009Y04102D01*
X09007D01*
X09005Y04104D01*
X09003Y04102D01*
X09001D01*
X09003Y041D01*
X09001Y04098D01*
X09003D01*
X09005Y04096D01*
X09195Y04217D02*
X09199Y04221D01*
X09203D01*
X09199Y04225D01*
X09203Y04229D01*
X09199D01*
X09195Y04233D01*
X09191Y04229D01*
X09187D01*
X09191Y04225D01*
X09187Y04221D01*
X09191D01*
X09195Y04217D01*
Y04221D02*
X09197Y04223D01*
X09199D01*
X09197Y04225D01*
X09199Y04227D01*
X09197D01*
X09195Y04229D01*
X09193Y04227D01*
X09191D01*
X09193Y04225D01*
X09191Y04223D01*
X09193D01*
X09195Y04221D01*
X08965Y04552D02*
X08969Y04556D01*
X08973D01*
X08969Y0456D01*
X08973Y04564D01*
X08969D01*
X08965Y04568D01*
X08961Y04564D01*
X08957D01*
X08961Y0456D01*
X08957Y04556D01*
X08961D01*
X08965Y04552D01*
Y04556D02*
X08967Y04558D01*
X08969D01*
X08967Y0456D01*
X08969Y04562D01*
X08967D01*
X08965Y04564D01*
X08963Y04562D01*
X08961D01*
X08963Y0456D01*
X08961Y04558D01*
X08963D01*
X08965Y04556D01*
X09Y04552D02*
X09004Y04556D01*
X09008D01*
X09004Y0456D01*
X09008Y04564D01*
X09004D01*
X09Y04568D01*
X08996Y04564D01*
X08992D01*
X08996Y0456D01*
X08992Y04556D01*
X08996D01*
X09Y04552D01*
Y04556D02*
X09002Y04558D01*
X09004D01*
X09002Y0456D01*
X09004Y04562D01*
X09002D01*
X09Y04564D01*
X08998Y04562D01*
X08996D01*
X08998Y0456D01*
X08996Y04558D01*
X08998D01*
X09Y04556D01*
X09285Y04547D02*
X09289Y04551D01*
X09293D01*
X09289Y04555D01*
X09293Y04559D01*
X09289D01*
X09285Y04563D01*
X09281Y04559D01*
X09277D01*
X09281Y04555D01*
X09277Y04551D01*
X09281D01*
X09285Y04547D01*
Y04551D02*
X09287Y04553D01*
X09289D01*
X09287Y04555D01*
X09289Y04557D01*
X09287D01*
X09285Y04559D01*
X09283Y04557D01*
X09281D01*
X09283Y04555D01*
X09281Y04553D01*
X09283D01*
X09285Y04551D01*
X0925Y04547D02*
X09254Y04551D01*
X09258D01*
X09254Y04555D01*
X09258Y04559D01*
X09254D01*
X0925Y04563D01*
X09246Y04559D01*
X09242D01*
X09246Y04555D01*
X09242Y04551D01*
X09246D01*
X0925Y04547D01*
Y04551D02*
X09252Y04553D01*
X09254D01*
X09252Y04555D01*
X09254Y04557D01*
X09252D01*
X0925Y04559D01*
X09248Y04557D01*
X09246D01*
X09248Y04555D01*
X09246Y04553D01*
X09248D01*
X0925Y04551D01*
X09365Y04897D02*
X09369Y04901D01*
X09373D01*
X09369Y04905D01*
X09373Y04909D01*
X09369D01*
X09365Y04913D01*
X09361Y04909D01*
X09357D01*
X09361Y04905D01*
X09357Y04901D01*
X09361D01*
X09365Y04897D01*
Y04901D02*
X09367Y04903D01*
X09369D01*
X09367Y04905D01*
X09369Y04907D01*
X09367D01*
X09365Y04909D01*
X09363Y04907D01*
X09361D01*
X09363Y04905D01*
X09361Y04903D01*
X09363D01*
X09365Y04901D01*
X0901Y049847D02*
X09014Y049887D01*
X09018D01*
X09014Y049927D01*
X09018Y049967D01*
X09014D01*
X0901Y050007D01*
X09006Y049967D01*
X09002D01*
X09006Y049927D01*
X09002Y049887D01*
X09006D01*
X0901Y049847D01*
Y049887D02*
X09012Y049907D01*
X09014D01*
X09012Y049927D01*
X09014Y049947D01*
X09012D01*
X0901Y049967D01*
X09008Y049947D01*
X09006D01*
X09008Y049927D01*
X09006Y049907D01*
X09008D01*
X0901Y049887D01*
D152*
X11748Y051248D02*
G03*
X11748Y051248I-00008J0D01*
G01*
Y050248D02*
G03*
X11748Y050248I-00008J0D01*
G01*
X117493Y048009D02*
G03*
X117493Y048009I-00008J0D01*
G01*
Y049009D02*
G03*
X117493Y049009I-00008J0D01*
G01*
X117525Y059748D02*
G03*
X117525Y059748I-00008J0D01*
G01*
Y060748D02*
G03*
X117525Y060748I-00008J0D01*
G01*
X117513Y062898D02*
G03*
X117513Y062898I-00008J0D01*
G01*
Y061898D02*
G03*
X117513Y061898I-00008J0D01*
G01*
X11748Y03755D02*
G03*
X11748Y03755I-00008J0D01*
G01*
Y03855D02*
G03*
X11748Y03855I-00008J0D01*
G01*
Y04065D02*
G03*
X11748Y04065I-00008J0D01*
G01*
Y03965D02*
G03*
X11748Y03965I-00008J0D01*
G01*
X092956Y0693D02*
G03*
X092956Y0693I-00008J0D01*
G01*
X091956D02*
G03*
X091956Y0693I-00008J0D01*
G01*
X090956D02*
G03*
X090956Y0693I-00008J0D01*
G01*
X089956D02*
G03*
X089956Y0693I-00008J0D01*
G01*
X088956D02*
G03*
X088956Y0693I-00008J0D01*
G01*
X087956D02*
G03*
X087956Y0693I-00008J0D01*
G01*
D153*
X092916D02*
G03*
X092916Y0693I-00004J0D01*
G01*
X091916D02*
G03*
X091916Y0693I-00004J0D01*
G01*
X090916D02*
G03*
X090916Y0693I-00004J0D01*
G01*
X089916D02*
G03*
X089916Y0693I-00004J0D01*
G01*
X088916D02*
G03*
X088916Y0693I-00004J0D01*
G01*
X087916D02*
G03*
X087916Y0693I-00004J0D01*
G01*
M02*
