G04*
G04 #@! TF.GenerationSoftware,Altium Limited,Altium Designer,18.1.6 (161)*
G04*
G04 Layer_Color=0*
%FSTAX24Y24*%
%MOIN*%
G70*
G01*
G75*
%ADD150C,0.0020*%
D150*
X112157Y04285D02*
Y045528D01*
Y04285D02*
X116409D01*
Y045528D01*
X112157D02*
X116409D01*
X112157Y039932D02*
Y042609D01*
Y039932D02*
X116409D01*
Y042609D01*
X112157D02*
X116409D01*
X112157Y037013D02*
Y039691D01*
Y037013D02*
X116409D01*
Y039691D01*
X112157D02*
X116409D01*
X112157Y051606D02*
Y054283D01*
Y051606D02*
X116409D01*
Y054283D01*
X112157D02*
X116409D01*
X112157Y048687D02*
Y051365D01*
Y048687D02*
X116409D01*
Y051365D01*
X112157D02*
X116409D01*
X112157Y045769D02*
Y048446D01*
Y045769D02*
X116409D01*
Y048446D01*
X112157D02*
X116409D01*
X112207Y060361D02*
Y063039D01*
Y060361D02*
X116459D01*
Y063039D01*
X112207D02*
X116459D01*
X112207Y057443D02*
Y06012D01*
Y057443D02*
X116459D01*
Y06012D01*
X112207D02*
X116459D01*
X112157Y054524D02*
Y057202D01*
Y054524D02*
X116409D01*
Y057202D01*
X112157D02*
X116409D01*
X096815Y059104D02*
X098796D01*
X096815Y058577D02*
Y059104D01*
X092508Y058577D02*
X096815D01*
X092508D02*
Y062923D01*
X096815D01*
Y062396D02*
Y062923D01*
Y062396D02*
X098796D01*
Y059104D02*
Y062396D01*
X094479Y064519D02*
Y066181D01*
Y064519D02*
X094715D01*
Y063677D02*
Y064519D01*
Y063677D02*
X097085D01*
Y064519D01*
X097321D01*
Y066181D01*
X096636D02*
X097321D01*
X096636D02*
Y067023D01*
X095164D02*
X096636D01*
X095164Y066181D02*
Y067023D01*
X094479Y066181D02*
X095164D01*
X091129Y064586D02*
Y066248D01*
Y064586D02*
X091365D01*
Y063744D02*
Y064586D01*
Y063744D02*
X093735D01*
Y064586D01*
X093971D01*
Y066248D01*
X093286D02*
X093971D01*
X093286D02*
Y06709D01*
X091814D02*
X093286D01*
X091814Y066248D02*
Y06709D01*
X091129Y066248D02*
X091814D01*
M02*
