G04*
G04 #@! TF.GenerationSoftware,Altium Limited,Altium Designer,18.1.6 (161)*
G04*
G04 Layer_Color=8421504*
%FSTAX24Y24*%
%MOIN*%
G70*
G01*
G75*
%ADD21R,0.1969X0.1181*%
%ADD22O,0.0110X0.0335*%
%ADD23O,0.0335X0.0110*%
%ADD24R,0.1772X0.1772*%
%ADD25O,0.0256X0.0079*%
%ADD26O,0.0079X0.0256*%
%ADD27R,0.0984X0.0984*%
%ADD28O,0.0531X0.0217*%
%ADD29O,0.0217X0.0531*%
%ADD30R,0.0500X0.0550*%
%ADD31R,0.0550X0.0500*%
G04:AMPARAMS|DCode=32|XSize=50mil|YSize=55mil|CornerRadius=0mil|HoleSize=0mil|Usage=FLASHONLY|Rotation=240.000|XOffset=0mil|YOffset=0mil|HoleType=Round|Shape=Rectangle|*
%AMROTATEDRECTD32*
4,1,4,-0.0113,0.0354,0.0363,0.0079,0.0113,-0.0354,-0.0363,-0.0079,-0.0113,0.0354,0.0*
%
%ADD32ROTATEDRECTD32*%

G04:AMPARAMS|DCode=33|XSize=50mil|YSize=55mil|CornerRadius=0mil|HoleSize=0mil|Usage=FLASHONLY|Rotation=120.000|XOffset=0mil|YOffset=0mil|HoleType=Round|Shape=Rectangle|*
%AMROTATEDRECTD33*
4,1,4,0.0363,-0.0079,-0.0113,-0.0354,-0.0363,0.0079,0.0113,0.0354,0.0363,-0.0079,0.0*
%
%ADD33ROTATEDRECTD33*%

%ADD34R,0.0550X0.0394*%
%ADD35R,0.1378X0.0630*%
%ADD36R,0.3331X0.4146*%
%ADD37R,0.1264X0.0413*%
%ADD38R,0.0394X0.0550*%
%ADD39R,0.2283X0.2441*%
%ADD40R,0.0630X0.1181*%
%ADD41R,0.0366X0.0516*%
%ADD42R,0.1276X0.0516*%
%ADD43R,0.0472X0.0335*%
G36*
X095772Y062132D02*
X095276D01*
Y062691D01*
X095772D01*
Y062132D01*
D02*
G37*
G36*
X094937D02*
X094441D01*
Y062691D01*
X094937D01*
Y062132D01*
D02*
G37*
G36*
X094103D02*
X093607D01*
Y062691D01*
X094103D01*
Y062132D01*
D02*
G37*
G36*
X093268D02*
X092772D01*
Y062691D01*
X093268D01*
Y062132D01*
D02*
G37*
G36*
X095772Y061301D02*
X095276D01*
Y06186D01*
X095772D01*
Y061301D01*
D02*
G37*
G36*
X094937D02*
X094441D01*
Y06186D01*
X094937D01*
Y061301D01*
D02*
G37*
G36*
X094103D02*
X093607D01*
Y06186D01*
X094103D01*
Y061301D01*
D02*
G37*
G36*
X093268D02*
X092772D01*
Y06186D01*
X093268D01*
Y061301D01*
D02*
G37*
G36*
X095772Y06047D02*
X095276D01*
Y06103D01*
X095772D01*
Y06047D01*
D02*
G37*
G36*
X094937D02*
X094441D01*
Y06103D01*
X094937D01*
Y06047D01*
D02*
G37*
G36*
X094103D02*
X093607D01*
Y06103D01*
X094103D01*
Y06047D01*
D02*
G37*
G36*
X093268D02*
X092772D01*
Y06103D01*
X093268D01*
Y06047D01*
D02*
G37*
G36*
X095772Y05964D02*
X095276D01*
Y060199D01*
X095772D01*
Y05964D01*
D02*
G37*
G36*
X094937D02*
X094441D01*
Y060199D01*
X094937D01*
Y05964D01*
D02*
G37*
G36*
X094103D02*
X093607D01*
Y060199D01*
X094103D01*
Y05964D01*
D02*
G37*
G36*
X093268D02*
X092772D01*
Y060199D01*
X093268D01*
Y05964D01*
D02*
G37*
G36*
X095772Y058809D02*
X095276D01*
Y059368D01*
X095772D01*
Y058809D01*
D02*
G37*
G36*
X094937D02*
X094441D01*
Y059368D01*
X094937D01*
Y058809D01*
D02*
G37*
G36*
X094103D02*
X093607D01*
Y059368D01*
X094103D01*
Y058809D01*
D02*
G37*
G36*
X093268D02*
X092772D01*
Y059368D01*
X093268D01*
Y058809D01*
D02*
G37*
D21*
X11065Y06775D02*
D03*
X117422D02*
D03*
D22*
X119343Y05237D02*
D03*
X11954D02*
D03*
X119737D02*
D03*
X119933D02*
D03*
X12013D02*
D03*
X120327D02*
D03*
X120524D02*
D03*
X120721D02*
D03*
X120918D02*
D03*
X121115D02*
D03*
Y050027D02*
D03*
X120918D02*
D03*
X120721D02*
D03*
X120524D02*
D03*
X120327D02*
D03*
X12013D02*
D03*
X119933D02*
D03*
X119737D02*
D03*
X11954D02*
D03*
X119343D02*
D03*
D23*
X1214Y052084D02*
D03*
Y051887D02*
D03*
Y051691D02*
D03*
Y051494D02*
D03*
Y051297D02*
D03*
Y0511D02*
D03*
Y050903D02*
D03*
Y050706D02*
D03*
Y050509D02*
D03*
Y050313D02*
D03*
X119057D02*
D03*
Y050509D02*
D03*
Y050706D02*
D03*
Y050903D02*
D03*
Y0511D02*
D03*
Y051297D02*
D03*
Y051494D02*
D03*
Y051691D02*
D03*
Y051887D02*
D03*
Y052084D02*
D03*
D24*
X120229Y051198D02*
D03*
D25*
X119295Y055459D02*
D03*
Y055282D02*
D03*
Y055104D02*
D03*
Y054927D02*
D03*
Y05475D02*
D03*
Y054573D02*
D03*
Y054396D02*
D03*
X12085D02*
D03*
Y054573D02*
D03*
Y05475D02*
D03*
Y054927D02*
D03*
Y055104D02*
D03*
Y055282D02*
D03*
Y055459D02*
D03*
D26*
X119541Y05415D02*
D03*
X119718D02*
D03*
X119895D02*
D03*
X120072D02*
D03*
X12025D02*
D03*
X120427D02*
D03*
X120604D02*
D03*
Y055705D02*
D03*
X120427D02*
D03*
X12025D02*
D03*
X120072D02*
D03*
X119895D02*
D03*
X119718D02*
D03*
X119541D02*
D03*
D27*
X120072Y054927D02*
D03*
D28*
X119161Y046669D02*
D03*
Y046354D02*
D03*
Y046039D02*
D03*
Y045724D02*
D03*
Y045409D02*
D03*
Y045094D02*
D03*
Y044779D02*
D03*
Y044464D02*
D03*
X122429D02*
D03*
Y044779D02*
D03*
Y045094D02*
D03*
Y045409D02*
D03*
Y045724D02*
D03*
Y046039D02*
D03*
Y046354D02*
D03*
Y046669D02*
D03*
D29*
X119693Y043932D02*
D03*
X120007D02*
D03*
X120322D02*
D03*
X120637D02*
D03*
X120952D02*
D03*
X121267D02*
D03*
X121582D02*
D03*
X121897D02*
D03*
Y0472D02*
D03*
X121582D02*
D03*
X121267D02*
D03*
X120952D02*
D03*
X120637D02*
D03*
X120322D02*
D03*
X120007D02*
D03*
X119693D02*
D03*
D30*
X119088Y068183D02*
D03*
X119988D02*
D03*
X119088Y063233D02*
D03*
X119988D02*
D03*
X120725D02*
D03*
X121625D02*
D03*
X120725Y065476D02*
D03*
X121625D02*
D03*
X119088Y065483D02*
D03*
X119988D02*
D03*
X119088Y067033D02*
D03*
X119988D02*
D03*
X120701Y059683D02*
D03*
X121601D02*
D03*
X119098D02*
D03*
X119998D02*
D03*
X12072Y061783D02*
D03*
X12162D02*
D03*
X119098D02*
D03*
X119998D02*
D03*
X120701Y057533D02*
D03*
X121601D02*
D03*
X119098D02*
D03*
X119998D02*
D03*
X0995Y065D02*
D03*
X0986D02*
D03*
X10085Y067D02*
D03*
X09995D02*
D03*
X087525Y06405D02*
D03*
X088425D02*
D03*
X087525Y065625D02*
D03*
X088425D02*
D03*
X087525Y066413D02*
D03*
X088425D02*
D03*
X087525Y064837D02*
D03*
X088425D02*
D03*
X087525Y0672D02*
D03*
X088425D02*
D03*
X10595Y06735D02*
D03*
X10505D02*
D03*
X10595Y06575D02*
D03*
X10505D02*
D03*
X10595Y06655D02*
D03*
X10505D02*
D03*
X10595Y06415D02*
D03*
X10505D02*
D03*
X10595Y06495D02*
D03*
X10505D02*
D03*
X10515Y0572D02*
D03*
X10605D02*
D03*
D31*
X119125Y070083D02*
D03*
Y069183D02*
D03*
X120175Y070118D02*
D03*
Y069218D02*
D03*
X121275Y070146D02*
D03*
Y069246D02*
D03*
X122424Y070146D02*
D03*
Y069246D02*
D03*
X123425Y070146D02*
D03*
Y069246D02*
D03*
X120425Y0648D02*
D03*
Y0639D02*
D03*
X122375Y06485D02*
D03*
Y06395D02*
D03*
X122275Y060283D02*
D03*
Y061183D02*
D03*
X122274Y059083D02*
D03*
Y058183D02*
D03*
D32*
X122986Y063133D02*
D03*
X123436Y063913D02*
D03*
D33*
X123011Y065513D02*
D03*
X123461Y064733D02*
D03*
D34*
X08885Y058D02*
D03*
Y0571D02*
D03*
D35*
X10515Y06D02*
D03*
X102945D02*
D03*
X09315Y0549D02*
D03*
X095355D02*
D03*
D36*
X094272Y06075D02*
D03*
D37*
X098063Y062089D02*
D03*
Y061419D02*
D03*
Y06075D02*
D03*
Y060081D02*
D03*
Y059411D02*
D03*
D38*
X09945Y06565D02*
D03*
X09855D02*
D03*
X0986Y067D02*
D03*
X0995D02*
D03*
X100863Y06635D02*
D03*
X099963D02*
D03*
X0995D02*
D03*
X0986D02*
D03*
X10085Y06565D02*
D03*
X09995D02*
D03*
X1044Y06415D02*
D03*
X1035D02*
D03*
X0892Y065175D02*
D03*
X0901D02*
D03*
X1045Y0572D02*
D03*
X1036D02*
D03*
D39*
X0898Y0471D02*
D03*
X1029Y043975D02*
D03*
Y046925D02*
D03*
X0999Y0442D02*
D03*
X1Y046925D02*
D03*
X0927Y0441D02*
D03*
Y0471D02*
D03*
X0898Y044077D02*
D03*
D40*
X0889Y049927D02*
D03*
X0907D02*
D03*
X102Y041148D02*
D03*
X1038D02*
D03*
Y049752D02*
D03*
X102D02*
D03*
X099Y041373D02*
D03*
X1008D02*
D03*
X1009Y049752D02*
D03*
X0991D02*
D03*
X0918Y041273D02*
D03*
X0936D02*
D03*
Y049927D02*
D03*
X0918D02*
D03*
X0889Y04125D02*
D03*
X0907D02*
D03*
D41*
X094998Y064033D02*
D03*
X0959D02*
D03*
X096802D02*
D03*
X091648Y0641D02*
D03*
X09255D02*
D03*
X093452D02*
D03*
D42*
X0959Y066667D02*
D03*
X09255Y066734D02*
D03*
D43*
X089258Y064549D02*
D03*
X08926Y063805D02*
D03*
X090242Y064175D02*
D03*
X104342Y064776D02*
D03*
X10434Y06552D02*
D03*
X103358Y06515D02*
D03*
M02*
