M48
;Layer_Color=9474304
;FILE_FORMAT=2:4
INCH,LZ
;TYPE=PLATED
T1F00S00C0.0150
T2F00S00C0.0200
T3F00S00C0.0300
T4F00S00C0.0340
T5F00S00C0.0354
T6F00S00C0.0394
T7F00S00C0.0400
T8F00S00C0.0472
T9F00S00C0.0500
T11F00S00C0.0512
T12F00S00C0.1200
T13F00S00C0.1500
;TYPE=NON_PLATED
T14F00S00C0.0394
T15F00S00C0.0984
%
T01
X08845Y04035
X09005Y041
X09235
X09195Y04225
X09215Y04555
X0925
X09285
X0932
X09Y0456
X08965
X0883Y0425
X09625Y04425
Y0448
Y04535
Y04585
Y0464
X09685
Y045862
Y045325
Y044788
Y04425
X09945Y04555
X0998
X10015
X1005
X10245Y045475
X102733
X103
X103017
X1033
X1038Y042225
X10195Y042325
X10095Y042175
X10145Y041175
X10025Y04115
X0991Y042275
X1086Y042301
Y042607
Y042913
Y043219
Y043525
Y04383
Y044136
Y044442
Y044748
Y045054
Y045359
Y045665
Y045971
Y046277
Y046583
Y041995
Y04169
Y041384
Y041078
Y040772
Y040466
Y040161
Y039855
Y039549
Y039243
Y038937
Y038632
Y038326
Y03802
Y037714
Y037408
Y037103
Y036797
X1188Y0368
Y037106
Y037412
Y037717
Y038023
Y038329
Y038635
Y038941
Y039246
Y039552
Y039858
Y040164
Y04047
Y040775
Y041081
Y041387
Y041693
Y041999
Y042305
Y04261
Y042916
Y043222
Y043528
Y043834
Y044139
Y044445
Y044751
Y045057
Y045363
Y045668
Y045974
Y04628
Y046586
X11665Y039103
X1188Y046892
Y047197
Y047503
Y047809
Y048115
Y048421
Y048726
Y049032
Y049338
Y049644
Y04995
Y050256
Y050561
Y050867
Y051173
Y051479
Y051785
Y05209
Y052396
Y052702
Y053008
Y053316
Y05365
Y053956
Y054262
Y054567
Y054873
Y055179
Y055485
Y055791
Y056096
Y056402
Y056708
Y057014
Y05732
Y057625
Y057931
Y058237
Y058543
Y058849
Y059155
Y05946
Y059766
Y060072
Y060378
Y060684
Y060989
Y061295
Y061601
Y061907
Y062213
X11665Y0613
X116659Y0497
X1086Y049594
Y049288
Y048982
Y048676
Y04837
Y048064
Y047759
Y0475
Y047194
Y046888
Y049899
Y050205
Y050511
Y050817
Y051123
Y051428
Y051734
Y05204
Y052346
Y052652
Y052957
Y053263
Y053569
Y053875
Y054181
Y054486
Y054792
Y055098
Y055404
Y05571
Y056015
Y056321
Y056627
Y056933
Y057239
Y057544
Y05785
Y058156
Y058462
Y058768
Y059074
Y059379
Y059685
Y059991
Y060297
Y060603
Y060908
Y061214
Y06152
Y061826
Y062132
Y062437
X1062Y0614
X097126Y057751
X09625Y0549
X094163
X0998Y049775
X10145Y049975
X1033
X1038Y049025
X09365Y04905
X0936Y050625
X09125Y05005
X0901Y049927
X09045Y06345
X09135Y0641
X0922
X0905Y0652
X0892Y064175
X087125Y06405
Y06485
Y06565
Y06645
Y0672
X087191Y071
X087496
X087802
X088108
X088414
X08872
X089025
X089331
X089637
X089943
X090249
X090555
X09086
X091166
X091472
X091778
X092084
X092389
X092695
X093001
X093307
X093613
X086885
X086579
X086273
X085967
X085662
X085356
X08505
X093918
X094224
X09453
X094836
X095142
X095447
X095753
X096059
X096365
X096671
X096976
X097282
X097588
X097894
X0982
X098506
X098811
X099117
X099423
X099729
X100035
X10034
X100646
X100952
X101258
X101564
X101869
X102175
X102481
X102787
X103093
X103398
X103704
X10401
X104316
X104622
X104927
X105233
X105539
X105845
X106151
X106456
X106762
X107068
X107374
X10768
X107986
X108291
X1086
Y071301
Y071607
Y071913
Y072219
Y072525
Y07283
Y073136
Y073442
Y073748
Y074054
Y074359
Y074665
Y074971
Y075277
Y075583
Y070694
Y070388
Y070083
Y069777
Y069471
Y069165
Y068859
Y068554
Y068248
Y067942
Y067636
Y06733
Y067025
Y066719
Y066413
Y066107
Y065801
Y065495
Y06519
Y064884
Y064578
Y064272
Y063966
Y063661
Y063355
Y063049
Y062743
X108934Y0641
X109242
X1063Y06415
Y06495
Y06575
Y06655
Y06735
X1039Y06655
X10435Y06515
X1035Y0633
X1012Y06265
X10085Y06505
X10035Y065682
X10025Y06635
X0989
X099148Y066752
X09915Y06565
X0986Y0674
X0999Y06785
X10085Y0674
X097094Y06405
X0956Y064033
X0947
X09375Y0641
X109548
X109854
X11016
X110465
X110771
X111077
X111383
X111689
X111994
X1123
X112606
X112912
X113218
X113524
X113829
X114135
X114441
X114747
X115053
X115358
X115664
X11597
X116276
X116582
X116887
X117193
X117499
X117805
X118111
X118416
X1188
X11915
X119456
X119762
X120067
X120373
X120679
X120985
X121291
X121596
X121902
X122208
X122514
X12282
X123125
X123431
X123737
X12285Y06625
Y067841
X1218Y06895
X1203Y06855
X12065Y06785
X120641Y0662
X11865Y066232
X117158Y0662
X116078Y066228
X114097Y066213
X112947Y06655
X1118Y066575
X11115Y066413
Y06535
X1111Y0675
Y06865
Y06965
Y07055
X1146Y069862
X1166Y0698
X11703Y06985
X11645Y0686
X116745Y068248
X11865Y067865
X1188Y06895
Y063742
Y063436
Y06313
Y062824
Y062518
X114097Y06785
X12355Y0742
T02
X093625Y0421
X10095Y042175
X1038Y042225
X10285Y049525
X1017Y05945
Y0598
Y06015
X09885Y06075
Y061439
X09725Y061469
X0969
Y06075
X09725
X0928Y05015
X102Y06655
X103875Y066575
T03
X088163Y0595
Y0605
Y0615
X1Y06365
X101
X102
T04
X08675Y040425
Y041425
Y042425
Y043425
Y044425
Y045425
Y046425
X08945Y0383
X09045
X09145
X09245
X10035Y03875
X10135
X10235
X10335
X1062Y040425
Y041425
Y042425
Y043425
Y044425
Y045425
Y046425
X11055Y0466
Y0456
Y0446
Y0436
Y0476
Y0486
Y0496
Y0506
Y0516
Y0526
Y0536
Y0546
X1062Y049425
Y048425
Y047425
X08675
Y048425
Y049425
X08735Y05415
Y05515
Y05615
Y05715
X093875Y0693
X094875
X095875
X096875
X097875
X098875
X099875
X100875
X101875
X102875
X103875
X104875
T05
X087876Y0693
X088876
X089876
X090876
X091876
X092876
T06
X1132Y037852
Y038852
Y04077
Y04177
Y043689
Y044689
Y046607
X115365
Y044689
Y043689
Y04177
Y04077
Y038852
Y037852
Y047607
Y049526
Y050526
Y052444
Y053444
Y055363
Y056363
X115415Y058281
Y059281
Y0612
Y0622
X11325
Y0612
Y059281
Y058281
X1132Y056363
Y055363
Y053444
Y052444
Y050526
Y049526
Y047607
T07
X1174Y03755
Y03855
Y03965
Y04065
X117413Y048009
Y049009
X1174Y050248
Y051248
X117445Y059748
Y060748
X117433Y061898
Y062898
T08
X0907Y053297
Y055297
Y0597
Y0617
T09
X118126Y072639
X121275Y072639
T11
X0999Y05365
Y0619
T12
X1098Y0376
Y06295
T13
X08626Y0379
X10666
X08626Y0692
X10666
X1103Y07435
T14
X112452Y037387
Y040306
Y043224
Y046143
Y049061
Y05198
Y054898
X112502Y057817
Y060735
T15
X114283Y037604
Y0391
Y040522
Y042018
Y043441
Y044937
Y046359
Y047856
Y049278
Y050774
Y052196
Y053693
Y055115
Y056611
X114333Y058033
Y05953
Y060952
Y062448
M30
