G04*
G04 #@! TF.GenerationSoftware,Altium Limited,Altium Designer,18.1.6 (161)*
G04*
G04 Layer_Color=128*
%FSTAX24Y24*%
%MOIN*%
G70*
G01*
G75*
%ADD25R,0.0550X0.0394*%
%ADD26R,0.1378X0.0630*%
%ADD29R,0.0394X0.0550*%
%ADD34R,0.0472X0.0335*%
%ADD97R,0.1969X0.1181*%
G04:AMPARAMS|DCode=98|XSize=39.4mil|YSize=55mil|CornerRadius=0mil|HoleSize=0mil|Usage=FLASHONLY|Rotation=330.000|XOffset=0mil|YOffset=0mil|HoleType=Round|Shape=Rectangle|*
%AMROTATEDRECTD98*
4,1,4,-0.0308,-0.0140,-0.0033,0.0337,0.0308,0.0140,0.0033,-0.0337,-0.0308,-0.0140,0.0*
%
%ADD98ROTATEDRECTD98*%

G04:AMPARAMS|DCode=99|XSize=39.4mil|YSize=55mil|CornerRadius=0mil|HoleSize=0mil|Usage=FLASHONLY|Rotation=210.000|XOffset=0mil|YOffset=0mil|HoleType=Round|Shape=Rectangle|*
%AMROTATEDRECTD99*
4,1,4,0.0033,0.0337,0.0308,-0.0140,-0.0033,-0.0337,-0.0308,0.0140,0.0033,0.0337,0.0*
%
%ADD99ROTATEDRECTD99*%

%ADD100R,0.0984X0.1516*%
%ADD101O,0.0236X0.0709*%
%ADD102R,0.0335X0.0472*%
%ADD103R,0.0433X0.0550*%
%ADD104R,0.1500X0.0866*%
%ADD105R,0.2441X0.2283*%
%ADD106R,0.1181X0.0630*%
%ADD107R,0.0906X0.0900*%
D25*
X122445Y067841D02*
D03*
Y066941D02*
D03*
Y066238D02*
D03*
Y065338D02*
D03*
X120295Y067841D02*
D03*
Y066941D02*
D03*
Y066238D02*
D03*
Y065338D02*
D03*
X118195Y06786D02*
D03*
Y06696D02*
D03*
Y066238D02*
D03*
Y065338D02*
D03*
X116745Y066228D02*
D03*
Y065328D02*
D03*
Y067865D02*
D03*
Y066965D02*
D03*
X114507Y067865D02*
D03*
Y066965D02*
D03*
X1145Y066228D02*
D03*
Y065328D02*
D03*
X11295Y066228D02*
D03*
Y065328D02*
D03*
X1118Y066228D02*
D03*
Y065328D02*
D03*
X10965Y0506D02*
D03*
Y0497D02*
D03*
X11665Y048D02*
D03*
Y0489D02*
D03*
X1115Y0536D02*
D03*
Y0527D02*
D03*
X1096Y0526D02*
D03*
Y0517D02*
D03*
X1115Y05155D02*
D03*
Y05065D02*
D03*
Y0496D02*
D03*
Y0487D02*
D03*
X10965Y0486D02*
D03*
Y0477D02*
D03*
X1115Y0476D02*
D03*
Y0467D02*
D03*
X10965Y0466D02*
D03*
Y0457D02*
D03*
X1115Y0456D02*
D03*
Y0447D02*
D03*
X116683Y059748D02*
D03*
Y060648D02*
D03*
X11665Y03755D02*
D03*
Y03845D02*
D03*
Y04065D02*
D03*
Y03975D02*
D03*
X112033Y062248D02*
D03*
Y061348D02*
D03*
X116683Y062948D02*
D03*
Y062048D02*
D03*
X11665Y05125D02*
D03*
Y05035D02*
D03*
X1038Y047775D02*
D03*
Y048675D02*
D03*
X1005Y04875D02*
D03*
Y04785D02*
D03*
X10195Y044375D02*
D03*
Y043475D02*
D03*
X09195Y04345D02*
D03*
Y04255D02*
D03*
X08885Y043425D02*
D03*
Y042525D02*
D03*
X0905Y04715D02*
D03*
Y04805D02*
D03*
X09365Y04755D02*
D03*
Y04845D02*
D03*
X09804Y039673D02*
D03*
Y040573D02*
D03*
X097265Y039673D02*
D03*
Y040573D02*
D03*
X09649Y039673D02*
D03*
Y040573D02*
D03*
X095715Y039673D02*
D03*
Y040573D02*
D03*
X09494Y039673D02*
D03*
Y040573D02*
D03*
D26*
X09535Y0549D02*
D03*
X093145D02*
D03*
D29*
X1218Y068499D02*
D03*
X1209D02*
D03*
X118799Y0685D02*
D03*
X119699D02*
D03*
X1161Y066657D02*
D03*
X1152D02*
D03*
X116083Y0686D02*
D03*
X115183D02*
D03*
X11075Y07055D02*
D03*
X10985D02*
D03*
X110771Y06535D02*
D03*
X109871D02*
D03*
X11075Y0664D02*
D03*
X10985D02*
D03*
X110722Y0675D02*
D03*
X109822D02*
D03*
X110722Y068649D02*
D03*
X109822D02*
D03*
X110722Y06965D02*
D03*
X109822D02*
D03*
X113433Y060148D02*
D03*
X112533D02*
D03*
X1134Y0572D02*
D03*
X1125D02*
D03*
X11335Y0543D02*
D03*
X11245D02*
D03*
X113352Y0514D02*
D03*
X112452D02*
D03*
X11335Y04845D02*
D03*
X11245D02*
D03*
X1134Y04555D02*
D03*
X1125D02*
D03*
X1134Y0426D02*
D03*
X1125D02*
D03*
X11345Y03965D02*
D03*
X11255D02*
D03*
X09935Y043849D02*
D03*
X09845D02*
D03*
X1054Y0626D02*
D03*
X1045D02*
D03*
X1035Y06415D02*
D03*
X1044D02*
D03*
X0901Y065175D02*
D03*
X0892D02*
D03*
X09815Y041323D02*
D03*
X09725D02*
D03*
X09535Y041373D02*
D03*
X09445D02*
D03*
X087525Y0672D02*
D03*
X088425D02*
D03*
X087525Y06645D02*
D03*
X088425D02*
D03*
X087525Y06565D02*
D03*
X088425D02*
D03*
X087525Y06485D02*
D03*
X088425D02*
D03*
X087525Y06405D02*
D03*
X088425D02*
D03*
X10595Y06495D02*
D03*
X10505D02*
D03*
X10595Y06575D02*
D03*
X10505D02*
D03*
X10595Y06735D02*
D03*
X10505D02*
D03*
X10595Y06415D02*
D03*
X10505D02*
D03*
X10595Y06655D02*
D03*
X10505D02*
D03*
D34*
X089258Y063801D02*
D03*
X08926Y064545D02*
D03*
X090242Y064175D02*
D03*
X104334Y065524D02*
D03*
X104332Y06478D02*
D03*
X10335Y06515D02*
D03*
D97*
X12285Y0726D02*
D03*
X116078D02*
D03*
D98*
X11684Y06921D02*
D03*
X11606Y06966D02*
D03*
D99*
X114467Y069224D02*
D03*
X115247Y069674D02*
D03*
D100*
X093661Y062209D02*
D03*
X095039D02*
D03*
X093661Y058291D02*
D03*
X095039D02*
D03*
D101*
X1004Y065076D02*
D03*
X0999D02*
D03*
X0994D02*
D03*
X0989D02*
D03*
X1004Y0673D02*
D03*
X0999D02*
D03*
X0994D02*
D03*
X0989D02*
D03*
D102*
X0997Y042233D02*
D03*
X10007Y043215D02*
D03*
X099326Y043217D02*
D03*
X0895Y049042D02*
D03*
X08913Y04806D02*
D03*
X089874Y048058D02*
D03*
X097974Y042081D02*
D03*
X09723Y042083D02*
D03*
X0976Y043065D02*
D03*
X09565Y042123D02*
D03*
X094906Y042125D02*
D03*
X095276Y043107D02*
D03*
X1063Y062592D02*
D03*
X10593Y06161D02*
D03*
X106674Y061608D02*
D03*
X099924Y047833D02*
D03*
X09918Y047835D02*
D03*
X09955Y048817D02*
D03*
X089426Y043392D02*
D03*
X09017Y04339D02*
D03*
X0898Y042408D02*
D03*
D103*
X094756Y06574D02*
D03*
X095544D02*
D03*
X094763Y06495D02*
D03*
X09555D02*
D03*
X09625Y06575D02*
D03*
X097037D02*
D03*
X096256Y06494D02*
D03*
X097044D02*
D03*
X091413Y0658D02*
D03*
X0922D02*
D03*
X091413Y06495D02*
D03*
X0922D02*
D03*
X092906Y0658D02*
D03*
X093694D02*
D03*
X092906Y06495D02*
D03*
X093694D02*
D03*
D104*
X09815Y05775D02*
D03*
Y06075D02*
D03*
D105*
X1033Y05985D02*
D03*
D106*
X106127Y05895D02*
D03*
Y06075D02*
D03*
D107*
X10285Y044375D02*
D03*
Y042775D02*
D03*
Y046775D02*
D03*
Y048375D02*
D03*
X10095Y042825D02*
D03*
Y044425D02*
D03*
X10135Y048375D02*
D03*
Y046775D02*
D03*
X09105Y04185D02*
D03*
Y04345D02*
D03*
X09285D02*
D03*
Y04185D02*
D03*
X0916Y0493D02*
D03*
Y0477D02*
D03*
X0928Y04765D02*
D03*
Y04925D02*
D03*
M02*
