G04*
G04 #@! TF.GenerationSoftware,Altium Limited,Altium Designer,18.1.6 (161)*
G04*
G04 Layer_Color=32768*
%FSTAX24Y24*%
%MOIN*%
G70*
G01*
G75*
%ADD15C,0.0050*%
%ADD121C,0.0039*%
%ADD122C,0.0020*%
D15*
X102198Y0587D02*
X105898D01*
Y0613D01*
X102198D02*
X105898D01*
X102198Y0587D02*
Y0613D01*
X104048Y059882D02*
Y060118D01*
X10393Y06D02*
X104166D01*
X092398Y0562D02*
X096098D01*
Y0536D02*
Y0562D01*
X092398Y0536D02*
X096098D01*
X092398D02*
Y0562D01*
X094248Y054782D02*
Y055018D01*
X09413Y0549D02*
X094366D01*
X092402Y0562D02*
X096102D01*
X092402Y0536D02*
Y0562D01*
Y0536D02*
X096102D01*
Y0562D01*
X094252Y054782D02*
Y055018D01*
X094134Y0549D02*
X09437D01*
D121*
X091791Y062986D02*
X096909D01*
X091791Y057514D02*
X096909D01*
X091791D02*
Y062986D01*
X096909Y057514D02*
Y062986D01*
X09435Y060053D02*
Y060447D01*
X094153Y06025D02*
X094547D01*
X099453Y066188D02*
X099847D01*
X09965Y065991D02*
Y066385D01*
D122*
X100772Y064638D02*
Y067738D01*
X098528Y064638D02*
Y067738D01*
Y064638D02*
X100772D01*
X098528Y067738D02*
X100772D01*
M02*
