G04*
G04 #@! TF.GenerationSoftware,Altium Limited,Altium Designer,18.1.6 (161)*
G04*
G04 Layer_Color=8388736*
%FSTAX24Y24*%
%MOIN*%
G70*
G01*
G75*
%ADD44R,0.2049X0.1261*%
%ADD45O,0.0190X0.0415*%
%ADD46O,0.0415X0.0190*%
%ADD47R,0.1852X0.1852*%
%ADD48O,0.0336X0.0159*%
%ADD49O,0.0159X0.0336*%
%ADD50R,0.1064X0.1064*%
%ADD51O,0.0611X0.0297*%
%ADD52O,0.0297X0.0611*%
%ADD53R,0.0580X0.0630*%
%ADD54R,0.0630X0.0580*%
G04:AMPARAMS|DCode=55|XSize=58mil|YSize=63mil|CornerRadius=0mil|HoleSize=0mil|Usage=FLASHONLY|Rotation=240.000|XOffset=0mil|YOffset=0mil|HoleType=Round|Shape=Rectangle|*
%AMROTATEDRECTD55*
4,1,4,-0.0128,0.0409,0.0418,0.0094,0.0128,-0.0409,-0.0418,-0.0094,-0.0128,0.0409,0.0*
%
%ADD55ROTATEDRECTD55*%

G04:AMPARAMS|DCode=56|XSize=58mil|YSize=63mil|CornerRadius=0mil|HoleSize=0mil|Usage=FLASHONLY|Rotation=120.000|XOffset=0mil|YOffset=0mil|HoleType=Round|Shape=Rectangle|*
%AMROTATEDRECTD56*
4,1,4,0.0418,-0.0094,-0.0128,-0.0409,-0.0418,0.0094,0.0128,0.0409,0.0418,-0.0094,0.0*
%
%ADD56ROTATEDRECTD56*%

%ADD57R,0.0630X0.0474*%
%ADD58R,0.1458X0.0710*%
%ADD59R,0.3411X0.4226*%
%ADD60R,0.1344X0.0493*%
%ADD61R,0.0474X0.0630*%
%ADD62R,0.2363X0.2521*%
%ADD63R,0.0710X0.1261*%
%ADD64R,0.0446X0.0596*%
%ADD65R,0.1356X0.0596*%
%ADD66R,0.0552X0.0415*%
%ADD67C,0.0780*%
%ADD68P,0.0790X8X292.5*%
%ADD69C,0.0730*%
%ADD70C,0.0671*%
%ADD71C,0.0474*%
%ADD72C,0.1064*%
%ADD73O,0.0980X0.0830*%
%ADD74R,0.0980X0.0830*%
%ADD75O,0.1080X0.1680*%
%ADD76O,0.1680X0.1080*%
%ADD77C,0.1180*%
%ADD78R,0.0730X0.0980*%
%ADD79O,0.0730X0.0980*%
%ADD80R,0.0671X0.0671*%
%ADD81O,0.0830X0.0980*%
%ADD82R,0.0830X0.0980*%
%ADD83O,0.1261X0.0946*%
%ADD84R,0.0980X0.0730*%
%ADD85O,0.0980X0.0730*%
%ADD86C,0.0280*%
%ADD87C,0.0580*%
%ADD88C,0.1680*%
%ADD89C,0.1080*%
%ADD90C,0.0380*%
%ADD91C,0.2080*%
D44*
X11065Y06775D02*
D03*
X117422D02*
D03*
D45*
X119343Y05237D02*
D03*
X11954D02*
D03*
X119737D02*
D03*
X119933D02*
D03*
X12013D02*
D03*
X120327D02*
D03*
X120524D02*
D03*
X120721D02*
D03*
X120918D02*
D03*
X121115D02*
D03*
Y050027D02*
D03*
X120918D02*
D03*
X120721D02*
D03*
X120524D02*
D03*
X120327D02*
D03*
X12013D02*
D03*
X119933D02*
D03*
X119737D02*
D03*
X11954D02*
D03*
X119343D02*
D03*
D46*
X1214Y052084D02*
D03*
Y051887D02*
D03*
Y051691D02*
D03*
Y051494D02*
D03*
Y051297D02*
D03*
Y0511D02*
D03*
Y050903D02*
D03*
Y050706D02*
D03*
Y050509D02*
D03*
Y050313D02*
D03*
X119057D02*
D03*
Y050509D02*
D03*
Y050706D02*
D03*
Y050903D02*
D03*
Y0511D02*
D03*
Y051297D02*
D03*
Y051494D02*
D03*
Y051691D02*
D03*
Y051887D02*
D03*
Y052084D02*
D03*
D47*
X120229Y051198D02*
D03*
D48*
X119295Y055459D02*
D03*
Y055282D02*
D03*
Y055104D02*
D03*
Y054927D02*
D03*
Y05475D02*
D03*
Y054573D02*
D03*
Y054396D02*
D03*
X12085D02*
D03*
Y054573D02*
D03*
Y05475D02*
D03*
Y054927D02*
D03*
Y055104D02*
D03*
Y055282D02*
D03*
Y055459D02*
D03*
D49*
X119541Y05415D02*
D03*
X119718D02*
D03*
X119895D02*
D03*
X120072D02*
D03*
X12025D02*
D03*
X120427D02*
D03*
X120604D02*
D03*
Y055705D02*
D03*
X120427D02*
D03*
X12025D02*
D03*
X120072D02*
D03*
X119895D02*
D03*
X119718D02*
D03*
X119541D02*
D03*
D50*
X120072Y054927D02*
D03*
D51*
X119161Y046669D02*
D03*
Y046354D02*
D03*
Y046039D02*
D03*
Y045724D02*
D03*
Y045409D02*
D03*
Y045094D02*
D03*
Y044779D02*
D03*
Y044464D02*
D03*
X122429D02*
D03*
Y044779D02*
D03*
Y045094D02*
D03*
Y045409D02*
D03*
Y045724D02*
D03*
Y046039D02*
D03*
Y046354D02*
D03*
Y046669D02*
D03*
D52*
X119693Y043932D02*
D03*
X120007D02*
D03*
X120322D02*
D03*
X120637D02*
D03*
X120952D02*
D03*
X121267D02*
D03*
X121582D02*
D03*
X121897D02*
D03*
Y0472D02*
D03*
X121582D02*
D03*
X121267D02*
D03*
X120952D02*
D03*
X120637D02*
D03*
X120322D02*
D03*
X120007D02*
D03*
X119693D02*
D03*
D53*
X119088Y068183D02*
D03*
X119988D02*
D03*
X119088Y063233D02*
D03*
X119988D02*
D03*
X120725D02*
D03*
X121625D02*
D03*
X120725Y065476D02*
D03*
X121625D02*
D03*
X119088Y065483D02*
D03*
X119988D02*
D03*
X119088Y067033D02*
D03*
X119988D02*
D03*
X120701Y059683D02*
D03*
X121601D02*
D03*
X119098D02*
D03*
X119998D02*
D03*
X12072Y061783D02*
D03*
X12162D02*
D03*
X119098D02*
D03*
X119998D02*
D03*
X120701Y057533D02*
D03*
X121601D02*
D03*
X119098D02*
D03*
X119998D02*
D03*
X0995Y065D02*
D03*
X0986D02*
D03*
X10085Y067D02*
D03*
X09995D02*
D03*
X087525Y06405D02*
D03*
X088425D02*
D03*
X087525Y065625D02*
D03*
X088425D02*
D03*
X087525Y066413D02*
D03*
X088425D02*
D03*
X087525Y064837D02*
D03*
X088425D02*
D03*
X087525Y0672D02*
D03*
X088425D02*
D03*
X10595Y06735D02*
D03*
X10505D02*
D03*
X10595Y06575D02*
D03*
X10505D02*
D03*
X10595Y06655D02*
D03*
X10505D02*
D03*
X10595Y06415D02*
D03*
X10505D02*
D03*
X10595Y06495D02*
D03*
X10505D02*
D03*
X10515Y0572D02*
D03*
X10605D02*
D03*
D54*
X119125Y070083D02*
D03*
Y069183D02*
D03*
X120175Y070118D02*
D03*
Y069218D02*
D03*
X121275Y070146D02*
D03*
Y069246D02*
D03*
X122424Y070146D02*
D03*
Y069246D02*
D03*
X123425Y070146D02*
D03*
Y069246D02*
D03*
X120425Y0648D02*
D03*
Y0639D02*
D03*
X122375Y06485D02*
D03*
Y06395D02*
D03*
X122275Y060283D02*
D03*
Y061183D02*
D03*
X122274Y059083D02*
D03*
Y058183D02*
D03*
D55*
X122986Y063133D02*
D03*
X123436Y063913D02*
D03*
D56*
X123011Y065513D02*
D03*
X123461Y064733D02*
D03*
D57*
X08885Y058D02*
D03*
Y0571D02*
D03*
D58*
X10515Y06D02*
D03*
X102945D02*
D03*
X09315Y0549D02*
D03*
X095355D02*
D03*
D59*
X094272Y06075D02*
D03*
D60*
X098063Y062089D02*
D03*
Y061419D02*
D03*
Y06075D02*
D03*
Y060081D02*
D03*
Y059411D02*
D03*
D61*
X09945Y06565D02*
D03*
X09855D02*
D03*
X0986Y067D02*
D03*
X0995D02*
D03*
X100863Y06635D02*
D03*
X099963D02*
D03*
X0995D02*
D03*
X0986D02*
D03*
X10085Y06565D02*
D03*
X09995D02*
D03*
X1044Y06415D02*
D03*
X1035D02*
D03*
X0892Y065175D02*
D03*
X0901D02*
D03*
X1045Y0572D02*
D03*
X1036D02*
D03*
D62*
X0898Y0471D02*
D03*
X1029Y043975D02*
D03*
Y046925D02*
D03*
X0999Y0442D02*
D03*
X1Y046925D02*
D03*
X0927Y0441D02*
D03*
Y0471D02*
D03*
X0898Y044077D02*
D03*
D63*
X0889Y049927D02*
D03*
X0907D02*
D03*
X102Y041148D02*
D03*
X1038D02*
D03*
Y049752D02*
D03*
X102D02*
D03*
X099Y041373D02*
D03*
X1008D02*
D03*
X1009Y049752D02*
D03*
X0991D02*
D03*
X0918Y041273D02*
D03*
X0936D02*
D03*
Y049927D02*
D03*
X0918D02*
D03*
X0889Y04125D02*
D03*
X0907D02*
D03*
D64*
X094998Y064033D02*
D03*
X0959D02*
D03*
X096802D02*
D03*
X091648Y0641D02*
D03*
X09255D02*
D03*
X093452D02*
D03*
D65*
X0959Y066667D02*
D03*
X09255Y066734D02*
D03*
D66*
X089258Y064549D02*
D03*
X08926Y063805D02*
D03*
X090242Y064175D02*
D03*
X104342Y064776D02*
D03*
X10434Y06552D02*
D03*
X103358Y06515D02*
D03*
D67*
X12275Y03925D02*
D03*
X11925D02*
D03*
X12275Y042275D02*
D03*
X11925D02*
D03*
D68*
X1174Y051248D02*
D03*
X117413Y048009D02*
D03*
X117445Y059748D02*
D03*
X117433Y062898D02*
D03*
X1174Y03755D02*
D03*
Y04065D02*
D03*
D69*
Y050248D02*
D03*
X117413Y049009D02*
D03*
X117445Y060748D02*
D03*
X117433Y061898D02*
D03*
X1174Y03855D02*
D03*
Y03965D02*
D03*
D70*
X1132Y044689D02*
D03*
Y043689D02*
D03*
X115365Y044689D02*
D03*
Y043689D02*
D03*
X1132Y04177D02*
D03*
Y04077D02*
D03*
X115365Y04177D02*
D03*
Y04077D02*
D03*
X1132Y038852D02*
D03*
Y037852D02*
D03*
X115365Y038852D02*
D03*
Y037852D02*
D03*
X1132Y053444D02*
D03*
Y052444D02*
D03*
X115365Y053444D02*
D03*
Y052444D02*
D03*
X1132Y050526D02*
D03*
Y049526D02*
D03*
X115365Y050526D02*
D03*
Y049526D02*
D03*
X1132Y047607D02*
D03*
Y046607D02*
D03*
X115365Y047607D02*
D03*
Y046607D02*
D03*
X11325Y0622D02*
D03*
Y0612D02*
D03*
X115415Y0622D02*
D03*
Y0612D02*
D03*
X11325Y059281D02*
D03*
Y058281D02*
D03*
X115415Y059281D02*
D03*
Y058281D02*
D03*
X1132Y056363D02*
D03*
Y055363D02*
D03*
X115365Y056363D02*
D03*
Y055363D02*
D03*
X091876Y0693D02*
D03*
X090876D02*
D03*
X089876D02*
D03*
X088876D02*
D03*
X087876D02*
D03*
D71*
X112452Y043224D02*
D03*
Y040306D02*
D03*
Y037387D02*
D03*
Y05198D02*
D03*
Y049061D02*
D03*
Y046143D02*
D03*
X112502Y060735D02*
D03*
Y057817D02*
D03*
X112452Y054898D02*
D03*
D72*
X114283Y043441D02*
D03*
Y044937D02*
D03*
Y040522D02*
D03*
Y042018D02*
D03*
Y037604D02*
D03*
Y0391D02*
D03*
Y052196D02*
D03*
Y053693D02*
D03*
Y049278D02*
D03*
Y050774D02*
D03*
Y046359D02*
D03*
Y047856D02*
D03*
X114333Y060952D02*
D03*
Y062448D02*
D03*
Y058033D02*
D03*
Y05953D02*
D03*
X114283Y055115D02*
D03*
Y056611D02*
D03*
D73*
X11055Y0546D02*
D03*
Y0526D02*
D03*
Y0506D02*
D03*
Y0486D02*
D03*
Y0466D02*
D03*
Y0456D02*
D03*
Y0446D02*
D03*
Y0476D02*
D03*
Y0496D02*
D03*
Y0516D02*
D03*
Y0536D02*
D03*
X1062Y048425D02*
D03*
Y046425D02*
D03*
Y044425D02*
D03*
Y041425D02*
D03*
Y042425D02*
D03*
Y043425D02*
D03*
Y045425D02*
D03*
Y047425D02*
D03*
Y049425D02*
D03*
X08675Y041425D02*
D03*
Y043425D02*
D03*
Y045425D02*
D03*
Y048425D02*
D03*
Y047425D02*
D03*
Y046425D02*
D03*
Y044425D02*
D03*
Y042425D02*
D03*
Y040425D02*
D03*
X08735Y05715D02*
D03*
Y05615D02*
D03*
Y05515D02*
D03*
D74*
X11055Y0436D02*
D03*
X1062Y040425D02*
D03*
X08675Y049425D02*
D03*
X08735Y05415D02*
D03*
D75*
X10155Y05465D02*
D03*
X10405D02*
D03*
D76*
X10255Y05665D02*
D03*
D77*
X0999Y0619D02*
D03*
Y05365D02*
D03*
D78*
X102Y06365D02*
D03*
D79*
X101D02*
D03*
X1D02*
D03*
D80*
X092876Y0693D02*
D03*
D81*
X093875D02*
D03*
X095875D02*
D03*
X097875D02*
D03*
X099875D02*
D03*
X101875D02*
D03*
X102875D02*
D03*
X103875D02*
D03*
X100875D02*
D03*
X098875D02*
D03*
X096875D02*
D03*
X094875D02*
D03*
X10035Y03875D02*
D03*
X10135D02*
D03*
X10235D02*
D03*
X09245Y0383D02*
D03*
X09145D02*
D03*
X09045D02*
D03*
D82*
X104875Y0693D02*
D03*
X10335Y03875D02*
D03*
X08945Y0383D02*
D03*
D83*
X0907Y0597D02*
D03*
Y0617D02*
D03*
Y055297D02*
D03*
Y053297D02*
D03*
D84*
X088163Y0615D02*
D03*
D85*
Y0605D02*
D03*
Y0595D02*
D03*
D86*
X116913Y070183D02*
D03*
X1086Y0643D02*
D03*
X118416D02*
D03*
X1086Y0368D02*
D03*
Y063493D02*
D03*
X118537Y036813D02*
D03*
X1086Y070655D02*
D03*
X119975Y059342D02*
D03*
X120025Y057133D02*
D03*
X121616D02*
D03*
X121625Y059333D02*
D03*
X122725Y058183D02*
D03*
Y061183D02*
D03*
X12164Y061333D02*
D03*
X120007D02*
D03*
X122375Y063533D02*
D03*
X123575Y063383D02*
D03*
X123638Y065383D02*
D03*
X122023Y063238D02*
D03*
X119975Y062825D02*
D03*
X120003Y063905D02*
D03*
X121625Y065886D02*
D03*
X119988D02*
D03*
X120325Y067036D02*
D03*
X12035Y068183D02*
D03*
X123425Y068883D02*
D03*
X122425D02*
D03*
X121275D02*
D03*
X120188Y068833D02*
D03*
X119125D02*
D03*
X122325Y059683D02*
D03*
X11665Y039103D02*
D03*
X116659Y0497D02*
D03*
X11665Y0613D02*
D03*
X09625Y0549D02*
D03*
X097126Y057751D02*
D03*
X1012Y06265D02*
D03*
X09045Y06345D02*
D03*
X09915Y06565D02*
D03*
X1039Y06655D02*
D03*
X099148Y066752D02*
D03*
X0999Y06785D02*
D03*
X10035Y065682D02*
D03*
X0989Y06635D02*
D03*
X10025D02*
D03*
X10085Y06505D02*
D03*
Y0674D02*
D03*
X0986D02*
D03*
X1063Y06735D02*
D03*
X1035Y0633D02*
D03*
X1062Y0614D02*
D03*
X0905Y0652D02*
D03*
X0956Y064033D02*
D03*
X0947D02*
D03*
X0892Y064175D02*
D03*
X10025Y04115D02*
D03*
X09125Y05005D02*
D03*
X08845Y04035D02*
D03*
X0883Y0425D02*
D03*
X10435Y06515D02*
D03*
X1063Y06415D02*
D03*
Y06495D02*
D03*
Y06575D02*
D03*
Y06655D02*
D03*
X087125Y06405D02*
D03*
Y06485D02*
D03*
Y06565D02*
D03*
Y06645D02*
D03*
Y0672D02*
D03*
X097094Y06405D02*
D03*
X09375Y0641D02*
D03*
X09135D02*
D03*
X0922D02*
D03*
X094163Y0549D02*
D03*
X10145Y041175D02*
D03*
Y049975D02*
D03*
X1033D02*
D03*
X0991Y042275D02*
D03*
X1038Y042225D02*
D03*
X10095Y042175D02*
D03*
X10195Y042325D02*
D03*
X1038Y049025D02*
D03*
X0998Y049775D02*
D03*
X0936Y050625D02*
D03*
X09195Y04225D02*
D03*
X09365Y04905D02*
D03*
X0901Y049927D02*
D03*
D87*
X112225Y067789D02*
D03*
X115374Y067789D02*
D03*
D88*
X1098Y0376D02*
D03*
Y06295D02*
D03*
D89*
X1211Y0378D02*
D03*
D90*
X1005Y04555D02*
D03*
X09945D02*
D03*
X09625Y0464D02*
D03*
Y04585D02*
D03*
Y04535D02*
D03*
Y0448D02*
D03*
Y04425D02*
D03*
X09685D02*
D03*
Y044788D02*
D03*
Y045325D02*
D03*
Y045862D02*
D03*
Y0464D02*
D03*
X0932Y04555D02*
D03*
X09215D02*
D03*
X10245Y045475D02*
D03*
X103017D02*
D03*
X1033D02*
D03*
X103875Y066575D02*
D03*
X102Y06655D02*
D03*
X0969Y06075D02*
D03*
X09725D02*
D03*
X09885D02*
D03*
X0969Y061469D02*
D03*
X09885Y061439D02*
D03*
X09725Y061469D02*
D03*
X1017Y06015D02*
D03*
Y0598D02*
D03*
Y05945D02*
D03*
X10015Y04555D02*
D03*
X0998D02*
D03*
X103Y045475D02*
D03*
X102733D02*
D03*
X10285Y049525D02*
D03*
X1038Y042225D02*
D03*
X10095Y042175D02*
D03*
X0928Y05015D02*
D03*
X09235Y041D02*
D03*
X093625Y0421D02*
D03*
X09005Y041D02*
D03*
X08965Y0456D02*
D03*
X09D02*
D03*
X09285Y04555D02*
D03*
X0925D02*
D03*
D91*
X08626Y0692D02*
D03*
X10666D02*
D03*
Y0379D02*
D03*
X08626D02*
D03*
M02*
