G04*
G04 #@! TF.GenerationSoftware,Altium Limited,Altium Designer,18.1.6 (161)*
G04*
G04 Layer_Color=128*
%FSTAX24Y24*%
%MOIN*%
G70*
G01*
G75*
%ADD151C,0.0020*%
D151*
X122595Y03925D02*
X122905D01*
X12275Y039095D02*
Y039405D01*
X119095Y03925D02*
X119405D01*
X11925Y039095D02*
Y039405D01*
X122595Y042275D02*
X122905D01*
X12275Y04212D02*
Y04243D01*
X119095Y042275D02*
X119405D01*
X11925Y04212D02*
Y04243D01*
X1172Y051248D02*
X1176D01*
X1174Y051048D02*
Y051448D01*
X1172Y050248D02*
X1176D01*
X1174Y050048D02*
Y050448D01*
X117213Y048009D02*
X117613D01*
X117413Y047809D02*
Y048209D01*
X117213Y049009D02*
X117613D01*
X117413Y048809D02*
Y049209D01*
X113003Y044689D02*
X113397D01*
X1132Y044492D02*
Y044886D01*
X113003Y043689D02*
X113397D01*
X1132Y043492D02*
Y043886D01*
X115169Y044689D02*
X115562D01*
X115365Y044492D02*
Y044886D01*
X115169Y043689D02*
X115562D01*
X115365Y043492D02*
Y043886D01*
X112255Y043224D02*
X112649D01*
X112452Y043028D02*
Y043421D01*
X113791Y043441D02*
X114775D01*
X114283Y042949D02*
Y043933D01*
X113791Y044937D02*
X114775D01*
X114283Y044445D02*
Y045429D01*
X11038Y0546D02*
X11072D01*
X11055Y05443D02*
Y05477D01*
X11038Y0526D02*
X11072D01*
X11055Y05243D02*
Y05277D01*
X11038Y0506D02*
X11072D01*
X11055Y05043D02*
Y05077D01*
X11038Y0486D02*
X11072D01*
X11055Y04843D02*
Y04877D01*
X11038Y0466D02*
X11072D01*
X11055Y04643D02*
Y04677D01*
X11038Y0456D02*
X11072D01*
X11055Y04543D02*
Y04577D01*
X11038Y0446D02*
X11072D01*
X11055Y04443D02*
Y04477D01*
X11038Y0436D02*
X11072D01*
X11055Y04343D02*
Y04377D01*
X11038Y0476D02*
X11072D01*
X11055Y04743D02*
Y04777D01*
X11038Y0496D02*
X11072D01*
X11055Y04943D02*
Y04977D01*
X11038Y0516D02*
X11072D01*
X11055Y05143D02*
Y05177D01*
X11038Y0536D02*
X11072D01*
X11055Y05343D02*
Y05377D01*
X113003Y04177D02*
X113397D01*
X1132Y041574D02*
Y041967D01*
X113003Y04077D02*
X113397D01*
X1132Y040574D02*
Y040967D01*
X115169Y04177D02*
X115562D01*
X115365Y041574D02*
Y041967D01*
X115169Y04077D02*
X115562D01*
X115365Y040574D02*
Y040967D01*
X112255Y040306D02*
X112649D01*
X112452Y040109D02*
Y040503D01*
X113791Y040522D02*
X114775D01*
X114283Y04003D02*
Y041015D01*
X113791Y042018D02*
X114775D01*
X114283Y041526D02*
Y042511D01*
X113003Y038852D02*
X113397D01*
X1132Y038655D02*
Y039049D01*
X113003Y037852D02*
X113397D01*
X1132Y037655D02*
Y038049D01*
X115169Y038852D02*
X115562D01*
X115365Y038655D02*
Y039049D01*
X115169Y037852D02*
X115562D01*
X115365Y037655D02*
Y038049D01*
X112255Y037387D02*
X112649D01*
X112452Y037191D02*
Y037584D01*
X113791Y037604D02*
X114775D01*
X114283Y037112D02*
Y038096D01*
X113791Y0391D02*
X114775D01*
X114283Y038608D02*
Y039592D01*
X117245Y059748D02*
X117645D01*
X117445Y059548D02*
Y059948D01*
X117245Y060748D02*
X117645D01*
X117445Y060548D02*
Y060948D01*
X117233Y062898D02*
X117633D01*
X117433Y062698D02*
Y063098D01*
X117233Y061898D02*
X117633D01*
X117433Y061698D02*
Y062098D01*
X113003Y053444D02*
X113397D01*
X1132Y053248D02*
Y053641D01*
X113003Y052444D02*
X113397D01*
X1132Y052248D02*
Y052641D01*
X115169Y053444D02*
X115562D01*
X115365Y053248D02*
Y053641D01*
X115169Y052444D02*
X115562D01*
X115365Y052248D02*
Y052641D01*
X112255Y05198D02*
X112649D01*
X112452Y051783D02*
Y052177D01*
X113791Y052196D02*
X114775D01*
X114283Y051704D02*
Y052689D01*
X113791Y053693D02*
X114775D01*
X114283Y0532D02*
Y054185D01*
X113003Y050526D02*
X113397D01*
X1132Y050329D02*
Y050723D01*
X113003Y049526D02*
X113397D01*
X1132Y049329D02*
Y049723D01*
X115169Y050526D02*
X115562D01*
X115365Y050329D02*
Y050723D01*
X115169Y049526D02*
X115562D01*
X115365Y049329D02*
Y049723D01*
X112255Y049061D02*
X112649D01*
X112452Y048865D02*
Y049258D01*
X113791Y049278D02*
X114775D01*
X114283Y048786D02*
Y04977D01*
X113791Y050774D02*
X114775D01*
X114283Y050282D02*
Y051266D01*
X113003Y047607D02*
X113397D01*
X1132Y047411D02*
Y047804D01*
X113003Y046607D02*
X113397D01*
X1132Y046411D02*
Y046804D01*
X115169Y047607D02*
X115562D01*
X115365Y047411D02*
Y047804D01*
X115169Y046607D02*
X115562D01*
X115365Y046411D02*
Y046804D01*
X112255Y046143D02*
X112649D01*
X112452Y045946D02*
Y04634D01*
X113791Y046359D02*
X114775D01*
X114283Y045867D02*
Y046852D01*
X113791Y047856D02*
X114775D01*
X114283Y047363D02*
Y048348D01*
X113053Y0622D02*
X113447D01*
X11325Y062003D02*
Y062397D01*
X113053Y0612D02*
X113447D01*
X11325Y061003D02*
Y061397D01*
X115219Y0622D02*
X115612D01*
X115415Y062003D02*
Y062397D01*
X115219Y0612D02*
X115612D01*
X115415Y061003D02*
Y061397D01*
X112305Y060735D02*
X112699D01*
X112502Y060539D02*
Y060932D01*
X113841Y060952D02*
X114825D01*
X114333Y06046D02*
Y061444D01*
X113841Y062448D02*
X114825D01*
X114333Y061956D02*
Y06294D01*
X113053Y059281D02*
X113447D01*
X11325Y059085D02*
Y059478D01*
X113053Y058281D02*
X113447D01*
X11325Y058085D02*
Y058478D01*
X115219Y059281D02*
X115612D01*
X115415Y059085D02*
Y059478D01*
X115219Y058281D02*
X115612D01*
X115415Y058085D02*
Y058478D01*
X112305Y057817D02*
X112699D01*
X112502Y05762D02*
Y058014D01*
X113841Y058033D02*
X114825D01*
X114333Y057541D02*
Y058526D01*
X113841Y05953D02*
X114825D01*
X114333Y059037D02*
Y060022D01*
X113003Y056363D02*
X113397D01*
X1132Y056166D02*
Y05656D01*
X113003Y055363D02*
X113397D01*
X1132Y055166D02*
Y05556D01*
X115169Y056363D02*
X115562D01*
X115365Y056166D02*
Y05656D01*
X115169Y055363D02*
X115562D01*
X115365Y055166D02*
Y05556D01*
X112255Y054898D02*
X112649D01*
X112452Y054702D02*
Y055095D01*
X113791Y055115D02*
X114775D01*
X114283Y054623D02*
Y055607D01*
X113791Y056611D02*
X114775D01*
X114283Y056119D02*
Y057103D01*
X1172Y03755D02*
X1176D01*
X1174Y03735D02*
Y03775D01*
X1172Y03855D02*
X1176D01*
X1174Y03835D02*
Y03875D01*
X1172Y04065D02*
X1176D01*
X1174Y04045D02*
Y04085D01*
X1172Y03965D02*
X1176D01*
X1174Y03945D02*
Y03985D01*
X1013Y05465D02*
X1018D01*
X10155Y0544D02*
Y0549D01*
X1038Y05465D02*
X1043D01*
X10405Y0544D02*
Y0549D01*
X1023Y05665D02*
X1028D01*
X10255Y0564D02*
Y0569D01*
X099644Y0619D02*
X100156D01*
X0999Y061644D02*
Y062156D01*
X099644Y05365D02*
X100156D01*
X0999Y053394D02*
Y053906D01*
X10185Y06365D02*
X10215D01*
X102Y0635D02*
Y0638D01*
X10085Y06365D02*
X10115D01*
X101Y0635D02*
Y0638D01*
X09985Y06365D02*
X10015D01*
X1Y0635D02*
Y0638D01*
X092699Y0693D02*
X093053D01*
X092876Y069123D02*
Y069477D01*
X091699Y0693D02*
X092053D01*
X091876Y069123D02*
Y069477D01*
X090699Y0693D02*
X091053D01*
X090876Y069123D02*
Y069477D01*
X089699Y0693D02*
X090053D01*
X089876Y069123D02*
Y069477D01*
X088699Y0693D02*
X089053D01*
X088876Y069123D02*
Y069477D01*
X087699Y0693D02*
X088053D01*
X087876Y069123D02*
Y069477D01*
X093705Y0693D02*
X094045D01*
X093875Y06913D02*
Y06947D01*
X095705Y0693D02*
X096045D01*
X095875Y06913D02*
Y06947D01*
X097705Y0693D02*
X098045D01*
X097875Y06913D02*
Y06947D01*
X099705Y0693D02*
X100045D01*
X099875Y06913D02*
Y06947D01*
X101705Y0693D02*
X102045D01*
X101875Y06913D02*
Y06947D01*
X102705Y0693D02*
X103045D01*
X102875Y06913D02*
Y06947D01*
X103705Y0693D02*
X104045D01*
X103875Y06913D02*
Y06947D01*
X104705Y0693D02*
X105045D01*
X104875Y06913D02*
Y06947D01*
X100705Y0693D02*
X101045D01*
X100875Y06913D02*
Y06947D01*
X098705Y0693D02*
X099045D01*
X098875Y06913D02*
Y06947D01*
X096705Y0693D02*
X097045D01*
X096875Y06913D02*
Y06947D01*
X094705Y0693D02*
X095045D01*
X094875Y06913D02*
Y06947D01*
X10603Y048425D02*
X10637D01*
X1062Y048255D02*
Y048595D01*
X10603Y046425D02*
X10637D01*
X1062Y046255D02*
Y046595D01*
X10603Y044425D02*
X10637D01*
X1062Y044255D02*
Y044595D01*
X10603Y040425D02*
X10637D01*
X1062Y040255D02*
Y040595D01*
X10603Y041425D02*
X10637D01*
X1062Y041255D02*
Y041595D01*
X10603Y042425D02*
X10637D01*
X1062Y042255D02*
Y042595D01*
X10603Y043425D02*
X10637D01*
X1062Y043255D02*
Y043595D01*
X10603Y045425D02*
X10637D01*
X1062Y045255D02*
Y045595D01*
X10603Y047425D02*
X10637D01*
X1062Y047255D02*
Y047595D01*
X10603Y049425D02*
X10637D01*
X1062Y049255D02*
Y049595D01*
X08658Y041425D02*
X08692D01*
X08675Y041255D02*
Y041595D01*
X08658Y043425D02*
X08692D01*
X08675Y043255D02*
Y043595D01*
X08658Y045425D02*
X08692D01*
X08675Y045255D02*
Y045595D01*
X08658Y049425D02*
X08692D01*
X08675Y049255D02*
Y049595D01*
X08658Y048425D02*
X08692D01*
X08675Y048255D02*
Y048595D01*
X08658Y047425D02*
X08692D01*
X08675Y047255D02*
Y047595D01*
X08658Y046425D02*
X08692D01*
X08675Y046255D02*
Y046595D01*
X08658Y044425D02*
X08692D01*
X08675Y044255D02*
Y044595D01*
X08658Y042425D02*
X08692D01*
X08675Y042255D02*
Y042595D01*
X08658Y040425D02*
X08692D01*
X08675Y040255D02*
Y040595D01*
X08718Y05715D02*
X08752D01*
X08735Y05698D02*
Y05732D01*
X08718Y05615D02*
X08752D01*
X08735Y05598D02*
Y05632D01*
X08718Y05515D02*
X08752D01*
X08735Y05498D02*
Y05532D01*
X08718Y05415D02*
X08752D01*
X08735Y05398D02*
Y05432D01*
X090464Y0597D02*
X090936D01*
X0907Y059464D02*
Y059936D01*
X090464Y0617D02*
X090936D01*
X0907Y061464D02*
Y061936D01*
X090464Y055297D02*
X090936D01*
X0907Y055061D02*
Y055534D01*
X090464Y053297D02*
X090936D01*
X0907Y053061D02*
Y053534D01*
X088013Y0615D02*
X088313D01*
X088163Y06135D02*
Y06165D01*
X088013Y0605D02*
X088313D01*
X088163Y06035D02*
Y06065D01*
X088013Y0595D02*
X088313D01*
X088163Y05935D02*
Y05965D01*
X10018Y03875D02*
X10052D01*
X10035Y03858D02*
Y03892D01*
X10118Y03875D02*
X10152D01*
X10135Y03858D02*
Y03892D01*
X10218Y03875D02*
X10252D01*
X10235Y03858D02*
Y03892D01*
X10318Y03875D02*
X10352D01*
X10335Y03858D02*
Y03892D01*
X09228Y0383D02*
X09262D01*
X09245Y03813D02*
Y03847D01*
X09128Y0383D02*
X09162D01*
X09145Y03813D02*
Y03847D01*
X09028Y0383D02*
X09062D01*
X09045Y03813D02*
Y03847D01*
X08928Y0383D02*
X08962D01*
X08945Y03813D02*
Y03847D01*
X116838Y070183D02*
X116988D01*
X116913Y070108D02*
Y070258D01*
X111975Y067789D02*
X112475D01*
X112225Y067539D02*
Y068039D01*
X115124Y067789D02*
X115624D01*
X115374Y067539D02*
Y068039D01*
X108525Y0643D02*
X108675D01*
X1086Y064225D02*
Y064375D01*
X118341Y0643D02*
X118491D01*
X118416Y064225D02*
Y064375D01*
X119771Y055163D02*
X119901D01*
X119836Y055098D02*
Y055228D01*
X120244Y055163D02*
X120374D01*
X120309Y055098D02*
Y055228D01*
X119771Y054691D02*
X119901D01*
X119836Y054626D02*
Y054756D01*
X120244Y054691D02*
X120374D01*
X120309Y054626D02*
Y054756D01*
X108525Y0368D02*
X108675D01*
X1086Y036725D02*
Y036875D01*
X108525Y063493D02*
X108675D01*
X1086Y063418D02*
Y063568D01*
X118462Y036813D02*
X118612D01*
X118537Y036738D02*
Y036888D01*
X1092Y0376D02*
X1104D01*
X1098Y037D02*
Y0382D01*
X108525Y070655D02*
X108675D01*
X1086Y07058D02*
Y07073D01*
X1199Y059342D02*
X12005D01*
X119975Y059267D02*
Y059417D01*
X11995Y057133D02*
X1201D01*
X120025Y057058D02*
Y057208D01*
X121541Y057133D02*
X121691D01*
X121616Y057058D02*
Y057208D01*
X12155Y059333D02*
X1217D01*
X121625Y059258D02*
Y059408D01*
X12265Y058183D02*
X1228D01*
X122725Y058108D02*
Y058258D01*
X12265Y061183D02*
X1228D01*
X122725Y061108D02*
Y061258D01*
X121565Y061333D02*
X121715D01*
X12164Y061258D02*
Y061408D01*
X119932Y061333D02*
X120082D01*
X120007Y061258D02*
Y061408D01*
X1223Y063533D02*
X12245D01*
X122375Y063458D02*
Y063608D01*
X1235Y063383D02*
X12365D01*
X123575Y063308D02*
Y063458D01*
X123562Y065383D02*
X123713D01*
X123638Y065308D02*
Y065458D01*
X121948Y063238D02*
X122098D01*
X122023Y063163D02*
Y063313D01*
X1199Y062825D02*
X12005D01*
X119975Y06275D02*
Y0629D01*
X119928Y063905D02*
X120078D01*
X120003Y06383D02*
Y06398D01*
X12155Y065886D02*
X1217D01*
X121625Y065811D02*
Y065961D01*
X119913Y065886D02*
X120063D01*
X119988Y065811D02*
Y065961D01*
X12025Y067036D02*
X1204D01*
X120325Y066961D02*
Y067111D01*
X120275Y068183D02*
X120425D01*
X12035Y068108D02*
Y068258D01*
X12335Y068883D02*
X1235D01*
X123425Y068808D02*
Y068958D01*
X12235Y068883D02*
X1225D01*
X122425Y068808D02*
Y068958D01*
X1212Y068883D02*
X12135D01*
X121275Y068808D02*
Y068958D01*
X120113Y068833D02*
X120263D01*
X120188Y068758D02*
Y068908D01*
X11905Y068833D02*
X1192D01*
X119125Y068758D02*
Y068908D01*
X12225Y059683D02*
X1224D01*
X122325Y059608D02*
Y059758D01*
X1207Y0378D02*
X1215D01*
X1211Y0374D02*
Y0382D01*
X1092Y06295D02*
X1104D01*
X1098Y06235D02*
Y06355D01*
X116575Y039103D02*
X116725D01*
X11665Y039028D02*
Y039178D01*
X116584Y0497D02*
X116734D01*
X116659Y049625D02*
Y049775D01*
X116575Y0613D02*
X116725D01*
X11665Y061225D02*
Y061375D01*
X096175Y0549D02*
X096325D01*
X09625Y054825D02*
Y054975D01*
X100425Y04555D02*
X100575D01*
X1005Y045475D02*
Y045625D01*
X099375Y04555D02*
X099525D01*
X09945Y045475D02*
Y045625D01*
X096175Y0464D02*
X096325D01*
X09625Y046325D02*
Y046475D01*
X096175Y04585D02*
X096325D01*
X09625Y045775D02*
Y045925D01*
X096175Y04535D02*
X096325D01*
X09625Y045275D02*
Y045425D01*
X096175Y0448D02*
X096325D01*
X09625Y044725D02*
Y044875D01*
X096175Y04425D02*
X096325D01*
X09625Y044175D02*
Y044325D01*
X096775Y04425D02*
X096925D01*
X09685Y044175D02*
Y044325D01*
X096775Y044788D02*
X096925D01*
X09685Y044713D02*
Y044862D01*
X096775Y045325D02*
X096925D01*
X09685Y04525D02*
Y0454D01*
X096775Y045862D02*
X096925D01*
X09685Y045788D02*
Y045938D01*
X096775Y0464D02*
X096925D01*
X09685Y046325D02*
Y046475D01*
X097051Y057751D02*
X097201D01*
X097126Y057676D02*
Y057826D01*
X093125Y04555D02*
X093275D01*
X0932Y045475D02*
Y045625D01*
X092075Y04555D02*
X092225D01*
X09215Y045475D02*
Y045625D01*
X102375Y045475D02*
X102525D01*
X10245Y0454D02*
Y04555D01*
X102942Y045475D02*
X103092D01*
X103017Y0454D02*
Y04555D01*
X103225Y045475D02*
X103375D01*
X1033Y0454D02*
Y04555D01*
X101125Y06265D02*
X101275D01*
X1012Y062575D02*
Y062725D01*
X090375Y06345D02*
X090525D01*
X09045Y063375D02*
Y063525D01*
X099075Y06565D02*
X099225D01*
X09915Y065575D02*
Y065725D01*
X103775Y066575D02*
X103975D01*
X103875Y066475D02*
Y066675D01*
X1019Y06655D02*
X1021D01*
X102Y06645D02*
Y06665D01*
X103825Y06655D02*
X103975D01*
X1039Y066475D02*
Y066625D01*
X099073Y066752D02*
X099223D01*
X099148Y066677D02*
Y066827D01*
X099825Y06785D02*
X099975D01*
X0999Y067775D02*
Y067925D01*
X100275Y065682D02*
X100425D01*
X10035Y065607D02*
Y065757D01*
X098825Y06635D02*
X098975D01*
X0989Y066275D02*
Y066425D01*
X100175Y06635D02*
X100325D01*
X10025Y066275D02*
Y066425D01*
X100775Y06505D02*
X100925D01*
X10085Y064975D02*
Y065125D01*
X100775Y0674D02*
X100925D01*
X10085Y067325D02*
Y067475D01*
X098525Y0674D02*
X098675D01*
X0986Y067325D02*
Y067475D01*
X08551Y0692D02*
X08701D01*
X08626Y06845D02*
Y06995D01*
X10591Y0692D02*
X10741D01*
X10666Y06845D02*
Y06995D01*
X106225Y06735D02*
X106375D01*
X1063Y067275D02*
Y067425D01*
X103425Y0633D02*
X103575D01*
X1035Y063225D02*
Y063375D01*
X106125Y0614D02*
X106275D01*
X1062Y061325D02*
Y061475D01*
X090425Y0652D02*
X090575D01*
X0905Y065125D02*
Y065275D01*
X095525Y064033D02*
X095675D01*
X0956Y063958D02*
Y064108D01*
X094625Y064033D02*
X094775D01*
X0947Y063958D02*
Y064108D01*
X089125Y064175D02*
X089275D01*
X0892Y0641D02*
Y06425D01*
X100175Y04115D02*
X100325D01*
X10025Y041075D02*
Y041225D01*
X091175Y05005D02*
X091325D01*
X09125Y049975D02*
Y050125D01*
X088375Y04035D02*
X088525D01*
X08845Y040275D02*
Y040425D01*
X088225Y0425D02*
X088375D01*
X0883Y042425D02*
Y042575D01*
X104275Y06515D02*
X104425D01*
X10435Y065075D02*
Y065225D01*
X106225Y06415D02*
X106375D01*
X1063Y064075D02*
Y064225D01*
X106225Y06495D02*
X106375D01*
X1063Y064875D02*
Y065025D01*
X106225Y06575D02*
X106375D01*
X1063Y065675D02*
Y065825D01*
X106225Y06655D02*
X106375D01*
X1063Y066475D02*
Y066625D01*
X08705Y06405D02*
X0872D01*
X087125Y063975D02*
Y064125D01*
X08705Y06485D02*
X0872D01*
X087125Y064775D02*
Y064925D01*
X08705Y06565D02*
X0872D01*
X087125Y065575D02*
Y065725D01*
X08705Y06645D02*
X0872D01*
X087125Y066375D02*
Y066525D01*
X08705Y0672D02*
X0872D01*
X087125Y067125D02*
Y067275D01*
X097019Y06405D02*
X097169D01*
X097094Y063975D02*
Y064125D01*
X093675Y0641D02*
X093825D01*
X09375Y064025D02*
Y064175D01*
X091275Y0641D02*
X091425D01*
X09135Y064025D02*
Y064175D01*
X092125Y0641D02*
X092275D01*
X0922Y064025D02*
Y064175D01*
X0968Y06075D02*
X097D01*
X0969Y06065D02*
Y06085D01*
X09715Y06075D02*
X09735D01*
X09725Y06065D02*
Y06085D01*
X09875Y06075D02*
X09895D01*
X09885Y06065D02*
Y06085D01*
X0968Y061469D02*
X097D01*
X0969Y061369D02*
Y061569D01*
X09875Y061439D02*
X09895D01*
X09885Y061339D02*
Y061539D01*
X09715Y061469D02*
X09735D01*
X09725Y061369D02*
Y061569D01*
X094088Y0549D02*
X094238D01*
X094163Y054825D02*
Y054975D01*
X1016Y06015D02*
X1018D01*
X1017Y06005D02*
Y06025D01*
X1016Y0598D02*
X1018D01*
X1017Y0597D02*
Y0599D01*
X1016Y05945D02*
X1018D01*
X1017Y05935D02*
Y05955D01*
X10591Y0379D02*
X10741D01*
X10666Y03715D02*
Y03865D01*
X08551Y0379D02*
X08701D01*
X08626Y03715D02*
Y03865D01*
X101375Y041175D02*
X101525D01*
X10145Y0411D02*
Y04125D01*
X101375Y049975D02*
X101525D01*
X10145Y0499D02*
Y05005D01*
X103225Y049975D02*
X103375D01*
X1033Y0499D02*
Y05005D01*
X100075Y04555D02*
X100225D01*
X10015Y045475D02*
Y045625D01*
X099725Y04555D02*
X099875D01*
X0998Y045475D02*
Y045625D01*
X102925Y045475D02*
X103075D01*
X103Y0454D02*
Y04555D01*
X102658Y045475D02*
X102808D01*
X102733Y0454D02*
Y04555D01*
X10275Y049525D02*
X10295D01*
X10285Y049425D02*
Y049625D01*
X099025Y042275D02*
X099175D01*
X0991Y0422D02*
Y04235D01*
X1037Y042225D02*
X1039D01*
X1038Y042125D02*
Y042325D01*
X10085Y042175D02*
X10105D01*
X10095Y042075D02*
Y042275D01*
X103725Y042225D02*
X103875D01*
X1038Y04215D02*
Y0423D01*
X100875Y042175D02*
X101025D01*
X10095Y0421D02*
Y04225D01*
X101875Y042325D02*
X102025D01*
X10195Y04225D02*
Y0424D01*
X103725Y049025D02*
X103875D01*
X1038Y04895D02*
Y0491D01*
X099725Y049775D02*
X099875D01*
X0998Y0497D02*
Y04985D01*
X093525Y050625D02*
X093675D01*
X0936Y05055D02*
Y0507D01*
X0927Y05015D02*
X0929D01*
X0928Y05005D02*
Y05025D01*
X092275Y041D02*
X092425D01*
X09235Y040925D02*
Y041075D01*
X093525Y0421D02*
X093725D01*
X093625Y042D02*
Y0422D01*
X089975Y041D02*
X090125D01*
X09005Y040925D02*
Y041075D01*
X091875Y04225D02*
X092025D01*
X09195Y042175D02*
Y042325D01*
X089575Y0456D02*
X089725D01*
X08965Y045525D02*
Y045675D01*
X089925Y0456D02*
X090075D01*
X09Y045525D02*
Y045675D01*
X092775Y04555D02*
X092925D01*
X09285Y045475D02*
Y045625D01*
X092425Y04555D02*
X092575D01*
X0925Y045475D02*
Y045625D01*
X093575Y04905D02*
X093725D01*
X09365Y048975D02*
Y049125D01*
X090025Y049927D02*
X090175D01*
X0901Y049852D02*
Y050002D01*
M02*
