G04*
G04 #@! TF.GenerationSoftware,Altium Limited,Altium Designer,18.1.6 (161)*
G04*
G04 Layer_Color=16711935*
%FSTAX24Y24*%
%MOIN*%
G70*
G01*
G75*
%ADD45O,0.0190X0.0415*%
%ADD46O,0.0415X0.0190*%
%ADD47R,0.1852X0.1852*%
%ADD57R,0.0630X0.0474*%
%ADD58R,0.1458X0.0710*%
%ADD61R,0.0474X0.0630*%
%ADD66R,0.0552X0.0415*%
%ADD67C,0.0780*%
%ADD68P,0.0790X8X292.5*%
%ADD69C,0.0730*%
%ADD70C,0.0671*%
%ADD71C,0.0474*%
%ADD72C,0.1064*%
%ADD73O,0.0980X0.0830*%
%ADD74R,0.0980X0.0830*%
%ADD75O,0.1080X0.1680*%
%ADD76O,0.1680X0.1080*%
%ADD77C,0.1180*%
%ADD78R,0.0730X0.0980*%
%ADD79O,0.0730X0.0980*%
%ADD80R,0.0671X0.0671*%
%ADD81O,0.0830X0.0980*%
%ADD82R,0.0830X0.0980*%
%ADD83O,0.1261X0.0946*%
%ADD84R,0.0980X0.0730*%
%ADD85O,0.0980X0.0730*%
%ADD86C,0.0280*%
%ADD87C,0.0580*%
%ADD88C,0.1680*%
%ADD89C,0.1080*%
%ADD90C,0.0380*%
%ADD91C,0.2080*%
%ADD132O,0.0592X0.0867*%
%ADD133R,0.0592X0.0867*%
%ADD134R,0.0395X0.0552*%
G04:AMPARAMS|DCode=135|XSize=47.4mil|YSize=63mil|CornerRadius=0mil|HoleSize=0mil|Usage=FLASHONLY|Rotation=240.000|XOffset=0mil|YOffset=0mil|HoleType=Round|Shape=Rectangle|*
%AMROTATEDRECTD135*
4,1,4,-0.0154,0.0363,0.0391,0.0048,0.0154,-0.0363,-0.0391,-0.0048,-0.0154,0.0363,0.0*
%
%ADD135ROTATEDRECTD135*%

G04:AMPARAMS|DCode=136|XSize=47.4mil|YSize=63mil|CornerRadius=0mil|HoleSize=0mil|Usage=FLASHONLY|Rotation=120.000|XOffset=0mil|YOffset=0mil|HoleType=Round|Shape=Rectangle|*
%AMROTATEDRECTD136*
4,1,4,0.0391,-0.0048,-0.0154,-0.0363,-0.0391,0.0048,0.0154,0.0363,0.0391,-0.0048,0.0*
%
%ADD136ROTATEDRECTD136*%

%ADD137R,0.1064X0.1596*%
%ADD138O,0.0316X0.0789*%
%ADD139R,0.0415X0.0552*%
%ADD140R,0.0513X0.0630*%
%ADD141R,0.1580X0.0946*%
%ADD142R,0.2521X0.2363*%
%ADD143R,0.1261X0.0710*%
%ADD144R,0.0986X0.0980*%
%ADD145C,0.0340*%
D45*
X121036Y053579D02*
D03*
X120839D02*
D03*
X120642D02*
D03*
X120445D02*
D03*
X120248D02*
D03*
X120052D02*
D03*
X119855D02*
D03*
X119658D02*
D03*
X119461D02*
D03*
X119264D02*
D03*
Y055921D02*
D03*
X119461D02*
D03*
X119658D02*
D03*
X119855D02*
D03*
X120052D02*
D03*
X120248D02*
D03*
X120445D02*
D03*
X120642D02*
D03*
X120839D02*
D03*
X121036D02*
D03*
D46*
X121321Y055636D02*
D03*
Y055439D02*
D03*
Y055242D02*
D03*
Y055045D02*
D03*
Y054848D02*
D03*
Y054652D02*
D03*
Y054455D02*
D03*
Y054258D02*
D03*
Y054061D02*
D03*
Y053864D02*
D03*
X118979D02*
D03*
Y054061D02*
D03*
Y054258D02*
D03*
Y054455D02*
D03*
Y054652D02*
D03*
Y054848D02*
D03*
Y055045D02*
D03*
Y055242D02*
D03*
Y055439D02*
D03*
Y055636D02*
D03*
D47*
X12015Y05475D02*
D03*
D57*
X116683Y062048D02*
D03*
Y062948D02*
D03*
X122274Y058183D02*
D03*
Y059083D02*
D03*
X122275Y061184D02*
D03*
Y060284D02*
D03*
X120432Y063883D02*
D03*
Y064783D02*
D03*
X122375Y0639D02*
D03*
Y0648D02*
D03*
X119125Y069212D02*
D03*
Y070112D02*
D03*
X120175Y069233D02*
D03*
Y070133D02*
D03*
X121275Y069261D02*
D03*
Y070161D02*
D03*
X122424Y069261D02*
D03*
Y070161D02*
D03*
X123425Y069261D02*
D03*
Y070161D02*
D03*
X10965Y0506D02*
D03*
Y0497D02*
D03*
X11665Y048D02*
D03*
Y0489D02*
D03*
X1115Y0536D02*
D03*
Y0527D02*
D03*
X1096Y0526D02*
D03*
Y0517D02*
D03*
X1115Y05155D02*
D03*
Y05065D02*
D03*
Y0496D02*
D03*
Y0487D02*
D03*
X10965Y0486D02*
D03*
Y0477D02*
D03*
X1115Y0476D02*
D03*
Y0467D02*
D03*
X10965Y0466D02*
D03*
Y0457D02*
D03*
X1115Y0456D02*
D03*
Y0447D02*
D03*
X116683Y059748D02*
D03*
Y060648D02*
D03*
X11665Y03755D02*
D03*
Y03845D02*
D03*
Y04065D02*
D03*
Y03975D02*
D03*
X112033Y062248D02*
D03*
Y061348D02*
D03*
X11665Y05125D02*
D03*
Y05035D02*
D03*
X1038Y047775D02*
D03*
Y048675D02*
D03*
X1005Y04875D02*
D03*
Y04785D02*
D03*
X10195Y044375D02*
D03*
Y043475D02*
D03*
X09195Y04345D02*
D03*
Y04255D02*
D03*
X08885Y043425D02*
D03*
Y042525D02*
D03*
X0905Y04715D02*
D03*
Y04805D02*
D03*
X09365Y04755D02*
D03*
Y04845D02*
D03*
X09804Y039673D02*
D03*
Y040573D02*
D03*
X097265Y039673D02*
D03*
Y040573D02*
D03*
X09649Y039673D02*
D03*
Y040573D02*
D03*
X095715Y039673D02*
D03*
Y040573D02*
D03*
X09494Y039673D02*
D03*
Y040573D02*
D03*
D58*
X09535Y0549D02*
D03*
X093145D02*
D03*
D61*
X121616Y057538D02*
D03*
X120716D02*
D03*
X120013D02*
D03*
X119113D02*
D03*
X121616Y059688D02*
D03*
X120716D02*
D03*
X120013D02*
D03*
X119113D02*
D03*
X121635Y061788D02*
D03*
X120735D02*
D03*
X120013D02*
D03*
X119113D02*
D03*
X120003Y063238D02*
D03*
X119103D02*
D03*
X12164D02*
D03*
X12074D02*
D03*
X12164Y065476D02*
D03*
X12074D02*
D03*
X120003Y065483D02*
D03*
X119103D02*
D03*
X120003Y067033D02*
D03*
X119103D02*
D03*
X120003Y068183D02*
D03*
X119103D02*
D03*
X113433Y060148D02*
D03*
X112533D02*
D03*
X1134Y0572D02*
D03*
X1125D02*
D03*
X11335Y0543D02*
D03*
X11245D02*
D03*
X113352Y0514D02*
D03*
X112452D02*
D03*
X11335Y04845D02*
D03*
X11245D02*
D03*
X1134Y04555D02*
D03*
X1125D02*
D03*
X1134Y0426D02*
D03*
X1125D02*
D03*
X11345Y03965D02*
D03*
X11255D02*
D03*
X09935Y043849D02*
D03*
X09845D02*
D03*
X1054Y0626D02*
D03*
X1045D02*
D03*
X1035Y06415D02*
D03*
X1044D02*
D03*
X0901Y065175D02*
D03*
X0892D02*
D03*
X09815Y041323D02*
D03*
X09725D02*
D03*
X09535Y041373D02*
D03*
X09445D02*
D03*
X087525Y0672D02*
D03*
X088425D02*
D03*
X087525Y06645D02*
D03*
X088425D02*
D03*
X087525Y06565D02*
D03*
X088425D02*
D03*
X087525Y06485D02*
D03*
X088425D02*
D03*
X087525Y06405D02*
D03*
X088425D02*
D03*
X10595Y06495D02*
D03*
X10505D02*
D03*
X10595Y06575D02*
D03*
X10505D02*
D03*
X10595Y06735D02*
D03*
X10505D02*
D03*
X10595Y06415D02*
D03*
X10505D02*
D03*
X10595Y06655D02*
D03*
X10505D02*
D03*
D66*
X089258Y063801D02*
D03*
X08926Y064545D02*
D03*
X090242Y064175D02*
D03*
X104334Y065524D02*
D03*
X104332Y06478D02*
D03*
X10335Y06515D02*
D03*
D67*
X12275Y03925D02*
D03*
X11925D02*
D03*
X12275Y042275D02*
D03*
X11925D02*
D03*
D68*
X1174Y051248D02*
D03*
X117413Y048009D02*
D03*
X117445Y059748D02*
D03*
X117433Y062898D02*
D03*
X1174Y03755D02*
D03*
Y04065D02*
D03*
D69*
Y050248D02*
D03*
X117413Y049009D02*
D03*
X117445Y060748D02*
D03*
X117433Y061898D02*
D03*
X1174Y03855D02*
D03*
Y03965D02*
D03*
D70*
X1132Y044689D02*
D03*
Y043689D02*
D03*
X115365Y044689D02*
D03*
Y043689D02*
D03*
X1132Y04177D02*
D03*
Y04077D02*
D03*
X115365Y04177D02*
D03*
Y04077D02*
D03*
X1132Y038852D02*
D03*
Y037852D02*
D03*
X115365Y038852D02*
D03*
Y037852D02*
D03*
X1132Y053444D02*
D03*
Y052444D02*
D03*
X115365Y053444D02*
D03*
Y052444D02*
D03*
X1132Y050526D02*
D03*
Y049526D02*
D03*
X115365Y050526D02*
D03*
Y049526D02*
D03*
X1132Y047607D02*
D03*
Y046607D02*
D03*
X115365Y047607D02*
D03*
Y046607D02*
D03*
X11325Y0622D02*
D03*
Y0612D02*
D03*
X115415Y0622D02*
D03*
Y0612D02*
D03*
X11325Y059281D02*
D03*
Y058281D02*
D03*
X115415Y059281D02*
D03*
Y058281D02*
D03*
X1132Y056363D02*
D03*
Y055363D02*
D03*
X115365Y056363D02*
D03*
Y055363D02*
D03*
X091876Y0693D02*
D03*
X090876D02*
D03*
X089876D02*
D03*
X088876D02*
D03*
X087876D02*
D03*
D71*
X112452Y043224D02*
D03*
Y040306D02*
D03*
Y037387D02*
D03*
Y05198D02*
D03*
Y049061D02*
D03*
Y046143D02*
D03*
X112502Y060735D02*
D03*
Y057817D02*
D03*
X112452Y054898D02*
D03*
D72*
X114283Y043441D02*
D03*
Y044937D02*
D03*
Y040522D02*
D03*
Y042018D02*
D03*
Y037604D02*
D03*
Y0391D02*
D03*
Y052196D02*
D03*
Y053693D02*
D03*
Y049278D02*
D03*
Y050774D02*
D03*
Y046359D02*
D03*
Y047856D02*
D03*
X114333Y060952D02*
D03*
Y062448D02*
D03*
Y058033D02*
D03*
Y05953D02*
D03*
X114283Y055115D02*
D03*
Y056611D02*
D03*
D73*
X11055Y0546D02*
D03*
Y0526D02*
D03*
Y0506D02*
D03*
Y0486D02*
D03*
Y0466D02*
D03*
Y0456D02*
D03*
Y0446D02*
D03*
Y0476D02*
D03*
Y0496D02*
D03*
Y0516D02*
D03*
Y0536D02*
D03*
X1062Y048425D02*
D03*
Y046425D02*
D03*
Y044425D02*
D03*
Y041425D02*
D03*
Y042425D02*
D03*
Y043425D02*
D03*
Y045425D02*
D03*
Y047425D02*
D03*
Y049425D02*
D03*
X08675Y041425D02*
D03*
Y043425D02*
D03*
Y045425D02*
D03*
Y048425D02*
D03*
Y047425D02*
D03*
Y046425D02*
D03*
Y044425D02*
D03*
Y042425D02*
D03*
Y040425D02*
D03*
X08735Y05715D02*
D03*
Y05615D02*
D03*
Y05515D02*
D03*
D74*
X11055Y0436D02*
D03*
X1062Y040425D02*
D03*
X08675Y049425D02*
D03*
X08735Y05415D02*
D03*
D75*
X10155Y05465D02*
D03*
X10405D02*
D03*
D76*
X10255Y05665D02*
D03*
D77*
X0999Y0619D02*
D03*
Y05365D02*
D03*
D78*
X102Y06365D02*
D03*
D79*
X101D02*
D03*
X1D02*
D03*
D80*
X092876Y0693D02*
D03*
D81*
X093875D02*
D03*
X095875D02*
D03*
X097875D02*
D03*
X099875D02*
D03*
X101875D02*
D03*
X102875D02*
D03*
X103875D02*
D03*
X100875D02*
D03*
X098875D02*
D03*
X096875D02*
D03*
X094875D02*
D03*
X10035Y03875D02*
D03*
X10135D02*
D03*
X10235D02*
D03*
X09245Y0383D02*
D03*
X09145D02*
D03*
X09045D02*
D03*
D82*
X104875Y0693D02*
D03*
X10335Y03875D02*
D03*
X08945Y0383D02*
D03*
D83*
X0907Y0597D02*
D03*
Y0617D02*
D03*
Y055297D02*
D03*
Y053297D02*
D03*
D84*
X088163Y0615D02*
D03*
D85*
Y0605D02*
D03*
Y0595D02*
D03*
D86*
X116913Y070183D02*
D03*
X1086Y0643D02*
D03*
X118416D02*
D03*
X1086Y0368D02*
D03*
Y063493D02*
D03*
X118537Y036813D02*
D03*
X1086Y070655D02*
D03*
X119975Y059342D02*
D03*
X120025Y057133D02*
D03*
X121616D02*
D03*
X121625Y059333D02*
D03*
X122725Y058183D02*
D03*
Y061183D02*
D03*
X12164Y061333D02*
D03*
X120007D02*
D03*
X122375Y063533D02*
D03*
X123575Y063383D02*
D03*
X123638Y065383D02*
D03*
X122023Y063238D02*
D03*
X119975Y062825D02*
D03*
X120003Y063905D02*
D03*
X121625Y065886D02*
D03*
X119988D02*
D03*
X120325Y067036D02*
D03*
X12035Y068183D02*
D03*
X123425Y068883D02*
D03*
X122425D02*
D03*
X121275D02*
D03*
X120188Y068833D02*
D03*
X119125D02*
D03*
X122325Y059683D02*
D03*
X11665Y039103D02*
D03*
X116659Y0497D02*
D03*
X11665Y0613D02*
D03*
X09625Y0549D02*
D03*
X097126Y057751D02*
D03*
X1012Y06265D02*
D03*
X09045Y06345D02*
D03*
X09915Y06565D02*
D03*
X1039Y06655D02*
D03*
X099148Y066752D02*
D03*
X0999Y06785D02*
D03*
X10035Y065682D02*
D03*
X0989Y06635D02*
D03*
X10025D02*
D03*
X10085Y06505D02*
D03*
Y0674D02*
D03*
X0986D02*
D03*
X1063Y06735D02*
D03*
X1035Y0633D02*
D03*
X1062Y0614D02*
D03*
X0905Y0652D02*
D03*
X0956Y064033D02*
D03*
X0947D02*
D03*
X0892Y064175D02*
D03*
X10025Y04115D02*
D03*
X09125Y05005D02*
D03*
X08845Y04035D02*
D03*
X0883Y0425D02*
D03*
X10435Y06515D02*
D03*
X1063Y06415D02*
D03*
Y06495D02*
D03*
Y06575D02*
D03*
Y06655D02*
D03*
X087125Y06405D02*
D03*
Y06485D02*
D03*
Y06565D02*
D03*
Y06645D02*
D03*
Y0672D02*
D03*
X097094Y06405D02*
D03*
X09375Y0641D02*
D03*
X09135D02*
D03*
X0922D02*
D03*
X094163Y0549D02*
D03*
X10145Y041175D02*
D03*
Y049975D02*
D03*
X1033D02*
D03*
X0991Y042275D02*
D03*
X1038Y042225D02*
D03*
X10095Y042175D02*
D03*
X10195Y042325D02*
D03*
X1038Y049025D02*
D03*
X0998Y049775D02*
D03*
X0936Y050625D02*
D03*
X09195Y04225D02*
D03*
X09365Y04905D02*
D03*
X0901Y049927D02*
D03*
D87*
X112225Y067789D02*
D03*
X115374Y067789D02*
D03*
D88*
X1098Y0376D02*
D03*
Y06295D02*
D03*
D89*
X1211Y0378D02*
D03*
D90*
X1005Y04555D02*
D03*
X09945D02*
D03*
X09625Y0464D02*
D03*
Y04585D02*
D03*
Y04535D02*
D03*
Y0448D02*
D03*
Y04425D02*
D03*
X09685D02*
D03*
Y044788D02*
D03*
Y045325D02*
D03*
Y045862D02*
D03*
Y0464D02*
D03*
X0932Y04555D02*
D03*
X09215D02*
D03*
X10245Y045475D02*
D03*
X103017D02*
D03*
X1033D02*
D03*
X103875Y066575D02*
D03*
X102Y06655D02*
D03*
X0969Y06075D02*
D03*
X09725D02*
D03*
X09885D02*
D03*
X0969Y061469D02*
D03*
X09885Y061439D02*
D03*
X09725Y061469D02*
D03*
X1017Y06015D02*
D03*
Y0598D02*
D03*
Y05945D02*
D03*
X10015Y04555D02*
D03*
X0998D02*
D03*
X103Y045475D02*
D03*
X102733D02*
D03*
X10285Y049525D02*
D03*
X1038Y042225D02*
D03*
X10095Y042175D02*
D03*
X0928Y05015D02*
D03*
X09235Y041D02*
D03*
X093625Y0421D02*
D03*
X09005Y041D02*
D03*
X08965Y0456D02*
D03*
X09D02*
D03*
X09285Y04555D02*
D03*
X0925D02*
D03*
D91*
X08626Y0692D02*
D03*
X10666D02*
D03*
Y0379D02*
D03*
X08626D02*
D03*
D132*
X1193Y04951D02*
D03*
X121347D02*
D03*
Y0514D02*
D03*
D133*
X1193D02*
D03*
D134*
X11755Y0702D02*
D03*
Y067444D02*
D03*
D135*
X122985Y063143D02*
D03*
X123435Y063923D02*
D03*
D136*
X122999Y065516D02*
D03*
X123449Y064737D02*
D03*
D137*
X093661Y062209D02*
D03*
X095039D02*
D03*
X093661Y058291D02*
D03*
X095039D02*
D03*
D138*
X1004Y065076D02*
D03*
X0999D02*
D03*
X0994D02*
D03*
X0989D02*
D03*
X1004Y0673D02*
D03*
X0999D02*
D03*
X0994D02*
D03*
X0989D02*
D03*
D139*
X0997Y042233D02*
D03*
X10007Y043215D02*
D03*
X099326Y043217D02*
D03*
X0895Y049042D02*
D03*
X08913Y04806D02*
D03*
X089874Y048058D02*
D03*
X097974Y042081D02*
D03*
X09723Y042083D02*
D03*
X0976Y043065D02*
D03*
X09565Y042123D02*
D03*
X094906Y042125D02*
D03*
X095276Y043107D02*
D03*
X1063Y062592D02*
D03*
X10593Y06161D02*
D03*
X106674Y061608D02*
D03*
X099924Y047833D02*
D03*
X09918Y047835D02*
D03*
X09955Y048817D02*
D03*
X089426Y043392D02*
D03*
X09017Y04339D02*
D03*
X0898Y042408D02*
D03*
D140*
X094756Y06574D02*
D03*
X095544D02*
D03*
X094763Y06495D02*
D03*
X09555D02*
D03*
X09625Y06575D02*
D03*
X097037D02*
D03*
X096256Y06494D02*
D03*
X097044D02*
D03*
X091413Y0658D02*
D03*
X0922D02*
D03*
X091413Y06495D02*
D03*
X0922D02*
D03*
X092906Y0658D02*
D03*
X093694D02*
D03*
X092906Y06495D02*
D03*
X093694D02*
D03*
D141*
X09815Y05775D02*
D03*
Y06075D02*
D03*
D142*
X1033Y05985D02*
D03*
D143*
X106127Y05895D02*
D03*
Y06075D02*
D03*
D144*
X10285Y044375D02*
D03*
Y042775D02*
D03*
Y046775D02*
D03*
Y048375D02*
D03*
X10095Y042825D02*
D03*
Y044425D02*
D03*
X10135Y048375D02*
D03*
Y046775D02*
D03*
X09105Y04185D02*
D03*
Y04345D02*
D03*
X09285D02*
D03*
Y04185D02*
D03*
X0916Y0493D02*
D03*
Y0477D02*
D03*
X0928Y04765D02*
D03*
Y04925D02*
D03*
D145*
X119836Y055163D02*
D03*
X120309D02*
D03*
X119836Y054691D02*
D03*
X120309D02*
D03*
M02*
