M48
;Layer_Color=9474304
;FILE_FORMAT=2:4
INCH,LZ
;TYPE=PLATED
T1F00S00C0.0130
T2F00S00C0.0150
T3F00S00C0.0200
T4F00S00C0.0300
T5F00S00C0.0310
T6F00S00C0.0340
T7F00S00C0.0354
T8F00S00C0.0394
T9F00S00C0.0400
T10F00S00C0.0472
T11F00S00C0.0500
T13F00S00C0.0512
T14F00S00C0.0800
T15F00S00C0.1200
T16F00S00C0.1500
;TYPE=NON_PLATED
T17F00S00C0.0394
T18F00S00C0.0984
%
T01
X119836Y054691
Y055163
X120309
Y054691
T02
X08845Y04035
X09005Y041
X09235
X09195Y04225
X09215Y04555
X0925
X09285
X0932
X09Y0456
X08965
X0883Y0425
X09625Y04425
Y0448
Y04535
Y04585
Y0464
X09685
Y045862
Y045325
Y044788
Y04425
X09945Y04555
X0998
X10015
X1005
X10245Y045475
X102733
X103
X103017
X1033
X1038Y042225
X10195Y042325
X10095Y042175
X10145Y041175
X10025Y04115
X0991Y042275
X1086Y0368
X118537Y036813
X11665Y039103
X116659Y0497
X120025Y057133
X121616
X122725Y058183
X122325Y059683
X121625Y059333
X119975Y059342
X120007Y061333
X12164
X122725Y061183
X11665Y0613
X1062Y0614
X097126Y057751
X09625Y0549
X094163
X0998Y049775
X10145Y049975
X1033
X1038Y049025
X09365Y04905
X0936Y050625
X09125Y05005
X0901Y049927
X09045Y06345
X09135Y0641
X0922
X0905Y0652
X0892Y064175
X087125Y06405
Y06485
Y06565
Y06645
Y0672
X09375Y0641
X0947Y064033
X0956
X097094Y06405
X09915Y06565
X0989Y06635
X099148Y066752
X0986Y0674
X0999Y06785
X10085Y0674
X10025Y06635
X10035Y065682
X10085Y06505
X1012Y06265
X1035Y0633
X10435Y06515
X1039Y06655
X1063
Y06735
Y06575
Y06495
Y06415
X1086Y0643
Y063493
Y070655
X116913Y070183
X119125Y068833
X120188
X12035Y068183
X120325Y067036
X119988Y065886
X121625
X123638Y065383
X123575Y063383
X122375Y063533
X122023Y063238
X119975Y062825
X120003Y063905
X118416Y0643
X121275Y068883
X122425
X123425
T03
X093625Y0421
X10095Y042175
X1038Y042225
X10285Y049525
X1017Y05945
Y0598
Y06015
X09885Y06075
Y061439
X09725Y061469
X0969
Y06075
X09725
X0928Y05015
X102Y06655
X103875Y066575
T04
X088163Y0595
Y0605
Y0615
X1Y06365
X101
X102
T05
X11925Y03925
Y042275
X12275
Y03925
T06
X08675Y040425
Y041425
Y042425
Y043425
Y044425
Y045425
Y046425
X08945Y0383
X09045
X09145
X09245
X10035Y03875
X10135
X10235
X10335
X1062Y040425
Y041425
Y042425
Y043425
Y044425
Y045425
Y046425
X11055Y0466
Y0456
Y0446
Y0436
Y0476
Y0486
Y0496
Y0506
Y0516
Y0526
Y0536
Y0546
X1062Y049425
Y048425
Y047425
X08675
Y048425
Y049425
X08735Y05415
Y05515
Y05615
Y05715
X093875Y0693
X094875
X095875
X096875
X097875
X098875
X099875
X100875
X101875
X102875
X103875
X104875
T07
X087876Y0693
X088876
X089876
X090876
X091876
X092876
T08
X1132Y037852
Y038852
Y04077
Y04177
Y043689
Y044689
Y046607
X115365
Y044689
Y043689
Y04177
Y04077
Y038852
Y037852
Y047607
Y049526
Y050526
Y052444
Y053444
Y055363
Y056363
X115415Y058281
Y059281
Y0612
Y0622
X11325
Y0612
Y059281
Y058281
X1132Y056363
Y055363
Y053444
Y052444
Y050526
Y049526
Y047607
T09
X1174Y03755
Y03855
Y03965
Y04065
X117413Y048009
Y049009
X1174Y050248
Y051248
X117445Y059748
Y060748
X117433Y061898
Y062898
T10
X0907Y053297
Y055297
Y0597
Y0617
T11
X112225Y067789
X115374Y067789
T13
X0999Y05365
Y0619
T14
X1211Y0378
T15
X1098Y0376
Y06295
T16
X08626Y0379
X10666
X08626Y0692
X10666
T17
X112452Y037387
Y040306
Y043224
Y046143
Y049061
Y05198
Y054898
X112502Y057817
Y060735
T18
X114283Y037604
Y0391
Y040522
Y042018
Y043441
Y044937
Y046359
Y047856
Y049278
Y050774
Y052196
Y053693
Y055115
Y056611
X114333Y058033
Y05953
Y060952
Y062448
M30
