G04*
G04 #@! TF.GenerationSoftware,Altium Limited,Altium Designer,18.1.6 (161)*
G04*
G04 Layer_Color=32768*
%FSTAX24Y24*%
%MOIN*%
G70*
G01*
G75*
%ADD16C,0.0050*%
%ADD149C,0.0039*%
%ADD150C,0.0020*%
D16*
X102198Y0587D02*
X105898D01*
Y0613D01*
X102198D02*
X105898D01*
X102198Y0587D02*
Y0613D01*
X104048Y059882D02*
Y060118D01*
X10393Y06D02*
X104166D01*
X092398Y0562D02*
X096098D01*
Y0536D02*
Y0562D01*
X092398Y0536D02*
X096098D01*
X092398D02*
Y0562D01*
X094248Y054782D02*
Y055018D01*
X09413Y0549D02*
X094366D01*
X092402Y0562D02*
X096102D01*
X092402Y0536D02*
Y0562D01*
Y0536D02*
X096102D01*
Y0562D01*
X094252Y054782D02*
Y055018D01*
X094134Y0549D02*
X09437D01*
D149*
X119953Y05475D02*
X120347D01*
X12015Y054553D02*
Y054947D01*
X120229Y051002D02*
Y051395D01*
X120032Y051198D02*
X120426D01*
X119128Y053982D02*
Y055872D01*
X121017Y053982D02*
Y055872D01*
X119128D02*
X121017D01*
X119128Y053982D02*
X121017D01*
X119876Y054927D02*
X120269D01*
X120072Y05473D02*
Y055124D01*
X118866Y043637D02*
Y047495D01*
X122724Y043637D02*
Y047495D01*
X118866D02*
X122724D01*
X118866Y043637D02*
X122724D01*
X120598Y045566D02*
X120992D01*
X120795Y045369D02*
Y045763D01*
X091791Y062986D02*
X096909D01*
X091791Y057514D02*
X096909D01*
X091791D02*
Y062986D01*
X096909Y057514D02*
Y062986D01*
X09435Y060053D02*
Y060447D01*
X094153Y06025D02*
X094547D01*
X099453Y066188D02*
X099847D01*
X09965Y065991D02*
Y066385D01*
D150*
X118772Y056128D02*
X121528D01*
X118772Y053372D02*
Y056128D01*
Y053372D02*
X121528D01*
Y056128D01*
X118851Y04982D02*
Y052576D01*
Y04982D02*
X121607D01*
Y052576D01*
X118851D02*
X121607D01*
X100772Y064638D02*
Y067738D01*
X098528Y064638D02*
Y067738D01*
Y064638D02*
X100772D01*
X098528Y067738D02*
X100772D01*
M02*
