G04*
G04 #@! TF.GenerationSoftware,Altium Limited,Altium Designer,18.1.6 (161)*
G04*
G04 Layer_Color=65535*
%FSTAX24Y24*%
%MOIN*%
G70*
G01*
G75*
%ADD10C,0.0100*%
%ADD11C,0.0098*%
%ADD12C,0.0236*%
%ADD13C,0.0040*%
%ADD14C,0.0079*%
%ADD15C,0.0070*%
%ADD16C,0.0050*%
%ADD17C,0.0150*%
%ADD18C,0.0080*%
%ADD19C,0.0200*%
%ADD20C,0.0300*%
G36*
X089095Y036805D02*
X089805D01*
X089455Y037155D01*
Y037165D01*
X089095Y036805D01*
D02*
G37*
G36*
X103705Y040245D02*
X102995D01*
X103345Y039895D01*
Y039885D01*
X103705Y040245D01*
D02*
G37*
G36*
X107695Y04007D02*
Y04078D01*
X107345Y04043D01*
X107335D01*
X107695Y04007D01*
D02*
G37*
G36*
X085255Y04978D02*
Y04907D01*
X085605Y04942D01*
X085615D01*
X085255Y04978D01*
D02*
G37*
G36*
X112045Y043245D02*
Y043955D01*
X111695Y043605D01*
X111685D01*
X112045Y043245D01*
D02*
G37*
G36*
X088845Y053795D02*
Y054505D01*
X088495Y054155D01*
X088485D01*
X088845Y053795D01*
D02*
G37*
G36*
X10523Y070795D02*
X10452D01*
X10487Y070445D01*
Y070435D01*
X10523Y070795D01*
D02*
G37*
G36*
X09131Y058328D02*
X091024Y058221D01*
Y057711D01*
X09131Y057608D01*
Y057339D01*
X090047Y057829D01*
Y058098D01*
X09131Y058605D01*
Y058328D01*
D02*
G37*
G36*
X09096Y057262D02*
X090976Y05726D01*
X090991Y057258D01*
X09101Y057254D01*
X091031Y057248D01*
X091076Y057233D01*
X091099Y057223D01*
X091122Y057212D01*
X091147Y057198D01*
X09117Y057181D01*
X091193Y057162D01*
X091216Y057141D01*
X091218Y057139D01*
X091222Y057135D01*
X091227Y057129D01*
X091233Y057119D01*
X091243Y057108D01*
X091252Y057093D01*
X091264Y057077D01*
X091273Y057058D01*
X091285Y057037D01*
X091297Y057014D01*
X091306Y056989D01*
X091314Y056962D01*
X091322Y056933D01*
X091327Y056904D01*
X091331Y056872D01*
X091333Y056839D01*
Y056822D01*
X091331Y05681D01*
X091329Y056795D01*
X091327Y056777D01*
X091325Y056758D01*
X091322Y056739D01*
X09131Y056693D01*
X091291Y056645D01*
X091281Y056622D01*
X091268Y056597D01*
X091252Y056574D01*
X091235Y056552D01*
X091233Y056551D01*
X091231Y056549D01*
X091225Y056543D01*
X091218Y056535D01*
X091208Y056526D01*
X091195Y056516D01*
X091181Y056506D01*
X091166Y056495D01*
X091129Y056472D01*
X091085Y056451D01*
X091035Y056433D01*
X091006Y056428D01*
X090977Y056424D01*
X090949Y056658D01*
X090951D01*
X090953D01*
X090964Y05666D01*
X090979Y056664D01*
X091001Y05667D01*
X091022Y056677D01*
X091045Y056687D01*
X091068Y0567D01*
X091087Y056718D01*
X091089Y05672D01*
X091095Y056727D01*
X091102Y056737D01*
X09111Y056752D01*
X091118Y05677D01*
X091125Y056789D01*
X091131Y056812D01*
X091133Y056837D01*
Y05685D01*
X091129Y056864D01*
X091125Y056881D01*
X09112Y0569D01*
X09111Y056922D01*
X091097Y056943D01*
X091077Y056964D01*
X091076Y056966D01*
X091066Y056971D01*
X091054Y056981D01*
X091037Y056991D01*
X091014Y056998D01*
X090987Y057008D01*
X090956Y057014D01*
X090922Y057016D01*
X09092D01*
X090918D01*
X090906D01*
X090889Y057014D01*
X090868Y05701D01*
X090845Y057004D01*
X090822Y056995D01*
X090797Y056983D01*
X090776Y056966D01*
X090774Y056964D01*
X090768Y056956D01*
X090758Y056946D01*
X090749Y056931D01*
X090739Y056914D01*
X09073Y056893D01*
X090724Y05687D01*
X090722Y056845D01*
Y056827D01*
X090724Y056814D01*
X090726Y056798D01*
X09073Y056779D01*
X090735Y056758D01*
X090741Y056735D01*
X090545Y056762D01*
Y056777D01*
X090543Y056797D01*
X090541Y056818D01*
X090537Y056841D01*
X09053Y056866D01*
X090518Y056891D01*
X090505Y056912D01*
X090503Y056914D01*
X090497Y05692D01*
X090485Y056929D01*
X090472Y056939D01*
X090455Y056948D01*
X090434Y056958D01*
X09041Y056964D01*
X090384Y056966D01*
X090382D01*
X090372D01*
X090361Y056964D01*
X090347Y056962D01*
X090332Y056956D01*
X090314Y05695D01*
X090297Y056941D01*
X090282Y056927D01*
X09028Y056925D01*
X090276Y05692D01*
X09027Y056912D01*
X090263Y0569D01*
X090255Y056885D01*
X090249Y056868D01*
X090245Y056847D01*
X090243Y056823D01*
Y056814D01*
X090245Y056802D01*
X090249Y056787D01*
X090255Y05677D01*
X090263Y056752D01*
X090272Y056733D01*
X090288Y056716D01*
X090289Y056714D01*
X090295Y056708D01*
X090305Y056702D01*
X090318Y056693D01*
X090337Y056683D01*
X090359Y056675D01*
X090384Y056668D01*
X090412Y056664D01*
X090376Y056441D01*
X090374D01*
X09037Y056443D01*
X090364D01*
X090357Y056445D01*
X090336Y056451D01*
X090309Y056458D01*
X09028Y056468D01*
X090249Y056479D01*
X090218Y056495D01*
X090191Y05651D01*
X090188Y056512D01*
X09018Y05652D01*
X090168Y056529D01*
X090151Y056545D01*
X090134Y056564D01*
X090116Y056585D01*
X090099Y056612D01*
X090084Y056641D01*
Y056643D01*
X090082Y056645D01*
X090078Y056656D01*
X09007Y056674D01*
X090063Y056697D01*
X090057Y056725D01*
X090049Y056756D01*
X090045Y056793D01*
X090043Y056831D01*
Y056848D01*
X090045Y05686D01*
X090047Y056875D01*
X090049Y056893D01*
X090053Y056914D01*
X090057Y056935D01*
X090072Y056979D01*
X09008Y057004D01*
X090091Y057027D01*
X090105Y05705D01*
X09012Y057075D01*
X090138Y057096D01*
X090159Y057118D01*
X090161Y057119D01*
X090163Y057121D01*
X090168Y057125D01*
X090174Y057131D01*
X090193Y057146D01*
X09022Y057164D01*
X090251Y057179D01*
X090286Y057194D01*
X090326Y057204D01*
X090347Y057208D01*
X090368D01*
X09037D01*
X090376D01*
X090384Y057206D01*
X090395D01*
X09041Y057202D01*
X090426Y057198D01*
X090443Y057193D01*
X090462Y057185D01*
X090484Y057175D01*
X090505Y057164D01*
X090528Y057148D01*
X090549Y057131D01*
X090572Y05711D01*
X090593Y057085D01*
X090614Y057058D01*
X090633Y057025D01*
Y057027D01*
X090635Y057031D01*
Y057035D01*
X090637Y057043D01*
X090645Y057064D01*
X090655Y057087D01*
X090668Y057116D01*
X090687Y057144D01*
X09071Y057171D01*
X090737Y057198D01*
X090741Y0572D01*
X090751Y057208D01*
X090768Y057219D01*
X090791Y057231D01*
X09082Y057242D01*
X090854Y057254D01*
X090891Y057262D01*
X090933Y057264D01*
X090935D01*
X090941D01*
X090949D01*
X09096Y057262D01*
D02*
G37*
%LPC*%
G36*
X09081Y058138D02*
X090341Y057961D01*
X09081Y05779D01*
Y058138D01*
D02*
G37*
%LPD*%
D10*
X114036Y064837D02*
G03*
X117067Y067947I-000039J003071D01*
G01*
X111044Y067711D02*
G03*
X114036Y064837I002933J000059D01*
G01*
X113996Y070703D02*
G03*
X111044Y067711I00002J-002972D01*
G01*
X117067Y067789D02*
G03*
X113996Y070703I-002992J-000079D01*
G01*
X111044D02*
X112028D01*
X112067Y069994D02*
Y070663D01*
Y064837D02*
Y065545D01*
X111044Y064837D02*
X112067Y064837D01*
X111083D02*
X112028D01*
X111044Y064837D02*
X111122Y064837D01*
X111044Y064837D02*
Y070703D01*
X0919Y059094D02*
Y062264D01*
X0895Y059094D02*
Y062264D01*
X0919D01*
X0895Y059094D02*
X0919D01*
X0895Y055904D02*
X0919D01*
X0895Y052734D02*
X0919D01*
X0895D02*
Y055904D01*
X0919Y052734D02*
Y055904D01*
X09172Y057494D02*
Y059094D01*
X08968Y057494D02*
Y059094D01*
Y055904D02*
Y057504D01*
X09172Y055904D02*
Y057504D01*
X1193Y03985D02*
X1192Y03995D01*
X1191Y03985D01*
X119D01*
X1189Y03995D01*
Y04005D01*
X119Y04015D01*
X1189Y04025D01*
Y04035D01*
X119Y04045D01*
X1191D01*
X1192Y04035D01*
Y04025D01*
X1191Y04015D01*
X1192Y04005D01*
Y03995D01*
X1193Y04015D02*
X1192Y04005D01*
X119Y04015D02*
X1191D01*
X11895Y04135D02*
X11905D01*
X1191Y0414D01*
Y0415D01*
X11905Y04155D01*
X11895D01*
X1189Y0415D01*
Y0414D01*
X11895Y04135D01*
X1192Y04155D02*
Y04135D01*
Y04145D01*
X11925Y0415D01*
X1193Y04155D01*
X11935D01*
X1198D02*
Y04135D01*
Y04145D01*
X11985Y0415D01*
X1199Y04155D01*
X11995D01*
X1201Y04135D02*
X1202D01*
X12015D01*
Y04155D01*
X1201D01*
X12035Y04135D02*
X120499D01*
X120549Y0414D01*
X120499Y04145D01*
X1204D01*
X12035Y0415D01*
X1204Y04155D01*
X120549D01*
X120649Y04135D02*
Y04165D01*
Y04145D02*
X120799Y04155D01*
X120649Y04145D02*
X120799Y04135D01*
X1189Y04335D02*
Y0432D01*
X11895Y04315D01*
X119Y0432D01*
X11905Y04315D01*
X1191Y0432D01*
Y04335D01*
X11925Y04315D02*
X11935D01*
X1194Y0432D01*
Y0433D01*
X11935Y04335D01*
X11925D01*
X1192Y0433D01*
Y0432D01*
X11925Y04315D01*
X1195D02*
Y04335D01*
X11965D01*
X1197Y0433D01*
Y04315D01*
X11985Y0435D02*
Y0434D01*
X1198Y04335D01*
X12005Y0434D02*
Y04335D01*
X12D01*
X1201D01*
X12005D01*
Y0432D01*
X1201Y04315D01*
X120599D02*
Y0434D01*
Y0433D01*
X120549D01*
X120649D01*
X120599D01*
Y0434D01*
X120649Y04345D01*
X120949Y04315D02*
X120849D01*
X120799Y0432D01*
Y0433D01*
X120849Y04335D01*
X120949D01*
X120999Y0433D01*
Y04325D01*
X120799D01*
X121149Y04335D02*
X121249D01*
X121299Y0433D01*
Y04315D01*
X121149D01*
X121099Y0432D01*
X121149Y04325D01*
X121299D01*
X121399Y04335D02*
Y04315D01*
Y04325D01*
X121449Y0433D01*
X121499Y04335D01*
X121549D01*
X122049D02*
X122149D01*
X122199Y0433D01*
Y04315D01*
X122049D01*
X121999Y0432D01*
X122049Y04325D01*
X122199D01*
X122299Y04345D02*
Y04315D01*
X122449D01*
X122499Y0432D01*
Y04325D01*
Y0433D01*
X122449Y04335D01*
X122299D01*
X122649Y04315D02*
X122749D01*
X122799Y0432D01*
Y0433D01*
X122749Y04335D01*
X122649D01*
X122599Y0433D01*
Y0432D01*
X122649Y04315D01*
X122899Y04335D02*
Y0432D01*
X122949Y04315D01*
X123099D01*
Y04335D01*
X123249Y0434D02*
Y04335D01*
X123199D01*
X123299D01*
X123249D01*
Y0432D01*
X123299Y04315D01*
X1189Y0483D02*
X119033D01*
X118967D01*
Y0479D01*
X1189D01*
X119033D01*
X1193Y048367D02*
Y048233D01*
X119233Y048167D01*
X1195Y0479D02*
X119633D01*
X119566D01*
Y0483D01*
X1195D01*
X119833Y0479D02*
X119966D01*
X1199D01*
Y0483D01*
X119833D01*
X120699Y047767D02*
X120766D01*
X120833Y047833D01*
Y048167D01*
X120633D01*
X120566Y0481D01*
Y047967D01*
X120633Y0479D01*
X120833D01*
X121033D02*
X121166D01*
X121233Y047967D01*
Y0481D01*
X121166Y048167D01*
X121033D01*
X120966Y0481D01*
Y047967D01*
X121033Y0479D01*
X121832D02*
Y048233D01*
Y0481D01*
X121766D01*
X121899D01*
X121832D01*
Y048233D01*
X121899Y0483D01*
X122166Y0479D02*
X122299D01*
X122366Y047967D01*
Y0481D01*
X122299Y048167D01*
X122166D01*
X122099Y0481D01*
Y047967D01*
X122166Y0479D01*
X122499Y048167D02*
Y0479D01*
Y048033D01*
X122565Y0481D01*
X122632Y048167D01*
X122699D01*
X121975Y0507D02*
Y0511D01*
X122075D01*
X122175Y051D01*
Y0507D01*
Y051D01*
X122275Y0511D01*
X122375Y051D01*
Y0507D01*
X122575Y0511D02*
Y0508D01*
X122675Y0507D01*
X122975D01*
Y0506D01*
X122875Y0505D01*
X122775D01*
X122975Y0507D02*
Y0511D01*
X12215Y05205D02*
X122283D01*
X122217D01*
Y052317D01*
X12215D01*
X122483Y05205D02*
X122683D01*
X12275Y052117D01*
X122683Y052183D01*
X12255D01*
X122483Y05225D01*
X12255Y052317D01*
X12275D01*
X11895Y0535D02*
X11935D01*
X11915D01*
Y0529D01*
X11955Y0535D02*
Y0529D01*
Y0532D01*
X11965Y0533D01*
X11985D01*
X11995Y0532D01*
Y0529D01*
X12015D02*
X12035D01*
X12025D01*
Y0533D01*
X12015D01*
X120649Y0529D02*
X120949D01*
X121049Y053D01*
X120949Y0531D01*
X120749D01*
X120649Y0532D01*
X120749Y0533D01*
X121049D01*
X121367Y054267D02*
X1215D01*
X121567Y0542D01*
Y054D01*
X121367D01*
X1213Y054067D01*
X121367Y054133D01*
X121567D01*
X1217Y054D02*
Y054267D01*
X1219D01*
X121966Y0542D01*
Y054D01*
X1225Y0544D02*
X122633D01*
X122566D01*
Y054D01*
X1225D01*
X122633D01*
X123099Y054333D02*
X123033Y0544D01*
X122899D01*
X122833Y054333D01*
Y054067D01*
X122899Y054D01*
X123033D01*
X123099Y054067D01*
X121383Y0548D02*
X12155D01*
X121633Y054883D01*
Y05505D01*
X12155Y055133D01*
X121383D01*
X1213Y05505D01*
Y054883D01*
X121383Y0548D01*
X1218D02*
Y055133D01*
X12205D01*
X122133Y05505D01*
Y0548D01*
X1223D02*
X122466D01*
X122383D01*
Y0553D01*
X1223D01*
X122716Y055133D02*
Y054883D01*
X1228Y0548D01*
X123049D01*
Y054717D01*
X122966Y054633D01*
X122883D01*
X123049Y0548D02*
Y055133D01*
X12145Y0557D02*
X12155D01*
X1215D01*
Y0559D01*
X12145D01*
X1217Y0557D02*
X12185D01*
X1219Y05575D01*
X12185Y0558D01*
X12175D01*
X1217Y05585D01*
X12175Y0559D01*
X1219D01*
X122Y0557D02*
Y0559D01*
X12215D01*
X1222Y05585D01*
Y0557D01*
X12235Y05605D02*
Y05595D01*
X1223Y0559D01*
X12255Y05595D02*
Y0559D01*
X1225D01*
X1226D01*
X12255D01*
Y05575D01*
X1226Y0557D01*
X11895Y0568D02*
X11935D01*
X11915D01*
Y0562D01*
X11955Y0568D02*
Y0562D01*
Y0565D01*
X11965Y0566D01*
X11985D01*
X11995Y0565D01*
Y0562D01*
X12015D02*
X12035D01*
X12025D01*
Y0566D01*
X12015D01*
X120649Y0562D02*
X120949D01*
X121049Y0563D01*
X120949Y0564D01*
X120749D01*
X120649Y0565D01*
X120749Y0566D01*
X121049D01*
X12365Y068189D02*
X123917D01*
X12365Y067795D02*
X123917D01*
X12365Y067401D02*
X123917D01*
X12365Y067007D02*
X123917D01*
X12365Y066614D02*
X123917D01*
X12365Y06622D02*
X123917D01*
X12365Y065826D02*
X123917D01*
X12365Y065432D02*
X123917D01*
X12365Y065039D02*
X123917D01*
X1236Y064239D02*
X123867D01*
X1236Y063845D02*
X123867D01*
X1236Y063451D02*
X123867D01*
X1236Y063057D02*
X123867D01*
X1236Y062664D02*
X123867D01*
X1236Y06227D02*
X123867D01*
X1236Y061876D02*
X123867D01*
X1236Y061482D02*
X123867D01*
X1236Y061089D02*
X123867D01*
X1236Y060239D02*
X123867D01*
X1236Y059845D02*
X123867D01*
X1236Y059451D02*
X123867D01*
X1236Y059057D02*
X123867D01*
X1236Y058664D02*
X123867D01*
X1236Y05827D02*
X123867D01*
X1236Y057876D02*
X123867D01*
X1236Y057482D02*
X123867D01*
X1236Y057089D02*
X123867D01*
X12365Y056239D02*
X123917D01*
X12365Y055845D02*
X123917D01*
X12365Y055451D02*
X123917D01*
X12365Y055057D02*
X123917D01*
X12365Y054664D02*
X123917D01*
X12365Y05427D02*
X123917D01*
X12365Y053876D02*
X123917D01*
X12365Y053482D02*
X123917D01*
X12365Y053089D02*
X123917D01*
X12365Y0491D02*
X123917D01*
X12365Y049494D02*
X123917D01*
X12365Y049887D02*
X123917D01*
X12365Y050281D02*
X123917D01*
X12365Y050675D02*
X123917D01*
X12365Y051069D02*
X123917D01*
X12365Y051462D02*
X123917D01*
X12365Y051856D02*
X123917D01*
X12365Y05225D02*
X123917D01*
X12365Y04515D02*
X123917D01*
X12365Y045544D02*
X123917D01*
X12365Y045937D02*
X123917D01*
X12365Y046331D02*
X123917D01*
X12365Y046725D02*
X123917D01*
X12365Y047119D02*
X123917D01*
X12365Y047512D02*
X123917D01*
X12365Y047906D02*
X123917D01*
X12365Y0483D02*
X123917D01*
X12365Y0412D02*
X123917D01*
X12365Y041594D02*
X123917D01*
X12365Y041987D02*
X123917D01*
X12365Y042381D02*
X123917D01*
X12365Y042775D02*
X123917D01*
X12365Y043169D02*
X123917D01*
X12365Y043562D02*
X123917D01*
X12365Y043956D02*
X123917D01*
X12365Y04435D02*
X123917D01*
X12365Y0404D02*
X123917D01*
X12365Y040006D02*
X123917D01*
X12365Y039612D02*
X123917D01*
X12365Y039219D02*
X123917D01*
X12365Y038825D02*
X123917D01*
X12365Y038431D02*
X123917D01*
X12365Y038037D02*
X123917D01*
X12365Y037644D02*
X123917D01*
X12365Y03725D02*
X123917D01*
X12335Y060662D02*
X123883D01*
X1234Y064656D02*
X123933D01*
X1234Y056669D02*
X123933D01*
X1234Y052675D02*
X123933D01*
X1234Y06865D02*
X123933D01*
X1234Y048719D02*
X123933D01*
X1234Y044762D02*
X123933D01*
X1234Y040806D02*
X123933D01*
X1234Y03685D02*
X123933D01*
X120517Y03945D02*
X12025D01*
Y03925D01*
X120383D01*
X12025D01*
Y03905D01*
X12065Y03945D02*
Y039117D01*
X120717Y03905D01*
X12085D01*
X120916Y039117D01*
Y03945D01*
X121316Y039383D02*
X12125Y03945D01*
X121116D01*
X12105Y039383D01*
Y039317D01*
X121116Y03925D01*
X12125D01*
X121316Y039183D01*
Y039117D01*
X12125Y03905D01*
X121116D01*
X12105Y039117D01*
X121716Y03945D02*
X12145D01*
Y03905D01*
X121716D01*
X12145Y03925D02*
X121583D01*
X120175Y04195D02*
Y04255D01*
X120475D01*
X120575Y04245D01*
Y04225D01*
X120475Y04215D01*
X120175D01*
X120375D02*
X120575Y04195D01*
X121075D02*
X120875D01*
X120775Y04205D01*
Y04225D01*
X120875Y04235D01*
X121075D01*
X121175Y04225D01*
Y04215D01*
X120775D01*
X121375Y04195D02*
X121675D01*
X121774Y04205D01*
X121675Y04215D01*
X121475D01*
X121375Y04225D01*
X121475Y04235D01*
X121774D01*
X10967Y07168D02*
Y07108D01*
X10997D01*
X11007Y07118D01*
Y07128D01*
X10997Y07138D01*
X10967D01*
X10997D01*
X11007Y07148D01*
Y07158D01*
X10997Y07168D01*
X10967D01*
X11027D02*
X11067D01*
X11047D01*
Y07108D01*
X11087D02*
X11107D01*
X11097D01*
Y07168D01*
X11087Y07158D01*
X112295Y06395D02*
Y06345D01*
X112395Y06335D01*
X112595D01*
X112695Y06345D01*
Y06395D01*
X112895Y06335D02*
X113095D01*
X112995D01*
Y06395D01*
X112895Y06385D01*
X113395Y06335D02*
X113595D01*
X113495D01*
Y06395D01*
X113395Y06385D01*
X112293Y061031D02*
Y060531D01*
X112393Y060431D01*
X112593D01*
X112693Y060531D01*
Y061031D01*
X112892Y060431D02*
X113092D01*
X112992D01*
Y061031D01*
X112892Y060931D01*
X113392D02*
X113492Y061031D01*
X113692D01*
X113792Y060931D01*
Y060531D01*
X113692Y060431D01*
X113492D01*
X113392Y060531D01*
Y060931D01*
X11225Y058113D02*
Y057613D01*
X11235Y057513D01*
X11255D01*
X11265Y057613D01*
Y058113D01*
X11285Y057613D02*
X11295Y057513D01*
X11315D01*
X11325Y057613D01*
Y058013D01*
X11315Y058113D01*
X11295D01*
X11285Y058013D01*
Y057913D01*
X11295Y057813D01*
X11325D01*
X112243Y055196D02*
Y054696D01*
X112343Y054596D01*
X112543D01*
X112643Y054696D01*
Y055196D01*
X112842Y055096D02*
X112942Y055196D01*
X113142D01*
X113242Y055096D01*
Y054996D01*
X113142Y054896D01*
X113242Y054796D01*
Y054696D01*
X113142Y054596D01*
X112942D01*
X112842Y054696D01*
Y054796D01*
X112942Y054896D01*
X112842Y054996D01*
Y055096D01*
X112942Y054896D02*
X113142D01*
X112243Y052278D02*
Y051778D01*
X112343Y051678D01*
X112543D01*
X112643Y051778D01*
Y052278D01*
X112842D02*
X113242D01*
Y052178D01*
X112842Y051778D01*
Y051678D01*
X112243Y049359D02*
Y048859D01*
X112343Y048759D01*
X112543D01*
X112643Y048859D01*
Y049359D01*
X113242D02*
X113042Y049259D01*
X112842Y049059D01*
Y048859D01*
X112942Y048759D01*
X113142D01*
X113242Y048859D01*
Y048959D01*
X113142Y049059D01*
X112842D01*
X116433Y046487D02*
X116933D01*
X117033Y046587D01*
Y046787D01*
X116933Y046887D01*
X116433D01*
Y047487D02*
Y047087D01*
X116733D01*
X116633Y047287D01*
Y047387D01*
X116733Y047487D01*
X116933D01*
X117033Y047387D01*
Y047187D01*
X116933Y047087D01*
X112243Y04352D02*
Y04302D01*
X112343Y04292D01*
X112543D01*
X112643Y04302D01*
Y04352D01*
X113142Y04292D02*
Y04352D01*
X112842Y04322D01*
X113242D01*
X112243Y0406D02*
Y0401D01*
X112343Y04D01*
X112543D01*
X112643Y0401D01*
Y0406D01*
X112842Y0405D02*
X112942Y0406D01*
X113142D01*
X113242Y0405D01*
Y0404D01*
X113142Y0403D01*
X113042D01*
X113142D01*
X113242Y0402D01*
Y0401D01*
X113142Y04D01*
X112942D01*
X112842Y0401D01*
X109615Y056535D02*
X109415D01*
X109515D01*
Y056035D01*
X109415Y055935D01*
X109315D01*
X109215Y056035D01*
X109815Y055935D02*
Y056535D01*
X110115D01*
X110215Y056435D01*
Y056235D01*
X110115Y056135D01*
X109815D01*
X110415Y055935D02*
X110615D01*
X110515D01*
Y056535D01*
X110415Y056435D01*
X088825Y06755D02*
Y06695D01*
X089225D01*
X089825Y06755D02*
X089425D01*
Y06695D01*
X089825D01*
X089425Y06725D02*
X089625D01*
X090025Y06755D02*
Y06695D01*
X090325D01*
X090424Y06705D01*
Y06745D01*
X090325Y06755D01*
X090025D01*
X090624Y06695D02*
X090824D01*
X090724D01*
Y06755D01*
X090624Y06745D01*
X091124D02*
X091224Y06755D01*
X091424D01*
X091524Y06745D01*
Y06705D01*
X091424Y06695D01*
X091224D01*
X091124Y06705D01*
Y06745D01*
X088825Y066712D02*
Y066112D01*
X089225D01*
X089825Y066712D02*
X089425D01*
Y066112D01*
X089825D01*
X089425Y066412D02*
X089625D01*
X090025Y066712D02*
Y066112D01*
X090325D01*
X090424Y066212D01*
Y066612D01*
X090325Y066712D01*
X090025D01*
X090624D02*
X091024D01*
Y066612D01*
X090624Y066212D01*
Y066112D01*
X1046Y0671D02*
Y0677D01*
X1042D01*
X1036Y0671D02*
X104D01*
Y0677D01*
X1036D01*
X104Y0674D02*
X1038D01*
X1034Y0671D02*
Y0677D01*
X1031D01*
X103001Y0676D01*
Y0672D01*
X1031Y0671D01*
X1034D01*
X102801Y0672D02*
X102701Y0671D01*
X102501D01*
X102401Y0672D01*
Y0673D01*
X102501Y0674D01*
X102601D01*
X102501D01*
X102401Y0675D01*
Y0676D01*
X102501Y0677D01*
X102701D01*
X102801Y0676D01*
X092875Y05702D02*
X092775Y05712D01*
X092575D01*
X092475Y05702D01*
Y05662D01*
X092575Y05652D01*
X092775D01*
X092875Y05662D01*
X093474Y05652D02*
X093075D01*
X093474Y05692D01*
Y05702D01*
X093374Y05712D01*
X093174D01*
X093075Y05702D01*
X10023Y05686D02*
X09963D01*
Y05716D01*
X09973Y05726D01*
X09993D01*
X10003Y05716D01*
Y05686D01*
Y05706D02*
X10023Y05726D01*
X09973Y05746D02*
X09963Y05756D01*
Y05776D01*
X09973Y05786D01*
X09983D01*
X09993Y05776D01*
Y05766D01*
Y05776D01*
X10003Y05786D01*
X10013D01*
X10023Y05776D01*
Y05756D01*
X10013Y05746D01*
X09973Y05806D02*
X09963Y05816D01*
Y05836D01*
X09973Y058459D01*
X09983D01*
X09993Y05836D01*
X10003Y058459D01*
X10013D01*
X10023Y05836D01*
Y05816D01*
X10013Y05806D01*
X10003D01*
X09993Y05816D01*
X09983Y05806D01*
X09973D01*
X09993Y05816D02*
Y05836D01*
X10486Y05076D02*
Y05136D01*
X10516D01*
X10526Y05126D01*
Y05106D01*
X10516Y05096D01*
X10486D01*
X10546Y05136D02*
Y05076D01*
X10576D01*
X10586Y05086D01*
Y05126D01*
X10576Y05136D01*
X10546D01*
X10606Y05076D02*
X10626D01*
X10616D01*
Y05136D01*
X10606Y05126D01*
X08995Y063214D02*
X08955D01*
Y062914D01*
X08975D01*
X08955D01*
Y062614D01*
X09015D02*
X09035D01*
X09025D01*
Y063214D01*
X09015Y063114D01*
X08642Y05898D02*
X08632Y05908D01*
X08612D01*
X08602Y05898D01*
Y05858D01*
X08612Y05848D01*
X08632D01*
X08642Y05858D01*
X08662Y05848D02*
X08682D01*
X08672D01*
Y05908D01*
X08662Y05898D01*
X0937Y06065D02*
Y06025D01*
X0939Y06005D01*
X0941Y06025D01*
Y06065D01*
X0943Y06005D02*
Y06065D01*
X0946D01*
X0947Y06055D01*
Y06035D01*
X0946Y06025D01*
X0943D01*
X0945D02*
X0947Y06005D01*
X0949D02*
X0951D01*
X095D01*
Y06065D01*
X0949Y06055D01*
X10343Y05786D02*
Y05846D01*
X10373D01*
X10383Y05836D01*
Y05816D01*
X10373Y05806D01*
X10343D01*
X10363D02*
X10383Y05786D01*
X10403Y05836D02*
X10413Y05846D01*
X10433D01*
X10443Y05836D01*
Y05826D01*
X10433Y05816D01*
X10423D01*
X10433D01*
X10443Y05806D01*
Y05796D01*
X10433Y05786D01*
X10413D01*
X10403Y05796D01*
X105029Y05846D02*
X10483Y05836D01*
X10463Y05816D01*
Y05796D01*
X10473Y05786D01*
X10493D01*
X105029Y05796D01*
Y05806D01*
X10493Y05816D01*
X10463D01*
X089163Y0556D02*
X088563D01*
Y0559D01*
X088663Y056D01*
X088863D01*
X088963Y0559D01*
Y0556D01*
Y0558D02*
X089163Y056D01*
X088663Y0562D02*
X088563Y0563D01*
Y0565D01*
X088663Y0566D01*
X088763D01*
X088863Y0565D01*
Y0564D01*
Y0565D01*
X088963Y0566D01*
X089063D01*
X089163Y0565D01*
Y0563D01*
X089063Y0562D01*
X1036Y056189D02*
Y055589D01*
X104D01*
X1046Y056189D02*
X1042D01*
Y055589D01*
X1046D01*
X1042Y055889D02*
X1044D01*
X1048Y056189D02*
Y055589D01*
X1051D01*
X105199Y055689D01*
Y056089D01*
X1051Y056189D01*
X1048D01*
X105399Y055589D02*
X105599D01*
X105499D01*
Y056189D01*
X105399Y056089D01*
X105899D02*
X105999Y056189D01*
X106199D01*
X106299Y056089D01*
Y055989D01*
X106199Y055889D01*
X106099D01*
X106199D01*
X106299Y055789D01*
Y055689D01*
X106199Y055589D01*
X105999D01*
X105899Y055689D01*
X10275Y053897D02*
X10255D01*
X10265D01*
Y053397D01*
X10255Y053297D01*
X10245D01*
X10235Y053397D01*
X10295Y053897D02*
Y053297D01*
X10325D01*
X10335Y053397D01*
Y053797D01*
X10325Y053897D01*
X10295D01*
X103949Y053797D02*
X10385Y053897D01*
X10365D01*
X10355Y053797D01*
Y053397D01*
X10365Y053297D01*
X10385D01*
X103949Y053397D01*
X104149Y053297D02*
X104349D01*
X104249D01*
Y053897D01*
X104149Y053797D01*
X1037Y06215D02*
X1036Y06225D01*
X1034D01*
X1033Y06215D01*
Y06175D01*
X1034Y06165D01*
X1036D01*
X1037Y06175D01*
X1043Y06225D02*
X1041Y06215D01*
X1039Y06195D01*
Y06175D01*
X104Y06165D01*
X1042D01*
X1043Y06175D01*
Y06185D01*
X1042Y06195D01*
X1039D01*
X09981Y041045D02*
X09971Y041145D01*
X09951D01*
X09941Y041045D01*
Y040645D01*
X09951Y040545D01*
X09971D01*
X09981Y040645D01*
X10041Y041145D02*
X10001D01*
Y040845D01*
X10021Y040945D01*
X10031D01*
X10041Y040845D01*
Y040645D01*
X10031Y040545D01*
X10011D01*
X10001Y040645D01*
X09873Y05074D02*
X09893D01*
X09883D01*
Y05134D01*
X09873Y05124D01*
X09953Y05074D02*
Y05134D01*
X09923Y05104D01*
X09963D01*
X09863Y045835D02*
X09883D01*
X09873D01*
Y046435D01*
X09863Y046335D01*
X09913D02*
X09923Y046435D01*
X09943D01*
X09953Y046335D01*
Y046235D01*
X09943Y046135D01*
X09933D01*
X09943D01*
X09953Y046035D01*
Y045935D01*
X09943Y045835D01*
X09923D01*
X09913Y045935D01*
X10163Y05074D02*
X10183D01*
X10173D01*
Y05134D01*
X10163Y05124D01*
X10213D02*
X10223Y05134D01*
X10243D01*
X10253Y05124D01*
Y05084D01*
X10243Y05074D01*
X10223D01*
X10213Y05084D01*
Y05124D01*
X10083Y04471D02*
X10093Y04461D01*
X10113D01*
X10123Y04471D01*
Y04511D01*
X10113Y04521D01*
X10093D01*
X10083Y04511D01*
Y04501D01*
X10093Y04491D01*
X10123D01*
X08536Y05136D02*
X08576D01*
X08556D01*
Y05076D01*
X08596Y05136D02*
Y05076D01*
X08626D01*
X08636Y05086D01*
Y05126D01*
X08626Y05136D01*
X08596D01*
X08656Y05076D02*
X08676D01*
X08666D01*
Y05136D01*
X08656Y05126D01*
X08892Y04054D02*
X08882Y04064D01*
X08862D01*
X08852Y04054D01*
Y04014D01*
X08862Y04004D01*
X08882D01*
X08892Y04014D01*
X08912Y04054D02*
X08922Y04064D01*
X08942D01*
X08952Y04054D01*
Y04044D01*
X08942Y04034D01*
X08932D01*
X08942D01*
X08952Y04024D01*
Y04014D01*
X08942Y04004D01*
X08922D01*
X08912Y04014D01*
X08813Y04532D02*
X08773D01*
Y04502D01*
X08793Y04512D01*
X08803D01*
X08813Y04502D01*
Y04482D01*
X08803Y04472D01*
X08783D01*
X08773Y04482D01*
X0899Y0514D02*
X0897Y0513D01*
X0895Y0511D01*
Y0509D01*
X0896Y0508D01*
X0898D01*
X0899Y0509D01*
Y051D01*
X0898Y0511D01*
X0895D01*
X09083Y04474D02*
X09103D01*
X09093D01*
Y04534D01*
X09083Y04524D01*
X09103Y04992D02*
X09063D01*
X09103Y05032D01*
Y05042D01*
X09093Y05052D01*
X09073D01*
X09063Y05042D01*
D11*
X118723Y052084D02*
G03*
X118723Y052084I-000049J0D01*
G01*
X119206Y055715D02*
G03*
X119206Y055715I-000049J0D01*
G01*
X11921Y046993D02*
G03*
X11921Y046993I-000049J0D01*
G01*
X089699Y063824D02*
G03*
X089699Y063824I-000049J0D01*
G01*
X103999Y065501D02*
G03*
X103999Y065501I-000049J0D01*
G01*
D12*
X120106Y046373D02*
G03*
X120106Y046373I-000118J0D01*
G01*
D13*
X117991Y050748D02*
G03*
X117991Y050748I-000591J0D01*
G01*
X118003Y048509D02*
G03*
X118003Y048509I-000591J0D01*
G01*
X118036Y060248D02*
G03*
X118036Y060248I-000591J0D01*
G01*
X118023Y062398D02*
G03*
X118023Y062398I-000591J0D01*
G01*
X117991Y03805D02*
G03*
X117991Y03805I-000591J0D01*
G01*
Y04015D02*
G03*
X117991Y04015I-000591J0D01*
G01*
X119988Y068483D02*
Y068533D01*
X119088D02*
X119988D01*
X119088Y068483D02*
Y068533D01*
X119988Y067833D02*
Y067883D01*
X119088Y067833D02*
X119988D01*
X119088D02*
Y067883D01*
X119425Y069183D02*
X119475D01*
Y070083D01*
X119425D02*
X119475D01*
X118775Y069183D02*
X118825D01*
X118775D02*
Y070083D01*
X118825D01*
X120475Y069218D02*
X120525D01*
Y070118D01*
X120475D02*
X120525D01*
X119825Y069218D02*
X119875D01*
X119825D02*
Y070118D01*
X119875D01*
X121575Y069246D02*
X121625D01*
Y070146D01*
X121575D02*
X121625D01*
X120925Y069246D02*
X120975D01*
X120925D02*
Y070146D01*
X120975D01*
X122724Y069246D02*
X122774D01*
Y070146D01*
X122724D02*
X122774D01*
X122074Y069246D02*
X122124D01*
X122074D02*
Y070146D01*
X122124D01*
X123725Y069246D02*
X123775D01*
Y070146D01*
X123725D02*
X123775D01*
X123075Y069246D02*
X123125D01*
X123075D02*
Y070146D01*
X123125D01*
X120725Y0639D02*
X120775D01*
Y0648D01*
X120725D02*
X120775D01*
X120075Y0639D02*
X120125D01*
X120075D02*
Y0648D01*
X120125D01*
X119988Y063533D02*
Y063583D01*
X119088D02*
X119988D01*
X119088Y063533D02*
Y063583D01*
X119988Y062883D02*
Y062933D01*
X119088Y062883D02*
X119988D01*
X119088D02*
Y062933D01*
X121625Y063533D02*
Y063583D01*
X120725D02*
X121625D01*
X120725Y063533D02*
Y063583D01*
X121625Y062883D02*
Y062933D01*
X120725Y062883D02*
X121625D01*
X120725D02*
Y062933D01*
X122675Y06395D02*
X122725D01*
Y06485D01*
X122675D02*
X122725D01*
X122025Y06395D02*
X122075D01*
X122025D02*
Y06485D01*
X122075D01*
X121625Y065776D02*
Y065826D01*
X120725D02*
X121625D01*
X120725Y065776D02*
Y065826D01*
X121625Y065126D02*
Y065176D01*
X120725Y065126D02*
X121625D01*
X120725D02*
Y065176D01*
X119988Y065783D02*
Y065833D01*
X119088D02*
X119988D01*
X119088Y065783D02*
Y065833D01*
X119988Y065133D02*
Y065183D01*
X119088Y065133D02*
X119988D01*
X119088D02*
Y065183D01*
X119988Y067333D02*
Y067383D01*
X119088D02*
X119988D01*
X119088Y067333D02*
Y067383D01*
X119988Y066683D02*
Y066733D01*
X119088Y066683D02*
X119988D01*
X119088D02*
Y066733D01*
X121601Y059983D02*
Y060033D01*
X120701D02*
X121601D01*
X120701Y059983D02*
Y060033D01*
X121601Y059333D02*
Y059383D01*
X120701Y059333D02*
X121601D01*
X120701D02*
Y059383D01*
X119998Y059983D02*
Y060033D01*
X119098D02*
X119998D01*
X119098Y059983D02*
Y060033D01*
X119998Y059333D02*
Y059383D01*
X119098Y059333D02*
X119998D01*
X119098D02*
Y059383D01*
X121925Y061183D02*
X121975D01*
X121925Y060283D02*
Y061183D01*
Y060283D02*
X121975D01*
X122575Y061183D02*
X122625D01*
Y060283D02*
Y061183D01*
X122575Y060283D02*
X122625D01*
X12162Y062083D02*
Y062133D01*
X12072D02*
X12162D01*
X12072Y062083D02*
Y062133D01*
X12162Y061433D02*
Y061483D01*
X12072Y061433D02*
X12162D01*
X12072D02*
Y061483D01*
X119998Y062083D02*
Y062133D01*
X119098D02*
X119998D01*
X119098Y062083D02*
Y062133D01*
X119998Y061433D02*
Y061483D01*
X119098Y061433D02*
X119998D01*
X119098D02*
Y061483D01*
X123133Y064088D02*
X123176Y064063D01*
X122683Y063308D02*
X123133Y064088D01*
X122683Y063308D02*
X122726Y063283D01*
X123695Y063763D02*
X123739Y063738D01*
X123289Y062958D02*
X123739Y063738D01*
X123245Y062983D02*
X123289Y062958D01*
X12372Y064883D02*
X123764Y064908D01*
X123314Y065688D02*
X123764Y064908D01*
X12327Y065663D02*
X123314Y065688D01*
X123158Y064558D02*
X123201Y064583D01*
X122708Y065338D02*
X123158Y064558D01*
X122708Y065338D02*
X122751Y065363D01*
X122574Y058183D02*
X122624D01*
Y059083D01*
X122574D02*
X122624D01*
X121924Y058183D02*
X121974D01*
X121924D02*
Y059083D01*
X121974D01*
X121601Y057833D02*
Y057883D01*
X120701D02*
X121601D01*
X120701Y057833D02*
Y057883D01*
X121601Y057183D02*
Y057233D01*
X120701Y057183D02*
X121601D01*
X120701D02*
Y057233D01*
X119998Y057833D02*
Y057883D01*
X119098D02*
X119998D01*
X119098Y057833D02*
Y057883D01*
X119998Y057183D02*
Y057233D01*
X119098Y057183D02*
X119998D01*
X119098D02*
Y057233D01*
X1174Y050548D02*
X1179D01*
X1174D02*
X1179Y050948D01*
X1169Y050548D02*
X1174D01*
X1169Y050948D02*
X1174Y050548D01*
X1169Y050948D02*
X1179D01*
X116913Y048709D02*
X117413D01*
X116913Y048309D02*
X117413Y048709D01*
X117913D01*
X117413D02*
X117913Y048309D01*
X116913D02*
X117913D01*
X116945Y060448D02*
X117445D01*
X116945Y060048D02*
X117445Y060448D01*
X117945D01*
X117445D02*
X117945Y060048D01*
X116945D02*
X117945D01*
X117433Y062198D02*
X117933D01*
X117433D02*
X117933Y062598D01*
X116933Y062198D02*
X117433D01*
X116933Y062598D02*
X117433Y062198D01*
X116933Y062598D02*
X117933D01*
X1169Y03825D02*
X1174D01*
X1169Y03785D02*
X1174Y03825D01*
X1179D01*
X1174D02*
X1179Y03785D01*
X1169D02*
X1179D01*
X1174Y03995D02*
X1179D01*
X1174D02*
X1179Y04035D01*
X1169Y03995D02*
X1174D01*
X1169Y04035D02*
X1174Y03995D01*
X1169Y04035D02*
X1179D01*
X0886Y05738D02*
Y05772D01*
X0891Y05738D02*
Y05772D01*
X0986Y06465D02*
Y0647D01*
Y06465D02*
X0995D01*
Y0647D01*
X0986Y0653D02*
Y06535D01*
X0995D01*
Y0653D02*
Y06535D01*
X09883Y0659D02*
X09917D01*
X09883Y0654D02*
X09917D01*
X09888Y06675D02*
X09922D01*
X09888Y06725D02*
X09922D01*
X09995Y06665D02*
Y0667D01*
Y06665D02*
X10085D01*
Y0667D01*
X09995Y0673D02*
Y06735D01*
X10085D01*
Y0673D02*
Y06735D01*
X100243Y0666D02*
X100583D01*
X100243Y0661D02*
X100583D01*
X09888Y0666D02*
X09922D01*
X09888Y0661D02*
X09922D01*
X10023Y0659D02*
X10057D01*
X10023Y0654D02*
X10057D01*
X10378Y0644D02*
X10412D01*
X10378Y0639D02*
X10412D01*
X08948Y064925D02*
X08982D01*
X08948Y065425D02*
X08982D01*
X088425Y06435D02*
Y0644D01*
X087525D02*
X088425D01*
X087525Y06435D02*
Y0644D01*
X088425Y0637D02*
Y06375D01*
X087525Y0637D02*
X088425D01*
X087525D02*
Y06375D01*
X088425Y065925D02*
Y065975D01*
X087525D02*
X088425D01*
X087525Y065925D02*
Y065975D01*
X088425Y065275D02*
Y065325D01*
X087525Y065275D02*
X088425D01*
X087525D02*
Y065325D01*
X088425Y066712D02*
Y066762D01*
X087525D02*
X088425D01*
X087525Y066712D02*
Y066762D01*
X088425Y066062D02*
Y066112D01*
X087525Y066062D02*
X088425D01*
X087525D02*
Y066112D01*
X088425Y065138D02*
Y065188D01*
X087525D02*
X088425D01*
X087525Y065138D02*
Y065188D01*
X088425Y064488D02*
Y064538D01*
X087525Y064488D02*
X088425D01*
X087525D02*
Y064538D01*
X088425Y0675D02*
Y06755D01*
X087525D02*
X088425D01*
X087525Y0675D02*
Y06755D01*
X088425Y06685D02*
Y0669D01*
X087525Y06685D02*
X088425D01*
X087525D02*
Y0669D01*
X10505Y067D02*
Y06705D01*
Y067D02*
X10595D01*
Y06705D01*
X10505Y06765D02*
Y0677D01*
X10595D01*
Y06765D02*
Y0677D01*
X10505Y0654D02*
Y06545D01*
Y0654D02*
X10595D01*
Y06545D01*
X10505Y06605D02*
Y0661D01*
X10595D01*
Y06605D02*
Y0661D01*
X10505Y0662D02*
Y06625D01*
Y0662D02*
X10595D01*
Y06625D01*
X10505Y06685D02*
Y0669D01*
X10595D01*
Y06685D02*
Y0669D01*
X10505Y0638D02*
Y06385D01*
Y0638D02*
X10595D01*
Y06385D01*
X10505Y06445D02*
Y0645D01*
X10595D01*
Y06445D02*
Y0645D01*
X10505Y0646D02*
Y06465D01*
Y0646D02*
X10595D01*
Y06465D01*
X10505Y06525D02*
Y0653D01*
X10595D01*
Y06525D02*
Y0653D01*
X10605Y0575D02*
Y05755D01*
X10515D02*
X10605D01*
X10515Y0575D02*
Y05755D01*
X10605Y05685D02*
Y0569D01*
X10515Y05685D02*
X10605D01*
X10515D02*
Y0569D01*
X10388Y05745D02*
X10422D01*
X10388Y05695D02*
X10422D01*
D14*
X098957Y059372D02*
G03*
X098957Y059372I-000039J0D01*
G01*
X095038Y063628D02*
G03*
X095038Y063628I-000039J0D01*
G01*
X091688Y063695D02*
G03*
X091688Y063695I-000039J0D01*
G01*
X12141Y050017D02*
Y0501D01*
X121327Y050017D02*
X12141D01*
X119048D02*
X11913D01*
X119048D02*
Y0501D01*
X12141Y052297D02*
Y05238D01*
X121327D02*
X12141D01*
X119048D02*
X11913D01*
X119048Y052297D02*
Y05238D01*
X119594Y044365D02*
Y046767D01*
X121996Y044365D02*
Y046767D01*
X119594D02*
X121996D01*
X119594Y044365D02*
X121996D01*
X0999Y05485D02*
X10125D01*
X08847Y0458D02*
Y04992D01*
Y0458D02*
X09113D01*
Y05058D01*
X08847D02*
X09113D01*
X08847Y04991D02*
Y05058D01*
X087426Y06822D02*
Y0704D01*
X093326Y06822D02*
Y0704D01*
X087426Y06822D02*
X093326D01*
X087426Y0704D02*
X093326D01*
X10423Y040495D02*
Y041165D01*
X10157Y040495D02*
X10423D01*
X10157D02*
Y045275D01*
X10423D01*
Y041155D02*
Y045275D01*
X10157Y049735D02*
Y050405D01*
X10423D01*
Y045625D02*
Y050405D01*
X10157Y045625D02*
X10423D01*
X10157D02*
Y049745D01*
X10123Y04072D02*
Y04139D01*
X09857Y04072D02*
X10123D01*
X09857D02*
Y0455D01*
X10123D01*
Y04138D02*
Y0455D01*
X09867Y049735D02*
Y050405D01*
X10133D01*
Y045625D02*
Y050405D01*
X09867Y045625D02*
X10133D01*
X09867D02*
Y049745D01*
X09403Y04062D02*
Y04129D01*
X09137Y04062D02*
X09403D01*
X09137D02*
Y0454D01*
X09403D01*
Y04128D02*
Y0454D01*
X09137Y04991D02*
Y05058D01*
X09403D01*
Y0458D02*
Y05058D01*
X09137Y0458D02*
X09403D01*
X09137D02*
Y04992D01*
X09113Y040597D02*
Y041267D01*
X08847Y040597D02*
X09113D01*
X08847D02*
Y045377D01*
X09113D01*
Y041257D02*
Y045377D01*
D15*
X10218Y063142D02*
G03*
X102386Y063454I000358J-000013D01*
G01*
X08867Y06168D02*
G03*
X088359Y061886I000013J000358D01*
G01*
X12192Y03925D02*
X12227D01*
X12007Y03887D02*
X12192D01*
X11973Y03925D02*
X12007D01*
Y03963D02*
X12192D01*
X12007Y03887D02*
Y03963D01*
X12192Y03887D02*
Y03963D01*
Y042275D02*
X12227D01*
X12007Y041895D02*
X12192D01*
X11973Y042275D02*
X12007D01*
Y042655D02*
X12192D01*
X12007Y041895D02*
Y042655D01*
X12192Y041895D02*
Y042655D01*
X10915Y0556D02*
X11055D01*
X10915Y0426D02*
X11155D01*
Y0556D01*
X11055D02*
X11155D01*
X10915Y0426D02*
Y0556D01*
X11124Y04459D02*
X11154D01*
X11124D02*
Y04509D01*
X11154D01*
X11122Y0531D02*
X11152D01*
X11122D02*
Y0536D01*
X11152D01*
X10705Y05315D02*
Y05645D01*
X1016Y05315D02*
Y05645D01*
Y05315D02*
X10705D01*
X1016Y05645D02*
X10705D01*
X10635Y05315D02*
Y05645D01*
X0999Y05415D02*
Y05485D01*
Y0607D02*
Y06145D01*
X10125Y05485D02*
Y0607D01*
X09855D02*
X10125D01*
X09855Y05485D02*
Y0607D01*
Y05485D02*
X0999D01*
X1023Y06287D02*
X1028Y06337D01*
X103Y06265D02*
Y06465D01*
X10283D02*
X103D01*
X10283Y06453D02*
Y06465D01*
X09914Y06453D02*
X10283D01*
X09914D02*
Y06465D01*
X09899D02*
X09914D01*
X09899Y06265D02*
Y06465D01*
Y06265D02*
X103D01*
X092875Y0679D02*
Y0693D01*
X105875Y0679D02*
Y0703D01*
X092875D02*
X105875D01*
X092875Y0693D02*
Y0703D01*
Y0679D02*
X105875D01*
X103885Y06999D02*
Y07029D01*
X103385Y06999D02*
X103885D01*
X103385D02*
Y07029D01*
X095375Y06997D02*
Y07027D01*
X094875Y06997D02*
X095375D01*
X094875D02*
Y07027D01*
X10689Y048425D02*
X10719D01*
X10689Y047925D02*
Y048425D01*
Y047925D02*
X10719D01*
X1069Y041925D02*
X1072D01*
X1069Y041425D02*
Y041925D01*
Y041425D02*
X1072D01*
X1048Y039425D02*
Y050425D01*
X1062D02*
X1072D01*
Y039425D02*
Y050425D01*
X1048Y039425D02*
X1072D01*
X1048Y050425D02*
X1062D01*
X08576Y041425D02*
X08606D01*
Y041925D01*
X08576D02*
X08606D01*
X08575Y047925D02*
X08605D01*
Y048425D01*
X08575D02*
X08605D01*
X08815Y039425D02*
Y050425D01*
X08575Y039425D02*
X08675D01*
X08575D02*
Y050425D01*
X08815D01*
X08675Y039425D02*
X08815D01*
X08595Y05815D02*
X08735D01*
X08595Y05315D02*
X08835D01*
Y05815D01*
X08735D02*
X08835D01*
X08595Y05315D02*
Y05815D01*
X08805Y05417D02*
X08835D01*
X08805D02*
Y05467D01*
X08835D01*
X08803Y05665D02*
X08833D01*
X08803D02*
Y05715D01*
X08833D01*
X088443Y0623D02*
X088943Y0618D01*
X087163Y0625D02*
X089163D01*
X087163Y06233D02*
Y0625D01*
Y06233D02*
X087283D01*
Y05864D02*
Y06233D01*
X087163Y05864D02*
X087283D01*
X087163Y05849D02*
Y05864D01*
Y05849D02*
X089163D01*
Y0625D01*
X09935Y03735D02*
Y03875D01*
X10435Y03735D02*
Y03975D01*
X09935D02*
X10435D01*
X09935Y03875D02*
Y03975D01*
Y03735D02*
X10435D01*
X10333Y03945D02*
Y03975D01*
X10283Y03945D02*
X10333D01*
X10283D02*
Y03975D01*
X10085Y03943D02*
Y03973D01*
X10035Y03943D02*
X10085D01*
X10035D02*
Y03973D01*
X09345Y0383D02*
Y0397D01*
X08845Y0373D02*
Y0397D01*
Y0373D02*
X09345D01*
Y0383D01*
X08845Y0397D02*
X09345D01*
X08947Y0373D02*
Y0376D01*
X08997D01*
Y0373D02*
Y0376D01*
X09195Y03732D02*
Y03762D01*
X09245D01*
Y03732D02*
Y03762D01*
D16*
X112255Y04348D02*
Y04535D01*
X113822D01*
X112708Y043028D02*
X113822D01*
X114743D02*
X1157D01*
X114743Y04535D02*
X1157D01*
X11631Y043638D02*
Y04474D01*
X1157Y043028D02*
X11631Y043638D01*
X1157Y04535D02*
X11631Y04474D01*
X112255Y040562D02*
Y042432D01*
X113822D01*
X112708Y040109D02*
X113822D01*
X114743D02*
X1157D01*
X114743Y042432D02*
X1157D01*
X11631Y040719D02*
Y041822D01*
X1157Y040109D02*
X11631Y040719D01*
X1157Y042432D02*
X11631Y041822D01*
X112255Y037643D02*
Y039513D01*
X113822D01*
X112708Y037191D02*
X113822D01*
X114743D02*
X1157D01*
X114743Y039513D02*
X1157D01*
X11631Y037801D02*
Y038903D01*
X1157Y037191D02*
X11631Y037801D01*
X1157Y039513D02*
X11631Y038903D01*
X112255Y052236D02*
Y054106D01*
X113822D01*
X112708Y051783D02*
X113822D01*
X114743D02*
X1157D01*
X114743Y054106D02*
X1157D01*
X11631Y052393D02*
Y053496D01*
X1157Y051783D02*
X11631Y052393D01*
X1157Y054106D02*
X11631Y053496D01*
X112255Y049317D02*
Y051187D01*
X113822D01*
X112708Y048865D02*
X113822D01*
X114743D02*
X1157D01*
X114743Y051187D02*
X1157D01*
X11631Y049475D02*
Y050577D01*
X1157Y048865D02*
X11631Y049475D01*
X1157Y051187D02*
X11631Y050577D01*
X112255Y046399D02*
Y048269D01*
X113822D01*
X112708Y045946D02*
X113822D01*
X114743D02*
X1157D01*
X114743Y048269D02*
X1157D01*
X11631Y046556D02*
Y047659D01*
X1157Y045946D02*
X11631Y046556D01*
X1157Y048269D02*
X11631Y047659D01*
X112305Y060991D02*
Y062861D01*
X113872D01*
X112758Y060539D02*
X113872D01*
X114793D02*
X11575D01*
X114793Y062861D02*
X11575D01*
X11636Y061149D02*
Y062251D01*
X11575Y060539D02*
X11636Y061149D01*
X11575Y062861D02*
X11636Y062251D01*
X112305Y058073D02*
Y059943D01*
X113872D01*
X112758Y05762D02*
X113872D01*
X114793D02*
X11575D01*
X114793Y059943D02*
X11575D01*
X11636Y05823D02*
Y059333D01*
X11575Y05762D02*
X11636Y05823D01*
X11575Y059943D02*
X11636Y059333D01*
X112255Y055154D02*
Y057024D01*
X113822D01*
X112708Y054702D02*
X113822D01*
X114743D02*
X1157D01*
X114743Y057024D02*
X1157D01*
X11631Y055312D02*
Y056414D01*
X1157Y054702D02*
X11631Y055312D01*
X1157Y057024D02*
X11631Y056414D01*
X08851Y05825D02*
X08918D01*
Y05685D02*
Y05825D01*
X08851Y05685D02*
X08918D01*
X08851D02*
Y05825D01*
X102748Y060689D02*
X103359Y061299D01*
X102748Y059311D02*
X103359Y058701D01*
X105347D01*
X103359Y061299D02*
X105347D01*
Y058701D02*
Y059606D01*
Y060394D02*
Y061299D01*
X102748Y060394D02*
Y060689D01*
Y059311D02*
Y059606D01*
X092481Y058711D02*
Y062789D01*
X096083D02*
X096715D01*
X096083Y058711D02*
X096715D01*
Y062789D01*
X0983Y06531D02*
X0997D01*
Y06598D01*
X0983D02*
X0997D01*
X0983Y06531D02*
Y06598D01*
X09835Y06734D02*
X09975D01*
X09835Y06667D02*
Y06734D01*
Y06667D02*
X09975D01*
Y06734D01*
X099713Y06601D02*
X101113D01*
Y06668D01*
X099713D02*
X101113D01*
X099713Y06601D02*
Y06668D01*
X09835Y06601D02*
X09975D01*
Y06668D01*
X09835D02*
X09975D01*
X09835Y06601D02*
Y06668D01*
X0997Y06531D02*
X1011D01*
Y06598D01*
X0997D02*
X1011D01*
X0997Y06531D02*
Y06598D01*
X10325Y06381D02*
X10465D01*
Y06448D01*
X10325D02*
X10465D01*
X10325Y06381D02*
Y06448D01*
X08895Y065515D02*
X09035D01*
X08895Y064845D02*
Y065515D01*
Y064845D02*
X09035D01*
Y065515D01*
X094577Y064618D02*
Y066082D01*
X097223Y064618D02*
Y066082D01*
X094577Y064618D02*
X09468D01*
X097124D02*
X097223D01*
X096636Y066082D02*
X097223D01*
X094577D02*
X095207D01*
X094941Y053601D02*
X095552Y054211D01*
X094941Y056199D02*
X095552Y055589D01*
X092953Y056199D02*
X094941D01*
X092953Y053601D02*
X094941D01*
X092953Y055294D02*
Y056199D01*
Y053601D02*
Y054506D01*
X095552Y054211D02*
Y054506D01*
Y055294D02*
Y055589D01*
X091227Y064685D02*
Y066149D01*
X093873Y064685D02*
Y066149D01*
X091227Y064685D02*
X09133D01*
X093774D02*
X093873D01*
X093286Y066149D02*
X093873D01*
X091227D02*
X091857D01*
X10335Y05686D02*
X10475D01*
Y05753D01*
X10335D02*
X10475D01*
X10335Y05686D02*
Y05753D01*
D17*
X11895Y04065D02*
Y040983D01*
X119033D01*
X119117Y0409D01*
Y04065D01*
Y0409D01*
X1192Y040983D01*
X119283Y0409D01*
Y04065D01*
X11945Y040983D02*
Y040733D01*
X119533Y04065D01*
X119783D01*
Y040567D01*
X1197Y040483D01*
X119616D01*
X119783Y04065D02*
Y040983D01*
X12045Y04065D02*
X120699D01*
X120783Y040733D01*
X120699Y040817D01*
X120533D01*
X12045Y0409D01*
X120533Y040983D01*
X120783D01*
X120949Y040483D02*
Y040983D01*
X121199D01*
X121283Y0409D01*
Y040733D01*
X121199Y04065D01*
X120949D01*
X121449D02*
X121616D01*
X121532D01*
Y040983D01*
X121449D01*
X121866D02*
Y04065D01*
Y040817D01*
X121949Y0409D01*
X122032Y040983D01*
X122116D01*
X122366Y04065D02*
X122532D01*
X122449D01*
Y040983D01*
X122366D01*
X122865Y041067D02*
Y040983D01*
X122782D01*
X122949D01*
X122865D01*
Y040733D01*
X122949Y04065D01*
X1188Y048759D02*
Y049359D01*
X1191D01*
X1192Y049259D01*
Y049059D01*
X1191Y048959D01*
X1188D01*
X1195Y049159D02*
X1197D01*
X1198Y049059D01*
Y048759D01*
X1195D01*
X1194Y048859D01*
X1195Y048959D01*
X1198D01*
X12Y048759D02*
X1203D01*
X120399Y048859D01*
X1203Y048959D01*
X1201D01*
X12Y049059D01*
X1201Y049159D01*
X120399D01*
X120599Y048759D02*
X120899D01*
X120999Y048859D01*
X120899Y048959D01*
X120699D01*
X120599Y049059D01*
X120699Y049159D01*
X120999D01*
X121199Y048759D02*
X121399D01*
X121299D01*
Y049159D01*
X121199D01*
X121799Y048759D02*
X121999D01*
X122099Y048859D01*
Y049059D01*
X121999Y049159D01*
X121799D01*
X121699Y049059D01*
Y048859D01*
X121799Y048759D01*
X122299D02*
Y049159D01*
X122599D01*
X122699Y049059D01*
Y048759D01*
X122899D02*
Y048859D01*
X122999D01*
Y048759D01*
X122899D01*
X1102Y05675D02*
X109867D01*
X1097Y056917D01*
X109867Y057083D01*
X1102D01*
X10995D01*
Y05675D01*
X109783Y057583D02*
X1097Y0575D01*
Y057333D01*
X109783Y05725D01*
X110117D01*
X1102Y057333D01*
Y0575D01*
X110117Y057583D01*
X10995D01*
Y057416D01*
X1097Y05775D02*
X110033D01*
X1102Y057916D01*
X110033Y058083D01*
X1097D01*
X1102Y058749D02*
X1097D01*
Y058999D01*
X109783Y059083D01*
X10995D01*
X110033Y058999D01*
Y058749D01*
X109867Y059249D02*
X1102D01*
X110033D01*
X10995Y059332D01*
X109867Y059416D01*
Y059499D01*
X1102Y059832D02*
Y059999D01*
X110117Y060082D01*
X10995D01*
X109867Y059999D01*
Y059832D01*
X10995Y059749D01*
X110117D01*
X1102Y059832D01*
X110367Y060249D02*
Y060332D01*
X110283Y060415D01*
X109867D01*
X1102Y060999D02*
Y060832D01*
X110117Y060749D01*
X10995D01*
X109867Y060832D01*
Y060999D01*
X10995Y061082D01*
X110033D01*
Y060749D01*
X109867Y061582D02*
Y061332D01*
X10995Y061249D01*
X110117D01*
X1102Y061332D01*
Y061582D01*
X109783Y061832D02*
X109867D01*
Y061748D01*
Y061915D01*
Y061832D01*
X110117D01*
X1102Y061915D01*
D18*
X12135Y04155D02*
Y04135D01*
X12145D01*
X121483Y041383D01*
Y041417D01*
Y04145D01*
X12145Y041483D01*
X12135D01*
X12165Y04135D02*
X121583D01*
X12155Y041383D01*
Y04145D01*
X121583Y041483D01*
X12165D01*
X121683Y04145D01*
Y041417D01*
X12155D01*
X121883Y041483D02*
X121783D01*
X12175Y04145D01*
Y041383D01*
X121783Y04135D01*
X121883D01*
X121983Y041483D02*
X12205D01*
X122083Y04145D01*
Y04135D01*
X121983D01*
X12195Y041383D01*
X121983Y041417D01*
X122083D01*
X12215Y041483D02*
Y041383D01*
X122183Y04135D01*
X122283D01*
Y041483D01*
X12235Y04135D02*
X12245D01*
X122483Y041383D01*
X12245Y041417D01*
X122383D01*
X12235Y04145D01*
X122383Y041483D01*
X122483D01*
X12265Y04135D02*
X122583D01*
X12255Y041383D01*
Y04145D01*
X122583Y041483D01*
X12265D01*
X122683Y04145D01*
Y041417D01*
X12255D01*
X122983Y04135D02*
X123049D01*
X123083Y041383D01*
Y04145D01*
X123049Y041483D01*
X122983D01*
X122949Y04145D01*
Y041383D01*
X122983Y04135D01*
X123183D02*
Y041517D01*
Y04145D01*
X123149D01*
X123216D01*
X123183D01*
Y041517D01*
X123216Y04155D01*
D19*
X109254Y0392D02*
X109854D01*
Y0396D01*
X109454Y0399D02*
Y0401D01*
X109554Y0402D01*
X109854D01*
Y0399D01*
X109754Y0398D01*
X109654Y0399D01*
Y0402D01*
X109854Y0404D02*
X109454D01*
Y0405D01*
X109554Y0406D01*
X109854D01*
X109554D01*
X109454Y0407D01*
X109554Y040799D01*
X109854D01*
X109254Y040999D02*
Y041399D01*
Y041199D01*
X109854D01*
X109454Y041599D02*
X109854D01*
X109654D01*
X109554Y041699D01*
X109454Y041799D01*
Y041899D01*
Y042299D02*
Y042499D01*
X109554Y042599D01*
X109854D01*
Y042299D01*
X109754Y042199D01*
X109654Y042299D01*
Y042599D01*
X109854Y042799D02*
X109454D01*
Y043099D01*
X109554Y043199D01*
X109854D01*
X09465Y03835D02*
Y03775D01*
X09505D01*
X09535Y03815D02*
X09555D01*
X09565Y03805D01*
Y03775D01*
X09535D01*
X09525Y03785D01*
X09535Y03795D01*
X09565D01*
X09585Y03775D02*
Y03815D01*
X09595D01*
X09605Y03805D01*
Y03775D01*
Y03805D01*
X09615Y03815D01*
X096249Y03805D01*
Y03775D01*
X096449Y03835D02*
X096849D01*
X096649D01*
Y03775D01*
X097049Y03815D02*
Y03775D01*
Y03795D01*
X097149Y03805D01*
X097249Y03815D01*
X097349D01*
X097749D02*
X097949D01*
X098049Y03805D01*
Y03775D01*
X097749D01*
X097649Y03785D01*
X097749Y03795D01*
X098049D01*
X098249Y03775D02*
Y03815D01*
X098549D01*
X098649Y03805D01*
Y03775D01*
D20*
X097Y0418D02*
X096334D01*
X096Y042133D01*
X096334Y042466D01*
X097D01*
X0965D01*
Y0418D01*
X096167Y043466D02*
X096Y0433D01*
Y042966D01*
X096167Y0428D01*
X096833D01*
X097Y042966D01*
Y0433D01*
X096833Y043466D01*
X0965D01*
Y043133D01*
X096Y043799D02*
X096667D01*
X097Y044133D01*
X096667Y044466D01*
X096D01*
X097Y045799D02*
X096D01*
Y046299D01*
X096167Y046465D01*
X0965D01*
X096667Y046299D01*
Y045799D01*
X096334Y046798D02*
X097D01*
X096667D01*
X0965Y046965D01*
X096334Y047132D01*
Y047298D01*
X097Y047965D02*
Y048298D01*
X096833Y048465D01*
X0965D01*
X096334Y048298D01*
Y047965D01*
X0965Y047798D01*
X096833D01*
X097Y047965D01*
X097333Y048798D02*
Y048964D01*
X097167Y049131D01*
X096334D01*
X097Y050297D02*
Y049964D01*
X096833Y049797D01*
X0965D01*
X096334Y049964D01*
Y050297D01*
X0965Y050464D01*
X096667D01*
Y049797D01*
X096334Y051464D02*
Y050964D01*
X0965Y050797D01*
X096833D01*
X097Y050964D01*
Y051464D01*
X096167Y051963D02*
X096334D01*
Y051797D01*
Y05213D01*
Y051963D01*
X096833D01*
X097Y05213D01*
M02*
