G04*
G04 #@! TF.GenerationSoftware,Altium Limited,Altium Designer,18.1.6 (161)*
G04*
G04 Layer_Color=2752767*
%FSTAX24Y24*%
%MOIN*%
G70*
G01*
G75*
%ADD123C,0.0020*%
%ADD124C,0.0027*%
%ADD125C,0.0013*%
G36*
X10415Y040525D02*
D01*
D02*
G37*
D123*
X11732Y051168D02*
Y051328D01*
X11748D01*
Y051168D01*
X11732D01*
Y050168D02*
Y050328D01*
X11748D01*
Y050168D01*
X11732D01*
X117333Y047929D02*
Y048089D01*
X117493D01*
Y047929D01*
X117333D01*
Y048929D02*
Y049089D01*
X117493D01*
Y048929D01*
X117333D01*
X112452Y043144D02*
X112372Y043304D01*
X112532D01*
X112452Y043144D01*
X114283Y043361D02*
X114323Y043401D01*
X114363D01*
X114323Y043441D01*
X114363Y043481D01*
X114323D01*
X114283Y043521D01*
X114243Y043481D01*
X114203D01*
X114243Y043441D01*
X114203Y043401D01*
X114243D01*
X114283Y043361D01*
Y044857D02*
X114323Y044897D01*
X114363D01*
X114323Y044937D01*
X114363Y044977D01*
X114323D01*
X114283Y045017D01*
X114243Y044977D01*
X114203D01*
X114243Y044937D01*
X114203Y044897D01*
X114243D01*
X114283Y044857D01*
X11047Y05452D02*
X11051Y0546D01*
X11047Y05468D01*
X11055Y05464D01*
X11063Y05468D01*
X11059Y0546D01*
X11063Y05452D01*
X11055Y05456D01*
X11047Y05452D01*
Y05252D02*
X11051Y0526D01*
X11047Y05268D01*
X11055Y05264D01*
X11063Y05268D01*
X11059Y0526D01*
X11063Y05252D01*
X11055Y05256D01*
X11047Y05252D01*
Y05052D02*
X11051Y0506D01*
X11047Y05068D01*
X11055Y05064D01*
X11063Y05068D01*
X11059Y0506D01*
X11063Y05052D01*
X11055Y05056D01*
X11047Y05052D01*
Y04852D02*
X11051Y0486D01*
X11047Y04868D01*
X11055Y04864D01*
X11063Y04868D01*
X11059Y0486D01*
X11063Y04852D01*
X11055Y04856D01*
X11047Y04852D01*
Y04652D02*
X11051Y0466D01*
X11047Y04668D01*
X11055Y04664D01*
X11063Y04668D01*
X11059Y0466D01*
X11063Y04652D01*
X11055Y04656D01*
X11047Y04652D01*
Y04552D02*
X11051Y0456D01*
X11047Y04568D01*
X11055Y04564D01*
X11063Y04568D01*
X11059Y0456D01*
X11063Y04552D01*
X11055Y04556D01*
X11047Y04552D01*
Y04452D02*
X11051Y0446D01*
X11047Y04468D01*
X11055Y04464D01*
X11063Y04468D01*
X11059Y0446D01*
X11063Y04452D01*
X11055Y04456D01*
X11047Y04452D01*
Y04352D02*
X11051Y0436D01*
X11047Y04368D01*
X11055Y04364D01*
X11063Y04368D01*
X11059Y0436D01*
X11063Y04352D01*
X11055Y04356D01*
X11047Y04352D01*
Y04752D02*
X11051Y0476D01*
X11047Y04768D01*
X11055Y04764D01*
X11063Y04768D01*
X11059Y0476D01*
X11063Y04752D01*
X11055Y04756D01*
X11047Y04752D01*
Y04952D02*
X11051Y0496D01*
X11047Y04968D01*
X11055Y04964D01*
X11063Y04968D01*
X11059Y0496D01*
X11063Y04952D01*
X11055Y04956D01*
X11047Y04952D01*
Y05152D02*
X11051Y0516D01*
X11047Y05168D01*
X11055Y05164D01*
X11063Y05168D01*
X11059Y0516D01*
X11063Y05152D01*
X11055Y05156D01*
X11047Y05152D01*
Y05352D02*
X11051Y0536D01*
X11047Y05368D01*
X11055Y05364D01*
X11063Y05368D01*
X11059Y0536D01*
X11063Y05352D01*
X11055Y05356D01*
X11047Y05352D01*
X112452Y040226D02*
X112372Y040386D01*
X112532D01*
X112452Y040226D01*
X114283Y040442D02*
X114323Y040482D01*
X114363D01*
X114323Y040522D01*
X114363Y040562D01*
X114323D01*
X114283Y040602D01*
X114243Y040562D01*
X114203D01*
X114243Y040522D01*
X114203Y040482D01*
X114243D01*
X114283Y040442D01*
Y041939D02*
X114323Y041979D01*
X114363D01*
X114323Y042018D01*
X114363Y042059D01*
X114323D01*
X114283Y042098D01*
X114243Y042059D01*
X114203D01*
X114243Y042018D01*
X114203Y041979D01*
X114243D01*
X114283Y041939D01*
X112452Y037307D02*
X112372Y037467D01*
X112532D01*
X112452Y037307D01*
X114283Y037524D02*
X114323Y037564D01*
X114363D01*
X114323Y037604D01*
X114363Y037644D01*
X114323D01*
X114283Y037684D01*
X114243Y037644D01*
X114203D01*
X114243Y037604D01*
X114203Y037564D01*
X114243D01*
X114283Y037524D01*
Y03902D02*
X114323Y03906D01*
X114363D01*
X114323Y0391D01*
X114363Y03914D01*
X114323D01*
X114283Y03918D01*
X114243Y03914D01*
X114203D01*
X114243Y0391D01*
X114203Y03906D01*
X114243D01*
X114283Y03902D01*
X117365Y059668D02*
Y059828D01*
X117525D01*
Y059668D01*
X117365D01*
Y060668D02*
Y060828D01*
X117525D01*
Y060668D01*
X117365D01*
X117353Y062818D02*
Y062978D01*
X117513D01*
Y062818D01*
X117353D01*
Y061818D02*
Y061978D01*
X117513D01*
Y061818D01*
X117353D01*
X112452Y0519D02*
X112372Y05206D01*
X112532D01*
X112452Y0519D01*
X114283Y052116D02*
X114323Y052156D01*
X114363D01*
X114323Y052196D01*
X114363Y052236D01*
X114323D01*
X114283Y052276D01*
X114243Y052236D01*
X114203D01*
X114243Y052196D01*
X114203Y052156D01*
X114243D01*
X114283Y052116D01*
Y053613D02*
X114323Y053653D01*
X114363D01*
X114323Y053693D01*
X114363Y053733D01*
X114323D01*
X114283Y053773D01*
X114243Y053733D01*
X114203D01*
X114243Y053693D01*
X114203Y053653D01*
X114243D01*
X114283Y053613D01*
X112452Y048981D02*
X112372Y049141D01*
X112532D01*
X112452Y048981D01*
X114283Y049198D02*
X114323Y049238D01*
X114363D01*
X114323Y049278D01*
X114363Y049318D01*
X114323D01*
X114283Y049358D01*
X114243Y049318D01*
X114203D01*
X114243Y049278D01*
X114203Y049238D01*
X114243D01*
X114283Y049198D01*
Y050694D02*
X114323Y050734D01*
X114363D01*
X114323Y050774D01*
X114363Y050814D01*
X114323D01*
X114283Y050854D01*
X114243Y050814D01*
X114203D01*
X114243Y050774D01*
X114203Y050734D01*
X114243D01*
X114283Y050694D01*
X112452Y046063D02*
X112372Y046223D01*
X112532D01*
X112452Y046063D01*
X114283Y046279D02*
X114323Y046319D01*
X114363D01*
X114323Y046359D01*
X114363Y046399D01*
X114323D01*
X114283Y046439D01*
X114243Y046399D01*
X114203D01*
X114243Y046359D01*
X114203Y046319D01*
X114243D01*
X114283Y046279D01*
Y047776D02*
X114323Y047816D01*
X114363D01*
X114323Y047856D01*
X114363Y047896D01*
X114323D01*
X114283Y047936D01*
X114243Y047896D01*
X114203D01*
X114243Y047856D01*
X114203Y047816D01*
X114243D01*
X114283Y047776D01*
X112502Y060655D02*
X112422Y060815D01*
X112582D01*
X112502Y060655D01*
X114333Y060872D02*
X114373Y060912D01*
X114413D01*
X114373Y060952D01*
X114413Y060992D01*
X114373D01*
X114333Y061032D01*
X114293Y060992D01*
X114253D01*
X114293Y060952D01*
X114253Y060912D01*
X114293D01*
X114333Y060872D01*
Y062368D02*
X114373Y062408D01*
X114413D01*
X114373Y062448D01*
X114413Y062488D01*
X114373D01*
X114333Y062528D01*
X114293Y062488D01*
X114253D01*
X114293Y062448D01*
X114253Y062408D01*
X114293D01*
X114333Y062368D01*
X112502Y057737D02*
X112422Y057897D01*
X112582D01*
X112502Y057737D01*
X114333Y057953D02*
X114373Y057993D01*
X114413D01*
X114373Y058033D01*
X114413Y058073D01*
X114373D01*
X114333Y058113D01*
X114293Y058073D01*
X114253D01*
X114293Y058033D01*
X114253Y057993D01*
X114293D01*
X114333Y057953D01*
Y05945D02*
X114373Y05949D01*
X114413D01*
X114373Y05953D01*
X114413Y05957D01*
X114373D01*
X114333Y05961D01*
X114293Y05957D01*
X114253D01*
X114293Y05953D01*
X114253Y05949D01*
X114293D01*
X114333Y05945D01*
X112452Y054818D02*
X112372Y054978D01*
X112532D01*
X112452Y054818D01*
X114283Y055035D02*
X114323Y055075D01*
X114363D01*
X114323Y055115D01*
X114363Y055155D01*
X114323D01*
X114283Y055195D01*
X114243Y055155D01*
X114203D01*
X114243Y055115D01*
X114203Y055075D01*
X114243D01*
X114283Y055035D01*
Y056531D02*
X114323Y056571D01*
X114363D01*
X114323Y056611D01*
X114363Y056651D01*
X114323D01*
X114283Y056691D01*
X114243Y056651D01*
X114203D01*
X114243Y056611D01*
X114203Y056571D01*
X114243D01*
X114283Y056531D01*
X11732Y03747D02*
Y03763D01*
X11748D01*
Y03747D01*
X11732D01*
Y03847D02*
Y03863D01*
X11748D01*
Y03847D01*
X11732D01*
Y04057D02*
Y04073D01*
X11748D01*
Y04057D01*
X11732D01*
Y03957D02*
Y03973D01*
X11748D01*
Y03957D01*
X11732D01*
X10151Y05461D02*
Y05457D01*
X10159D01*
Y05461D01*
X10163D01*
Y05469D01*
X10159D01*
Y05473D01*
X10151D01*
Y05469D01*
X10147D01*
Y05461D01*
X10151D01*
X10401D02*
Y05457D01*
X10409D01*
Y05461D01*
X10413D01*
Y05469D01*
X10409D01*
Y05473D01*
X10401D01*
Y05469D01*
X10397D01*
Y05461D01*
X10401D01*
X10251Y05661D02*
Y05657D01*
X10259D01*
Y05661D01*
X10263D01*
Y05669D01*
X10259D01*
Y05673D01*
X10251D01*
Y05669D01*
X10247D01*
Y05661D01*
X10251D01*
X09982Y06182D02*
X09986D01*
X0999Y06186D01*
X09994Y06182D01*
X09998D01*
Y06186D01*
X09994Y0619D01*
X09998Y06194D01*
Y06198D01*
X09994D01*
X0999Y06194D01*
X09986Y06198D01*
X09982D01*
Y06194D01*
X09986Y0619D01*
X09982Y06186D01*
Y06182D01*
Y05357D02*
X09986D01*
X0999Y05361D01*
X09994Y05357D01*
X09998D01*
Y05361D01*
X09994Y05365D01*
X09998Y05369D01*
Y05373D01*
X09994D01*
X0999Y05369D01*
X09986Y05373D01*
X09982D01*
Y05369D01*
X09986Y05365D01*
X09982Y05361D01*
Y05357D01*
X10192Y06365D02*
X102Y06373D01*
X10208Y06365D01*
X102Y06357D01*
X10192Y06365D01*
X10092D02*
X101Y06373D01*
X10108Y06365D01*
X101Y06357D01*
X10092Y06365D01*
X09992D02*
X1Y06373D01*
X10008Y06365D01*
X1Y06357D01*
X09992Y06365D01*
X092796Y06922D02*
Y06938D01*
X092956D01*
Y06922D01*
X092796D01*
X092836Y06926D02*
Y06934D01*
X092916D01*
Y06926D01*
X092836D01*
X091796Y06922D02*
Y06938D01*
X091956D01*
Y06922D01*
X091796D01*
X091836Y06926D02*
Y06934D01*
X091916D01*
Y06926D01*
X091836D01*
X090796Y06922D02*
Y06938D01*
X090956D01*
Y06922D01*
X090796D01*
X090836Y06926D02*
Y06934D01*
X090916D01*
Y06926D01*
X090836D01*
X089796Y06922D02*
Y06938D01*
X089956D01*
Y06922D01*
X089796D01*
X089836Y06926D02*
Y06934D01*
X089916D01*
Y06926D01*
X089836D01*
X088796Y06922D02*
Y06938D01*
X088956D01*
Y06922D01*
X088796D01*
X088836Y06926D02*
Y06934D01*
X088916D01*
Y06926D01*
X088836D01*
X087796Y06922D02*
Y06938D01*
X087956D01*
Y06922D01*
X087796D01*
X087836Y06926D02*
Y06934D01*
X087916D01*
Y06926D01*
X087836D01*
X093795Y06922D02*
X093835Y0693D01*
X093795Y06938D01*
X093875Y06934D01*
X093955Y06938D01*
X093915Y0693D01*
X093955Y06922D01*
X093875Y06926D01*
X093795Y06922D01*
X095795D02*
X095835Y0693D01*
X095795Y06938D01*
X095875Y06934D01*
X095955Y06938D01*
X095915Y0693D01*
X095955Y06922D01*
X095875Y06926D01*
X095795Y06922D01*
X097795D02*
X097835Y0693D01*
X097795Y06938D01*
X097875Y06934D01*
X097955Y06938D01*
X097915Y0693D01*
X097955Y06922D01*
X097875Y06926D01*
X097795Y06922D01*
X099795D02*
X099835Y0693D01*
X099795Y06938D01*
X099875Y06934D01*
X099955Y06938D01*
X099915Y0693D01*
X099955Y06922D01*
X099875Y06926D01*
X099795Y06922D01*
X101795D02*
X101835Y0693D01*
X101795Y06938D01*
X101875Y06934D01*
X101955Y06938D01*
X101915Y0693D01*
X101955Y06922D01*
X101875Y06926D01*
X101795Y06922D01*
X102795D02*
X102835Y0693D01*
X102795Y06938D01*
X102875Y06934D01*
X102955Y06938D01*
X102915Y0693D01*
X102955Y06922D01*
X102875Y06926D01*
X102795Y06922D01*
X103795D02*
X103835Y0693D01*
X103795Y06938D01*
X103875Y06934D01*
X103955Y06938D01*
X103915Y0693D01*
X103955Y06922D01*
X103875Y06926D01*
X103795Y06922D01*
X104795D02*
X104835Y0693D01*
X104795Y06938D01*
X104875Y06934D01*
X104955Y06938D01*
X104915Y0693D01*
X104955Y06922D01*
X104875Y06926D01*
X104795Y06922D01*
X100795D02*
X100835Y0693D01*
X100795Y06938D01*
X100875Y06934D01*
X100955Y06938D01*
X100915Y0693D01*
X100955Y06922D01*
X100875Y06926D01*
X100795Y06922D01*
X098795D02*
X098835Y0693D01*
X098795Y06938D01*
X098875Y06934D01*
X098955Y06938D01*
X098915Y0693D01*
X098955Y06922D01*
X098875Y06926D01*
X098795Y06922D01*
X096795D02*
X096835Y0693D01*
X096795Y06938D01*
X096875Y06934D01*
X096955Y06938D01*
X096915Y0693D01*
X096955Y06922D01*
X096875Y06926D01*
X096795Y06922D01*
X094795D02*
X094835Y0693D01*
X094795Y06938D01*
X094875Y06934D01*
X094955Y06938D01*
X094915Y0693D01*
X094955Y06922D01*
X094875Y06926D01*
X094795Y06922D01*
X10612Y048345D02*
X10616Y048425D01*
X10612Y048505D01*
X1062Y048465D01*
X10628Y048505D01*
X10624Y048425D01*
X10628Y048345D01*
X1062Y048385D01*
X10612Y048345D01*
Y046345D02*
X10616Y046425D01*
X10612Y046505D01*
X1062Y046465D01*
X10628Y046505D01*
X10624Y046425D01*
X10628Y046345D01*
X1062Y046385D01*
X10612Y046345D01*
Y044345D02*
X10616Y044425D01*
X10612Y044505D01*
X1062Y044465D01*
X10628Y044505D01*
X10624Y044425D01*
X10628Y044345D01*
X1062Y044385D01*
X10612Y044345D01*
Y040345D02*
X10616Y040425D01*
X10612Y040505D01*
X1062Y040465D01*
X10628Y040505D01*
X10624Y040425D01*
X10628Y040345D01*
X1062Y040385D01*
X10612Y040345D01*
Y041345D02*
X10616Y041425D01*
X10612Y041505D01*
X1062Y041465D01*
X10628Y041505D01*
X10624Y041425D01*
X10628Y041345D01*
X1062Y041385D01*
X10612Y041345D01*
Y042345D02*
X10616Y042425D01*
X10612Y042505D01*
X1062Y042465D01*
X10628Y042505D01*
X10624Y042425D01*
X10628Y042345D01*
X1062Y042385D01*
X10612Y042345D01*
Y043345D02*
X10616Y043425D01*
X10612Y043505D01*
X1062Y043465D01*
X10628Y043505D01*
X10624Y043425D01*
X10628Y043345D01*
X1062Y043385D01*
X10612Y043345D01*
Y045345D02*
X10616Y045425D01*
X10612Y045505D01*
X1062Y045465D01*
X10628Y045505D01*
X10624Y045425D01*
X10628Y045345D01*
X1062Y045385D01*
X10612Y045345D01*
Y047345D02*
X10616Y047425D01*
X10612Y047505D01*
X1062Y047465D01*
X10628Y047505D01*
X10624Y047425D01*
X10628Y047345D01*
X1062Y047385D01*
X10612Y047345D01*
Y049345D02*
X10616Y049425D01*
X10612Y049505D01*
X1062Y049465D01*
X10628Y049505D01*
X10624Y049425D01*
X10628Y049345D01*
X1062Y049385D01*
X10612Y049345D01*
X08667Y041345D02*
X08671Y041425D01*
X08667Y041505D01*
X08675Y041465D01*
X08683Y041505D01*
X08679Y041425D01*
X08683Y041345D01*
X08675Y041385D01*
X08667Y041345D01*
Y043345D02*
X08671Y043425D01*
X08667Y043505D01*
X08675Y043465D01*
X08683Y043505D01*
X08679Y043425D01*
X08683Y043345D01*
X08675Y043385D01*
X08667Y043345D01*
Y045345D02*
X08671Y045425D01*
X08667Y045505D01*
X08675Y045465D01*
X08683Y045505D01*
X08679Y045425D01*
X08683Y045345D01*
X08675Y045385D01*
X08667Y045345D01*
Y049345D02*
X08671Y049425D01*
X08667Y049505D01*
X08675Y049465D01*
X08683Y049505D01*
X08679Y049425D01*
X08683Y049345D01*
X08675Y049385D01*
X08667Y049345D01*
Y048345D02*
X08671Y048425D01*
X08667Y048505D01*
X08675Y048465D01*
X08683Y048505D01*
X08679Y048425D01*
X08683Y048345D01*
X08675Y048385D01*
X08667Y048345D01*
Y047345D02*
X08671Y047425D01*
X08667Y047505D01*
X08675Y047465D01*
X08683Y047505D01*
X08679Y047425D01*
X08683Y047345D01*
X08675Y047385D01*
X08667Y047345D01*
Y046345D02*
X08671Y046425D01*
X08667Y046505D01*
X08675Y046465D01*
X08683Y046505D01*
X08679Y046425D01*
X08683Y046345D01*
X08675Y046385D01*
X08667Y046345D01*
Y044345D02*
X08671Y044425D01*
X08667Y044505D01*
X08675Y044465D01*
X08683Y044505D01*
X08679Y044425D01*
X08683Y044345D01*
X08675Y044385D01*
X08667Y044345D01*
Y042345D02*
X08671Y042425D01*
X08667Y042505D01*
X08675Y042465D01*
X08683Y042505D01*
X08679Y042425D01*
X08683Y042345D01*
X08675Y042385D01*
X08667Y042345D01*
Y040345D02*
X08671Y040425D01*
X08667Y040505D01*
X08675Y040465D01*
X08683Y040505D01*
X08679Y040425D01*
X08683Y040345D01*
X08675Y040385D01*
X08667Y040345D01*
X08727Y05707D02*
X08731Y05715D01*
X08727Y05723D01*
X08735Y05719D01*
X08743Y05723D01*
X08739Y05715D01*
X08743Y05707D01*
X08735Y05711D01*
X08727Y05707D01*
Y05607D02*
X08731Y05615D01*
X08727Y05623D01*
X08735Y05619D01*
X08743Y05623D01*
X08739Y05615D01*
X08743Y05607D01*
X08735Y05611D01*
X08727Y05607D01*
Y05507D02*
X08731Y05515D01*
X08727Y05523D01*
X08735Y05519D01*
X08743Y05523D01*
X08739Y05515D01*
X08743Y05507D01*
X08735Y05511D01*
X08727Y05507D01*
Y05407D02*
X08731Y05415D01*
X08727Y05423D01*
X08735Y05419D01*
X08743Y05423D01*
X08739Y05415D01*
X08743Y05407D01*
X08735Y05411D01*
X08727Y05407D01*
X088083Y0615D02*
X088163Y06158D01*
X088243Y0615D01*
X088163Y06142D01*
X088083Y0615D01*
Y0605D02*
X088163Y06058D01*
X088243Y0605D01*
X088163Y06042D01*
X088083Y0605D01*
Y0595D02*
X088163Y05958D01*
X088243Y0595D01*
X088163Y05942D01*
X088083Y0595D01*
X10027Y03867D02*
X10031Y03875D01*
X10027Y03883D01*
X10035Y03879D01*
X10043Y03883D01*
X10039Y03875D01*
X10043Y03867D01*
X10035Y03871D01*
X10027Y03867D01*
X10127D02*
X10131Y03875D01*
X10127Y03883D01*
X10135Y03879D01*
X10143Y03883D01*
X10139Y03875D01*
X10143Y03867D01*
X10135Y03871D01*
X10127Y03867D01*
X10227D02*
X10231Y03875D01*
X10227Y03883D01*
X10235Y03879D01*
X10243Y03883D01*
X10239Y03875D01*
X10243Y03867D01*
X10235Y03871D01*
X10227Y03867D01*
X10327D02*
X10331Y03875D01*
X10327Y03883D01*
X10335Y03879D01*
X10343Y03883D01*
X10339Y03875D01*
X10343Y03867D01*
X10335Y03871D01*
X10327Y03867D01*
X09237Y03822D02*
X09241Y0383D01*
X09237Y03838D01*
X09245Y03834D01*
X09253Y03838D01*
X09249Y0383D01*
X09253Y03822D01*
X09245Y03826D01*
X09237Y03822D01*
X09137D02*
X09141Y0383D01*
X09137Y03838D01*
X09145Y03834D01*
X09153Y03838D01*
X09149Y0383D01*
X09153Y03822D01*
X09145Y03826D01*
X09137Y03822D01*
X09037D02*
X09041Y0383D01*
X09037Y03838D01*
X09045Y03834D01*
X09053Y03838D01*
X09049Y0383D01*
X09053Y03822D01*
X09045Y03826D01*
X09037Y03822D01*
X08937D02*
X08941Y0383D01*
X08937Y03838D01*
X08945Y03834D01*
X08953Y03838D01*
X08949Y0383D01*
X08953Y03822D01*
X08945Y03826D01*
X08937Y03822D01*
X120373Y06402D02*
X120293Y06418D01*
X120453D01*
X120373Y06402D01*
Y06406D02*
X120333Y06414D01*
X120413D01*
X120373Y06406D01*
X120067Y06402D02*
X119987Y06418D01*
X120147D01*
X120067Y06402D01*
Y06406D02*
X120027Y06414D01*
X120107D01*
X120067Y06406D01*
X119762Y06402D02*
X119682Y06418D01*
X119842D01*
X119762Y06402D01*
Y06406D02*
X119722Y06414D01*
X119802D01*
X119762Y06406D01*
X119456Y06402D02*
X119376Y06418D01*
X119536D01*
X119456Y06402D01*
Y06406D02*
X119416Y06414D01*
X119496D01*
X119456Y06406D01*
X11915Y06402D02*
X11907Y06418D01*
X11923D01*
X11915Y06402D01*
Y06406D02*
X11911Y06414D01*
X11919D01*
X11915Y06406D01*
X123737Y06402D02*
X123657Y06418D01*
X123817D01*
X123737Y06402D01*
Y06406D02*
X123697Y06414D01*
X123777D01*
X123737Y06406D01*
X123431Y06402D02*
X123351Y06418D01*
X123511D01*
X123431Y06402D01*
Y06406D02*
X123391Y06414D01*
X123471D01*
X123431Y06406D01*
X120679Y06402D02*
X120599Y06418D01*
X120759D01*
X120679Y06402D01*
Y06406D02*
X120639Y06414D01*
X120719D01*
X120679Y06406D01*
X120985Y06402D02*
X120905Y06418D01*
X121065D01*
X120985Y06402D01*
Y06406D02*
X120945Y06414D01*
X121025D01*
X120985Y06406D01*
X121291Y06402D02*
X121211Y06418D01*
X121371D01*
X121291Y06402D01*
Y06406D02*
X121251Y06414D01*
X121331D01*
X121291Y06406D01*
X121596Y06402D02*
X121516Y06418D01*
X121676D01*
X121596Y06402D01*
Y06406D02*
X121556Y06414D01*
X121636D01*
X121596Y06406D01*
X121902Y06402D02*
X121822Y06418D01*
X121982D01*
X121902Y06402D01*
Y06406D02*
X121862Y06414D01*
X121942D01*
X121902Y06406D01*
X122208Y06402D02*
X122128Y06418D01*
X122288D01*
X122208Y06402D01*
Y06406D02*
X122168Y06414D01*
X122248D01*
X122208Y06406D01*
X122514Y06402D02*
X122434Y06418D01*
X122594D01*
X122514Y06402D01*
Y06406D02*
X122474Y06414D01*
X122554D01*
X122514Y06406D01*
X12282Y06402D02*
X12274Y06418D01*
X1229D01*
X12282Y06402D01*
Y06406D02*
X12278Y06414D01*
X12286D01*
X12282Y06406D01*
X123125Y06402D02*
X123045Y06418D01*
X123205D01*
X123125Y06402D01*
Y06406D02*
X123085Y06414D01*
X123165D01*
X123125Y06406D01*
X1086Y075197D02*
X10852Y075357D01*
X10868D01*
X1086Y075197D01*
Y075237D02*
X10856Y075317D01*
X10864D01*
X1086Y075237D01*
Y075503D02*
X10852Y075663D01*
X10868D01*
X1086Y075503D01*
Y075543D02*
X10856Y075623D01*
X10864D01*
X1086Y075543D01*
Y071221D02*
X10852Y071381D01*
X10868D01*
X1086Y071221D01*
Y071261D02*
X10856Y071341D01*
X10864D01*
X1086Y071261D01*
Y071527D02*
X10852Y071687D01*
X10868D01*
X1086Y071527D01*
Y071567D02*
X10856Y071647D01*
X10864D01*
X1086Y071567D01*
Y071833D02*
X10852Y071993D01*
X10868D01*
X1086Y071833D01*
Y071873D02*
X10856Y071953D01*
X10864D01*
X1086Y071873D01*
Y072139D02*
X10852Y072299D01*
X10868D01*
X1086Y072139D01*
Y072179D02*
X10856Y072259D01*
X10864D01*
X1086Y072179D01*
Y074891D02*
X10852Y075051D01*
X10868D01*
X1086Y074891D01*
Y074931D02*
X10856Y075011D01*
X10864D01*
X1086Y074931D01*
Y074585D02*
X10852Y074745D01*
X10868D01*
X1086Y074585D01*
Y074625D02*
X10856Y074705D01*
X10864D01*
X1086Y074625D01*
Y074279D02*
X10852Y074439D01*
X10868D01*
X1086Y074279D01*
Y074319D02*
X10856Y074399D01*
X10864D01*
X1086Y074319D01*
Y073974D02*
X10852Y074134D01*
X10868D01*
X1086Y073974D01*
Y074014D02*
X10856Y074094D01*
X10864D01*
X1086Y074014D01*
Y073668D02*
X10852Y073828D01*
X10868D01*
X1086Y073668D01*
Y073708D02*
X10856Y073788D01*
X10864D01*
X1086Y073708D01*
Y073362D02*
X10852Y073522D01*
X10868D01*
X1086Y073362D01*
Y073402D02*
X10856Y073482D01*
X10864D01*
X1086Y073402D01*
Y073056D02*
X10852Y073216D01*
X10868D01*
X1086Y073056D01*
Y073096D02*
X10856Y073176D01*
X10864D01*
X1086Y073096D01*
Y07275D02*
X10852Y07291D01*
X10868D01*
X1086Y07275D01*
Y07279D02*
X10856Y07287D01*
X10864D01*
X1086Y07279D01*
Y072445D02*
X10852Y072605D01*
X10868D01*
X1086Y072445D01*
Y072485D02*
X10856Y072565D01*
X10864D01*
X1086Y072485D01*
X120641Y06612D02*
X120561Y06628D01*
X120721D01*
X120641Y06612D01*
Y06616D02*
X120601Y06624D01*
X120681D01*
X120641Y06616D01*
X12285Y06617D02*
X12277Y06633D01*
X12293D01*
X12285Y06617D01*
Y06621D02*
X12281Y06629D01*
X12289D01*
X12285Y06621D01*
Y067761D02*
X12277Y067921D01*
X12293D01*
X12285Y067761D01*
Y067801D02*
X12281Y067881D01*
X12289D01*
X12285Y067801D01*
X12065Y06777D02*
X12057Y06793D01*
X12073D01*
X12065Y06777D01*
Y06781D02*
X12061Y06789D01*
X12069D01*
X12065Y06781D01*
X1218Y06887D02*
X12172Y06903D01*
X12188D01*
X1218Y06887D01*
Y06891D02*
X12176Y06899D01*
X12184D01*
X1218Y06891D01*
X1188Y06887D02*
X11872Y06903D01*
X11888D01*
X1188Y06887D01*
Y06891D02*
X11876Y06899D01*
X11884D01*
X1188Y06891D01*
X11865Y067785D02*
X11857Y067945D01*
X11873D01*
X11865Y067785D01*
Y067825D02*
X11861Y067905D01*
X11869D01*
X11865Y067825D01*
Y066152D02*
X11857Y066312D01*
X11873D01*
X11865Y066152D01*
Y066192D02*
X11861Y066272D01*
X11869D01*
X11865Y066192D01*
X11645Y06852D02*
X11637Y06868D01*
X11653D01*
X11645Y06852D01*
Y06856D02*
X11641Y06864D01*
X11649D01*
X11645Y06856D01*
X1166Y06972D02*
X11652Y06988D01*
X11668D01*
X1166Y06972D01*
Y06976D02*
X11656Y06984D01*
X11664D01*
X1166Y06976D01*
X1146Y069782D02*
X11452Y069942D01*
X11468D01*
X1146Y069782D01*
Y069822D02*
X11456Y069902D01*
X11464D01*
X1146Y069822D01*
X116745Y068168D02*
X116665Y068328D01*
X116825D01*
X116745Y068168D01*
Y068208D02*
X116705Y068288D01*
X116785D01*
X116745Y068208D01*
X117158Y06612D02*
X117078Y06628D01*
X117238D01*
X117158Y06612D01*
Y06616D02*
X117118Y06624D01*
X117198D01*
X117158Y06616D01*
X116078Y066148D02*
X115998Y066308D01*
X116158D01*
X116078Y066148D01*
Y066188D02*
X116038Y066268D01*
X116118D01*
X116078Y066188D01*
X114097Y06777D02*
X114017Y06793D01*
X114177D01*
X114097Y06777D01*
Y06781D02*
X114057Y06789D01*
X114137D01*
X114097Y06781D01*
Y066133D02*
X114017Y066293D01*
X114177D01*
X114097Y066133D01*
Y066173D02*
X114057Y066253D01*
X114137D01*
X114097Y066173D01*
X112947Y06647D02*
X112867Y06663D01*
X113027D01*
X112947Y06647D01*
Y06651D02*
X112907Y06659D01*
X112987D01*
X112947Y06651D01*
X1118Y066495D02*
X11172Y066655D01*
X11188D01*
X1118Y066495D01*
Y066535D02*
X11176Y066615D01*
X11184D01*
X1118Y066535D01*
X1111Y07047D02*
X11102Y07063D01*
X11118D01*
X1111Y07047D01*
Y07051D02*
X11106Y07059D01*
X11114D01*
X1111Y07051D01*
Y06957D02*
X11102Y06973D01*
X11118D01*
X1111Y06957D01*
Y06961D02*
X11106Y06969D01*
X11114D01*
X1111Y06961D01*
Y06857D02*
X11102Y06873D01*
X11118D01*
X1111Y06857D01*
Y06861D02*
X11106Y06869D01*
X11114D01*
X1111Y06861D01*
Y06742D02*
X11102Y06758D01*
X11118D01*
X1111Y06742D01*
Y06746D02*
X11106Y06754D01*
X11114D01*
X1111Y06746D01*
X11115Y066333D02*
X11107Y066493D01*
X11123D01*
X11115Y066333D01*
Y066373D02*
X11111Y066453D01*
X11119D01*
X11115Y066373D01*
Y06527D02*
X11107Y06543D01*
X11123D01*
X11115Y06527D01*
Y06531D02*
X11111Y06539D01*
X11119D01*
X11115Y06531D01*
X11703Y06977D02*
X11695Y06993D01*
X11711D01*
X11703Y06977D01*
Y06981D02*
X11699Y06989D01*
X11707D01*
X11703Y06981D01*
X1203Y06847D02*
X12022Y06863D01*
X12038D01*
X1203Y06847D01*
Y06851D02*
X12026Y06859D01*
X12034D01*
X1203Y06851D01*
X12355Y07412D02*
X12347Y07428D01*
X12363D01*
X12355Y07412D01*
Y07416D02*
X12351Y07424D01*
X12359D01*
X12355Y07416D01*
X1103Y07427D02*
X11034Y07431D01*
X11038D01*
X11034Y07435D01*
X11038Y07439D01*
X11034D01*
X1103Y07443D01*
X11026Y07439D01*
X11022D01*
X11026Y07435D01*
X11022Y07431D01*
X11026D01*
X1103Y07427D01*
Y07431D02*
X11032Y07433D01*
X11034D01*
X11032Y07435D01*
X11034Y07437D01*
X11032D01*
X1103Y07439D01*
X11028Y07437D01*
X11026D01*
X11028Y07435D01*
X11026Y07433D01*
X11028D01*
X1103Y07431D01*
X121195Y072559D02*
X121235Y072639D01*
X121195Y072719D01*
X121275Y072679D01*
X121355Y072719D01*
X121315Y072639D01*
X121355Y072559D01*
X121275Y072599D01*
X121195Y072559D01*
X121235Y072599D02*
X121255Y072639D01*
X121235Y072679D01*
X121275Y072659D01*
X121315Y072679D01*
X121295Y072639D01*
X121315Y072599D01*
X121275Y072619D01*
X121235Y072599D01*
X118046Y072559D02*
X118086Y072639D01*
X118046Y072719D01*
X118126Y072679D01*
X118206Y072719D01*
X118166Y072639D01*
X118206Y072559D01*
X118126Y072599D01*
X118046Y072559D01*
X118086Y072599D02*
X118106Y072639D01*
X118086Y072679D01*
X118126Y072659D01*
X118166Y072679D01*
X118146Y072639D01*
X118166Y072599D01*
X118126Y072619D01*
X118086Y072599D01*
X10976Y06291D02*
Y06287D01*
X10984D01*
Y06291D01*
X10988D01*
Y06299D01*
X10984D01*
Y06303D01*
X10976D01*
Y06299D01*
X10972D01*
Y06291D01*
X10976D01*
X10978Y06293D02*
Y06291D01*
X10982D01*
Y06293D01*
X10984D01*
Y06297D01*
X10982D01*
Y06299D01*
X10978D01*
Y06297D01*
X10976D01*
Y06293D01*
X10978D01*
X10976Y03756D02*
Y03752D01*
X10984D01*
Y03756D01*
X10988D01*
Y03764D01*
X10984D01*
Y03768D01*
X10976D01*
Y03764D01*
X10972D01*
Y03756D01*
X10976D01*
X10978Y03758D02*
Y03756D01*
X10982D01*
Y03758D01*
X10984D01*
Y03762D01*
X10982D01*
Y03764D01*
X10978D01*
Y03762D01*
X10976D01*
Y03758D01*
X10978D01*
X118416Y06402D02*
X118336Y06418D01*
X118496D01*
X118416Y06402D01*
Y06406D02*
X118376Y06414D01*
X118456D01*
X118416Y06406D01*
X118111Y06402D02*
X118031Y06418D01*
X118191D01*
X118111Y06402D01*
Y06406D02*
X118071Y06414D01*
X118151D01*
X118111Y06406D01*
X117805Y06402D02*
X117725Y06418D01*
X117885D01*
X117805Y06402D01*
Y06406D02*
X117765Y06414D01*
X117845D01*
X117805Y06406D01*
X117499Y06402D02*
X117419Y06418D01*
X117579D01*
X117499Y06402D01*
Y06406D02*
X117459Y06414D01*
X117539D01*
X117499Y06406D01*
X117193Y06402D02*
X117113Y06418D01*
X117273D01*
X117193Y06402D01*
Y06406D02*
X117153Y06414D01*
X117233D01*
X117193Y06406D01*
X116887Y06402D02*
X116807Y06418D01*
X116967D01*
X116887Y06402D01*
Y06406D02*
X116847Y06414D01*
X116927D01*
X116887Y06406D01*
X116582Y06402D02*
X116502Y06418D01*
X116662D01*
X116582Y06402D01*
Y06406D02*
X116542Y06414D01*
X116622D01*
X116582Y06406D01*
X116276Y06402D02*
X116196Y06418D01*
X116356D01*
X116276Y06402D01*
Y06406D02*
X116236Y06414D01*
X116316D01*
X116276Y06406D01*
X113218Y06402D02*
X113138Y06418D01*
X113298D01*
X113218Y06402D01*
Y06406D02*
X113178Y06414D01*
X113258D01*
X113218Y06406D01*
X112912Y06402D02*
X112832Y06418D01*
X112992D01*
X112912Y06402D01*
Y06406D02*
X112872Y06414D01*
X112952D01*
X112912Y06406D01*
X112606Y06402D02*
X112526Y06418D01*
X112686D01*
X112606Y06402D01*
Y06406D02*
X112566Y06414D01*
X112646D01*
X112606Y06406D01*
X1123Y06402D02*
X11222Y06418D01*
X11238D01*
X1123Y06402D01*
Y06406D02*
X11226Y06414D01*
X11234D01*
X1123Y06406D01*
X111994Y06402D02*
X111914Y06418D01*
X112074D01*
X111994Y06402D01*
Y06406D02*
X111954Y06414D01*
X112034D01*
X111994Y06406D01*
X111689Y06402D02*
X111609Y06418D01*
X111769D01*
X111689Y06402D01*
Y06406D02*
X111649Y06414D01*
X111729D01*
X111689Y06406D01*
X111383Y06402D02*
X111303Y06418D01*
X111463D01*
X111383Y06402D01*
Y06406D02*
X111343Y06414D01*
X111423D01*
X111383Y06406D01*
X111077Y06402D02*
X110997Y06418D01*
X111157D01*
X111077Y06402D01*
Y06406D02*
X111037Y06414D01*
X111117D01*
X111077Y06406D01*
X110771Y06402D02*
X110691Y06418D01*
X110851D01*
X110771Y06402D01*
Y06406D02*
X110731Y06414D01*
X110811D01*
X110771Y06406D01*
X113524Y06402D02*
X113444Y06418D01*
X113604D01*
X113524Y06402D01*
Y06406D02*
X113484Y06414D01*
X113564D01*
X113524Y06406D01*
X113829Y06402D02*
X113749Y06418D01*
X113909D01*
X113829Y06402D01*
Y06406D02*
X113789Y06414D01*
X113869D01*
X113829Y06406D01*
X114135Y06402D02*
X114055Y06418D01*
X114215D01*
X114135Y06402D01*
Y06406D02*
X114095Y06414D01*
X114175D01*
X114135Y06406D01*
X114441Y06402D02*
X114361Y06418D01*
X114521D01*
X114441Y06402D01*
Y06406D02*
X114401Y06414D01*
X114481D01*
X114441Y06406D01*
X114747Y06402D02*
X114667Y06418D01*
X114827D01*
X114747Y06402D01*
Y06406D02*
X114707Y06414D01*
X114787D01*
X114747Y06406D01*
X115053Y06402D02*
X114973Y06418D01*
X115133D01*
X115053Y06402D01*
Y06406D02*
X115013Y06414D01*
X115093D01*
X115053Y06406D01*
X115358Y06402D02*
X115278Y06418D01*
X115438D01*
X115358Y06402D01*
Y06406D02*
X115318Y06414D01*
X115398D01*
X115358Y06406D01*
X115664Y06402D02*
X115584Y06418D01*
X115744D01*
X115664Y06402D01*
Y06406D02*
X115624Y06414D01*
X115704D01*
X115664Y06406D01*
X11597Y06402D02*
X11589Y06418D01*
X11605D01*
X11597Y06402D01*
Y06406D02*
X11593Y06414D01*
X11601D01*
X11597Y06406D01*
X109242Y06402D02*
X109162Y06418D01*
X109322D01*
X109242Y06402D01*
Y06406D02*
X109202Y06414D01*
X109282D01*
X109242Y06406D01*
X109548Y06402D02*
X109468Y06418D01*
X109628D01*
X109548Y06402D01*
Y06406D02*
X109508Y06414D01*
X109588D01*
X109548Y06406D01*
X109854Y06402D02*
X109774Y06418D01*
X109934D01*
X109854Y06402D01*
Y06406D02*
X109814Y06414D01*
X109894D01*
X109854Y06406D01*
X11016Y06402D02*
X11008Y06418D01*
X11024D01*
X11016Y06402D01*
Y06406D02*
X11012Y06414D01*
X1102D01*
X11016Y06406D01*
X110465Y06402D02*
X110385Y06418D01*
X110545D01*
X110465Y06402D01*
Y06406D02*
X110425Y06414D01*
X110505D01*
X110465Y06406D01*
X108934Y06402D02*
X108854Y06418D01*
X109014D01*
X108934Y06402D01*
Y06406D02*
X108894Y06414D01*
X108974D01*
X108934Y06406D01*
X1188Y054793D02*
X11872Y054953D01*
X11888D01*
X1188Y054793D01*
Y054833D02*
X11876Y054913D01*
X11884D01*
X1188Y054833D01*
Y055099D02*
X11872Y055259D01*
X11888D01*
X1188Y055099D01*
Y055139D02*
X11876Y055219D01*
X11884D01*
X1188Y055139D01*
Y055405D02*
X11872Y055565D01*
X11888D01*
X1188Y055405D01*
Y055445D02*
X11876Y055525D01*
X11884D01*
X1188Y055445D01*
Y055711D02*
X11872Y055871D01*
X11888D01*
X1188Y055711D01*
Y055751D02*
X11876Y055831D01*
X11884D01*
X1188Y055751D01*
Y056016D02*
X11872Y056176D01*
X11888D01*
X1188Y056016D01*
Y056056D02*
X11876Y056136D01*
X11884D01*
X1188Y056056D01*
Y056322D02*
X11872Y056482D01*
X11888D01*
X1188Y056322D01*
Y056362D02*
X11876Y056442D01*
X11884D01*
X1188Y056362D01*
Y056628D02*
X11872Y056788D01*
X11888D01*
X1188Y056628D01*
Y056668D02*
X11876Y056748D01*
X11884D01*
X1188Y056668D01*
Y056934D02*
X11872Y057094D01*
X11888D01*
X1188Y056934D01*
Y056974D02*
X11876Y057054D01*
X11884D01*
X1188Y056974D01*
Y05724D02*
X11872Y0574D01*
X11888D01*
X1188Y05724D01*
Y05728D02*
X11876Y05736D01*
X11884D01*
X1188Y05728D01*
Y054487D02*
X11872Y054647D01*
X11888D01*
X1188Y054487D01*
Y054527D02*
X11876Y054607D01*
X11884D01*
X1188Y054527D01*
Y054182D02*
X11872Y054342D01*
X11888D01*
X1188Y054182D01*
Y054222D02*
X11876Y054302D01*
X11884D01*
X1188Y054222D01*
Y053876D02*
X11872Y054036D01*
X11888D01*
X1188Y053876D01*
Y053916D02*
X11876Y053996D01*
X11884D01*
X1188Y053916D01*
Y05357D02*
X11872Y05373D01*
X11888D01*
X1188Y05357D01*
Y05361D02*
X11876Y05369D01*
X11884D01*
X1188Y05361D01*
Y060298D02*
X11872Y060458D01*
X11888D01*
X1188Y060298D01*
Y060338D02*
X11876Y060418D01*
X11884D01*
X1188Y060338D01*
Y060604D02*
X11872Y060764D01*
X11888D01*
X1188Y060604D01*
Y060644D02*
X11876Y060724D01*
X11884D01*
X1188Y060644D01*
Y060909D02*
X11872Y061069D01*
X11888D01*
X1188Y060909D01*
Y060949D02*
X11876Y061029D01*
X11884D01*
X1188Y060949D01*
Y061215D02*
X11872Y061375D01*
X11888D01*
X1188Y061215D01*
Y061255D02*
X11876Y061335D01*
X11884D01*
X1188Y061255D01*
Y061521D02*
X11872Y061681D01*
X11888D01*
X1188Y061521D01*
Y061561D02*
X11876Y061641D01*
X11884D01*
X1188Y061561D01*
Y061827D02*
X11872Y061987D01*
X11888D01*
X1188Y061827D01*
Y061867D02*
X11876Y061947D01*
X11884D01*
X1188Y061867D01*
Y062133D02*
X11872Y062293D01*
X11888D01*
X1188Y062133D01*
Y062173D02*
X11876Y062253D01*
X11884D01*
X1188Y062173D01*
Y062438D02*
X11872Y062598D01*
X11888D01*
X1188Y062438D01*
Y062478D02*
X11876Y062558D01*
X11884D01*
X1188Y062478D01*
Y062744D02*
X11872Y062904D01*
X11888D01*
X1188Y062744D01*
Y062784D02*
X11876Y062864D01*
X11884D01*
X1188Y062784D01*
Y059992D02*
X11872Y060152D01*
X11888D01*
X1188Y059992D01*
Y060032D02*
X11876Y060112D01*
X11884D01*
X1188Y060032D01*
Y059686D02*
X11872Y059846D01*
X11888D01*
X1188Y059686D01*
Y059726D02*
X11876Y059806D01*
X11884D01*
X1188Y059726D01*
Y05938D02*
X11872Y05954D01*
X11888D01*
X1188Y05938D01*
Y05942D02*
X11876Y0595D01*
X11884D01*
X1188Y05942D01*
Y059075D02*
X11872Y059235D01*
X11888D01*
X1188Y059075D01*
Y059115D02*
X11876Y059195D01*
X11884D01*
X1188Y059115D01*
Y058769D02*
X11872Y058929D01*
X11888D01*
X1188Y058769D01*
Y058809D02*
X11876Y058889D01*
X11884D01*
X1188Y058809D01*
Y058463D02*
X11872Y058623D01*
X11888D01*
X1188Y058463D01*
Y058503D02*
X11876Y058583D01*
X11884D01*
X1188Y058503D01*
Y058157D02*
X11872Y058317D01*
X11888D01*
X1188Y058157D01*
Y058197D02*
X11876Y058277D01*
X11884D01*
X1188Y058197D01*
Y057851D02*
X11872Y058011D01*
X11888D01*
X1188Y057851D01*
Y057891D02*
X11876Y057971D01*
X11884D01*
X1188Y057891D01*
Y057545D02*
X11872Y057705D01*
X11888D01*
X1188Y057545D01*
Y057585D02*
X11876Y057665D01*
X11884D01*
X1188Y057585D01*
Y06402D02*
X11872Y06418D01*
X11888D01*
X1188Y06402D01*
Y06406D02*
X11876Y06414D01*
X11884D01*
X1188Y06406D01*
Y063662D02*
X11872Y063822D01*
X11888D01*
X1188Y063662D01*
Y063702D02*
X11876Y063782D01*
X11884D01*
X1188Y063702D01*
Y063356D02*
X11872Y063516D01*
X11888D01*
X1188Y063356D01*
Y063396D02*
X11876Y063476D01*
X11884D01*
X1188Y063396D01*
Y06305D02*
X11872Y06321D01*
X11888D01*
X1188Y06305D01*
Y06309D02*
X11876Y06317D01*
X11884D01*
X1188Y06309D01*
Y037943D02*
X11872Y038103D01*
X11888D01*
X1188Y037943D01*
Y037983D02*
X11876Y038063D01*
X11884D01*
X1188Y037983D01*
Y038249D02*
X11872Y038409D01*
X11888D01*
X1188Y038249D01*
Y038289D02*
X11876Y038369D01*
X11884D01*
X1188Y038289D01*
Y038555D02*
X11872Y038715D01*
X11888D01*
X1188Y038555D01*
Y038595D02*
X11876Y038675D01*
X11884D01*
X1188Y038595D01*
Y038861D02*
X11872Y039021D01*
X11888D01*
X1188Y038861D01*
Y038901D02*
X11876Y038981D01*
X11884D01*
X1188Y038901D01*
Y039166D02*
X11872Y039326D01*
X11888D01*
X1188Y039166D01*
Y039206D02*
X11876Y039286D01*
X11884D01*
X1188Y039206D01*
Y039472D02*
X11872Y039632D01*
X11888D01*
X1188Y039472D01*
Y039512D02*
X11876Y039592D01*
X11884D01*
X1188Y039512D01*
Y039778D02*
X11872Y039938D01*
X11888D01*
X1188Y039778D01*
Y039818D02*
X11876Y039898D01*
X11884D01*
X1188Y039818D01*
Y040084D02*
X11872Y040244D01*
X11888D01*
X1188Y040084D01*
Y040124D02*
X11876Y040204D01*
X11884D01*
X1188Y040124D01*
Y04039D02*
X11872Y04055D01*
X11888D01*
X1188Y04039D01*
Y04043D02*
X11876Y04051D01*
X11884D01*
X1188Y04043D01*
Y037637D02*
X11872Y037797D01*
X11888D01*
X1188Y037637D01*
Y037677D02*
X11876Y037757D01*
X11884D01*
X1188Y037677D01*
Y037332D02*
X11872Y037492D01*
X11888D01*
X1188Y037332D01*
Y037372D02*
X11876Y037452D01*
X11884D01*
X1188Y037372D01*
Y037026D02*
X11872Y037186D01*
X11888D01*
X1188Y037026D01*
Y037066D02*
X11876Y037146D01*
X11884D01*
X1188Y037066D01*
Y03672D02*
X11872Y03688D01*
X11888D01*
X1188Y03672D01*
Y03676D02*
X11876Y03684D01*
X11884D01*
X1188Y03676D01*
Y043448D02*
X11872Y043608D01*
X11888D01*
X1188Y043448D01*
Y043488D02*
X11876Y043568D01*
X11884D01*
X1188Y043488D01*
Y043754D02*
X11872Y043914D01*
X11888D01*
X1188Y043754D01*
Y043794D02*
X11876Y043874D01*
X11884D01*
X1188Y043794D01*
Y044059D02*
X11872Y044219D01*
X11888D01*
X1188Y044059D01*
Y044099D02*
X11876Y044179D01*
X11884D01*
X1188Y044099D01*
Y044365D02*
X11872Y044525D01*
X11888D01*
X1188Y044365D01*
Y044405D02*
X11876Y044485D01*
X11884D01*
X1188Y044405D01*
Y044671D02*
X11872Y044831D01*
X11888D01*
X1188Y044671D01*
Y044711D02*
X11876Y044791D01*
X11884D01*
X1188Y044711D01*
Y044977D02*
X11872Y045137D01*
X11888D01*
X1188Y044977D01*
Y045017D02*
X11876Y045097D01*
X11884D01*
X1188Y045017D01*
Y045283D02*
X11872Y045443D01*
X11888D01*
X1188Y045283D01*
Y045323D02*
X11876Y045403D01*
X11884D01*
X1188Y045323D01*
Y045588D02*
X11872Y045748D01*
X11888D01*
X1188Y045588D01*
Y045628D02*
X11876Y045708D01*
X11884D01*
X1188Y045628D01*
Y045894D02*
X11872Y046054D01*
X11888D01*
X1188Y045894D01*
Y045934D02*
X11876Y046014D01*
X11884D01*
X1188Y045934D01*
Y043142D02*
X11872Y043302D01*
X11888D01*
X1188Y043142D01*
Y043182D02*
X11876Y043262D01*
X11884D01*
X1188Y043182D01*
Y042836D02*
X11872Y042996D01*
X11888D01*
X1188Y042836D01*
Y042876D02*
X11876Y042956D01*
X11884D01*
X1188Y042876D01*
Y04253D02*
X11872Y04269D01*
X11888D01*
X1188Y04253D01*
Y04257D02*
X11876Y04265D01*
X11884D01*
X1188Y04257D01*
Y042225D02*
X11872Y042385D01*
X11888D01*
X1188Y042225D01*
Y042265D02*
X11876Y042345D01*
X11884D01*
X1188Y042265D01*
Y041919D02*
X11872Y042079D01*
X11888D01*
X1188Y041919D01*
Y041959D02*
X11876Y042039D01*
X11884D01*
X1188Y041959D01*
Y041613D02*
X11872Y041773D01*
X11888D01*
X1188Y041613D01*
Y041653D02*
X11876Y041733D01*
X11884D01*
X1188Y041653D01*
Y041307D02*
X11872Y041467D01*
X11888D01*
X1188Y041307D01*
Y041347D02*
X11876Y041427D01*
X11884D01*
X1188Y041347D01*
Y041001D02*
X11872Y041161D01*
X11888D01*
X1188Y041001D01*
Y041041D02*
X11876Y041121D01*
X11884D01*
X1188Y041041D01*
Y040695D02*
X11872Y040855D01*
X11888D01*
X1188Y040695D01*
Y040735D02*
X11876Y040815D01*
X11884D01*
X1188Y040735D01*
Y048952D02*
X11872Y049112D01*
X11888D01*
X1188Y048952D01*
Y048992D02*
X11876Y049072D01*
X11884D01*
X1188Y048992D01*
Y049258D02*
X11872Y049418D01*
X11888D01*
X1188Y049258D01*
Y049298D02*
X11876Y049378D01*
X11884D01*
X1188Y049298D01*
Y049564D02*
X11872Y049724D01*
X11888D01*
X1188Y049564D01*
Y049604D02*
X11876Y049684D01*
X11884D01*
X1188Y049604D01*
Y04987D02*
X11872Y05003D01*
X11888D01*
X1188Y04987D01*
Y04991D02*
X11876Y04999D01*
X11884D01*
X1188Y04991D01*
Y050176D02*
X11872Y050336D01*
X11888D01*
X1188Y050176D01*
Y050216D02*
X11876Y050296D01*
X11884D01*
X1188Y050216D01*
Y050481D02*
X11872Y050641D01*
X11888D01*
X1188Y050481D01*
Y050521D02*
X11876Y050601D01*
X11884D01*
X1188Y050521D01*
Y050787D02*
X11872Y050947D01*
X11888D01*
X1188Y050787D01*
Y050827D02*
X11876Y050907D01*
X11884D01*
X1188Y050827D01*
Y051093D02*
X11872Y051253D01*
X11888D01*
X1188Y051093D01*
Y051133D02*
X11876Y051213D01*
X11884D01*
X1188Y051133D01*
Y051399D02*
X11872Y051559D01*
X11888D01*
X1188Y051399D01*
Y051439D02*
X11876Y051519D01*
X11884D01*
X1188Y051439D01*
Y048646D02*
X11872Y048806D01*
X11888D01*
X1188Y048646D01*
Y048686D02*
X11876Y048766D01*
X11884D01*
X1188Y048686D01*
Y048341D02*
X11872Y048501D01*
X11888D01*
X1188Y048341D01*
Y048381D02*
X11876Y048461D01*
X11884D01*
X1188Y048381D01*
Y048035D02*
X11872Y048195D01*
X11888D01*
X1188Y048035D01*
Y048075D02*
X11876Y048155D01*
X11884D01*
X1188Y048075D01*
Y047729D02*
X11872Y047889D01*
X11888D01*
X1188Y047729D01*
Y047769D02*
X11876Y047849D01*
X11884D01*
X1188Y047769D01*
Y047423D02*
X11872Y047583D01*
X11888D01*
X1188Y047423D01*
Y047463D02*
X11876Y047543D01*
X11884D01*
X1188Y047463D01*
Y047117D02*
X11872Y047277D01*
X11888D01*
X1188Y047117D01*
Y047157D02*
X11876Y047237D01*
X11884D01*
X1188Y047157D01*
Y046812D02*
X11872Y046972D01*
X11888D01*
X1188Y046812D01*
Y046852D02*
X11876Y046932D01*
X11884D01*
X1188Y046852D01*
Y046506D02*
X11872Y046666D01*
X11888D01*
X1188Y046506D01*
Y046546D02*
X11876Y046626D01*
X11884D01*
X1188Y046546D01*
Y0462D02*
X11872Y04636D01*
X11888D01*
X1188Y0462D01*
Y04624D02*
X11876Y04632D01*
X11884D01*
X1188Y04624D01*
Y052928D02*
X11872Y053088D01*
X11888D01*
X1188Y052928D01*
Y052968D02*
X11876Y053048D01*
X11884D01*
X1188Y052968D01*
Y052622D02*
X11872Y052782D01*
X11888D01*
X1188Y052622D01*
Y052662D02*
X11876Y052742D01*
X11884D01*
X1188Y052662D01*
Y052316D02*
X11872Y052476D01*
X11888D01*
X1188Y052316D01*
Y052356D02*
X11876Y052436D01*
X11884D01*
X1188Y052356D01*
Y05201D02*
X11872Y05217D01*
X11888D01*
X1188Y05201D01*
Y05205D02*
X11876Y05213D01*
X11884D01*
X1188Y05205D01*
Y051705D02*
X11872Y051865D01*
X11888D01*
X1188Y051705D01*
Y051745D02*
X11876Y051825D01*
X11884D01*
X1188Y051745D01*
Y053236D02*
X11872Y053396D01*
X11888D01*
X1188Y053236D01*
Y053276D02*
X11876Y053356D01*
X11884D01*
X1188Y053276D01*
X11665Y039023D02*
X11657Y039183D01*
X11673D01*
X11665Y039023D01*
Y039063D02*
X11661Y039143D01*
X11669D01*
X11665Y039063D01*
X116659Y04962D02*
X116579Y04978D01*
X116739D01*
X116659Y04962D01*
Y04966D02*
X116619Y04974D01*
X116699D01*
X116659Y04966D01*
X11665Y06122D02*
X11657Y06138D01*
X11673D01*
X11665Y06122D01*
Y06126D02*
X11661Y06134D01*
X11669D01*
X11665Y06126D01*
X1086Y03794D02*
X10852Y0381D01*
X10868D01*
X1086Y03794D01*
Y03798D02*
X10856Y03806D01*
X10864D01*
X1086Y03798D01*
Y038246D02*
X10852Y038406D01*
X10868D01*
X1086Y038246D01*
Y038286D02*
X10856Y038366D01*
X10864D01*
X1086Y038286D01*
Y038552D02*
X10852Y038712D01*
X10868D01*
X1086Y038552D01*
Y038592D02*
X10856Y038672D01*
X10864D01*
X1086Y038592D01*
Y038857D02*
X10852Y039017D01*
X10868D01*
X1086Y038857D01*
Y038897D02*
X10856Y038977D01*
X10864D01*
X1086Y038897D01*
Y039163D02*
X10852Y039323D01*
X10868D01*
X1086Y039163D01*
Y039203D02*
X10856Y039283D01*
X10864D01*
X1086Y039203D01*
Y039469D02*
X10852Y039629D01*
X10868D01*
X1086Y039469D01*
Y039509D02*
X10856Y039589D01*
X10864D01*
X1086Y039509D01*
Y039775D02*
X10852Y039935D01*
X10868D01*
X1086Y039775D01*
Y039815D02*
X10856Y039895D01*
X10864D01*
X1086Y039815D01*
Y040081D02*
X10852Y040241D01*
X10868D01*
X1086Y040081D01*
Y040121D02*
X10856Y040201D01*
X10864D01*
X1086Y040121D01*
Y040386D02*
X10852Y040546D01*
X10868D01*
X1086Y040386D01*
Y040426D02*
X10856Y040506D01*
X10864D01*
X1086Y040426D01*
Y037634D02*
X10852Y037794D01*
X10868D01*
X1086Y037634D01*
Y037674D02*
X10856Y037754D01*
X10864D01*
X1086Y037674D01*
Y037328D02*
X10852Y037488D01*
X10868D01*
X1086Y037328D01*
Y037368D02*
X10856Y037448D01*
X10864D01*
X1086Y037368D01*
Y037023D02*
X10852Y037183D01*
X10868D01*
X1086Y037023D01*
Y037063D02*
X10856Y037143D01*
X10864D01*
X1086Y037063D01*
Y036717D02*
X10852Y036877D01*
X10868D01*
X1086Y036717D01*
Y036757D02*
X10856Y036837D01*
X10864D01*
X1086Y036757D01*
Y043445D02*
X10852Y043605D01*
X10868D01*
X1086Y043445D01*
Y043485D02*
X10856Y043565D01*
X10864D01*
X1086Y043485D01*
Y04375D02*
X10852Y04391D01*
X10868D01*
X1086Y04375D01*
Y04379D02*
X10856Y04387D01*
X10864D01*
X1086Y04379D01*
Y044056D02*
X10852Y044216D01*
X10868D01*
X1086Y044056D01*
Y044096D02*
X10856Y044176D01*
X10864D01*
X1086Y044096D01*
Y044362D02*
X10852Y044522D01*
X10868D01*
X1086Y044362D01*
Y044402D02*
X10856Y044482D01*
X10864D01*
X1086Y044402D01*
Y044668D02*
X10852Y044828D01*
X10868D01*
X1086Y044668D01*
Y044708D02*
X10856Y044788D01*
X10864D01*
X1086Y044708D01*
Y044974D02*
X10852Y045134D01*
X10868D01*
X1086Y044974D01*
Y045014D02*
X10856Y045094D01*
X10864D01*
X1086Y045014D01*
Y045279D02*
X10852Y045439D01*
X10868D01*
X1086Y045279D01*
Y045319D02*
X10856Y045399D01*
X10864D01*
X1086Y045319D01*
Y045585D02*
X10852Y045745D01*
X10868D01*
X1086Y045585D01*
Y045625D02*
X10856Y045705D01*
X10864D01*
X1086Y045625D01*
Y045891D02*
X10852Y046051D01*
X10868D01*
X1086Y045891D01*
Y045931D02*
X10856Y046011D01*
X10864D01*
X1086Y045931D01*
Y043139D02*
X10852Y043299D01*
X10868D01*
X1086Y043139D01*
Y043179D02*
X10856Y043259D01*
X10864D01*
X1086Y043179D01*
Y042833D02*
X10852Y042993D01*
X10868D01*
X1086Y042833D01*
Y042873D02*
X10856Y042953D01*
X10864D01*
X1086Y042873D01*
Y042527D02*
X10852Y042687D01*
X10868D01*
X1086Y042527D01*
Y042567D02*
X10856Y042647D01*
X10864D01*
X1086Y042567D01*
Y042221D02*
X10852Y042381D01*
X10868D01*
X1086Y042221D01*
Y042261D02*
X10856Y042341D01*
X10864D01*
X1086Y042261D01*
Y041915D02*
X10852Y042075D01*
X10868D01*
X1086Y041915D01*
Y041955D02*
X10856Y042035D01*
X10864D01*
X1086Y041955D01*
Y04161D02*
X10852Y04177D01*
X10868D01*
X1086Y04161D01*
Y04165D02*
X10856Y04173D01*
X10864D01*
X1086Y04165D01*
Y041304D02*
X10852Y041464D01*
X10868D01*
X1086Y041304D01*
Y041344D02*
X10856Y041424D01*
X10864D01*
X1086Y041344D01*
Y040998D02*
X10852Y041158D01*
X10868D01*
X1086Y040998D01*
Y041038D02*
X10856Y041118D01*
X10864D01*
X1086Y041038D01*
Y040692D02*
X10852Y040852D01*
X10868D01*
X1086Y040692D01*
Y040732D02*
X10856Y040812D01*
X10864D01*
X1086Y040732D01*
Y04742D02*
X10852Y04758D01*
X10868D01*
X1086Y04742D01*
Y04746D02*
X10856Y04754D01*
X10864D01*
X1086Y04746D01*
Y047114D02*
X10852Y047274D01*
X10868D01*
X1086Y047114D01*
Y047154D02*
X10856Y047234D01*
X10864D01*
X1086Y047154D01*
Y046808D02*
X10852Y046968D01*
X10868D01*
X1086Y046808D01*
Y046848D02*
X10856Y046928D01*
X10864D01*
X1086Y046848D01*
Y046503D02*
X10852Y046663D01*
X10868D01*
X1086Y046503D01*
Y046543D02*
X10856Y046623D01*
X10864D01*
X1086Y046543D01*
Y046197D02*
X10852Y046357D01*
X10868D01*
X1086Y046197D01*
Y046237D02*
X10856Y046317D01*
X10864D01*
X1086Y046237D01*
Y047679D02*
X10852Y047839D01*
X10868D01*
X1086Y047679D01*
Y047719D02*
X10856Y047799D01*
X10864D01*
X1086Y047719D01*
Y047984D02*
X10852Y048144D01*
X10868D01*
X1086Y047984D01*
Y048024D02*
X10856Y048104D01*
X10864D01*
X1086Y048024D01*
Y04829D02*
X10852Y04845D01*
X10868D01*
X1086Y04829D01*
Y04833D02*
X10856Y04841D01*
X10864D01*
X1086Y04833D01*
Y048596D02*
X10852Y048756D01*
X10868D01*
X1086Y048596D01*
Y048636D02*
X10856Y048716D01*
X10864D01*
X1086Y048636D01*
Y048902D02*
X10852Y049062D01*
X10868D01*
X1086Y048902D01*
Y048942D02*
X10856Y049022D01*
X10864D01*
X1086Y048942D01*
Y049208D02*
X10852Y049368D01*
X10868D01*
X1086Y049208D01*
Y049248D02*
X10856Y049328D01*
X10864D01*
X1086Y049248D01*
Y049514D02*
X10852Y049674D01*
X10868D01*
X1086Y049514D01*
Y049554D02*
X10856Y049634D01*
X10864D01*
X1086Y049554D01*
Y049819D02*
X10852Y049979D01*
X10868D01*
X1086Y049819D01*
Y049859D02*
X10856Y049939D01*
X10864D01*
X1086Y049859D01*
Y050125D02*
X10852Y050285D01*
X10868D01*
X1086Y050125D01*
Y050165D02*
X10856Y050245D01*
X10864D01*
X1086Y050165D01*
Y052877D02*
X10852Y053037D01*
X10868D01*
X1086Y052877D01*
Y052917D02*
X10856Y052997D01*
X10864D01*
X1086Y052917D01*
Y052572D02*
X10852Y052732D01*
X10868D01*
X1086Y052572D01*
Y052612D02*
X10856Y052692D01*
X10864D01*
X1086Y052612D01*
Y052266D02*
X10852Y052426D01*
X10868D01*
X1086Y052266D01*
Y052306D02*
X10856Y052386D01*
X10864D01*
X1086Y052306D01*
Y05196D02*
X10852Y05212D01*
X10868D01*
X1086Y05196D01*
Y052D02*
X10856Y05208D01*
X10864D01*
X1086Y052D01*
Y051654D02*
X10852Y051814D01*
X10868D01*
X1086Y051654D01*
Y051694D02*
X10856Y051774D01*
X10864D01*
X1086Y051694D01*
Y051348D02*
X10852Y051508D01*
X10868D01*
X1086Y051348D01*
Y051388D02*
X10856Y051468D01*
X10864D01*
X1086Y051388D01*
Y051043D02*
X10852Y051203D01*
X10868D01*
X1086Y051043D01*
Y051083D02*
X10856Y051163D01*
X10864D01*
X1086Y051083D01*
Y050737D02*
X10852Y050897D01*
X10868D01*
X1086Y050737D01*
Y050777D02*
X10856Y050857D01*
X10864D01*
X1086Y050777D01*
Y050431D02*
X10852Y050591D01*
X10868D01*
X1086Y050431D01*
Y050471D02*
X10856Y050551D01*
X10864D01*
X1086Y050471D01*
Y055935D02*
X10852Y056095D01*
X10868D01*
X1086Y055935D01*
Y055975D02*
X10856Y056055D01*
X10864D01*
X1086Y055975D01*
Y056241D02*
X10852Y056401D01*
X10868D01*
X1086Y056241D01*
Y056281D02*
X10856Y056361D01*
X10864D01*
X1086Y056281D01*
Y056547D02*
X10852Y056707D01*
X10868D01*
X1086Y056547D01*
Y056587D02*
X10856Y056667D01*
X10864D01*
X1086Y056587D01*
Y056853D02*
X10852Y057013D01*
X10868D01*
X1086Y056853D01*
Y056893D02*
X10856Y056973D01*
X10864D01*
X1086Y056893D01*
Y057159D02*
X10852Y057319D01*
X10868D01*
X1086Y057159D01*
Y057199D02*
X10856Y057279D01*
X10864D01*
X1086Y057199D01*
Y057464D02*
X10852Y057624D01*
X10868D01*
X1086Y057464D01*
Y057504D02*
X10856Y057584D01*
X10864D01*
X1086Y057504D01*
Y05777D02*
X10852Y05793D01*
X10868D01*
X1086Y05777D01*
Y05781D02*
X10856Y05789D01*
X10864D01*
X1086Y05781D01*
Y058076D02*
X10852Y058236D01*
X10868D01*
X1086Y058076D01*
Y058116D02*
X10856Y058196D01*
X10864D01*
X1086Y058116D01*
Y058382D02*
X10852Y058542D01*
X10868D01*
X1086Y058382D01*
Y058422D02*
X10856Y058502D01*
X10864D01*
X1086Y058422D01*
Y05563D02*
X10852Y05579D01*
X10868D01*
X1086Y05563D01*
Y05567D02*
X10856Y05575D01*
X10864D01*
X1086Y05567D01*
Y055324D02*
X10852Y055484D01*
X10868D01*
X1086Y055324D01*
Y055364D02*
X10856Y055444D01*
X10864D01*
X1086Y055364D01*
Y055018D02*
X10852Y055178D01*
X10868D01*
X1086Y055018D01*
Y055058D02*
X10856Y055138D01*
X10864D01*
X1086Y055058D01*
Y054712D02*
X10852Y054872D01*
X10868D01*
X1086Y054712D01*
Y054752D02*
X10856Y054832D01*
X10864D01*
X1086Y054752D01*
Y054406D02*
X10852Y054566D01*
X10868D01*
X1086Y054406D01*
Y054446D02*
X10856Y054526D01*
X10864D01*
X1086Y054446D01*
Y054101D02*
X10852Y054261D01*
X10868D01*
X1086Y054101D01*
Y054141D02*
X10856Y054221D01*
X10864D01*
X1086Y054141D01*
Y053795D02*
X10852Y053955D01*
X10868D01*
X1086Y053795D01*
Y053835D02*
X10856Y053915D01*
X10864D01*
X1086Y053835D01*
Y053489D02*
X10852Y053649D01*
X10868D01*
X1086Y053489D01*
Y053529D02*
X10856Y053609D01*
X10864D01*
X1086Y053529D01*
Y053183D02*
X10852Y053343D01*
X10868D01*
X1086Y053183D01*
Y053223D02*
X10856Y053303D01*
X10864D01*
X1086Y053223D01*
Y06144D02*
X10852Y0616D01*
X10868D01*
X1086Y06144D01*
Y06148D02*
X10856Y06156D01*
X10864D01*
X1086Y06148D01*
Y061746D02*
X10852Y061906D01*
X10868D01*
X1086Y061746D01*
Y061786D02*
X10856Y061866D01*
X10864D01*
X1086Y061786D01*
Y062052D02*
X10852Y062212D01*
X10868D01*
X1086Y062052D01*
Y062092D02*
X10856Y062172D01*
X10864D01*
X1086Y062092D01*
Y062357D02*
X10852Y062517D01*
X10868D01*
X1086Y062357D01*
Y062397D02*
X10856Y062477D01*
X10864D01*
X1086Y062397D01*
Y062663D02*
X10852Y062823D01*
X10868D01*
X1086Y062663D01*
Y062703D02*
X10856Y062783D01*
X10864D01*
X1086Y062703D01*
Y062969D02*
X10852Y063129D01*
X10868D01*
X1086Y062969D01*
Y063009D02*
X10856Y063089D01*
X10864D01*
X1086Y063009D01*
Y063275D02*
X10852Y063435D01*
X10868D01*
X1086Y063275D01*
Y063315D02*
X10856Y063395D01*
X10864D01*
X1086Y063315D01*
Y063581D02*
X10852Y063741D01*
X10868D01*
X1086Y063581D01*
Y063621D02*
X10856Y063701D01*
X10864D01*
X1086Y063621D01*
Y063886D02*
X10852Y064046D01*
X10868D01*
X1086Y063886D01*
Y063926D02*
X10856Y064006D01*
X10864D01*
X1086Y063926D01*
Y061134D02*
X10852Y061294D01*
X10868D01*
X1086Y061134D01*
Y061174D02*
X10856Y061254D01*
X10864D01*
X1086Y061174D01*
Y060828D02*
X10852Y060988D01*
X10868D01*
X1086Y060828D01*
Y060868D02*
X10856Y060948D01*
X10864D01*
X1086Y060868D01*
Y060523D02*
X10852Y060683D01*
X10868D01*
X1086Y060523D01*
Y060563D02*
X10856Y060643D01*
X10864D01*
X1086Y060563D01*
Y060217D02*
X10852Y060377D01*
X10868D01*
X1086Y060217D01*
Y060257D02*
X10856Y060337D01*
X10864D01*
X1086Y060257D01*
Y059911D02*
X10852Y060071D01*
X10868D01*
X1086Y059911D01*
Y059951D02*
X10856Y060031D01*
X10864D01*
X1086Y059951D01*
Y059605D02*
X10852Y059765D01*
X10868D01*
X1086Y059605D01*
Y059645D02*
X10856Y059725D01*
X10864D01*
X1086Y059645D01*
Y059299D02*
X10852Y059459D01*
X10868D01*
X1086Y059299D01*
Y059339D02*
X10856Y059419D01*
X10864D01*
X1086Y059339D01*
Y058994D02*
X10852Y059154D01*
X10868D01*
X1086Y058994D01*
Y059034D02*
X10856Y059114D01*
X10864D01*
X1086Y059034D01*
Y058688D02*
X10852Y058848D01*
X10868D01*
X1086Y058688D01*
Y058728D02*
X10856Y058808D01*
X10864D01*
X1086Y058728D01*
Y066945D02*
X10852Y067105D01*
X10868D01*
X1086Y066945D01*
Y066985D02*
X10856Y067065D01*
X10864D01*
X1086Y066985D01*
Y06725D02*
X10852Y06741D01*
X10868D01*
X1086Y06725D01*
Y06729D02*
X10856Y06737D01*
X10864D01*
X1086Y06729D01*
Y067556D02*
X10852Y067716D01*
X10868D01*
X1086Y067556D01*
Y067596D02*
X10856Y067676D01*
X10864D01*
X1086Y067596D01*
Y067862D02*
X10852Y068022D01*
X10868D01*
X1086Y067862D01*
Y067902D02*
X10856Y067982D01*
X10864D01*
X1086Y067902D01*
Y068168D02*
X10852Y068328D01*
X10868D01*
X1086Y068168D01*
Y068208D02*
X10856Y068288D01*
X10864D01*
X1086Y068208D01*
Y068474D02*
X10852Y068634D01*
X10868D01*
X1086Y068474D01*
Y068514D02*
X10856Y068594D01*
X10864D01*
X1086Y068514D01*
Y068779D02*
X10852Y068939D01*
X10868D01*
X1086Y068779D01*
Y068819D02*
X10856Y068899D01*
X10864D01*
X1086Y068819D01*
Y069085D02*
X10852Y069245D01*
X10868D01*
X1086Y069085D01*
Y069125D02*
X10856Y069205D01*
X10864D01*
X1086Y069125D01*
Y069391D02*
X10852Y069551D01*
X10868D01*
X1086Y069391D01*
Y069431D02*
X10856Y069511D01*
X10864D01*
X1086Y069431D01*
Y066639D02*
X10852Y066799D01*
X10868D01*
X1086Y066639D01*
Y066679D02*
X10856Y066759D01*
X10864D01*
X1086Y066679D01*
Y066333D02*
X10852Y066493D01*
X10868D01*
X1086Y066333D01*
Y066373D02*
X10856Y066453D01*
X10864D01*
X1086Y066373D01*
Y066027D02*
X10852Y066187D01*
X10868D01*
X1086Y066027D01*
Y066067D02*
X10856Y066147D01*
X10864D01*
X1086Y066067D01*
Y065721D02*
X10852Y065881D01*
X10868D01*
X1086Y065721D01*
Y065761D02*
X10856Y065841D01*
X10864D01*
X1086Y065761D01*
Y065415D02*
X10852Y065575D01*
X10868D01*
X1086Y065415D01*
Y065455D02*
X10856Y065535D01*
X10864D01*
X1086Y065455D01*
Y06511D02*
X10852Y06527D01*
X10868D01*
X1086Y06511D01*
Y06515D02*
X10856Y06523D01*
X10864D01*
X1086Y06515D01*
Y064804D02*
X10852Y064964D01*
X10868D01*
X1086Y064804D01*
Y064844D02*
X10856Y064924D01*
X10864D01*
X1086Y064844D01*
Y064498D02*
X10852Y064658D01*
X10868D01*
X1086Y064498D01*
Y064538D02*
X10856Y064618D01*
X10864D01*
X1086Y064538D01*
Y064192D02*
X10852Y064352D01*
X10868D01*
X1086Y064192D01*
Y064232D02*
X10856Y064312D01*
X10864D01*
X1086Y064232D01*
Y07092D02*
X10852Y07108D01*
X10868D01*
X1086Y07092D01*
Y07096D02*
X10856Y07104D01*
X10864D01*
X1086Y07096D01*
Y070614D02*
X10852Y070774D01*
X10868D01*
X1086Y070614D01*
Y070654D02*
X10856Y070734D01*
X10864D01*
X1086Y070654D01*
Y070308D02*
X10852Y070468D01*
X10868D01*
X1086Y070308D01*
Y070348D02*
X10856Y070428D01*
X10864D01*
X1086Y070348D01*
Y070003D02*
X10852Y070163D01*
X10868D01*
X1086Y070003D01*
Y070043D02*
X10856Y070123D01*
X10864D01*
X1086Y070043D01*
Y069697D02*
X10852Y069857D01*
X10868D01*
X1086Y069697D01*
Y069737D02*
X10856Y069817D01*
X10864D01*
X1086Y069737D01*
X107068Y07092D02*
X106988Y07108D01*
X107148D01*
X107068Y07092D01*
Y07096D02*
X107028Y07104D01*
X107108D01*
X107068Y07096D01*
X107374Y07092D02*
X107294Y07108D01*
X107454D01*
X107374Y07092D01*
Y07096D02*
X107334Y07104D01*
X107414D01*
X107374Y07096D01*
X10768Y07092D02*
X1076Y07108D01*
X10776D01*
X10768Y07092D01*
Y07096D02*
X10764Y07104D01*
X10772D01*
X10768Y07096D01*
X107986Y07092D02*
X107906Y07108D01*
X108066D01*
X107986Y07092D01*
Y07096D02*
X107946Y07104D01*
X108026D01*
X107986Y07096D01*
X108291Y07092D02*
X108211Y07108D01*
X108371D01*
X108291Y07092D01*
Y07096D02*
X108251Y07104D01*
X108331D01*
X108291Y07096D01*
X101564Y07092D02*
X101484Y07108D01*
X101644D01*
X101564Y07092D01*
Y07096D02*
X101524Y07104D01*
X101604D01*
X101564Y07096D01*
X101869Y07092D02*
X101789Y07108D01*
X101949D01*
X101869Y07092D01*
Y07096D02*
X101829Y07104D01*
X101909D01*
X101869Y07096D01*
X102175Y07092D02*
X102095Y07108D01*
X102255D01*
X102175Y07092D01*
Y07096D02*
X102135Y07104D01*
X102215D01*
X102175Y07096D01*
X102481Y07092D02*
X102401Y07108D01*
X102561D01*
X102481Y07092D01*
Y07096D02*
X102441Y07104D01*
X102521D01*
X102481Y07096D01*
X102787Y07092D02*
X102707Y07108D01*
X102867D01*
X102787Y07092D01*
Y07096D02*
X102747Y07104D01*
X102827D01*
X102787Y07096D01*
X103093Y07092D02*
X103013Y07108D01*
X103173D01*
X103093Y07092D01*
Y07096D02*
X103053Y07104D01*
X103133D01*
X103093Y07096D01*
X103398Y07092D02*
X103318Y07108D01*
X103478D01*
X103398Y07092D01*
Y07096D02*
X103358Y07104D01*
X103438D01*
X103398Y07096D01*
X103704Y07092D02*
X103624Y07108D01*
X103784D01*
X103704Y07092D01*
Y07096D02*
X103664Y07104D01*
X103744D01*
X103704Y07096D01*
X10401Y07092D02*
X10393Y07108D01*
X10409D01*
X10401Y07092D01*
Y07096D02*
X10397Y07104D01*
X10405D01*
X10401Y07096D01*
X106762Y07092D02*
X106682Y07108D01*
X106842D01*
X106762Y07092D01*
Y07096D02*
X106722Y07104D01*
X106802D01*
X106762Y07096D01*
X106456Y07092D02*
X106376Y07108D01*
X106536D01*
X106456Y07092D01*
Y07096D02*
X106416Y07104D01*
X106496D01*
X106456Y07096D01*
X106151Y07092D02*
X106071Y07108D01*
X106231D01*
X106151Y07092D01*
Y07096D02*
X106111Y07104D01*
X106191D01*
X106151Y07096D01*
X105845Y07092D02*
X105765Y07108D01*
X105925D01*
X105845Y07092D01*
Y07096D02*
X105805Y07104D01*
X105885D01*
X105845Y07096D01*
X105539Y07092D02*
X105459Y07108D01*
X105619D01*
X105539Y07092D01*
Y07096D02*
X105499Y07104D01*
X105579D01*
X105539Y07096D01*
X105233Y07092D02*
X105153Y07108D01*
X105313D01*
X105233Y07092D01*
Y07096D02*
X105193Y07104D01*
X105273D01*
X105233Y07096D01*
X104927Y07092D02*
X104847Y07108D01*
X105007D01*
X104927Y07092D01*
Y07096D02*
X104887Y07104D01*
X104967D01*
X104927Y07096D01*
X104622Y07092D02*
X104542Y07108D01*
X104702D01*
X104622Y07092D01*
Y07096D02*
X104582Y07104D01*
X104662D01*
X104622Y07096D01*
X104316Y07092D02*
X104236Y07108D01*
X104396D01*
X104316Y07092D01*
Y07096D02*
X104276Y07104D01*
X104356D01*
X104316Y07096D01*
X096059Y07092D02*
X095979Y07108D01*
X096139D01*
X096059Y07092D01*
Y07096D02*
X096019Y07104D01*
X096099D01*
X096059Y07096D01*
X096365Y07092D02*
X096285Y07108D01*
X096445D01*
X096365Y07092D01*
Y07096D02*
X096325Y07104D01*
X096405D01*
X096365Y07096D01*
X096671Y07092D02*
X096591Y07108D01*
X096751D01*
X096671Y07092D01*
Y07096D02*
X096631Y07104D01*
X096711D01*
X096671Y07096D01*
X096976Y07092D02*
X096896Y07108D01*
X097056D01*
X096976Y07092D01*
Y07096D02*
X096936Y07104D01*
X097016D01*
X096976Y07096D01*
X097282Y07092D02*
X097202Y07108D01*
X097362D01*
X097282Y07092D01*
Y07096D02*
X097242Y07104D01*
X097322D01*
X097282Y07096D01*
X097588Y07092D02*
X097508Y07108D01*
X097668D01*
X097588Y07092D01*
Y07096D02*
X097548Y07104D01*
X097628D01*
X097588Y07096D01*
X097894Y07092D02*
X097814Y07108D01*
X097974D01*
X097894Y07092D01*
Y07096D02*
X097854Y07104D01*
X097934D01*
X097894Y07096D01*
X0982Y07092D02*
X09812Y07108D01*
X09828D01*
X0982Y07092D01*
Y07096D02*
X09816Y07104D01*
X09824D01*
X0982Y07096D01*
X098506Y07092D02*
X098426Y07108D01*
X098586D01*
X098506Y07092D01*
Y07096D02*
X098466Y07104D01*
X098546D01*
X098506Y07096D01*
X101258Y07092D02*
X101178Y07108D01*
X101338D01*
X101258Y07092D01*
Y07096D02*
X101218Y07104D01*
X101298D01*
X101258Y07096D01*
X100952Y07092D02*
X100872Y07108D01*
X101032D01*
X100952Y07092D01*
Y07096D02*
X100912Y07104D01*
X100992D01*
X100952Y07096D01*
X100646Y07092D02*
X100566Y07108D01*
X100726D01*
X100646Y07092D01*
Y07096D02*
X100606Y07104D01*
X100686D01*
X100646Y07096D01*
X10034Y07092D02*
X10026Y07108D01*
X10042D01*
X10034Y07092D01*
Y07096D02*
X1003Y07104D01*
X10038D01*
X10034Y07096D01*
X100035Y07092D02*
X099955Y07108D01*
X100115D01*
X100035Y07092D01*
Y07096D02*
X099995Y07104D01*
X100075D01*
X100035Y07096D01*
X099729Y07092D02*
X099649Y07108D01*
X099809D01*
X099729Y07092D01*
Y07096D02*
X099689Y07104D01*
X099769D01*
X099729Y07096D01*
X099423Y07092D02*
X099343Y07108D01*
X099503D01*
X099423Y07092D01*
Y07096D02*
X099383Y07104D01*
X099463D01*
X099423Y07096D01*
X099117Y07092D02*
X099037Y07108D01*
X099197D01*
X099117Y07092D01*
Y07096D02*
X099077Y07104D01*
X099157D01*
X099117Y07096D01*
X098811Y07092D02*
X098731Y07108D01*
X098891D01*
X098811Y07092D01*
Y07096D02*
X098771Y07104D01*
X098851D01*
X098811Y07096D01*
X090555Y07092D02*
X090475Y07108D01*
X090635D01*
X090555Y07092D01*
Y07096D02*
X090515Y07104D01*
X090595D01*
X090555Y07096D01*
X09086Y07092D02*
X09078Y07108D01*
X09094D01*
X09086Y07092D01*
Y07096D02*
X09082Y07104D01*
X0909D01*
X09086Y07096D01*
X091166Y07092D02*
X091086Y07108D01*
X091246D01*
X091166Y07092D01*
Y07096D02*
X091126Y07104D01*
X091206D01*
X091166Y07096D01*
X091472Y07092D02*
X091392Y07108D01*
X091552D01*
X091472Y07092D01*
Y07096D02*
X091432Y07104D01*
X091512D01*
X091472Y07096D01*
X091778Y07092D02*
X091698Y07108D01*
X091858D01*
X091778Y07092D01*
Y07096D02*
X091738Y07104D01*
X091818D01*
X091778Y07096D01*
X092084Y07092D02*
X092004Y07108D01*
X092164D01*
X092084Y07092D01*
Y07096D02*
X092044Y07104D01*
X092124D01*
X092084Y07096D01*
X092389Y07092D02*
X092309Y07108D01*
X092469D01*
X092389Y07092D01*
Y07096D02*
X092349Y07104D01*
X092429D01*
X092389Y07096D01*
X092695Y07092D02*
X092615Y07108D01*
X092775D01*
X092695Y07092D01*
Y07096D02*
X092655Y07104D01*
X092735D01*
X092695Y07096D01*
X093001Y07092D02*
X092921Y07108D01*
X093081D01*
X093001Y07092D01*
Y07096D02*
X092961Y07104D01*
X093041D01*
X093001Y07096D01*
X095753Y07092D02*
X095673Y07108D01*
X095833D01*
X095753Y07092D01*
Y07096D02*
X095713Y07104D01*
X095793D01*
X095753Y07096D01*
X095447Y07092D02*
X095367Y07108D01*
X095527D01*
X095447Y07092D01*
Y07096D02*
X095407Y07104D01*
X095487D01*
X095447Y07096D01*
X095142Y07092D02*
X095062Y07108D01*
X095222D01*
X095142Y07092D01*
Y07096D02*
X095102Y07104D01*
X095182D01*
X095142Y07096D01*
X094836Y07092D02*
X094756Y07108D01*
X094916D01*
X094836Y07092D01*
Y07096D02*
X094796Y07104D01*
X094876D01*
X094836Y07096D01*
X09453Y07092D02*
X09445Y07108D01*
X09461D01*
X09453Y07092D01*
Y07096D02*
X09449Y07104D01*
X09457D01*
X09453Y07096D01*
X094224Y07092D02*
X094144Y07108D01*
X094304D01*
X094224Y07092D01*
Y07096D02*
X094184Y07104D01*
X094264D01*
X094224Y07096D01*
X093918Y07092D02*
X093838Y07108D01*
X093998D01*
X093918Y07092D01*
Y07096D02*
X093878Y07104D01*
X093958D01*
X093918Y07096D01*
X093613Y07092D02*
X093533Y07108D01*
X093693D01*
X093613Y07092D01*
Y07096D02*
X093573Y07104D01*
X093653D01*
X093613Y07096D01*
X093307Y07092D02*
X093227Y07108D01*
X093387D01*
X093307Y07092D01*
Y07096D02*
X093267Y07104D01*
X093347D01*
X093307Y07096D01*
X087802Y07092D02*
X087722Y07108D01*
X087882D01*
X087802Y07092D01*
Y07096D02*
X087762Y07104D01*
X087842D01*
X087802Y07096D01*
X088108Y07092D02*
X088028Y07108D01*
X088188D01*
X088108Y07092D01*
Y07096D02*
X088068Y07104D01*
X088148D01*
X088108Y07096D01*
X088414Y07092D02*
X088334Y07108D01*
X088494D01*
X088414Y07092D01*
Y07096D02*
X088374Y07104D01*
X088454D01*
X088414Y07096D01*
X08872Y07092D02*
X08864Y07108D01*
X0888D01*
X08872Y07092D01*
Y07096D02*
X08868Y07104D01*
X08876D01*
X08872Y07096D01*
X089025Y07092D02*
X088945Y07108D01*
X089105D01*
X089025Y07092D01*
Y07096D02*
X088985Y07104D01*
X089065D01*
X089025Y07096D01*
X089331Y07092D02*
X089251Y07108D01*
X089411D01*
X089331Y07092D01*
Y07096D02*
X089291Y07104D01*
X089371D01*
X089331Y07096D01*
X089637Y07092D02*
X089557Y07108D01*
X089717D01*
X089637Y07092D01*
Y07096D02*
X089597Y07104D01*
X089677D01*
X089637Y07096D01*
X089943Y07092D02*
X089863Y07108D01*
X090023D01*
X089943Y07092D01*
Y07096D02*
X089903Y07104D01*
X089983D01*
X089943Y07096D01*
X090249Y07092D02*
X090169Y07108D01*
X090329D01*
X090249Y07092D01*
Y07096D02*
X090209Y07104D01*
X090289D01*
X090249Y07096D01*
X087496Y07092D02*
X087416Y07108D01*
X087576D01*
X087496Y07092D01*
Y07096D02*
X087456Y07104D01*
X087536D01*
X087496Y07096D01*
X087191Y07092D02*
X087111Y07108D01*
X087271D01*
X087191Y07092D01*
Y07096D02*
X087151Y07104D01*
X087231D01*
X087191Y07096D01*
X086885Y07092D02*
X086805Y07108D01*
X086965D01*
X086885Y07092D01*
Y07096D02*
X086845Y07104D01*
X086925D01*
X086885Y07096D01*
X086579Y07092D02*
X086499Y07108D01*
X086659D01*
X086579Y07092D01*
Y07096D02*
X086539Y07104D01*
X086619D01*
X086579Y07096D01*
X086273Y07092D02*
X086193Y07108D01*
X086353D01*
X086273Y07092D01*
Y07096D02*
X086233Y07104D01*
X086313D01*
X086273Y07096D01*
X085967Y07092D02*
X085887Y07108D01*
X086047D01*
X085967Y07092D01*
Y07096D02*
X085927Y07104D01*
X086007D01*
X085967Y07096D01*
X085662Y07092D02*
X085582Y07108D01*
X085742D01*
X085662Y07092D01*
Y07096D02*
X085622Y07104D01*
X085702D01*
X085662Y07096D01*
X085356Y07092D02*
X085276Y07108D01*
X085436D01*
X085356Y07092D01*
Y07096D02*
X085316Y07104D01*
X085396D01*
X085356Y07096D01*
X08505Y07092D02*
X08497Y07108D01*
X08513D01*
X08505Y07092D01*
Y07096D02*
X08501Y07104D01*
X08509D01*
X08505Y07096D01*
X09625Y05482D02*
X09617Y05498D01*
X09633D01*
X09625Y05482D01*
Y05486D02*
X09621Y05494D01*
X09629D01*
X09625Y05486D01*
X1005Y04547D02*
X10042Y04563D01*
X10058D01*
X1005Y04547D01*
Y04551D02*
X10046Y04559D01*
X10054D01*
X1005Y04551D01*
X09945Y04547D02*
X09937Y04563D01*
X09953D01*
X09945Y04547D01*
Y04551D02*
X09941Y04559D01*
X09949D01*
X09945Y04551D01*
X09625Y04632D02*
X09617Y04648D01*
X09633D01*
X09625Y04632D01*
Y04636D02*
X09621Y04644D01*
X09629D01*
X09625Y04636D01*
Y04577D02*
X09617Y04593D01*
X09633D01*
X09625Y04577D01*
Y04581D02*
X09621Y04589D01*
X09629D01*
X09625Y04581D01*
Y04527D02*
X09617Y04543D01*
X09633D01*
X09625Y04527D01*
Y04531D02*
X09621Y04539D01*
X09629D01*
X09625Y04531D01*
Y04472D02*
X09617Y04488D01*
X09633D01*
X09625Y04472D01*
Y04476D02*
X09621Y04484D01*
X09629D01*
X09625Y04476D01*
Y04417D02*
X09617Y04433D01*
X09633D01*
X09625Y04417D01*
Y04421D02*
X09621Y04429D01*
X09629D01*
X09625Y04421D01*
X09685Y04417D02*
X09677Y04433D01*
X09693D01*
X09685Y04417D01*
Y04421D02*
X09681Y04429D01*
X09689D01*
X09685Y04421D01*
Y044707D02*
X09677Y044868D01*
X09693D01*
X09685Y044707D01*
Y044748D02*
X09681Y044827D01*
X09689D01*
X09685Y044748D01*
Y045245D02*
X09677Y045405D01*
X09693D01*
X09685Y045245D01*
Y045285D02*
X09681Y045365D01*
X09689D01*
X09685Y045285D01*
Y045782D02*
X09677Y045943D01*
X09693D01*
X09685Y045782D01*
Y045823D02*
X09681Y045903D01*
X09689D01*
X09685Y045823D01*
Y04632D02*
X09677Y04648D01*
X09693D01*
X09685Y04632D01*
Y04636D02*
X09681Y04644D01*
X09689D01*
X09685Y04636D01*
X097126Y057671D02*
X097046Y057831D01*
X097206D01*
X097126Y057671D01*
Y057711D02*
X097086Y057791D01*
X097166D01*
X097126Y057711D01*
X0932Y04547D02*
X09312Y04563D01*
X09328D01*
X0932Y04547D01*
Y04551D02*
X09316Y04559D01*
X09324D01*
X0932Y04551D01*
X09215Y04547D02*
X09207Y04563D01*
X09223D01*
X09215Y04547D01*
Y04551D02*
X09211Y04559D01*
X09219D01*
X09215Y04551D01*
X10245Y045395D02*
X10237Y045555D01*
X10253D01*
X10245Y045395D01*
Y045435D02*
X10241Y045515D01*
X10249D01*
X10245Y045435D01*
X103017Y045395D02*
X102937Y045555D01*
X103097D01*
X103017Y045395D01*
Y045435D02*
X102977Y045515D01*
X103057D01*
X103017Y045435D01*
X1033Y045395D02*
X10322Y045555D01*
X10338D01*
X1033Y045395D01*
Y045435D02*
X10326Y045515D01*
X10334D01*
X1033Y045435D01*
X1012Y06257D02*
X10112Y06273D01*
X10128D01*
X1012Y06257D01*
Y06261D02*
X10116Y06269D01*
X10124D01*
X1012Y06261D01*
X09045Y06337D02*
X09037Y06353D01*
X09053D01*
X09045Y06337D01*
Y06341D02*
X09041Y06349D01*
X09049D01*
X09045Y06341D01*
X09915Y06557D02*
X09907Y06573D01*
X09923D01*
X09915Y06557D01*
Y06561D02*
X09911Y06569D01*
X09919D01*
X09915Y06561D01*
X103795Y066495D02*
X103835D01*
X103875Y066535D01*
X103915Y066495D01*
X103955D01*
Y066535D01*
X103915Y066575D01*
X103955Y066615D01*
Y066655D01*
X103915D01*
X103875Y066615D01*
X103835Y066655D01*
X103795D01*
Y066615D01*
X103835Y066575D01*
X103795Y066535D01*
Y066495D01*
X103835Y066535D02*
X103855D01*
X103875Y066555D01*
X103895Y066535D01*
X103915D01*
Y066555D01*
X103895Y066575D01*
X103915Y066595D01*
Y066615D01*
X103895D01*
X103875Y066595D01*
X103855Y066615D01*
X103835D01*
Y066595D01*
X103855Y066575D01*
X103835Y066555D01*
Y066535D01*
X10192Y06647D02*
X10196D01*
X102Y06651D01*
X10204Y06647D01*
X10208D01*
Y06651D01*
X10204Y06655D01*
X10208Y06659D01*
Y06663D01*
X10204D01*
X102Y06659D01*
X10196Y06663D01*
X10192D01*
Y06659D01*
X10196Y06655D01*
X10192Y06651D01*
Y06647D01*
X10196Y06651D02*
X10198D01*
X102Y06653D01*
X10202Y06651D01*
X10204D01*
Y06653D01*
X10202Y06655D01*
X10204Y06657D01*
Y06659D01*
X10202D01*
X102Y06657D01*
X10198Y06659D01*
X10196D01*
Y06657D01*
X10198Y06655D01*
X10196Y06653D01*
Y06651D01*
X1039Y06647D02*
X10382Y06663D01*
X10398D01*
X1039Y06647D01*
Y06651D02*
X10386Y06659D01*
X10394D01*
X1039Y06651D01*
X099148Y066672D02*
X099068Y066832D01*
X099228D01*
X099148Y066672D01*
Y066712D02*
X099108Y066792D01*
X099188D01*
X099148Y066712D01*
X0999Y06777D02*
X09982Y06793D01*
X09998D01*
X0999Y06777D01*
Y06781D02*
X09986Y06789D01*
X09994D01*
X0999Y06781D01*
X10035Y065602D02*
X10027Y065762D01*
X10043D01*
X10035Y065602D01*
Y065642D02*
X10031Y065722D01*
X10039D01*
X10035Y065642D01*
X0989Y06627D02*
X09882Y06643D01*
X09898D01*
X0989Y06627D01*
Y06631D02*
X09886Y06639D01*
X09894D01*
X0989Y06631D01*
X10025Y06627D02*
X10017Y06643D01*
X10033D01*
X10025Y06627D01*
Y06631D02*
X10021Y06639D01*
X10029D01*
X10025Y06631D01*
X10085Y06497D02*
X10077Y06513D01*
X10093D01*
X10085Y06497D01*
Y06501D02*
X10081Y06509D01*
X10089D01*
X10085Y06501D01*
Y06732D02*
X10077Y06748D01*
X10093D01*
X10085Y06732D01*
Y06736D02*
X10081Y06744D01*
X10089D01*
X10085Y06736D01*
X0986Y06732D02*
X09852Y06748D01*
X09868D01*
X0986Y06732D01*
Y06736D02*
X09856Y06744D01*
X09864D01*
X0986Y06736D01*
X08626Y06912D02*
X0863Y06916D01*
X08634D01*
X0863Y0692D01*
X08634Y06924D01*
X0863D01*
X08626Y06928D01*
X08622Y06924D01*
X08618D01*
X08622Y0692D01*
X08618Y06916D01*
X08622D01*
X08626Y06912D01*
Y06916D02*
X08628Y06918D01*
X0863D01*
X08628Y0692D01*
X0863Y06922D01*
X08628D01*
X08626Y06924D01*
X08624Y06922D01*
X08622D01*
X08624Y0692D01*
X08622Y06918D01*
X08624D01*
X08626Y06916D01*
X10666Y06912D02*
X1067Y06916D01*
X10674D01*
X1067Y0692D01*
X10674Y06924D01*
X1067D01*
X10666Y06928D01*
X10662Y06924D01*
X10658D01*
X10662Y0692D01*
X10658Y06916D01*
X10662D01*
X10666Y06912D01*
Y06916D02*
X10668Y06918D01*
X1067D01*
X10668Y0692D01*
X1067Y06922D01*
X10668D01*
X10666Y06924D01*
X10664Y06922D01*
X10662D01*
X10664Y0692D01*
X10662Y06918D01*
X10664D01*
X10666Y06916D01*
X1063Y06727D02*
X10622Y06743D01*
X10638D01*
X1063Y06727D01*
Y06731D02*
X10626Y06739D01*
X10634D01*
X1063Y06731D01*
X1035Y06322D02*
X10342Y06338D01*
X10358D01*
X1035Y06322D01*
Y06326D02*
X10346Y06334D01*
X10354D01*
X1035Y06326D01*
X1062Y06132D02*
X10612Y06148D01*
X10628D01*
X1062Y06132D01*
Y06136D02*
X10616Y06144D01*
X10624D01*
X1062Y06136D01*
X0905Y06512D02*
X09042Y06528D01*
X09058D01*
X0905Y06512D01*
Y06516D02*
X09046Y06524D01*
X09054D01*
X0905Y06516D01*
X0956Y063953D02*
X09552Y064113D01*
X09568D01*
X0956Y063953D01*
Y063993D02*
X09556Y064073D01*
X09564D01*
X0956Y063993D01*
X0947Y063953D02*
X09462Y064113D01*
X09478D01*
X0947Y063953D01*
Y063993D02*
X09466Y064073D01*
X09474D01*
X0947Y063993D01*
X0892Y064095D02*
X08912Y064255D01*
X08928D01*
X0892Y064095D01*
Y064135D02*
X08916Y064215D01*
X08924D01*
X0892Y064135D01*
X10025Y04107D02*
X10017Y04123D01*
X10033D01*
X10025Y04107D01*
Y04111D02*
X10021Y04119D01*
X10029D01*
X10025Y04111D01*
X09125Y04997D02*
X09117Y05013D01*
X09133D01*
X09125Y04997D01*
Y05001D02*
X09121Y05009D01*
X09129D01*
X09125Y05001D01*
X08845Y04027D02*
X08837Y04043D01*
X08853D01*
X08845Y04027D01*
Y04031D02*
X08841Y04039D01*
X08849D01*
X08845Y04031D01*
X0883Y04242D02*
X08822Y04258D01*
X08838D01*
X0883Y04242D01*
Y04246D02*
X08826Y04254D01*
X08834D01*
X0883Y04246D01*
X10435Y06507D02*
X10427Y06523D01*
X10443D01*
X10435Y06507D01*
Y06511D02*
X10431Y06519D01*
X10439D01*
X10435Y06511D01*
X1063Y06407D02*
X10622Y06423D01*
X10638D01*
X1063Y06407D01*
Y06411D02*
X10626Y06419D01*
X10634D01*
X1063Y06411D01*
Y06487D02*
X10622Y06503D01*
X10638D01*
X1063Y06487D01*
Y06491D02*
X10626Y06499D01*
X10634D01*
X1063Y06491D01*
Y06567D02*
X10622Y06583D01*
X10638D01*
X1063Y06567D01*
Y06571D02*
X10626Y06579D01*
X10634D01*
X1063Y06571D01*
Y06647D02*
X10622Y06663D01*
X10638D01*
X1063Y06647D01*
Y06651D02*
X10626Y06659D01*
X10634D01*
X1063Y06651D01*
X087125Y06397D02*
X087045Y06413D01*
X087205D01*
X087125Y06397D01*
Y06401D02*
X087085Y06409D01*
X087165D01*
X087125Y06401D01*
Y06477D02*
X087045Y06493D01*
X087205D01*
X087125Y06477D01*
Y06481D02*
X087085Y06489D01*
X087165D01*
X087125Y06481D01*
Y06557D02*
X087045Y06573D01*
X087205D01*
X087125Y06557D01*
Y06561D02*
X087085Y06569D01*
X087165D01*
X087125Y06561D01*
Y06637D02*
X087045Y06653D01*
X087205D01*
X087125Y06637D01*
Y06641D02*
X087085Y06649D01*
X087165D01*
X087125Y06641D01*
Y06712D02*
X087045Y06728D01*
X087205D01*
X087125Y06712D01*
Y06716D02*
X087085Y06724D01*
X087165D01*
X087125Y06716D01*
X097094Y06397D02*
X097014Y06413D01*
X097174D01*
X097094Y06397D01*
Y06401D02*
X097054Y06409D01*
X097134D01*
X097094Y06401D01*
X09375Y06402D02*
X09367Y06418D01*
X09383D01*
X09375Y06402D01*
Y06406D02*
X09371Y06414D01*
X09379D01*
X09375Y06406D01*
X09135Y06402D02*
X09127Y06418D01*
X09143D01*
X09135Y06402D01*
Y06406D02*
X09131Y06414D01*
X09139D01*
X09135Y06406D01*
X0922Y06402D02*
X09212Y06418D01*
X09228D01*
X0922Y06402D01*
Y06406D02*
X09216Y06414D01*
X09224D01*
X0922Y06406D01*
X09682Y06067D02*
X09686D01*
X0969Y06071D01*
X09694Y06067D01*
X09698D01*
Y06071D01*
X09694Y06075D01*
X09698Y06079D01*
Y06083D01*
X09694D01*
X0969Y06079D01*
X09686Y06083D01*
X09682D01*
Y06079D01*
X09686Y06075D01*
X09682Y06071D01*
Y06067D01*
X09686Y06071D02*
X09688D01*
X0969Y06073D01*
X09692Y06071D01*
X09694D01*
Y06073D01*
X09692Y06075D01*
X09694Y06077D01*
Y06079D01*
X09692D01*
X0969Y06077D01*
X09688Y06079D01*
X09686D01*
Y06077D01*
X09688Y06075D01*
X09686Y06073D01*
Y06071D01*
X09717Y06067D02*
X09721D01*
X09725Y06071D01*
X09729Y06067D01*
X09733D01*
Y06071D01*
X09729Y06075D01*
X09733Y06079D01*
Y06083D01*
X09729D01*
X09725Y06079D01*
X09721Y06083D01*
X09717D01*
Y06079D01*
X09721Y06075D01*
X09717Y06071D01*
Y06067D01*
X09721Y06071D02*
X09723D01*
X09725Y06073D01*
X09727Y06071D01*
X09729D01*
Y06073D01*
X09727Y06075D01*
X09729Y06077D01*
Y06079D01*
X09727D01*
X09725Y06077D01*
X09723Y06079D01*
X09721D01*
Y06077D01*
X09723Y06075D01*
X09721Y06073D01*
Y06071D01*
X09877Y06067D02*
X09881D01*
X09885Y06071D01*
X09889Y06067D01*
X09893D01*
Y06071D01*
X09889Y06075D01*
X09893Y06079D01*
Y06083D01*
X09889D01*
X09885Y06079D01*
X09881Y06083D01*
X09877D01*
Y06079D01*
X09881Y06075D01*
X09877Y06071D01*
Y06067D01*
X09881Y06071D02*
X09883D01*
X09885Y06073D01*
X09887Y06071D01*
X09889D01*
Y06073D01*
X09887Y06075D01*
X09889Y06077D01*
Y06079D01*
X09887D01*
X09885Y06077D01*
X09883Y06079D01*
X09881D01*
Y06077D01*
X09883Y06075D01*
X09881Y06073D01*
Y06071D01*
X09682Y061389D02*
X09686D01*
X0969Y061429D01*
X09694Y061389D01*
X09698D01*
Y061429D01*
X09694Y061469D01*
X09698Y061509D01*
Y061549D01*
X09694D01*
X0969Y061509D01*
X09686Y061549D01*
X09682D01*
Y061509D01*
X09686Y061469D01*
X09682Y061429D01*
Y061389D01*
X09686Y061429D02*
X09688D01*
X0969Y061449D01*
X09692Y061429D01*
X09694D01*
Y061449D01*
X09692Y061469D01*
X09694Y061489D01*
Y061509D01*
X09692D01*
X0969Y061489D01*
X09688Y061509D01*
X09686D01*
Y061489D01*
X09688Y061469D01*
X09686Y061449D01*
Y061429D01*
X09877Y061359D02*
X09881D01*
X09885Y061399D01*
X09889Y061359D01*
X09893D01*
Y061399D01*
X09889Y061439D01*
X09893Y061479D01*
Y061519D01*
X09889D01*
X09885Y061479D01*
X09881Y061519D01*
X09877D01*
Y061479D01*
X09881Y061439D01*
X09877Y061399D01*
Y061359D01*
X09881Y061399D02*
X09883D01*
X09885Y061419D01*
X09887Y061399D01*
X09889D01*
Y061419D01*
X09887Y061439D01*
X09889Y061459D01*
Y061479D01*
X09887D01*
X09885Y061459D01*
X09883Y061479D01*
X09881D01*
Y061459D01*
X09883Y061439D01*
X09881Y061419D01*
Y061399D01*
X09717Y061389D02*
X09721D01*
X09725Y061429D01*
X09729Y061389D01*
X09733D01*
Y061429D01*
X09729Y061469D01*
X09733Y061509D01*
Y061549D01*
X09729D01*
X09725Y061509D01*
X09721Y061549D01*
X09717D01*
Y061509D01*
X09721Y061469D01*
X09717Y061429D01*
Y061389D01*
X09721Y061429D02*
X09723D01*
X09725Y061449D01*
X09727Y061429D01*
X09729D01*
Y061449D01*
X09727Y061469D01*
X09729Y061489D01*
Y061509D01*
X09727D01*
X09725Y061489D01*
X09723Y061509D01*
X09721D01*
Y061489D01*
X09723Y061469D01*
X09721Y061449D01*
Y061429D01*
X094163Y05482D02*
X094083Y05498D01*
X094243D01*
X094163Y05482D01*
Y05486D02*
X094123Y05494D01*
X094203D01*
X094163Y05486D01*
X10162Y06007D02*
X10166D01*
X1017Y06011D01*
X10174Y06007D01*
X10178D01*
Y06011D01*
X10174Y06015D01*
X10178Y06019D01*
Y06023D01*
X10174D01*
X1017Y06019D01*
X10166Y06023D01*
X10162D01*
Y06019D01*
X10166Y06015D01*
X10162Y06011D01*
Y06007D01*
X10166Y06011D02*
X10168D01*
X1017Y06013D01*
X10172Y06011D01*
X10174D01*
Y06013D01*
X10172Y06015D01*
X10174Y06017D01*
Y06019D01*
X10172D01*
X1017Y06017D01*
X10168Y06019D01*
X10166D01*
Y06017D01*
X10168Y06015D01*
X10166Y06013D01*
Y06011D01*
X10162Y05972D02*
X10166D01*
X1017Y05976D01*
X10174Y05972D01*
X10178D01*
Y05976D01*
X10174Y0598D01*
X10178Y05984D01*
Y05988D01*
X10174D01*
X1017Y05984D01*
X10166Y05988D01*
X10162D01*
Y05984D01*
X10166Y0598D01*
X10162Y05976D01*
Y05972D01*
X10166Y05976D02*
X10168D01*
X1017Y05978D01*
X10172Y05976D01*
X10174D01*
Y05978D01*
X10172Y0598D01*
X10174Y05982D01*
Y05984D01*
X10172D01*
X1017Y05982D01*
X10168Y05984D01*
X10166D01*
Y05982D01*
X10168Y0598D01*
X10166Y05978D01*
Y05976D01*
X10162Y05937D02*
X10166D01*
X1017Y05941D01*
X10174Y05937D01*
X10178D01*
Y05941D01*
X10174Y05945D01*
X10178Y05949D01*
Y05953D01*
X10174D01*
X1017Y05949D01*
X10166Y05953D01*
X10162D01*
Y05949D01*
X10166Y05945D01*
X10162Y05941D01*
Y05937D01*
X10166Y05941D02*
X10168D01*
X1017Y05943D01*
X10172Y05941D01*
X10174D01*
Y05943D01*
X10172Y05945D01*
X10174Y05947D01*
Y05949D01*
X10172D01*
X1017Y05947D01*
X10168Y05949D01*
X10166D01*
Y05947D01*
X10168Y05945D01*
X10166Y05943D01*
Y05941D01*
X10666Y03782D02*
X1067Y03786D01*
X10674D01*
X1067Y0379D01*
X10674Y03794D01*
X1067D01*
X10666Y03798D01*
X10662Y03794D01*
X10658D01*
X10662Y0379D01*
X10658Y03786D01*
X10662D01*
X10666Y03782D01*
Y03786D02*
X10668Y03788D01*
X1067D01*
X10668Y0379D01*
X1067Y03792D01*
X10668D01*
X10666Y03794D01*
X10664Y03792D01*
X10662D01*
X10664Y0379D01*
X10662Y03788D01*
X10664D01*
X10666Y03786D01*
X08626Y03782D02*
X0863Y03786D01*
X08634D01*
X0863Y0379D01*
X08634Y03794D01*
X0863D01*
X08626Y03798D01*
X08622Y03794D01*
X08618D01*
X08622Y0379D01*
X08618Y03786D01*
X08622D01*
X08626Y03782D01*
Y03786D02*
X08628Y03788D01*
X0863D01*
X08628Y0379D01*
X0863Y03792D01*
X08628D01*
X08626Y03794D01*
X08624Y03792D01*
X08622D01*
X08624Y0379D01*
X08622Y03788D01*
X08624D01*
X08626Y03786D01*
X10145Y041095D02*
X10137Y041255D01*
X10153D01*
X10145Y041095D01*
Y041135D02*
X10141Y041215D01*
X10149D01*
X10145Y041135D01*
Y049895D02*
X10137Y050055D01*
X10153D01*
X10145Y049895D01*
Y049935D02*
X10141Y050015D01*
X10149D01*
X10145Y049935D01*
X1033Y049895D02*
X10322Y050055D01*
X10338D01*
X1033Y049895D01*
Y049935D02*
X10326Y050015D01*
X10334D01*
X1033Y049935D01*
X10015Y04547D02*
X10007Y04563D01*
X10023D01*
X10015Y04547D01*
Y04551D02*
X10011Y04559D01*
X10019D01*
X10015Y04551D01*
X0998Y04547D02*
X09972Y04563D01*
X09988D01*
X0998Y04547D01*
Y04551D02*
X09976Y04559D01*
X09984D01*
X0998Y04551D01*
X103Y045395D02*
X10292Y045555D01*
X10308D01*
X103Y045395D01*
Y045435D02*
X10296Y045515D01*
X10304D01*
X103Y045435D01*
X102733Y045395D02*
X102653Y045555D01*
X102813D01*
X102733Y045395D01*
Y045435D02*
X102693Y045515D01*
X102773D01*
X102733Y045435D01*
X10277Y049445D02*
X10281D01*
X10285Y049485D01*
X10289Y049445D01*
X10293D01*
Y049485D01*
X10289Y049525D01*
X10293Y049565D01*
Y049605D01*
X10289D01*
X10285Y049565D01*
X10281Y049605D01*
X10277D01*
Y049565D01*
X10281Y049525D01*
X10277Y049485D01*
Y049445D01*
X10281Y049485D02*
X10283D01*
X10285Y049505D01*
X10287Y049485D01*
X10289D01*
Y049505D01*
X10287Y049525D01*
X10289Y049545D01*
Y049565D01*
X10287D01*
X10285Y049545D01*
X10283Y049565D01*
X10281D01*
Y049545D01*
X10283Y049525D01*
X10281Y049505D01*
Y049485D01*
X0991Y042195D02*
X09902Y042355D01*
X09918D01*
X0991Y042195D01*
Y042235D02*
X09906Y042315D01*
X09914D01*
X0991Y042235D01*
X10372Y042145D02*
X10376D01*
X1038Y042185D01*
X10384Y042145D01*
X10388D01*
Y042185D01*
X10384Y042225D01*
X10388Y042265D01*
Y042305D01*
X10384D01*
X1038Y042265D01*
X10376Y042305D01*
X10372D01*
Y042265D01*
X10376Y042225D01*
X10372Y042185D01*
Y042145D01*
X10376Y042185D02*
X10378D01*
X1038Y042205D01*
X10382Y042185D01*
X10384D01*
Y042205D01*
X10382Y042225D01*
X10384Y042245D01*
Y042265D01*
X10382D01*
X1038Y042245D01*
X10378Y042265D01*
X10376D01*
Y042245D01*
X10378Y042225D01*
X10376Y042205D01*
Y042185D01*
X10087Y042095D02*
X10091D01*
X10095Y042135D01*
X10099Y042095D01*
X10103D01*
Y042135D01*
X10099Y042175D01*
X10103Y042215D01*
Y042255D01*
X10099D01*
X10095Y042215D01*
X10091Y042255D01*
X10087D01*
Y042215D01*
X10091Y042175D01*
X10087Y042135D01*
Y042095D01*
X10091Y042135D02*
X10093D01*
X10095Y042155D01*
X10097Y042135D01*
X10099D01*
Y042155D01*
X10097Y042175D01*
X10099Y042195D01*
Y042215D01*
X10097D01*
X10095Y042195D01*
X10093Y042215D01*
X10091D01*
Y042195D01*
X10093Y042175D01*
X10091Y042155D01*
Y042135D01*
X1038Y042145D02*
X10372Y042305D01*
X10388D01*
X1038Y042145D01*
Y042185D02*
X10376Y042265D01*
X10384D01*
X1038Y042185D01*
X10095Y042095D02*
X10087Y042255D01*
X10103D01*
X10095Y042095D01*
Y042135D02*
X10091Y042215D01*
X10099D01*
X10095Y042135D01*
X10195Y042245D02*
X10187Y042405D01*
X10203D01*
X10195Y042245D01*
Y042285D02*
X10191Y042365D01*
X10199D01*
X10195Y042285D01*
X1038Y048945D02*
X10372Y049105D01*
X10388D01*
X1038Y048945D01*
Y048985D02*
X10376Y049065D01*
X10384D01*
X1038Y048985D01*
X0998Y049695D02*
X09972Y049855D01*
X09988D01*
X0998Y049695D01*
Y049735D02*
X09976Y049815D01*
X09984D01*
X0998Y049735D01*
X0936Y050545D02*
X09352Y050705D01*
X09368D01*
X0936Y050545D01*
Y050585D02*
X09356Y050665D01*
X09364D01*
X0936Y050585D01*
X09272Y05007D02*
X09276D01*
X0928Y05011D01*
X09284Y05007D01*
X09288D01*
Y05011D01*
X09284Y05015D01*
X09288Y05019D01*
Y05023D01*
X09284D01*
X0928Y05019D01*
X09276Y05023D01*
X09272D01*
Y05019D01*
X09276Y05015D01*
X09272Y05011D01*
Y05007D01*
X09276Y05011D02*
X09278D01*
X0928Y05013D01*
X09282Y05011D01*
X09284D01*
Y05013D01*
X09282Y05015D01*
X09284Y05017D01*
Y05019D01*
X09282D01*
X0928Y05017D01*
X09278Y05019D01*
X09276D01*
Y05017D01*
X09278Y05015D01*
X09276Y05013D01*
Y05011D01*
X09235Y04092D02*
X09227Y04108D01*
X09243D01*
X09235Y04092D01*
Y04096D02*
X09231Y04104D01*
X09239D01*
X09235Y04096D01*
X093545Y04202D02*
X093585D01*
X093625Y04206D01*
X093665Y04202D01*
X093705D01*
Y04206D01*
X093665Y0421D01*
X093705Y04214D01*
Y04218D01*
X093665D01*
X093625Y04214D01*
X093585Y04218D01*
X093545D01*
Y04214D01*
X093585Y0421D01*
X093545Y04206D01*
Y04202D01*
X093585Y04206D02*
X093605D01*
X093625Y04208D01*
X093645Y04206D01*
X093665D01*
Y04208D01*
X093645Y0421D01*
X093665Y04212D01*
Y04214D01*
X093645D01*
X093625Y04212D01*
X093605Y04214D01*
X093585D01*
Y04212D01*
X093605Y0421D01*
X093585Y04208D01*
Y04206D01*
X09005Y04092D02*
X08997Y04108D01*
X09013D01*
X09005Y04092D01*
Y04096D02*
X09001Y04104D01*
X09009D01*
X09005Y04096D01*
X09195Y04217D02*
X09187Y04233D01*
X09203D01*
X09195Y04217D01*
Y04221D02*
X09191Y04229D01*
X09199D01*
X09195Y04221D01*
X08965Y04552D02*
X08957Y04568D01*
X08973D01*
X08965Y04552D01*
Y04556D02*
X08961Y04564D01*
X08969D01*
X08965Y04556D01*
X09Y04552D02*
X08992Y04568D01*
X09008D01*
X09Y04552D01*
Y04556D02*
X08996Y04564D01*
X09004D01*
X09Y04556D01*
X09285Y04547D02*
X09277Y04563D01*
X09293D01*
X09285Y04547D01*
Y04551D02*
X09281Y04559D01*
X09289D01*
X09285Y04551D01*
X0925Y04547D02*
X09242Y04563D01*
X09258D01*
X0925Y04547D01*
Y04551D02*
X09246Y04559D01*
X09254D01*
X0925Y04551D01*
X09365Y04897D02*
X09357Y04913D01*
X09373D01*
X09365Y04897D01*
Y04901D02*
X09361Y04909D01*
X09369D01*
X09365Y04901D01*
X0901Y049847D02*
X09002Y050007D01*
X09018D01*
X0901Y049847D01*
Y049887D02*
X09006Y049967D01*
X09014D01*
X0901Y049887D01*
D124*
X11328Y044689D02*
G03*
X11328Y044689I-00008J0D01*
G01*
Y043689D02*
G03*
X11328Y043689I-00008J0D01*
G01*
X115445Y044689D02*
G03*
X115445Y044689I-00008J0D01*
G01*
Y043689D02*
G03*
X115445Y043689I-00008J0D01*
G01*
X11328Y04177D02*
G03*
X11328Y04177I-00008J0D01*
G01*
Y04077D02*
G03*
X11328Y04077I-00008J0D01*
G01*
X115445Y04177D02*
G03*
X115445Y04177I-00008J0D01*
G01*
Y04077D02*
G03*
X115445Y04077I-00008J0D01*
G01*
X11328Y038852D02*
G03*
X11328Y038852I-00008J0D01*
G01*
Y037852D02*
G03*
X11328Y037852I-00008J0D01*
G01*
X115445Y038852D02*
G03*
X115445Y038852I-00008J0D01*
G01*
Y037852D02*
G03*
X115445Y037852I-00008J0D01*
G01*
X11328Y053444D02*
G03*
X11328Y053444I-00008J0D01*
G01*
Y052444D02*
G03*
X11328Y052444I-00008J0D01*
G01*
X115445Y053444D02*
G03*
X115445Y053444I-00008J0D01*
G01*
Y052444D02*
G03*
X115445Y052444I-00008J0D01*
G01*
X11328Y050526D02*
G03*
X11328Y050526I-00008J0D01*
G01*
Y049526D02*
G03*
X11328Y049526I-00008J0D01*
G01*
X115445Y050526D02*
G03*
X115445Y050526I-00008J0D01*
G01*
Y049526D02*
G03*
X115445Y049526I-00008J0D01*
G01*
X11328Y047607D02*
G03*
X11328Y047607I-00008J0D01*
G01*
Y046607D02*
G03*
X11328Y046607I-00008J0D01*
G01*
X115445Y047607D02*
G03*
X115445Y047607I-00008J0D01*
G01*
Y046607D02*
G03*
X115445Y046607I-00008J0D01*
G01*
X11333Y0622D02*
G03*
X11333Y0622I-00008J0D01*
G01*
Y0612D02*
G03*
X11333Y0612I-00008J0D01*
G01*
X115495Y0622D02*
G03*
X115495Y0622I-00008J0D01*
G01*
Y0612D02*
G03*
X115495Y0612I-00008J0D01*
G01*
X11333Y059281D02*
G03*
X11333Y059281I-00008J0D01*
G01*
Y058281D02*
G03*
X11333Y058281I-00008J0D01*
G01*
X115495Y059281D02*
G03*
X115495Y059281I-00008J0D01*
G01*
Y058281D02*
G03*
X115495Y058281I-00008J0D01*
G01*
X11328Y056363D02*
G03*
X11328Y056363I-00008J0D01*
G01*
Y055363D02*
G03*
X11328Y055363I-00008J0D01*
G01*
X115445Y056363D02*
G03*
X115445Y056363I-00008J0D01*
G01*
Y055363D02*
G03*
X115445Y055363I-00008J0D01*
G01*
X09078Y0597D02*
G03*
X09078Y0597I-00008J0D01*
G01*
Y0617D02*
G03*
X09078Y0617I-00008J0D01*
G01*
Y055297D02*
G03*
X09078Y055297I-00008J0D01*
G01*
Y053297D02*
G03*
X09078Y053297I-00008J0D01*
G01*
D125*
X09074Y0597D02*
G03*
X09074Y0597I-00004J0D01*
G01*
Y0617D02*
G03*
X09074Y0617I-00004J0D01*
G01*
Y055297D02*
G03*
X09074Y055297I-00004J0D01*
G01*
Y053297D02*
G03*
X09074Y053297I-00004J0D01*
G01*
M02*
