G04*
G04 #@! TF.GenerationSoftware,Altium Limited,Altium Designer,18.1.6 (161)*
G04*
G04 Layer_Color=32896*
%FSTAX24Y24*%
%MOIN*%
G70*
G01*
G75*
%ADD10C,0.0040*%
%ADD11C,0.0079*%
%ADD13C,0.0098*%
%ADD14C,0.0100*%
%ADD15C,0.0050*%
%ADD119C,0.0236*%
D10*
X12118Y068249D02*
X12152D01*
X12118Y068749D02*
X12152D01*
X122695Y067221D02*
Y067561D01*
X122195Y067221D02*
Y067561D01*
X122695Y065618D02*
Y065958D01*
X122195Y065618D02*
Y065958D01*
X120545Y067221D02*
Y067561D01*
X120045Y067221D02*
Y067561D01*
X120545Y065618D02*
Y065958D01*
X120045Y065618D02*
Y065958D01*
X119079Y06875D02*
X119419D01*
X119079Y06825D02*
X119419D01*
X118445Y06724D02*
Y06758D01*
X117945Y06724D02*
Y06758D01*
X118445Y065618D02*
Y065958D01*
X117945Y065618D02*
Y065958D01*
X116178Y069303D02*
X116472Y069133D01*
X116428Y069736D02*
X116722Y069566D01*
X114585Y069581D02*
X114879Y069751D01*
X114835Y069148D02*
X115129Y069318D01*
X11548Y066407D02*
X11582D01*
X11548Y066907D02*
X11582D01*
X116995Y065608D02*
Y065948D01*
X116495Y065608D02*
Y065948D01*
X116995Y067245D02*
Y067585D01*
X116495Y067245D02*
Y067585D01*
X115463Y06835D02*
X115803D01*
X115463Y06885D02*
X115803D01*
X114757Y067245D02*
Y067585D01*
X114257Y067245D02*
Y067585D01*
X11475Y065608D02*
Y065948D01*
X11425Y065608D02*
Y065948D01*
X1132Y065608D02*
Y065948D01*
X1127Y065608D02*
Y065948D01*
X11013Y0703D02*
X11047D01*
X11013Y0708D02*
X11047D01*
X11205Y065608D02*
Y065948D01*
X11155Y065608D02*
Y065948D01*
X110151Y0651D02*
X110491D01*
X110151Y0656D02*
X110491D01*
X11013Y06615D02*
X11047D01*
X11013Y06665D02*
X11047D01*
X110102Y06725D02*
X110442D01*
X110102Y06775D02*
X110442D01*
X110102Y068399D02*
X110442D01*
X110102Y068899D02*
X110442D01*
X110102Y0694D02*
X110442D01*
X110102Y0699D02*
X110442D01*
X1099Y04998D02*
Y05032D01*
X1094Y04998D02*
Y05032D01*
X1164Y04828D02*
Y04862D01*
X1169Y04828D02*
Y04862D01*
X112813Y059898D02*
X113153D01*
X112813Y060398D02*
X113153D01*
X11278Y05695D02*
X11312D01*
X11278Y05745D02*
X11312D01*
X11273Y05405D02*
X11307D01*
X11273Y05455D02*
X11307D01*
X112732Y05115D02*
X113072D01*
X112732Y05165D02*
X113072D01*
X11273Y0482D02*
X11307D01*
X11273Y0487D02*
X11307D01*
X11278Y0453D02*
X11312D01*
X11278Y0458D02*
X11312D01*
X11278Y04235D02*
X11312D01*
X11278Y04285D02*
X11312D01*
X11283Y0394D02*
X11317D01*
X11283Y0399D02*
X11317D01*
X11175Y05298D02*
Y05332D01*
X11125Y05298D02*
Y05332D01*
X10985Y05198D02*
Y05232D01*
X10935Y05198D02*
Y05232D01*
X11175Y05093D02*
Y05127D01*
X11125Y05093D02*
Y05127D01*
X11175Y04898D02*
Y04932D01*
X11125Y04898D02*
Y04932D01*
X1099Y04798D02*
Y04832D01*
X1094Y04798D02*
Y04832D01*
X11175Y04698D02*
Y04732D01*
X11125Y04698D02*
Y04732D01*
X1099Y04598D02*
Y04632D01*
X1094Y04598D02*
Y04632D01*
X11175Y04498D02*
Y04532D01*
X11125Y04498D02*
Y04532D01*
X116433Y060028D02*
Y060368D01*
X116933Y060028D02*
Y060368D01*
X1164Y03783D02*
Y03817D01*
X1169Y03783D02*
Y03817D01*
Y04003D02*
Y04037D01*
X1164Y04003D02*
Y04037D01*
X112283Y061628D02*
Y061968D01*
X111783Y061628D02*
Y061968D01*
X116933Y062328D02*
Y062668D01*
X116433Y062328D02*
Y062668D01*
X1169Y05063D02*
Y05097D01*
X1164Y05063D02*
Y05097D01*
X10355Y048055D02*
Y048395D01*
X10405Y048055D02*
Y048395D01*
X10075Y04813D02*
Y04847D01*
X10025Y04813D02*
Y04847D01*
X1022Y043755D02*
Y044095D01*
X1017Y043755D02*
Y044095D01*
X0922Y04283D02*
Y04317D01*
X0917Y04283D02*
Y04317D01*
X0891Y042805D02*
Y043145D01*
X0886Y042805D02*
Y043145D01*
X09025Y04743D02*
Y04777D01*
X09075Y04743D02*
Y04777D01*
X0934Y04783D02*
Y04817D01*
X0939Y04783D02*
Y04817D01*
X09873Y043599D02*
X09907D01*
X09873Y044099D02*
X09907D01*
X10478Y06235D02*
X10512D01*
X10478Y06285D02*
X10512D01*
X10378Y0644D02*
X10412D01*
X10378Y0639D02*
X10412D01*
X08948Y064925D02*
X08982D01*
X08948Y065425D02*
X08982D01*
X09779Y039953D02*
Y040293D01*
X09829Y039953D02*
Y040293D01*
X09753Y041073D02*
X09787D01*
X09753Y041573D02*
X09787D01*
X097015Y039953D02*
Y040293D01*
X097515Y039953D02*
Y040293D01*
X09624Y039953D02*
Y040293D01*
X09674Y039953D02*
Y040293D01*
X095465Y039953D02*
Y040293D01*
X095965Y039953D02*
Y040293D01*
X09473Y041123D02*
X09507D01*
X09473Y041623D02*
X09507D01*
X09469Y039953D02*
Y040293D01*
X09519Y039953D02*
Y040293D01*
X087805Y06745D02*
X088145D01*
X087805Y06695D02*
X088145D01*
X087805Y0667D02*
X088145D01*
X087805Y0662D02*
X088145D01*
X087805Y0659D02*
X088145D01*
X087805Y0654D02*
X088145D01*
X087805Y0651D02*
X088145D01*
X087805Y0646D02*
X088145D01*
X087805Y0643D02*
X088145D01*
X087805Y0638D02*
X088145D01*
X10533Y0647D02*
X10567D01*
X10533Y0652D02*
X10567D01*
X10533Y0655D02*
X10567D01*
X10533Y066D02*
X10567D01*
X10533Y0671D02*
X10567D01*
X10533Y0676D02*
X10567D01*
X10533Y0639D02*
X10567D01*
X10533Y0644D02*
X10567D01*
X10533Y0663D02*
X10567D01*
X10533Y0668D02*
X10567D01*
X09498Y06599D02*
X09532D01*
X09498Y06549D02*
X09532D01*
X094986Y0652D02*
X095326D01*
X094986Y0647D02*
X095326D01*
X096474Y066D02*
X096814D01*
X096474Y0655D02*
X096814D01*
X09648Y06519D02*
X09682D01*
X09648Y06469D02*
X09682D01*
X091636Y06605D02*
X091976D01*
X091636Y06555D02*
X091976D01*
X091636Y0652D02*
X091976D01*
X091636Y0647D02*
X091976D01*
X09313Y06605D02*
X09347D01*
X09313Y06555D02*
X09347D01*
X09313Y0652D02*
X09347D01*
X09313Y0647D02*
X09347D01*
D11*
X091889Y057789D02*
Y062711D01*
X096811Y057789D02*
Y062711D01*
X095669Y057789D02*
X096791D01*
X091889D02*
X093051D01*
X095649Y062711D02*
X096811D01*
X091889D02*
X093051D01*
X100654Y065528D02*
Y066847D01*
X098646Y065528D02*
Y066847D01*
Y065528D02*
X100654D01*
X098646Y066847D02*
X100654D01*
X102Y05852D02*
X10612D01*
X102D02*
Y06118D01*
X10678D01*
Y05852D02*
Y06118D01*
X10611Y05852D02*
X10678D01*
X102703Y043676D02*
X103097D01*
X102782Y043479D02*
X103018D01*
X102703Y04344D02*
X103097D01*
X102703D02*
X1029Y043637D01*
X102841Y043538D02*
X102959D01*
X1029Y043637D02*
X103097Y04344D01*
X1023Y043997D02*
Y044775D01*
X1034Y043997D02*
Y044775D01*
Y042225D02*
Y043053D01*
X1023Y042225D02*
Y043053D01*
X1024Y044875D02*
X1033D01*
X1034Y044775D01*
X1023D02*
X1024Y044875D01*
X1023Y042225D02*
X1034D01*
X102603Y047474D02*
X102997D01*
X102682Y047671D02*
X102918D01*
X102603Y04771D02*
X102997D01*
X1028Y047513D02*
X102997Y04771D01*
X102741Y047612D02*
X102859D01*
X102603Y04771D02*
X1028Y047513D01*
X1034Y046375D02*
Y047153D01*
X1023Y046375D02*
Y047153D01*
Y048097D02*
Y048925D01*
X1034Y048097D02*
Y048925D01*
X1024Y046275D02*
X1033D01*
X1023Y046375D02*
X1024Y046275D01*
X1033D02*
X1034Y046375D01*
X1023Y048925D02*
X1034D01*
X100703Y043524D02*
X101097D01*
X100782Y043721D02*
X101018D01*
X100703Y04376D02*
X101097D01*
X1009Y043563D02*
X101097Y04376D01*
X100841Y043662D02*
X100959D01*
X100703Y04376D02*
X1009Y043563D01*
X1015Y042425D02*
Y043203D01*
X1004Y042425D02*
Y043203D01*
Y044147D02*
Y044975D01*
X1015Y044147D02*
Y044975D01*
X1005Y042325D02*
X1014D01*
X1004Y042425D02*
X1005Y042325D01*
X1014D02*
X1015Y042425D01*
X1004Y044975D02*
X1015D01*
X101203Y047676D02*
X101597D01*
X101282Y047479D02*
X101518D01*
X101203Y04744D02*
X101597D01*
X101203D02*
X1014Y047637D01*
X101341Y047538D02*
X101459D01*
X1014Y047637D02*
X101597Y04744D01*
X1008Y047997D02*
Y048775D01*
X1019Y047997D02*
Y048775D01*
Y046225D02*
Y047053D01*
X1008Y046225D02*
Y047053D01*
X1009Y048875D02*
X1018D01*
X1019Y048775D01*
X1008D02*
X1009Y048875D01*
X1008Y046225D02*
X1019D01*
X090803Y042549D02*
X091197D01*
X090882Y042746D02*
X091118D01*
X090803Y042785D02*
X091197D01*
X091Y042588D02*
X091197Y042785D01*
X090941Y042687D02*
X091059D01*
X090803Y042785D02*
X091Y042588D01*
X0916Y04145D02*
Y042228D01*
X0905Y04145D02*
Y042228D01*
Y043172D02*
Y044D01*
X0916Y043172D02*
Y044D01*
X0906Y04135D02*
X0915D01*
X0905Y04145D02*
X0906Y04135D01*
X0915D02*
X0916Y04145D01*
X0905Y044D02*
X0916D01*
X092703Y042751D02*
X093097D01*
X092782Y042554D02*
X093018D01*
X092703Y042515D02*
X093097D01*
X092703D02*
X0929Y042712D01*
X092841Y042613D02*
X092959D01*
X0929Y042712D02*
X093097Y042515D01*
X0923Y043072D02*
Y04385D01*
X0934Y043072D02*
Y04385D01*
Y0413D02*
Y042128D01*
X0923Y0413D02*
Y042128D01*
X0924Y04395D02*
X0933D01*
X0934Y04385D01*
X0923D02*
X0924Y04395D01*
X0923Y0413D02*
X0934D01*
X091453Y048601D02*
X091847D01*
X091532Y048404D02*
X091768D01*
X091453Y048365D02*
X091847D01*
X091453D02*
X09165Y048562D01*
X091591Y048463D02*
X091709D01*
X09165Y048562D02*
X091847Y048365D01*
X09105Y048922D02*
Y0497D01*
X09215Y048922D02*
Y0497D01*
Y04715D02*
Y047978D01*
X09105Y04715D02*
Y047978D01*
X09115Y0498D02*
X09205D01*
X09215Y0497D01*
X09105D02*
X09115Y0498D01*
X09105Y04715D02*
X09215D01*
X092553Y048349D02*
X092947D01*
X092632Y048546D02*
X092868D01*
X092553Y048585D02*
X092947D01*
X09275Y048388D02*
X092947Y048585D01*
X092691Y048487D02*
X092809D01*
X092553Y048585D02*
X09275Y048388D01*
X09335Y04725D02*
Y048028D01*
X09225Y04725D02*
Y048028D01*
Y048972D02*
Y0498D01*
X09335Y048972D02*
Y0498D01*
X09235Y04715D02*
X09325D01*
X09225Y04725D02*
X09235Y04715D01*
X09325D02*
X09335Y04725D01*
X09225Y0498D02*
X09335D01*
D13*
X093031Y062908D02*
G03*
X093031Y062908I-000049J0D01*
G01*
X098575Y0673D02*
G03*
X098575Y0673I-000049J0D01*
G01*
X1001Y042825D02*
G03*
X1001Y042825I-000049J0D01*
G01*
X089198Y04845D02*
G03*
X089198Y04845I-000049J0D01*
G01*
X097298Y042473D02*
G03*
X097298Y042473I-000049J0D01*
G01*
X094974Y042515D02*
G03*
X094974Y042515I-000049J0D01*
G01*
X089699Y064526D02*
G03*
X089699Y064526I-000049J0D01*
G01*
X103991Y064799D02*
G03*
X103991Y064799I-000049J0D01*
G01*
X105998Y062D02*
G03*
X105998Y062I-000049J0D01*
G01*
X099248Y048225D02*
G03*
X099248Y048225I-000049J0D01*
G01*
X0902Y043D02*
G03*
X0902Y043I-000049J0D01*
G01*
D14*
X116433Y072797D02*
G03*
X119464Y069687I003071J-000039D01*
G01*
Y069687D02*
G03*
X122456Y072561I000059J002933D01*
G01*
X122456D02*
G03*
X119504Y075553I-002972J00002D01*
G01*
D02*
G03*
X116433Y072639I-000079J-002992D01*
G01*
X121472Y075553D02*
X122456D01*
X121433Y074844D02*
Y075513D01*
Y069687D02*
Y070395D01*
Y069687D02*
X122456Y069687D01*
X121472Y069687D02*
X122417D01*
X122378D02*
X122456Y069687D01*
Y075553D01*
X11691Y041224D02*
Y041823D01*
X11661D01*
X11651Y041723D01*
Y041523D01*
X11661Y041424D01*
X11691D01*
X11671D02*
X11651Y041224D01*
X11591Y041823D02*
X11611Y041723D01*
X11631Y041523D01*
Y041324D01*
X11621Y041224D01*
X11601D01*
X11591Y041324D01*
Y041424D01*
X11601Y041523D01*
X11631D01*
X115311Y041224D02*
X11571D01*
X115311Y041623D01*
Y041723D01*
X11541Y041823D01*
X11561D01*
X11571Y041723D01*
X112283Y062828D02*
Y063428D01*
X111983D01*
X111883Y063328D01*
Y063128D01*
X111983Y063028D01*
X112283D01*
X112083D02*
X111883Y062828D01*
X111283Y063428D02*
X111483Y063328D01*
X111683Y063128D01*
Y062928D01*
X111583Y062828D01*
X111383D01*
X111283Y062928D01*
Y063028D01*
X111383Y063128D01*
X111683D01*
X111083Y063328D02*
X110983Y063428D01*
X110783D01*
X110683Y063328D01*
Y062928D01*
X110783Y062828D01*
X110983D01*
X111083Y062928D01*
Y063328D01*
X116433Y060072D02*
Y060671D01*
X116133D01*
X116033Y060571D01*
Y060371D01*
X116133Y060271D01*
X116433D01*
X116233D02*
X116033Y060072D01*
X115433Y060671D02*
X115833D01*
Y060371D01*
X115633Y060471D01*
X115533D01*
X115433Y060371D01*
Y060172D01*
X115533Y060072D01*
X115733D01*
X115833Y060172D01*
X115233Y060571D02*
X115133Y060671D01*
X114933D01*
X114833Y060571D01*
Y060471D01*
X114933Y060371D01*
X114833Y060271D01*
Y060172D01*
X114933Y060072D01*
X115133D01*
X115233Y060172D01*
Y060271D01*
X115133Y060371D01*
X115233Y060471D01*
Y060571D01*
X115133Y060371D02*
X114933D01*
X1164Y05715D02*
Y05775D01*
X1161D01*
X116Y05765D01*
Y05745D01*
X1161Y05735D01*
X1164D01*
X1162D02*
X116Y05715D01*
X1154Y05775D02*
X1158D01*
Y05745D01*
X1156Y05755D01*
X1155D01*
X1154Y05745D01*
Y05725D01*
X1155Y05715D01*
X1157D01*
X1158Y05725D01*
X114801Y05775D02*
X115Y05765D01*
X1152Y05745D01*
Y05725D01*
X1151Y05715D01*
X1149D01*
X114801Y05725D01*
Y05735D01*
X1149Y05745D01*
X1152D01*
X11692Y03902D02*
Y03962D01*
X11662D01*
X11652Y03952D01*
Y03932D01*
X11662Y03922D01*
X11692D01*
X11672D02*
X11652Y03902D01*
X11592Y03962D02*
X11632D01*
Y03932D01*
X11612Y03942D01*
X11602D01*
X11592Y03932D01*
Y03912D01*
X11602Y03902D01*
X11622D01*
X11632Y03912D01*
X115321Y03962D02*
X11572D01*
Y03932D01*
X11552Y03942D01*
X11542D01*
X115321Y03932D01*
Y03912D01*
X11542Y03902D01*
X11562D01*
X11572Y03912D01*
X11635Y0543D02*
Y0549D01*
X11605D01*
X11595Y0548D01*
Y0546D01*
X11605Y0545D01*
X11635D01*
X11615D02*
X11595Y0543D01*
X11535Y0549D02*
X11575D01*
Y0546D01*
X11555Y0547D01*
X11545D01*
X11535Y0546D01*
Y0544D01*
X11545Y0543D01*
X11565D01*
X11575Y0544D01*
X11515Y0548D02*
X11505Y0549D01*
X114851D01*
X114751Y0548D01*
Y0547D01*
X114851Y0546D01*
X11495D01*
X114851D01*
X114751Y0545D01*
Y0544D01*
X114851Y0543D01*
X11505D01*
X11515Y0544D01*
X116452Y05135D02*
Y05195D01*
X116152D01*
X116052Y05185D01*
Y05165D01*
X116152Y05155D01*
X116452D01*
X116252D02*
X116052Y05135D01*
X115452Y05195D02*
X115852D01*
Y05165D01*
X115652Y05175D01*
X115552D01*
X115452Y05165D01*
Y05145D01*
X115552Y05135D01*
X115752D01*
X115852Y05145D01*
X115252Y05135D02*
X115052D01*
X115152D01*
Y05195D01*
X115252Y05185D01*
X11645Y0484D02*
Y049D01*
X11615D01*
X11605Y0489D01*
Y0487D01*
X11615Y0486D01*
X11645D01*
X11625D02*
X11605Y0484D01*
X11555D02*
Y049D01*
X11585Y0487D01*
X11545D01*
X11525Y0485D02*
X11515Y0484D01*
X114951D01*
X114851Y0485D01*
Y0489D01*
X114951Y049D01*
X11515D01*
X11525Y0489D01*
Y0488D01*
X11515Y0487D01*
X114851D01*
X11691Y05183D02*
Y05243D01*
X11661D01*
X11651Y05233D01*
Y05213D01*
X11661Y05203D01*
X11691D01*
X11671D02*
X11651Y05183D01*
X11601D02*
Y05243D01*
X11631Y05213D01*
X11591D01*
X11571Y05233D02*
X11561Y05243D01*
X11541D01*
X115311Y05233D01*
Y05223D01*
X11541Y05213D01*
X115311Y05203D01*
Y05193D01*
X11541Y05183D01*
X11561D01*
X11571Y05193D01*
Y05203D01*
X11561Y05213D01*
X11571Y05223D01*
Y05233D01*
X11561Y05213D02*
X11541D01*
X11692Y04947D02*
Y05007D01*
X11662D01*
X11652Y04997D01*
Y04977D01*
X11662Y04967D01*
X11692D01*
X11672D02*
X11652Y04947D01*
X11602D02*
Y05007D01*
X11632Y04977D01*
X11592D01*
X11572Y05007D02*
X115321D01*
Y04997D01*
X11572Y04957D01*
Y04947D01*
X116943Y063519D02*
Y064119D01*
X116643D01*
X116543Y064019D01*
Y063819D01*
X116643Y063719D01*
X116943D01*
X116743D02*
X116543Y063519D01*
X116043D02*
Y064119D01*
X116343Y063819D01*
X115943D01*
X115343Y064119D02*
X115543Y064019D01*
X115743Y063819D01*
Y063619D01*
X115643Y063519D01*
X115443D01*
X115343Y063619D01*
Y063719D01*
X115443Y063819D01*
X115743D01*
X1165Y04545D02*
Y04605D01*
X1162D01*
X1161Y04595D01*
Y04575D01*
X1162Y04565D01*
X1165D01*
X1163D02*
X1161Y04545D01*
X1156D02*
Y04605D01*
X1159Y04575D01*
X1155D01*
X115Y04545D02*
Y04605D01*
X1153Y04575D01*
X114901D01*
X11645Y042475D02*
Y043075D01*
X11615D01*
X11605Y042975D01*
Y042775D01*
X11615Y042675D01*
X11645D01*
X11625D02*
X11605Y042475D01*
X11555D02*
Y043075D01*
X11585Y042775D01*
X11545D01*
X114851Y042475D02*
X11525D01*
X114851Y042875D01*
Y042975D01*
X11495Y043075D01*
X11515D01*
X11525Y042975D01*
X1163Y039404D02*
Y040004D01*
X116D01*
X1159Y039904D01*
Y039704D01*
X116Y039604D01*
X1163D01*
X1161D02*
X1159Y039404D01*
X1154D02*
Y040004D01*
X1157Y039704D01*
X1153D01*
X1151Y039904D02*
X115Y040004D01*
X1148D01*
X114701Y039904D01*
Y039504D01*
X1148Y039404D01*
X115D01*
X1151Y039504D01*
Y039904D01*
X116943Y061228D02*
Y061828D01*
X116643D01*
X116543Y061728D01*
Y061528D01*
X116643Y061428D01*
X116943D01*
X116743D02*
X116543Y061228D01*
X116343Y061728D02*
X116243Y061828D01*
X116043D01*
X115943Y061728D01*
Y061628D01*
X116043Y061528D01*
X116143D01*
X116043D01*
X115943Y061428D01*
Y061328D01*
X116043Y061228D01*
X116243D01*
X116343Y061328D01*
X115743D02*
X115643Y061228D01*
X115443D01*
X115343Y061328D01*
Y061728D01*
X115443Y061828D01*
X115643D01*
X115743Y061728D01*
Y061628D01*
X115643Y061528D01*
X115343D01*
X10068Y068645D02*
X10048D01*
X10058D01*
Y068045D01*
X10068D01*
X10048D01*
X09978Y068545D02*
X09988Y068645D01*
X10008D01*
X10018Y068545D01*
Y068145D01*
X10008Y068045D01*
X09988D01*
X09978Y068145D01*
X09958Y068045D02*
X09938D01*
X09948D01*
Y068645D01*
X09958Y068545D01*
X09605Y06431D02*
X09615Y06441D01*
X09635D01*
X09645Y06431D01*
Y06391D01*
X09635Y06381D01*
X09615D01*
X09605Y06391D01*
X09585Y06421D02*
X09545Y06381D01*
X09565Y06401D01*
X09545Y06421D01*
X09585Y06381D01*
X09525Y06431D02*
X09515Y06441D01*
X09495D01*
X094851Y06431D01*
Y06421D01*
X09495Y06411D01*
X094851Y06401D01*
Y06391D01*
X09495Y06381D01*
X09515D01*
X09525Y06391D01*
Y06401D01*
X09515Y06411D01*
X09525Y06421D01*
Y06431D01*
X09515Y06411D02*
X09495D01*
X0956Y06705D02*
X0957Y06715D01*
X0959D01*
X096Y06705D01*
Y06665D01*
X0959Y06655D01*
X0957D01*
X0956Y06665D01*
X0954Y06695D02*
X095Y06655D01*
X0952Y06675D01*
X095Y06695D01*
X0954Y06655D01*
X0948Y06715D02*
X094401D01*
Y06705D01*
X0948Y06665D01*
Y06655D01*
X0921Y0637D02*
X0922Y0638D01*
X0924D01*
X0925Y0637D01*
Y0633D01*
X0924Y0632D01*
X0922D01*
X0921Y0633D01*
X0919Y0636D02*
X0915Y0632D01*
X0917Y0634D01*
X0915Y0636D01*
X0919Y0632D01*
X090901Y0638D02*
X0911Y0637D01*
X0913Y0635D01*
Y0633D01*
X0912Y0632D01*
X091D01*
X090901Y0633D01*
Y0634D01*
X091Y0635D01*
X0913D01*
X092Y067D02*
X0921Y0671D01*
X0923D01*
X0924Y067D01*
Y0666D01*
X0923Y0665D01*
X0921D01*
X092Y0666D01*
X0918Y0669D02*
X0914Y0665D01*
X0916Y0667D01*
X0914Y0669D01*
X0918Y0665D01*
X090801Y0671D02*
X0912D01*
Y0668D01*
X091Y0669D01*
X0909D01*
X090801Y0668D01*
Y0666D01*
X0909Y0665D01*
X0911D01*
X0912Y0666D01*
X097475Y067D02*
X097575Y0671D01*
X097775D01*
X097875Y067D01*
Y0666D01*
X097775Y0665D01*
X097575D01*
X097475Y0666D01*
X097275Y0669D02*
X096875Y0665D01*
X097075Y0667D01*
X096875Y0669D01*
X097275Y0665D01*
X096375D02*
Y0671D01*
X096675Y0668D01*
X096276D01*
X0979Y06425D02*
X098Y06435D01*
X0982D01*
X0983Y06425D01*
Y06385D01*
X0982Y06375D01*
X098D01*
X0979Y06385D01*
X0977Y06415D02*
X0973Y06375D01*
X0975Y06395D01*
X0973Y06415D01*
X0977Y06375D01*
X0971Y06425D02*
X097Y06435D01*
X0968D01*
X096701Y06425D01*
Y06415D01*
X0968Y06405D01*
X0969D01*
X0968D01*
X096701Y06395D01*
Y06385D01*
X0968Y06375D01*
X097D01*
X0971Y06385D01*
X094Y0637D02*
X0941Y0638D01*
X0943D01*
X0944Y0637D01*
Y0633D01*
X0943Y0632D01*
X0941D01*
X094Y0633D01*
X0938Y0636D02*
X0934Y0632D01*
X0936Y0634D01*
X0934Y0636D01*
X0938Y0632D01*
X092801D02*
X0932D01*
X092801Y0636D01*
Y0637D01*
X0929Y0638D01*
X0931D01*
X0932Y0637D01*
X0937Y06695D02*
X0938Y06705D01*
X094D01*
X0941Y06695D01*
Y06655D01*
X094Y06645D01*
X0938D01*
X0937Y06655D01*
X0935Y06685D02*
X0931Y06645D01*
X0933Y06665D01*
X0931Y06685D01*
X0935Y06645D01*
X0929D02*
X0927D01*
X0928D01*
Y06705D01*
X0929Y06695D01*
X0942Y04055D02*
X0936D01*
Y04025D01*
X0937Y04015D01*
X0939D01*
X094Y04025D01*
Y04055D01*
Y04035D02*
X0942Y04015D01*
X0937Y03995D02*
X0936Y03985D01*
Y03965D01*
X0937Y03955D01*
X0938D01*
X0939Y03965D01*
Y03975D01*
Y03965D01*
X094Y03955D01*
X0941D01*
X0942Y03965D01*
Y03985D01*
X0941Y03995D01*
X0936Y038951D02*
Y03935D01*
X0939D01*
X0938Y03915D01*
Y03905D01*
X0939Y038951D01*
X0941D01*
X0942Y03905D01*
Y03925D01*
X0941Y03935D01*
X098336Y039223D02*
X097736D01*
Y038923D01*
X097836Y038823D01*
X098036D01*
X098136Y038923D01*
Y039223D01*
Y039023D02*
X098336Y038823D01*
X097836Y038623D02*
X097736Y038523D01*
Y038324D01*
X097836Y038224D01*
X097936D01*
X098036Y038324D01*
Y038423D01*
Y038324D01*
X098136Y038224D01*
X098236D01*
X098336Y038324D01*
Y038523D01*
X098236Y038623D01*
X098336Y037724D02*
X097736D01*
X098036Y038024D01*
Y037624D01*
X096788Y039223D02*
X096188D01*
Y038923D01*
X096288Y038823D01*
X096488D01*
X096588Y038923D01*
Y039223D01*
Y039023D02*
X096788Y038823D01*
X096288Y038623D02*
X096188Y038523D01*
Y038324D01*
X096288Y038224D01*
X096388D01*
X096488Y038324D01*
Y038423D01*
Y038324D01*
X096588Y038224D01*
X096688D01*
X096788Y038324D01*
Y038523D01*
X096688Y038623D01*
X096288Y038024D02*
X096188Y037924D01*
Y037724D01*
X096288Y037624D01*
X096388D01*
X096488Y037724D01*
Y037824D01*
Y037724D01*
X096588Y037624D01*
X096688D01*
X096788Y037724D01*
Y037924D01*
X096688Y038024D01*
X096014Y039223D02*
X095414D01*
Y038923D01*
X095514Y038823D01*
X095714D01*
X095814Y038923D01*
Y039223D01*
Y039023D02*
X096014Y038823D01*
X095514Y038623D02*
X095414Y038523D01*
Y038324D01*
X095514Y038224D01*
X095614D01*
X095714Y038324D01*
Y038423D01*
Y038324D01*
X095814Y038224D01*
X095914D01*
X096014Y038324D01*
Y038523D01*
X095914Y038623D01*
X096014Y037624D02*
Y038024D01*
X095614Y037624D01*
X095514D01*
X095414Y037724D01*
Y037924D01*
X095514Y038024D01*
X0993Y0405D02*
X0987D01*
Y0402D01*
X0988Y0401D01*
X099D01*
X0991Y0402D01*
Y0405D01*
Y0403D02*
X0993Y0401D01*
X0988Y0399D02*
X0987Y0398D01*
Y0396D01*
X0988Y0395D01*
X0989D01*
X099Y0396D01*
Y0397D01*
Y0396D01*
X0991Y0395D01*
X0992D01*
X0993Y0396D01*
Y0398D01*
X0992Y0399D01*
X0993Y0393D02*
Y0391D01*
Y0392D01*
X0987D01*
X0988Y0393D01*
X09524Y039223D02*
X09464D01*
Y038923D01*
X09474Y038823D01*
X09494D01*
X09504Y038923D01*
Y039223D01*
Y039023D02*
X09524Y038823D01*
Y038224D02*
Y038623D01*
X09484Y038224D01*
X09474D01*
X09464Y038324D01*
Y038523D01*
X09474Y038623D01*
X09514Y038024D02*
X09524Y037924D01*
Y037724D01*
X09514Y037624D01*
X09474D01*
X09464Y037724D01*
Y037924D01*
X09474Y038024D01*
X09484D01*
X09494Y037924D01*
Y037624D01*
X097562Y039223D02*
X096962D01*
Y038923D01*
X097062Y038823D01*
X097262D01*
X097362Y038923D01*
Y039223D01*
Y039023D02*
X097562Y038823D01*
Y038224D02*
Y038623D01*
X097162Y038224D01*
X097062D01*
X096962Y038324D01*
Y038523D01*
X097062Y038623D01*
Y038024D02*
X096962Y037924D01*
Y037724D01*
X097062Y037624D01*
X097162D01*
X097262Y037724D01*
X097362Y037624D01*
X097462D01*
X097562Y037724D01*
Y037924D01*
X097462Y038024D01*
X097362D01*
X097262Y037924D01*
X097162Y038024D01*
X097062D01*
X097262Y037924D02*
Y037724D01*
X087125Y06375D02*
Y06435D01*
X086825D01*
X086725Y06425D01*
Y06405D01*
X086825Y06395D01*
X087125D01*
X086925D02*
X086725Y06375D01*
X086125D02*
X086525D01*
X086125Y06415D01*
Y06425D01*
X086225Y06435D01*
X086425D01*
X086525Y06425D01*
X085625Y06375D02*
Y06435D01*
X085925Y06405D01*
X085526D01*
X087125Y06535D02*
Y06595D01*
X086825D01*
X086725Y06585D01*
Y06565D01*
X086825Y06555D01*
X087125D01*
X086925D02*
X086725Y06535D01*
X086125D02*
X086525D01*
X086125Y06575D01*
Y06585D01*
X086225Y06595D01*
X086425D01*
X086525Y06585D01*
X085925D02*
X085825Y06595D01*
X085625D01*
X085526Y06585D01*
Y06575D01*
X085625Y06565D01*
X085725D01*
X085625D01*
X085526Y06555D01*
Y06545D01*
X085625Y06535D01*
X085825D01*
X085925Y06545D01*
X087125Y06455D02*
Y06515D01*
X086825D01*
X086725Y06505D01*
Y06485D01*
X086825Y06475D01*
X087125D01*
X086925D02*
X086725Y06455D01*
X086125D02*
X086525D01*
X086125Y06495D01*
Y06505D01*
X086225Y06515D01*
X086425D01*
X086525Y06505D01*
X085526Y06455D02*
X085925D01*
X085526Y06495D01*
Y06505D01*
X085625Y06515D01*
X085825D01*
X085925Y06505D01*
X087125Y06685D02*
Y06745D01*
X086825D01*
X086725Y06735D01*
Y06715D01*
X086825Y06705D01*
X087125D01*
X086925D02*
X086725Y06685D01*
X086125D02*
X086525D01*
X086125Y06725D01*
Y06735D01*
X086225Y06745D01*
X086425D01*
X086525Y06735D01*
X085925Y06685D02*
X085725D01*
X085825D01*
Y06745D01*
X085925Y06735D01*
X087125Y06615D02*
Y06675D01*
X086825D01*
X086725Y06665D01*
Y06645D01*
X086825Y06635D01*
X087125D01*
X086925D02*
X086725Y06615D01*
X086125D02*
X086525D01*
X086125Y06655D01*
Y06665D01*
X086225Y06675D01*
X086425D01*
X086525Y06665D01*
X085925D02*
X085825Y06675D01*
X085625D01*
X085526Y06665D01*
Y06625D01*
X085625Y06615D01*
X085825D01*
X085925Y06625D01*
Y06665D01*
X10635Y06765D02*
Y06705D01*
X10665D01*
X10675Y06715D01*
Y06735D01*
X10665Y06745D01*
X10635D01*
X10655D02*
X10675Y06765D01*
X10695D02*
X10715D01*
X10705D01*
Y06705D01*
X10695Y06715D01*
X10745Y06755D02*
X10755Y06765D01*
X10775D01*
X10785Y06755D01*
Y06715D01*
X10775Y06705D01*
X10755D01*
X10745Y06715D01*
Y06725D01*
X10755Y06735D01*
X10785D01*
X10635Y06605D02*
Y06545D01*
X10665D01*
X10675Y06555D01*
Y06575D01*
X10665Y06585D01*
X10635D01*
X10655D02*
X10675Y06605D01*
X10695D02*
X10715D01*
X10705D01*
Y06545D01*
X10695Y06555D01*
X10745D02*
X10755Y06545D01*
X10775D01*
X10785Y06555D01*
Y06565D01*
X10775Y06575D01*
X10785Y06585D01*
Y06595D01*
X10775Y06605D01*
X10755D01*
X10745Y06595D01*
Y06585D01*
X10755Y06575D01*
X10745Y06565D01*
Y06555D01*
X10755Y06575D02*
X10775D01*
X10635Y06525D02*
Y06465D01*
X10665D01*
X10675Y06475D01*
Y06495D01*
X10665Y06505D01*
X10635D01*
X10655D02*
X10675Y06525D01*
X10695D02*
X10715D01*
X10705D01*
Y06465D01*
X10695Y06475D01*
X10745Y06465D02*
X10785D01*
Y06475D01*
X10745Y06515D01*
Y06525D01*
X1064Y0644D02*
Y0638D01*
X1067D01*
X1068Y0639D01*
Y0641D01*
X1067Y0642D01*
X1064D01*
X1066D02*
X1068Y0644D01*
X107D02*
X1072D01*
X1071D01*
Y0638D01*
X107Y0639D01*
X1079Y0638D02*
X1077Y0639D01*
X1075Y0641D01*
Y0643D01*
X1076Y0644D01*
X1078D01*
X1079Y0643D01*
Y0642D01*
X1078Y0641D01*
X1075D01*
X10635Y06685D02*
Y06625D01*
X10665D01*
X10675Y06635D01*
Y06655D01*
X10665Y06665D01*
X10635D01*
X10655D02*
X10675Y06685D01*
X10695D02*
X10715D01*
X10705D01*
Y06625D01*
X10695Y06635D01*
X10785Y06625D02*
X10745D01*
Y06655D01*
X10765Y06645D01*
X10775D01*
X10785Y06655D01*
Y06675D01*
X10775Y06685D01*
X10755D01*
X10745Y06675D01*
X0966Y06545D02*
Y06485D01*
X0969D01*
X097Y06495D01*
Y06515D01*
X0969Y06525D01*
X0966D01*
X0968D02*
X097Y06545D01*
X0972D02*
X0974D01*
X0973D01*
Y06485D01*
X0972Y06495D01*
X0977Y06545D02*
X0979D01*
X0978D01*
Y06485D01*
X0977Y06495D01*
X10265Y0639D02*
Y0645D01*
X10235D01*
X10225Y0644D01*
Y0642D01*
X10235Y0641D01*
X10265D01*
X10245D02*
X10225Y0639D01*
X10205D02*
X10185D01*
X10195D01*
Y0645D01*
X10205Y0644D01*
X10155D02*
X10145Y0645D01*
X10125D01*
X10115Y0644D01*
Y064D01*
X10125Y0639D01*
X10145D01*
X10155Y064D01*
Y0644D01*
X095366Y043785D02*
Y044185D01*
X095466Y044285D01*
X095666D01*
X095766Y044185D01*
Y043785D01*
X095666Y043685D01*
X095466D01*
X095566Y043885D02*
X095366Y043685D01*
X095466D02*
X095366Y043785D01*
X095166Y043685D02*
X094966D01*
X095066D01*
Y044285D01*
X095166Y044185D01*
X094666D02*
X094566Y044285D01*
X094366D01*
X094266Y044185D01*
Y043785D01*
X094366Y043685D01*
X094566D01*
X094666Y043785D01*
Y044185D01*
X09745Y0439D02*
Y0443D01*
X09755Y0444D01*
X09775D01*
X09785Y0443D01*
Y0439D01*
X09775Y0438D01*
X09755D01*
X09765Y044D02*
X09745Y0438D01*
X09755D02*
X09745Y0439D01*
X09725D02*
X09715Y0438D01*
X09695D01*
X09685Y0439D01*
Y0443D01*
X09695Y0444D01*
X09715D01*
X09725Y0443D01*
Y0442D01*
X09715Y0441D01*
X09685D01*
X095625Y05702D02*
X095725Y05712D01*
X095925D01*
X096025Y05702D01*
Y05662D01*
X095925Y05652D01*
X095725D01*
X095625Y05662D01*
X095126Y05652D02*
Y05712D01*
X095425Y05682D01*
X095026D01*
X098Y06265D02*
Y06205D01*
X0976D01*
X0974D02*
X0972D01*
X0973D01*
Y06265D01*
X0974Y06255D01*
X0983Y05865D02*
X0984Y05855D01*
Y05835D01*
X0983Y05825D01*
X0982D01*
X0981Y05835D01*
Y05855D01*
X098Y05865D01*
X0979D01*
X0978Y05855D01*
Y05835D01*
X0979Y05825D01*
X0983Y05925D02*
X0984Y05915D01*
Y05895D01*
X0983Y05885D01*
X0982D01*
X0981Y05895D01*
Y05915D01*
X098Y05925D01*
X0979D01*
X0978Y05915D01*
Y05895D01*
X0979Y05885D01*
X0978Y05945D02*
Y05965D01*
Y05955D01*
X0984D01*
X0983Y05945D01*
X10455Y06315D02*
Y06375D01*
X10425D01*
X10415Y06365D01*
Y06345D01*
X10425Y06335D01*
X10455D01*
X10435D02*
X10415Y06315D01*
X10395Y06365D02*
X10385Y06375D01*
X10365D01*
X10355Y06365D01*
Y06355D01*
X10365Y06345D01*
X10375D01*
X10365D01*
X10355Y06335D01*
Y06325D01*
X10365Y06315D01*
X10385D01*
X10395Y06325D01*
X10335Y06375D02*
X102951D01*
Y06365D01*
X10335Y06325D01*
Y06315D01*
X10729Y06183D02*
X10769D01*
X10779Y06173D01*
Y06153D01*
X10769Y06143D01*
X10729D01*
X10719Y06153D01*
Y06173D01*
X10739Y06163D02*
X10719Y06183D01*
Y06173D02*
X10729Y06183D01*
X10719Y06203D02*
Y06223D01*
Y06213D01*
X10779D01*
X10769Y06203D01*
X10719Y06253D02*
Y06273D01*
Y06263D01*
X10779D01*
X10769Y06253D01*
X10672Y06152D02*
X10652D01*
X10662D01*
Y06212D01*
X10672Y06202D01*
X10622Y06212D02*
X10582D01*
Y06202D01*
X10622Y06162D01*
Y06152D01*
X0982Y0449D02*
Y0455D01*
X0979D01*
X0978Y0454D01*
Y0452D01*
X0979Y0451D01*
X0982D01*
X098D02*
X0978Y0449D01*
X0976D02*
X0974D01*
X0975D01*
Y0455D01*
X0976Y0454D01*
X0971D02*
X097Y0455D01*
X0968D01*
X0967Y0454D01*
Y0453D01*
X0968Y0452D01*
X0969D01*
X0968D01*
X0967Y0451D01*
Y045D01*
X0968Y0449D01*
X097D01*
X0971Y045D01*
X1006Y04685D02*
Y04745D01*
X1003D01*
X1002Y04735D01*
Y04715D01*
X1003Y04705D01*
X1006D01*
X1004D02*
X1002Y04685D01*
X1D02*
X0998D01*
X0999D01*
Y04745D01*
X1Y04735D01*
X0991Y04685D02*
X0995D01*
X0991Y04725D01*
Y04735D01*
X0992Y04745D01*
X0994D01*
X0995Y04735D01*
X10163Y04515D02*
X10223D01*
Y04545D01*
X10213Y04555D01*
X10193D01*
X10183Y04545D01*
Y04515D01*
Y04535D02*
X10163Y04555D01*
X10223Y04575D02*
Y04615D01*
X10213D01*
X10173Y04575D01*
X10163D01*
X10505Y04875D02*
X10445D01*
Y04845D01*
X10455Y04835D01*
X10475D01*
X10485Y04845D01*
Y04875D01*
Y04855D02*
X10505Y04835D01*
X10445Y04775D02*
X10455Y04795D01*
X10475Y04815D01*
X10495D01*
X10505Y04805D01*
Y04785D01*
X10495Y04775D01*
X10485D01*
X10475Y04785D01*
Y04815D01*
X09964Y04949D02*
Y04989D01*
X09974Y04999D01*
X09994D01*
X10004Y04989D01*
Y04949D01*
X09994Y04939D01*
X09974D01*
X09984Y04959D02*
X09964Y04939D01*
X09974D02*
X09964Y04949D01*
X09944Y04989D02*
X09934Y04999D01*
X09914D01*
X09904Y04989D01*
Y04979D01*
X09914Y04969D01*
X09904Y04959D01*
Y04949D01*
X09914Y04939D01*
X09934D01*
X09944Y04949D01*
Y04959D01*
X09934Y04969D01*
X09944Y04979D01*
Y04989D01*
X09934Y04969D02*
X09914D01*
X0998Y04445D02*
Y04485D01*
X0999Y04495D01*
X1001D01*
X1002Y04485D01*
Y04445D01*
X1001Y04435D01*
X0999D01*
X1Y04455D02*
X0998Y04435D01*
X0999D02*
X0998Y04445D01*
X0996Y04495D02*
X0992D01*
Y04485D01*
X0996Y04445D01*
Y04435D01*
X100025Y0457D02*
X099825D01*
X099925D01*
Y0463D01*
X100025Y0462D01*
X099125Y0463D02*
X099325Y0462D01*
X099525Y046D01*
Y0458D01*
X099425Y0457D01*
X099225D01*
X099125Y0458D01*
Y0459D01*
X099225Y046D01*
X099525D01*
X1032Y045875D02*
X1034D01*
X1033D01*
Y045275D01*
X1032Y045375D01*
X1041Y045275D02*
X1037D01*
Y045575D01*
X1039Y045475D01*
X104D01*
X1041Y045575D01*
Y045775D01*
X104Y045875D01*
X1038D01*
X1037Y045775D01*
X10236Y041885D02*
X10256D01*
X10246D01*
Y041285D01*
X10236Y041385D01*
X10326Y041885D02*
X10286D01*
X10326Y041485D01*
Y041385D01*
X10316Y041285D01*
X10296D01*
X10286Y041385D01*
X10334Y049265D02*
X10314D01*
X10324D01*
Y049865D01*
X10334Y049765D01*
X10284Y049265D02*
X10264D01*
X10274D01*
Y049865D01*
X10284Y049765D01*
X08815Y04345D02*
X08755D01*
Y04315D01*
X08765Y04305D01*
X08785D01*
X08795Y04315D01*
Y04345D01*
Y04325D02*
X08815Y04305D01*
X08755Y04245D02*
Y04285D01*
X08785D01*
X08775Y04265D01*
Y04255D01*
X08785Y04245D01*
X08805D01*
X08815Y04255D01*
Y04275D01*
X08805Y04285D01*
X0902Y04865D02*
X0908D01*
Y04895D01*
X0907Y04905D01*
X0905D01*
X0904Y04895D01*
Y04865D01*
Y04885D02*
X0902Y04905D01*
Y04955D02*
X0908D01*
X0905Y04925D01*
Y04965D01*
X09245Y0444D02*
Y045D01*
X09215D01*
X09205Y0449D01*
Y0447D01*
X09215Y0446D01*
X09245D01*
X09225D02*
X09205Y0444D01*
X09145D02*
X09185D01*
X09145Y0448D01*
Y0449D01*
X09155Y045D01*
X09175D01*
X09185Y0449D01*
X0951Y04905D02*
Y04965D01*
X0948D01*
X0947Y04955D01*
Y04935D01*
X0948Y04925D01*
X0951D01*
X0949D02*
X0947Y04905D01*
X0945D02*
X0943D01*
X0944D01*
Y04965D01*
X0945Y04955D01*
X089886Y04407D02*
Y04447D01*
X089986Y04457D01*
X090186D01*
X090286Y04447D01*
Y04407D01*
X090186Y04397D01*
X089986D01*
X090086Y04417D02*
X089886Y04397D01*
X089986D02*
X089886Y04407D01*
X089686Y04397D02*
X089486D01*
X089586D01*
Y04457D01*
X089686Y04447D01*
X08955Y0469D02*
Y0473D01*
X08965Y0474D01*
X08985D01*
X08995Y0473D01*
Y0469D01*
X08985Y0468D01*
X08965D01*
X08975Y047D02*
X08955Y0468D01*
X08965D02*
X08955Y0469D01*
X08895Y0468D02*
X08935D01*
X08895Y0472D01*
Y0473D01*
X08905Y0474D01*
X08925D01*
X08935Y0473D01*
X0913Y04085D02*
X0912Y04095D01*
X091D01*
X0909Y04085D01*
Y04075D01*
X091Y04065D01*
X0909Y04055D01*
Y04045D01*
X091Y04035D01*
X0912D01*
X0913Y04045D01*
Y04055D01*
X0912Y04065D01*
X0913Y04075D01*
Y04085D01*
X0912Y04065D02*
X091D01*
X093Y0514D02*
X0926D01*
Y0513D01*
X093Y0509D01*
Y0508D01*
X09384Y04329D02*
Y04389D01*
X09414Y04359D01*
X09374D01*
X09145Y0462D02*
X09155Y0461D01*
X09175D01*
X09185Y0462D01*
Y0463D01*
X09175Y0464D01*
X09165D01*
X09175D01*
X09185Y0465D01*
Y0466D01*
X09175Y0467D01*
X09155D01*
X09145Y0466D01*
D15*
X12065Y068839D02*
X12205D01*
Y068169D02*
Y068839D01*
X12065Y068169D02*
X12205D01*
X12065D02*
Y068839D01*
X122105Y066691D02*
Y068091D01*
X122775D01*
Y066691D02*
Y068091D01*
X122105Y066691D02*
X122775D01*
X122105Y065088D02*
Y066488D01*
X122775D01*
Y065088D02*
Y066488D01*
X122105Y065088D02*
X122775D01*
X119955Y066691D02*
Y068091D01*
X120625D01*
Y066691D02*
Y068091D01*
X119955Y066691D02*
X120625D01*
X119955Y065088D02*
Y066488D01*
X120625D01*
Y065088D02*
Y066488D01*
X119955Y065088D02*
X120625D01*
X118549Y06816D02*
X119949D01*
X118549D02*
Y06883D01*
X119949D01*
Y06816D02*
Y06883D01*
X117855Y06671D02*
Y06811D01*
X118525D01*
Y06671D02*
Y06811D01*
X117855Y06671D02*
X118525D01*
X117855Y065088D02*
Y066488D01*
X118525D01*
Y065088D02*
Y066488D01*
X117855Y065088D02*
X118525D01*
X116014Y070079D02*
X117226Y069379D01*
X116891Y068799D02*
X117226Y069379D01*
X115679Y069499D02*
X116891Y068799D01*
X115679Y069499D02*
X116014Y070079D01*
X114421Y068805D02*
X115633Y069505D01*
X114086Y069385D02*
X114421Y068805D01*
X114086Y069385D02*
X115298Y070085D01*
X115633Y069505D01*
X11495Y066997D02*
X11635D01*
Y066327D02*
Y066997D01*
X11495Y066327D02*
X11635D01*
X11495D02*
Y066997D01*
X116405Y065078D02*
Y066478D01*
X117075D01*
Y065078D02*
Y066478D01*
X116405Y065078D02*
X117075D01*
X116405Y066715D02*
Y068115D01*
X117075D01*
Y066715D02*
Y068115D01*
X116405Y066715D02*
X117075D01*
X114933Y06894D02*
X116333D01*
Y06827D02*
Y06894D01*
X114933Y06827D02*
X116333D01*
X114933D02*
Y06894D01*
X114167Y066715D02*
Y068115D01*
X114837D01*
Y066715D02*
Y068115D01*
X114167Y066715D02*
X114837D01*
X11416Y065078D02*
Y066478D01*
X11483D01*
Y065078D02*
Y066478D01*
X11416Y065078D02*
X11483D01*
X11261D02*
Y066478D01*
X11328D01*
Y065078D02*
Y066478D01*
X11261Y065078D02*
X11328D01*
X1096Y07089D02*
X111D01*
Y07022D02*
Y07089D01*
X1096Y07022D02*
X111D01*
X1096D02*
Y07089D01*
X11146Y065078D02*
Y066478D01*
X11213D01*
Y065078D02*
Y066478D01*
X11146Y065078D02*
X11213D01*
X109621Y06569D02*
X111021D01*
Y06502D02*
Y06569D01*
X109621Y06502D02*
X111021D01*
X109621D02*
Y06569D01*
X1096Y06674D02*
X111D01*
Y06607D02*
Y06674D01*
X1096Y06607D02*
X111D01*
X1096D02*
Y06674D01*
X109572Y06784D02*
X110972D01*
Y06717D02*
Y06784D01*
X109572Y06717D02*
X110972D01*
X109572D02*
Y06784D01*
Y068989D02*
X110972D01*
Y068319D02*
Y068989D01*
X109572Y068319D02*
X110972D01*
X109572D02*
Y068989D01*
Y06999D02*
X110972D01*
Y06932D02*
Y06999D01*
X109572Y06932D02*
X110972D01*
X109572D02*
Y06999D01*
X10931Y04945D02*
Y05085D01*
X10998D01*
Y04945D02*
Y05085D01*
X10931Y04945D02*
X10998D01*
X11699Y04775D02*
Y04915D01*
X11632Y04775D02*
X11699D01*
X11632D02*
Y04915D01*
X11699D01*
X112283Y060488D02*
X113683D01*
Y059818D02*
Y060488D01*
X112283Y059818D02*
X113683D01*
X112283D02*
Y060488D01*
X11225Y05754D02*
X11365D01*
Y05687D02*
Y05754D01*
X11225Y05687D02*
X11365D01*
X11225D02*
Y05754D01*
X1122Y05464D02*
X1136D01*
Y05397D02*
Y05464D01*
X1122Y05397D02*
X1136D01*
X1122D02*
Y05464D01*
X112202Y05174D02*
X113602D01*
Y05107D02*
Y05174D01*
X112202Y05107D02*
X113602D01*
X112202D02*
Y05174D01*
X1122Y04879D02*
X1136D01*
Y04812D02*
Y04879D01*
X1122Y04812D02*
X1136D01*
X1122D02*
Y04879D01*
X11225Y04589D02*
X11365D01*
Y04522D02*
Y04589D01*
X11225Y04522D02*
X11365D01*
X11225D02*
Y04589D01*
Y04294D02*
X11365D01*
Y04227D02*
Y04294D01*
X11225Y04227D02*
X11365D01*
X11225D02*
Y04294D01*
X1123Y03999D02*
X1137D01*
Y03932D02*
Y03999D01*
X1123Y03932D02*
X1137D01*
X1123D02*
Y03999D01*
X11116Y05245D02*
Y05385D01*
X11183D01*
Y05245D02*
Y05385D01*
X11116Y05245D02*
X11183D01*
X10926Y05145D02*
Y05285D01*
X10993D01*
Y05145D02*
Y05285D01*
X10926Y05145D02*
X10993D01*
X11116Y0504D02*
Y0518D01*
X11183D01*
Y0504D02*
Y0518D01*
X11116Y0504D02*
X11183D01*
X11116Y04845D02*
Y04985D01*
X11183D01*
Y04845D02*
Y04985D01*
X11116Y04845D02*
X11183D01*
X10931Y04745D02*
Y04885D01*
X10998D01*
Y04745D02*
Y04885D01*
X10931Y04745D02*
X10998D01*
X11116Y04645D02*
Y04785D01*
X11183D01*
Y04645D02*
Y04785D01*
X11116Y04645D02*
X11183D01*
X10931Y04545D02*
Y04685D01*
X10998D01*
Y04545D02*
Y04685D01*
X10931Y04545D02*
X10998D01*
X11116Y04445D02*
Y04585D01*
X11183D01*
Y04445D02*
Y04585D01*
X11116Y04445D02*
X11183D01*
X117023Y059498D02*
Y060898D01*
X116353Y059498D02*
X117023D01*
X116353D02*
Y060898D01*
X117023D01*
X11699Y0373D02*
Y0387D01*
X11632Y0373D02*
X11699D01*
X11632D02*
Y0387D01*
X11699D01*
X11631Y0395D02*
Y0409D01*
X11698D01*
Y0395D02*
Y0409D01*
X11631Y0395D02*
X11698D01*
X111693Y061098D02*
Y062498D01*
X112363D01*
Y061098D02*
Y062498D01*
X111693Y061098D02*
X112363D01*
X116343Y061798D02*
Y063198D01*
X117013D01*
Y061798D02*
Y063198D01*
X116343Y061798D02*
X117013D01*
X11631Y0501D02*
Y0515D01*
X11698D01*
Y0501D02*
Y0515D01*
X11631Y0501D02*
X11698D01*
X10346Y047525D02*
X10413D01*
Y048925D01*
X10346D02*
X10413D01*
X10346Y047525D02*
Y048925D01*
X10017Y049D02*
X10084D01*
X10017Y0476D02*
Y049D01*
Y0476D02*
X10084D01*
Y049D01*
X10162Y044625D02*
X10229D01*
X10162Y043225D02*
Y044625D01*
Y043225D02*
X10229D01*
Y044625D01*
X09162Y0437D02*
X09229D01*
X09162Y0423D02*
Y0437D01*
Y0423D02*
X09229D01*
Y0437D01*
X08852Y043675D02*
X08919D01*
X08852Y042275D02*
Y043675D01*
Y042275D02*
X08919D01*
Y043675D01*
X09016Y0469D02*
X09083D01*
Y0483D01*
X09016D02*
X09083D01*
X09016Y0469D02*
Y0483D01*
X09331Y0473D02*
X09398D01*
Y0487D01*
X09331D02*
X09398D01*
X09331Y0473D02*
Y0487D01*
X0996Y043509D02*
Y044179D01*
X0982D02*
X0996D01*
X0982Y043509D02*
Y044179D01*
Y043509D02*
X0996D01*
X10565Y06226D02*
Y06293D01*
X10425D02*
X10565D01*
X10425Y06226D02*
Y06293D01*
Y06226D02*
X10565D01*
X10325Y06381D02*
X10465D01*
X10325D02*
Y06448D01*
X10465D01*
Y06381D02*
Y06448D01*
X08895Y065515D02*
X09035D01*
Y064845D02*
Y065515D01*
X08895Y064845D02*
X09035D01*
X08895D02*
Y065515D01*
X09838Y039423D02*
Y040823D01*
X09771Y039423D02*
X09838D01*
X09771D02*
Y040823D01*
X09838D01*
X097Y041663D02*
X0984D01*
Y040993D02*
Y041663D01*
X097Y040993D02*
X0984D01*
X097D02*
Y041663D01*
X097605Y039423D02*
Y040823D01*
X096935Y039423D02*
X097605D01*
X096935D02*
Y040823D01*
X097605D01*
X09683Y039423D02*
Y040823D01*
X09616Y039423D02*
X09683D01*
X09616D02*
Y040823D01*
X09683D01*
X096055Y039423D02*
Y040823D01*
X095385Y039423D02*
X096055D01*
X095385D02*
Y040823D01*
X096055D01*
X0942Y041713D02*
X0956D01*
Y041043D02*
Y041713D01*
X0942Y041043D02*
X0956D01*
X0942D02*
Y041713D01*
X09528Y039423D02*
Y040823D01*
X09461Y039423D02*
X09528D01*
X09461D02*
Y040823D01*
X09528D01*
X087275Y06686D02*
X088675D01*
X087275D02*
Y06753D01*
X088675D01*
Y06686D02*
Y06753D01*
X087275Y06611D02*
X088675D01*
X087275D02*
Y06678D01*
X088675D01*
Y06611D02*
Y06678D01*
X087275Y06531D02*
X088675D01*
X087275D02*
Y06598D01*
X088675D01*
Y06531D02*
Y06598D01*
X087275Y06451D02*
X088675D01*
X087275D02*
Y06518D01*
X088675D01*
Y06451D02*
Y06518D01*
X087275Y06371D02*
X088675D01*
X087275D02*
Y06438D01*
X088675D01*
Y06371D02*
Y06438D01*
X1048Y06529D02*
X1062D01*
Y06462D02*
Y06529D01*
X1048Y06462D02*
X1062D01*
X1048D02*
Y06529D01*
Y06609D02*
X1062D01*
Y06542D02*
Y06609D01*
X1048Y06542D02*
X1062D01*
X1048D02*
Y06609D01*
Y06769D02*
X1062D01*
Y06702D02*
Y06769D01*
X1048Y06702D02*
X1062D01*
X1048D02*
Y06769D01*
Y06449D02*
X1062D01*
Y06382D02*
Y06449D01*
X1048Y06382D02*
X1062D01*
X1048D02*
Y06449D01*
X1048Y06689D02*
X1062D01*
Y06622D02*
Y06689D01*
X1048Y06622D02*
X1062D01*
X1048D02*
Y06689D01*
X09445Y06541D02*
Y06608D01*
Y06541D02*
X09585D01*
Y06608D01*
X09445D02*
X09585D01*
X094456Y06462D02*
Y06529D01*
Y06462D02*
X095856D01*
Y06529D01*
X094456D02*
X095856D01*
X095944Y06542D02*
Y06609D01*
Y06542D02*
X097344D01*
Y06609D01*
X095944D02*
X097344D01*
X09595Y06461D02*
Y06528D01*
Y06461D02*
X09735D01*
Y06528D01*
X09595D02*
X09735D01*
X091106Y06547D02*
Y06614D01*
Y06547D02*
X092506D01*
Y06614D01*
X091106D02*
X092506D01*
X091106Y06462D02*
Y06529D01*
Y06462D02*
X092506D01*
Y06529D01*
X091106D02*
X092506D01*
X0926Y06547D02*
Y06614D01*
Y06547D02*
X094D01*
Y06614D01*
X0926D02*
X094D01*
X0926Y06462D02*
Y06529D01*
Y06462D02*
X094D01*
Y06529D01*
X0926D02*
X094D01*
X092948Y054211D02*
X093559Y053601D01*
X092948Y055589D02*
X093559Y056199D01*
X095547D01*
X093559Y053601D02*
X095547D01*
Y055294D02*
Y056199D01*
Y053601D02*
Y054506D01*
X092948Y054211D02*
Y054506D01*
Y055294D02*
Y055589D01*
X0991Y05795D02*
X09935D01*
Y06075D01*
X0991D02*
X09935D01*
X09695D02*
X0972D01*
X09695Y05795D02*
Y06075D01*
Y05795D02*
X0972D01*
X09695Y0587D02*
X09935D01*
D119*
X092401Y062337D02*
G03*
X092401Y062337I-000118J0D01*
G01*
X099158Y066454D02*
G03*
X099158Y066454I-000118J0D01*
G01*
M02*
