G04*
G04 #@! TF.GenerationSoftware,Altium Limited,Altium Designer,18.1.6 (161)*
G04*
G04 Layer_Color=128*
%FSTAX24Y24*%
%MOIN*%
G70*
G01*
G75*
%ADD123C,0.0020*%
D123*
X1172Y051248D02*
X1176D01*
X1174Y051048D02*
Y051448D01*
X1172Y050248D02*
X1176D01*
X1174Y050048D02*
Y050448D01*
X117213Y048009D02*
X117613D01*
X117413Y047809D02*
Y048209D01*
X117213Y049009D02*
X117613D01*
X117413Y048809D02*
Y049209D01*
X113003Y044689D02*
X113397D01*
X1132Y044492D02*
Y044886D01*
X113003Y043689D02*
X113397D01*
X1132Y043492D02*
Y043886D01*
X115169Y044689D02*
X115562D01*
X115365Y044492D02*
Y044886D01*
X115169Y043689D02*
X115562D01*
X115365Y043492D02*
Y043886D01*
X112255Y043224D02*
X112649D01*
X112452Y043028D02*
Y043421D01*
X113791Y043441D02*
X114775D01*
X114283Y042949D02*
Y043933D01*
X113791Y044937D02*
X114775D01*
X114283Y044445D02*
Y045429D01*
X11038Y0546D02*
X11072D01*
X11055Y05443D02*
Y05477D01*
X11038Y0526D02*
X11072D01*
X11055Y05243D02*
Y05277D01*
X11038Y0506D02*
X11072D01*
X11055Y05043D02*
Y05077D01*
X11038Y0486D02*
X11072D01*
X11055Y04843D02*
Y04877D01*
X11038Y0466D02*
X11072D01*
X11055Y04643D02*
Y04677D01*
X11038Y0456D02*
X11072D01*
X11055Y04543D02*
Y04577D01*
X11038Y0446D02*
X11072D01*
X11055Y04443D02*
Y04477D01*
X11038Y0436D02*
X11072D01*
X11055Y04343D02*
Y04377D01*
X11038Y0476D02*
X11072D01*
X11055Y04743D02*
Y04777D01*
X11038Y0496D02*
X11072D01*
X11055Y04943D02*
Y04977D01*
X11038Y0516D02*
X11072D01*
X11055Y05143D02*
Y05177D01*
X11038Y0536D02*
X11072D01*
X11055Y05343D02*
Y05377D01*
X113003Y04177D02*
X113397D01*
X1132Y041574D02*
Y041967D01*
X113003Y04077D02*
X113397D01*
X1132Y040574D02*
Y040967D01*
X115169Y04177D02*
X115562D01*
X115365Y041574D02*
Y041967D01*
X115169Y04077D02*
X115562D01*
X115365Y040574D02*
Y040967D01*
X112255Y040306D02*
X112649D01*
X112452Y040109D02*
Y040503D01*
X113791Y040522D02*
X114775D01*
X114283Y04003D02*
Y041015D01*
X113791Y042018D02*
X114775D01*
X114283Y041526D02*
Y042511D01*
X113003Y038852D02*
X113397D01*
X1132Y038655D02*
Y039049D01*
X113003Y037852D02*
X113397D01*
X1132Y037655D02*
Y038049D01*
X115169Y038852D02*
X115562D01*
X115365Y038655D02*
Y039049D01*
X115169Y037852D02*
X115562D01*
X115365Y037655D02*
Y038049D01*
X112255Y037387D02*
X112649D01*
X112452Y037191D02*
Y037584D01*
X113791Y037604D02*
X114775D01*
X114283Y037112D02*
Y038096D01*
X113791Y0391D02*
X114775D01*
X114283Y038608D02*
Y039592D01*
X117245Y059748D02*
X117645D01*
X117445Y059548D02*
Y059948D01*
X117245Y060748D02*
X117645D01*
X117445Y060548D02*
Y060948D01*
X117233Y062898D02*
X117633D01*
X117433Y062698D02*
Y063098D01*
X117233Y061898D02*
X117633D01*
X117433Y061698D02*
Y062098D01*
X113003Y053444D02*
X113397D01*
X1132Y053248D02*
Y053641D01*
X113003Y052444D02*
X113397D01*
X1132Y052248D02*
Y052641D01*
X115169Y053444D02*
X115562D01*
X115365Y053248D02*
Y053641D01*
X115169Y052444D02*
X115562D01*
X115365Y052248D02*
Y052641D01*
X112255Y05198D02*
X112649D01*
X112452Y051783D02*
Y052177D01*
X113791Y052196D02*
X114775D01*
X114283Y051704D02*
Y052689D01*
X113791Y053693D02*
X114775D01*
X114283Y0532D02*
Y054185D01*
X113003Y050526D02*
X113397D01*
X1132Y050329D02*
Y050723D01*
X113003Y049526D02*
X113397D01*
X1132Y049329D02*
Y049723D01*
X115169Y050526D02*
X115562D01*
X115365Y050329D02*
Y050723D01*
X115169Y049526D02*
X115562D01*
X115365Y049329D02*
Y049723D01*
X112255Y049061D02*
X112649D01*
X112452Y048865D02*
Y049258D01*
X113791Y049278D02*
X114775D01*
X114283Y048786D02*
Y04977D01*
X113791Y050774D02*
X114775D01*
X114283Y050282D02*
Y051266D01*
X113003Y047607D02*
X113397D01*
X1132Y047411D02*
Y047804D01*
X113003Y046607D02*
X113397D01*
X1132Y046411D02*
Y046804D01*
X115169Y047607D02*
X115562D01*
X115365Y047411D02*
Y047804D01*
X115169Y046607D02*
X115562D01*
X115365Y046411D02*
Y046804D01*
X112255Y046143D02*
X112649D01*
X112452Y045946D02*
Y04634D01*
X113791Y046359D02*
X114775D01*
X114283Y045867D02*
Y046852D01*
X113791Y047856D02*
X114775D01*
X114283Y047363D02*
Y048348D01*
X113053Y0622D02*
X113447D01*
X11325Y062003D02*
Y062397D01*
X113053Y0612D02*
X113447D01*
X11325Y061003D02*
Y061397D01*
X115219Y0622D02*
X115612D01*
X115415Y062003D02*
Y062397D01*
X115219Y0612D02*
X115612D01*
X115415Y061003D02*
Y061397D01*
X112305Y060735D02*
X112699D01*
X112502Y060539D02*
Y060932D01*
X113841Y060952D02*
X114825D01*
X114333Y06046D02*
Y061444D01*
X113841Y062448D02*
X114825D01*
X114333Y061956D02*
Y06294D01*
X113053Y059281D02*
X113447D01*
X11325Y059085D02*
Y059478D01*
X113053Y058281D02*
X113447D01*
X11325Y058085D02*
Y058478D01*
X115219Y059281D02*
X115612D01*
X115415Y059085D02*
Y059478D01*
X115219Y058281D02*
X115612D01*
X115415Y058085D02*
Y058478D01*
X112305Y057817D02*
X112699D01*
X112502Y05762D02*
Y058014D01*
X113841Y058033D02*
X114825D01*
X114333Y057541D02*
Y058526D01*
X113841Y05953D02*
X114825D01*
X114333Y059037D02*
Y060022D01*
X113003Y056363D02*
X113397D01*
X1132Y056166D02*
Y05656D01*
X113003Y055363D02*
X113397D01*
X1132Y055166D02*
Y05556D01*
X115169Y056363D02*
X115562D01*
X115365Y056166D02*
Y05656D01*
X115169Y055363D02*
X115562D01*
X115365Y055166D02*
Y05556D01*
X112255Y054898D02*
X112649D01*
X112452Y054702D02*
Y055095D01*
X113791Y055115D02*
X114775D01*
X114283Y054623D02*
Y055607D01*
X113791Y056611D02*
X114775D01*
X114283Y056119D02*
Y057103D01*
X1172Y03755D02*
X1176D01*
X1174Y03735D02*
Y03775D01*
X1172Y03855D02*
X1176D01*
X1174Y03835D02*
Y03875D01*
X1172Y04065D02*
X1176D01*
X1174Y04045D02*
Y04085D01*
X1172Y03965D02*
X1176D01*
X1174Y03945D02*
Y03985D01*
X1013Y05465D02*
X1018D01*
X10155Y0544D02*
Y0549D01*
X1038Y05465D02*
X1043D01*
X10405Y0544D02*
Y0549D01*
X1023Y05665D02*
X1028D01*
X10255Y0564D02*
Y0569D01*
X099644Y0619D02*
X100156D01*
X0999Y061644D02*
Y062156D01*
X099644Y05365D02*
X100156D01*
X0999Y053394D02*
Y053906D01*
X10185Y06365D02*
X10215D01*
X102Y0635D02*
Y0638D01*
X10085Y06365D02*
X10115D01*
X101Y0635D02*
Y0638D01*
X09985Y06365D02*
X10015D01*
X1Y0635D02*
Y0638D01*
X092699Y0693D02*
X093053D01*
X092876Y069123D02*
Y069477D01*
X091699Y0693D02*
X092053D01*
X091876Y069123D02*
Y069477D01*
X090699Y0693D02*
X091053D01*
X090876Y069123D02*
Y069477D01*
X089699Y0693D02*
X090053D01*
X089876Y069123D02*
Y069477D01*
X088699Y0693D02*
X089053D01*
X088876Y069123D02*
Y069477D01*
X087699Y0693D02*
X088053D01*
X087876Y069123D02*
Y069477D01*
X093705Y0693D02*
X094045D01*
X093875Y06913D02*
Y06947D01*
X095705Y0693D02*
X096045D01*
X095875Y06913D02*
Y06947D01*
X097705Y0693D02*
X098045D01*
X097875Y06913D02*
Y06947D01*
X099705Y0693D02*
X100045D01*
X099875Y06913D02*
Y06947D01*
X101705Y0693D02*
X102045D01*
X101875Y06913D02*
Y06947D01*
X102705Y0693D02*
X103045D01*
X102875Y06913D02*
Y06947D01*
X103705Y0693D02*
X104045D01*
X103875Y06913D02*
Y06947D01*
X104705Y0693D02*
X105045D01*
X104875Y06913D02*
Y06947D01*
X100705Y0693D02*
X101045D01*
X100875Y06913D02*
Y06947D01*
X098705Y0693D02*
X099045D01*
X098875Y06913D02*
Y06947D01*
X096705Y0693D02*
X097045D01*
X096875Y06913D02*
Y06947D01*
X094705Y0693D02*
X095045D01*
X094875Y06913D02*
Y06947D01*
X10603Y048425D02*
X10637D01*
X1062Y048255D02*
Y048595D01*
X10603Y046425D02*
X10637D01*
X1062Y046255D02*
Y046595D01*
X10603Y044425D02*
X10637D01*
X1062Y044255D02*
Y044595D01*
X10603Y040425D02*
X10637D01*
X1062Y040255D02*
Y040595D01*
X10603Y041425D02*
X10637D01*
X1062Y041255D02*
Y041595D01*
X10603Y042425D02*
X10637D01*
X1062Y042255D02*
Y042595D01*
X10603Y043425D02*
X10637D01*
X1062Y043255D02*
Y043595D01*
X10603Y045425D02*
X10637D01*
X1062Y045255D02*
Y045595D01*
X10603Y047425D02*
X10637D01*
X1062Y047255D02*
Y047595D01*
X10603Y049425D02*
X10637D01*
X1062Y049255D02*
Y049595D01*
X08658Y041425D02*
X08692D01*
X08675Y041255D02*
Y041595D01*
X08658Y043425D02*
X08692D01*
X08675Y043255D02*
Y043595D01*
X08658Y045425D02*
X08692D01*
X08675Y045255D02*
Y045595D01*
X08658Y049425D02*
X08692D01*
X08675Y049255D02*
Y049595D01*
X08658Y048425D02*
X08692D01*
X08675Y048255D02*
Y048595D01*
X08658Y047425D02*
X08692D01*
X08675Y047255D02*
Y047595D01*
X08658Y046425D02*
X08692D01*
X08675Y046255D02*
Y046595D01*
X08658Y044425D02*
X08692D01*
X08675Y044255D02*
Y044595D01*
X08658Y042425D02*
X08692D01*
X08675Y042255D02*
Y042595D01*
X08658Y040425D02*
X08692D01*
X08675Y040255D02*
Y040595D01*
X08718Y05715D02*
X08752D01*
X08735Y05698D02*
Y05732D01*
X08718Y05615D02*
X08752D01*
X08735Y05598D02*
Y05632D01*
X08718Y05515D02*
X08752D01*
X08735Y05498D02*
Y05532D01*
X08718Y05415D02*
X08752D01*
X08735Y05398D02*
Y05432D01*
X090464Y0597D02*
X090936D01*
X0907Y059464D02*
Y059936D01*
X090464Y0617D02*
X090936D01*
X0907Y061464D02*
Y061936D01*
X090464Y055297D02*
X090936D01*
X0907Y055061D02*
Y055534D01*
X090464Y053297D02*
X090936D01*
X0907Y053061D02*
Y053534D01*
X088013Y0615D02*
X088313D01*
X088163Y06135D02*
Y06165D01*
X088013Y0605D02*
X088313D01*
X088163Y06035D02*
Y06065D01*
X088013Y0595D02*
X088313D01*
X088163Y05935D02*
Y05965D01*
X10018Y03875D02*
X10052D01*
X10035Y03858D02*
Y03892D01*
X10118Y03875D02*
X10152D01*
X10135Y03858D02*
Y03892D01*
X10218Y03875D02*
X10252D01*
X10235Y03858D02*
Y03892D01*
X10318Y03875D02*
X10352D01*
X10335Y03858D02*
Y03892D01*
X09228Y0383D02*
X09262D01*
X09245Y03813D02*
Y03847D01*
X09128Y0383D02*
X09162D01*
X09145Y03813D02*
Y03847D01*
X09028Y0383D02*
X09062D01*
X09045Y03813D02*
Y03847D01*
X08928Y0383D02*
X08962D01*
X08945Y03813D02*
Y03847D01*
X120298Y0641D02*
X120448D01*
X120373Y064025D02*
Y064175D01*
X119992Y0641D02*
X120142D01*
X120067Y064025D02*
Y064175D01*
X119687Y0641D02*
X119837D01*
X119762Y064025D02*
Y064175D01*
X119381Y0641D02*
X119531D01*
X119456Y064025D02*
Y064175D01*
X119075Y0641D02*
X119225D01*
X11915Y064025D02*
Y064175D01*
X123662Y0641D02*
X123812D01*
X123737Y064025D02*
Y064175D01*
X123356Y0641D02*
X123506D01*
X123431Y064025D02*
Y064175D01*
X120604Y0641D02*
X120754D01*
X120679Y064025D02*
Y064175D01*
X12091Y0641D02*
X12106D01*
X120985Y064025D02*
Y064175D01*
X121216Y0641D02*
X121366D01*
X121291Y064025D02*
Y064175D01*
X121521Y0641D02*
X121671D01*
X121596Y064025D02*
Y064175D01*
X121827Y0641D02*
X121977D01*
X121902Y064025D02*
Y064175D01*
X122133Y0641D02*
X122283D01*
X122208Y064025D02*
Y064175D01*
X122439Y0641D02*
X122589D01*
X122514Y064025D02*
Y064175D01*
X122745Y0641D02*
X122895D01*
X12282Y064025D02*
Y064175D01*
X12305Y0641D02*
X1232D01*
X123125Y064025D02*
Y064175D01*
X108525Y075277D02*
X108675D01*
X1086Y075202D02*
Y075352D01*
X108525Y075583D02*
X108675D01*
X1086Y075508D02*
Y075658D01*
X108525Y071301D02*
X108675D01*
X1086Y071226D02*
Y071376D01*
X108525Y071607D02*
X108675D01*
X1086Y071532D02*
Y071682D01*
X108525Y071913D02*
X108675D01*
X1086Y071838D02*
Y071988D01*
X108525Y072219D02*
X108675D01*
X1086Y072144D02*
Y072294D01*
X108525Y074971D02*
X108675D01*
X1086Y074896D02*
Y075046D01*
X108525Y074665D02*
X108675D01*
X1086Y07459D02*
Y07474D01*
X108525Y074359D02*
X108675D01*
X1086Y074284D02*
Y074434D01*
X108525Y074054D02*
X108675D01*
X1086Y073979D02*
Y074129D01*
X108525Y073748D02*
X108675D01*
X1086Y073673D02*
Y073823D01*
X108525Y073442D02*
X108675D01*
X1086Y073367D02*
Y073517D01*
X108525Y073136D02*
X108675D01*
X1086Y073061D02*
Y073211D01*
X108525Y07283D02*
X108675D01*
X1086Y072755D02*
Y072905D01*
X108525Y072525D02*
X108675D01*
X1086Y07245D02*
Y0726D01*
X120566Y0662D02*
X120716D01*
X120641Y066125D02*
Y066275D01*
X122775Y06625D02*
X122925D01*
X12285Y066175D02*
Y066325D01*
X122775Y067841D02*
X122925D01*
X12285Y067766D02*
Y067916D01*
X120575Y06785D02*
X120725D01*
X12065Y067775D02*
Y067925D01*
X121725Y06895D02*
X121875D01*
X1218Y068875D02*
Y069025D01*
X118725Y06895D02*
X118875D01*
X1188Y068875D02*
Y069025D01*
X118575Y067865D02*
X118725D01*
X11865Y06779D02*
Y06794D01*
X118575Y066232D02*
X118725D01*
X11865Y066157D02*
Y066307D01*
X116375Y0686D02*
X116525D01*
X11645Y068525D02*
Y068675D01*
X116525Y0698D02*
X116675D01*
X1166Y069725D02*
Y069875D01*
X114525Y069862D02*
X114675D01*
X1146Y069787D02*
Y069937D01*
X11667Y068248D02*
X11682D01*
X116745Y068173D02*
Y068323D01*
X117083Y0662D02*
X117233D01*
X117158Y066125D02*
Y066275D01*
X116003Y066228D02*
X116153D01*
X116078Y066153D02*
Y066303D01*
X114022Y06785D02*
X114172D01*
X114097Y067775D02*
Y067925D01*
X114022Y066213D02*
X114172D01*
X114097Y066138D02*
Y066288D01*
X112872Y06655D02*
X113022D01*
X112947Y066475D02*
Y066625D01*
X111725Y066575D02*
X111875D01*
X1118Y0665D02*
Y06665D01*
X111025Y07055D02*
X111175D01*
X1111Y070475D02*
Y070625D01*
X111025Y06965D02*
X111175D01*
X1111Y069575D02*
Y069725D01*
X111025Y06865D02*
X111175D01*
X1111Y068575D02*
Y068725D01*
X111025Y0675D02*
X111175D01*
X1111Y067425D02*
Y067575D01*
X111075Y066413D02*
X111225D01*
X11115Y066338D02*
Y066488D01*
X111075Y06535D02*
X111225D01*
X11115Y065275D02*
Y065425D01*
X116955Y06985D02*
X117105D01*
X11703Y069775D02*
Y069925D01*
X120225Y06855D02*
X120375D01*
X1203Y068475D02*
Y068625D01*
X123475Y0742D02*
X123625D01*
X12355Y074125D02*
Y074275D01*
X10955Y07435D02*
X11105D01*
X1103Y0736D02*
Y0751D01*
X121025Y072639D02*
X121525D01*
X121275Y072389D02*
Y072889D01*
X117876Y072639D02*
X118376D01*
X118126Y072389D02*
Y072889D01*
X1092Y06295D02*
X1104D01*
X1098Y06235D02*
Y06355D01*
X1092Y0376D02*
X1104D01*
X1098Y037D02*
Y0382D01*
X118341Y0641D02*
X118491D01*
X118416Y064025D02*
Y064175D01*
X118036Y0641D02*
X118186D01*
X118111Y064025D02*
Y064175D01*
X11773Y0641D02*
X11788D01*
X117805Y064025D02*
Y064175D01*
X117424Y0641D02*
X117574D01*
X117499Y064025D02*
Y064175D01*
X117118Y0641D02*
X117268D01*
X117193Y064025D02*
Y064175D01*
X116812Y0641D02*
X116962D01*
X116887Y064025D02*
Y064175D01*
X116507Y0641D02*
X116657D01*
X116582Y064025D02*
Y064175D01*
X116201Y0641D02*
X116351D01*
X116276Y064025D02*
Y064175D01*
X113143Y0641D02*
X113293D01*
X113218Y064025D02*
Y064175D01*
X112837Y0641D02*
X112987D01*
X112912Y064025D02*
Y064175D01*
X112531Y0641D02*
X112681D01*
X112606Y064025D02*
Y064175D01*
X112225Y0641D02*
X112375D01*
X1123Y064025D02*
Y064175D01*
X111919Y0641D02*
X112069D01*
X111994Y064025D02*
Y064175D01*
X111614Y0641D02*
X111764D01*
X111689Y064025D02*
Y064175D01*
X111308Y0641D02*
X111458D01*
X111383Y064025D02*
Y064175D01*
X111002Y0641D02*
X111152D01*
X111077Y064025D02*
Y064175D01*
X110696Y0641D02*
X110846D01*
X110771Y064025D02*
Y064175D01*
X113449Y0641D02*
X113599D01*
X113524Y064025D02*
Y064175D01*
X113754Y0641D02*
X113904D01*
X113829Y064025D02*
Y064175D01*
X11406Y0641D02*
X11421D01*
X114135Y064025D02*
Y064175D01*
X114366Y0641D02*
X114516D01*
X114441Y064025D02*
Y064175D01*
X114672Y0641D02*
X114822D01*
X114747Y064025D02*
Y064175D01*
X114978Y0641D02*
X115128D01*
X115053Y064025D02*
Y064175D01*
X115283Y0641D02*
X115433D01*
X115358Y064025D02*
Y064175D01*
X115589Y0641D02*
X115739D01*
X115664Y064025D02*
Y064175D01*
X115895Y0641D02*
X116045D01*
X11597Y064025D02*
Y064175D01*
X109167Y0641D02*
X109317D01*
X109242Y064025D02*
Y064175D01*
X109473Y0641D02*
X109623D01*
X109548Y064025D02*
Y064175D01*
X109779Y0641D02*
X109929D01*
X109854Y064025D02*
Y064175D01*
X110085Y0641D02*
X110235D01*
X11016Y064025D02*
Y064175D01*
X11039Y0641D02*
X11054D01*
X110465Y064025D02*
Y064175D01*
X108859Y0641D02*
X109009D01*
X108934Y064025D02*
Y064175D01*
X118725Y054873D02*
X118875D01*
X1188Y054798D02*
Y054948D01*
X118725Y055179D02*
X118875D01*
X1188Y055104D02*
Y055254D01*
X118725Y055485D02*
X118875D01*
X1188Y05541D02*
Y05556D01*
X118725Y055791D02*
X118875D01*
X1188Y055716D02*
Y055866D01*
X118725Y056096D02*
X118875D01*
X1188Y056021D02*
Y056171D01*
X118725Y056402D02*
X118875D01*
X1188Y056327D02*
Y056477D01*
X118725Y056708D02*
X118875D01*
X1188Y056633D02*
Y056783D01*
X118725Y057014D02*
X118875D01*
X1188Y056939D02*
Y057089D01*
X118725Y05732D02*
X118875D01*
X1188Y057245D02*
Y057395D01*
X118725Y054567D02*
X118875D01*
X1188Y054492D02*
Y054642D01*
X118725Y054262D02*
X118875D01*
X1188Y054187D02*
Y054337D01*
X118725Y053956D02*
X118875D01*
X1188Y053881D02*
Y054031D01*
X118725Y05365D02*
X118875D01*
X1188Y053575D02*
Y053725D01*
X118725Y060378D02*
X118875D01*
X1188Y060303D02*
Y060453D01*
X118725Y060684D02*
X118875D01*
X1188Y060609D02*
Y060759D01*
X118725Y060989D02*
X118875D01*
X1188Y060914D02*
Y061064D01*
X118725Y061295D02*
X118875D01*
X1188Y06122D02*
Y06137D01*
X118725Y061601D02*
X118875D01*
X1188Y061526D02*
Y061676D01*
X118725Y061907D02*
X118875D01*
X1188Y061832D02*
Y061982D01*
X118725Y062213D02*
X118875D01*
X1188Y062138D02*
Y062288D01*
X118725Y062518D02*
X118875D01*
X1188Y062443D02*
Y062593D01*
X118725Y062824D02*
X118875D01*
X1188Y062749D02*
Y062899D01*
X118725Y060072D02*
X118875D01*
X1188Y059997D02*
Y060147D01*
X118725Y059766D02*
X118875D01*
X1188Y059691D02*
Y059841D01*
X118725Y05946D02*
X118875D01*
X1188Y059385D02*
Y059535D01*
X118725Y059155D02*
X118875D01*
X1188Y05908D02*
Y05923D01*
X118725Y058849D02*
X118875D01*
X1188Y058774D02*
Y058924D01*
X118725Y058543D02*
X118875D01*
X1188Y058468D02*
Y058618D01*
X118725Y058237D02*
X118875D01*
X1188Y058162D02*
Y058312D01*
X118725Y057931D02*
X118875D01*
X1188Y057856D02*
Y058006D01*
X118725Y057625D02*
X118875D01*
X1188Y05755D02*
Y0577D01*
X118725Y0641D02*
X118875D01*
X1188Y064025D02*
Y064175D01*
X118725Y063742D02*
X118875D01*
X1188Y063667D02*
Y063817D01*
X118725Y063436D02*
X118875D01*
X1188Y063361D02*
Y063511D01*
X118725Y06313D02*
X118875D01*
X1188Y063055D02*
Y063205D01*
X118725Y038023D02*
X118875D01*
X1188Y037948D02*
Y038098D01*
X118725Y038329D02*
X118875D01*
X1188Y038254D02*
Y038404D01*
X118725Y038635D02*
X118875D01*
X1188Y03856D02*
Y03871D01*
X118725Y038941D02*
X118875D01*
X1188Y038866D02*
Y039016D01*
X118725Y039246D02*
X118875D01*
X1188Y039171D02*
Y039321D01*
X118725Y039552D02*
X118875D01*
X1188Y039477D02*
Y039627D01*
X118725Y039858D02*
X118875D01*
X1188Y039783D02*
Y039933D01*
X118725Y040164D02*
X118875D01*
X1188Y040089D02*
Y040239D01*
X118725Y04047D02*
X118875D01*
X1188Y040395D02*
Y040545D01*
X118725Y037717D02*
X118875D01*
X1188Y037642D02*
Y037792D01*
X118725Y037412D02*
X118875D01*
X1188Y037337D02*
Y037487D01*
X118725Y037106D02*
X118875D01*
X1188Y037031D02*
Y037181D01*
X118725Y0368D02*
X118875D01*
X1188Y036725D02*
Y036875D01*
X118725Y043528D02*
X118875D01*
X1188Y043453D02*
Y043603D01*
X118725Y043834D02*
X118875D01*
X1188Y043759D02*
Y043909D01*
X118725Y044139D02*
X118875D01*
X1188Y044064D02*
Y044214D01*
X118725Y044445D02*
X118875D01*
X1188Y04437D02*
Y04452D01*
X118725Y044751D02*
X118875D01*
X1188Y044676D02*
Y044826D01*
X118725Y045057D02*
X118875D01*
X1188Y044982D02*
Y045132D01*
X118725Y045363D02*
X118875D01*
X1188Y045288D02*
Y045438D01*
X118725Y045668D02*
X118875D01*
X1188Y045593D02*
Y045743D01*
X118725Y045974D02*
X118875D01*
X1188Y045899D02*
Y046049D01*
X118725Y043222D02*
X118875D01*
X1188Y043147D02*
Y043297D01*
X118725Y042916D02*
X118875D01*
X1188Y042841D02*
Y042991D01*
X118725Y04261D02*
X118875D01*
X1188Y042535D02*
Y042685D01*
X118725Y042305D02*
X118875D01*
X1188Y04223D02*
Y04238D01*
X118725Y041999D02*
X118875D01*
X1188Y041924D02*
Y042074D01*
X118725Y041693D02*
X118875D01*
X1188Y041618D02*
Y041768D01*
X118725Y041387D02*
X118875D01*
X1188Y041312D02*
Y041462D01*
X118725Y041081D02*
X118875D01*
X1188Y041006D02*
Y041156D01*
X118725Y040775D02*
X118875D01*
X1188Y0407D02*
Y04085D01*
X118725Y049032D02*
X118875D01*
X1188Y048957D02*
Y049107D01*
X118725Y049338D02*
X118875D01*
X1188Y049263D02*
Y049413D01*
X118725Y049644D02*
X118875D01*
X1188Y049569D02*
Y049719D01*
X118725Y04995D02*
X118875D01*
X1188Y049875D02*
Y050025D01*
X118725Y050256D02*
X118875D01*
X1188Y050181D02*
Y050331D01*
X118725Y050561D02*
X118875D01*
X1188Y050486D02*
Y050636D01*
X118725Y050867D02*
X118875D01*
X1188Y050792D02*
Y050942D01*
X118725Y051173D02*
X118875D01*
X1188Y051098D02*
Y051248D01*
X118725Y051479D02*
X118875D01*
X1188Y051404D02*
Y051554D01*
X118725Y048726D02*
X118875D01*
X1188Y048651D02*
Y048801D01*
X118725Y048421D02*
X118875D01*
X1188Y048346D02*
Y048496D01*
X118725Y048115D02*
X118875D01*
X1188Y04804D02*
Y04819D01*
X118725Y047809D02*
X118875D01*
X1188Y047734D02*
Y047884D01*
X118725Y047503D02*
X118875D01*
X1188Y047428D02*
Y047578D01*
X118725Y047197D02*
X118875D01*
X1188Y047122D02*
Y047272D01*
X118725Y046892D02*
X118875D01*
X1188Y046817D02*
Y046967D01*
X118725Y046586D02*
X118875D01*
X1188Y046511D02*
Y046661D01*
X118725Y04628D02*
X118875D01*
X1188Y046205D02*
Y046355D01*
X118725Y053008D02*
X118875D01*
X1188Y052933D02*
Y053083D01*
X118725Y052702D02*
X118875D01*
X1188Y052627D02*
Y052777D01*
X118725Y052396D02*
X118875D01*
X1188Y052321D02*
Y052471D01*
X118725Y05209D02*
X118875D01*
X1188Y052015D02*
Y052165D01*
X118725Y051785D02*
X118875D01*
X1188Y05171D02*
Y05186D01*
X118725Y053316D02*
X118875D01*
X1188Y053241D02*
Y053391D01*
X116575Y039103D02*
X116725D01*
X11665Y039028D02*
Y039178D01*
X116584Y0497D02*
X116734D01*
X116659Y049625D02*
Y049775D01*
X116575Y0613D02*
X116725D01*
X11665Y061225D02*
Y061375D01*
X108525Y03802D02*
X108675D01*
X1086Y037945D02*
Y038095D01*
X108525Y038326D02*
X108675D01*
X1086Y038251D02*
Y038401D01*
X108525Y038632D02*
X108675D01*
X1086Y038557D02*
Y038707D01*
X108525Y038937D02*
X108675D01*
X1086Y038862D02*
Y039012D01*
X108525Y039243D02*
X108675D01*
X1086Y039168D02*
Y039318D01*
X108525Y039549D02*
X108675D01*
X1086Y039474D02*
Y039624D01*
X108525Y039855D02*
X108675D01*
X1086Y03978D02*
Y03993D01*
X108525Y040161D02*
X108675D01*
X1086Y040086D02*
Y040236D01*
X108525Y040466D02*
X108675D01*
X1086Y040391D02*
Y040541D01*
X108525Y037714D02*
X108675D01*
X1086Y037639D02*
Y037789D01*
X108525Y037408D02*
X108675D01*
X1086Y037333D02*
Y037483D01*
X108525Y037103D02*
X108675D01*
X1086Y037028D02*
Y037178D01*
X108525Y036797D02*
X108675D01*
X1086Y036722D02*
Y036872D01*
X108525Y043525D02*
X108675D01*
X1086Y04345D02*
Y0436D01*
X108525Y04383D02*
X108675D01*
X1086Y043755D02*
Y043905D01*
X108525Y044136D02*
X108675D01*
X1086Y044061D02*
Y044211D01*
X108525Y044442D02*
X108675D01*
X1086Y044367D02*
Y044517D01*
X108525Y044748D02*
X108675D01*
X1086Y044673D02*
Y044823D01*
X108525Y045054D02*
X108675D01*
X1086Y044979D02*
Y045129D01*
X108525Y045359D02*
X108675D01*
X1086Y045284D02*
Y045434D01*
X108525Y045665D02*
X108675D01*
X1086Y04559D02*
Y04574D01*
X108525Y045971D02*
X108675D01*
X1086Y045896D02*
Y046046D01*
X108525Y043219D02*
X108675D01*
X1086Y043144D02*
Y043294D01*
X108525Y042913D02*
X108675D01*
X1086Y042838D02*
Y042988D01*
X108525Y042607D02*
X108675D01*
X1086Y042532D02*
Y042682D01*
X108525Y042301D02*
X108675D01*
X1086Y042226D02*
Y042376D01*
X108525Y041995D02*
X108675D01*
X1086Y04192D02*
Y04207D01*
X108525Y04169D02*
X108675D01*
X1086Y041615D02*
Y041765D01*
X108525Y041384D02*
X108675D01*
X1086Y041309D02*
Y041459D01*
X108525Y041078D02*
X108675D01*
X1086Y041003D02*
Y041153D01*
X108525Y040772D02*
X108675D01*
X1086Y040697D02*
Y040847D01*
X108525Y0475D02*
X108675D01*
X1086Y047425D02*
Y047575D01*
X108525Y047194D02*
X108675D01*
X1086Y047119D02*
Y047269D01*
X108525Y046888D02*
X108675D01*
X1086Y046813D02*
Y046963D01*
X108525Y046583D02*
X108675D01*
X1086Y046508D02*
Y046658D01*
X108525Y046277D02*
X108675D01*
X1086Y046202D02*
Y046352D01*
X108525Y047759D02*
X108675D01*
X1086Y047684D02*
Y047834D01*
X108525Y048064D02*
X108675D01*
X1086Y047989D02*
Y048139D01*
X108525Y04837D02*
X108675D01*
X1086Y048295D02*
Y048445D01*
X108525Y048676D02*
X108675D01*
X1086Y048601D02*
Y048751D01*
X108525Y048982D02*
X108675D01*
X1086Y048907D02*
Y049057D01*
X108525Y049288D02*
X108675D01*
X1086Y049213D02*
Y049363D01*
X108525Y049594D02*
X108675D01*
X1086Y049519D02*
Y049669D01*
X108525Y049899D02*
X108675D01*
X1086Y049824D02*
Y049974D01*
X108525Y050205D02*
X108675D01*
X1086Y05013D02*
Y05028D01*
X108525Y052957D02*
X108675D01*
X1086Y052882D02*
Y053032D01*
X108525Y052652D02*
X108675D01*
X1086Y052577D02*
Y052727D01*
X108525Y052346D02*
X108675D01*
X1086Y052271D02*
Y052421D01*
X108525Y05204D02*
X108675D01*
X1086Y051965D02*
Y052115D01*
X108525Y051734D02*
X108675D01*
X1086Y051659D02*
Y051809D01*
X108525Y051428D02*
X108675D01*
X1086Y051353D02*
Y051503D01*
X108525Y051123D02*
X108675D01*
X1086Y051048D02*
Y051198D01*
X108525Y050817D02*
X108675D01*
X1086Y050742D02*
Y050892D01*
X108525Y050511D02*
X108675D01*
X1086Y050436D02*
Y050586D01*
X108525Y056015D02*
X108675D01*
X1086Y05594D02*
Y05609D01*
X108525Y056321D02*
X108675D01*
X1086Y056246D02*
Y056396D01*
X108525Y056627D02*
X108675D01*
X1086Y056552D02*
Y056702D01*
X108525Y056933D02*
X108675D01*
X1086Y056858D02*
Y057008D01*
X108525Y057239D02*
X108675D01*
X1086Y057164D02*
Y057314D01*
X108525Y057544D02*
X108675D01*
X1086Y057469D02*
Y057619D01*
X108525Y05785D02*
X108675D01*
X1086Y057775D02*
Y057925D01*
X108525Y058156D02*
X108675D01*
X1086Y058081D02*
Y058231D01*
X108525Y058462D02*
X108675D01*
X1086Y058387D02*
Y058537D01*
X108525Y05571D02*
X108675D01*
X1086Y055635D02*
Y055785D01*
X108525Y055404D02*
X108675D01*
X1086Y055329D02*
Y055479D01*
X108525Y055098D02*
X108675D01*
X1086Y055023D02*
Y055173D01*
X108525Y054792D02*
X108675D01*
X1086Y054717D02*
Y054867D01*
X108525Y054486D02*
X108675D01*
X1086Y054411D02*
Y054561D01*
X108525Y054181D02*
X108675D01*
X1086Y054106D02*
Y054256D01*
X108525Y053875D02*
X108675D01*
X1086Y0538D02*
Y05395D01*
X108525Y053569D02*
X108675D01*
X1086Y053494D02*
Y053644D01*
X108525Y053263D02*
X108675D01*
X1086Y053188D02*
Y053338D01*
X108525Y06152D02*
X108675D01*
X1086Y061445D02*
Y061595D01*
X108525Y061826D02*
X108675D01*
X1086Y061751D02*
Y061901D01*
X108525Y062132D02*
X108675D01*
X1086Y062057D02*
Y062207D01*
X108525Y062437D02*
X108675D01*
X1086Y062362D02*
Y062512D01*
X108525Y062743D02*
X108675D01*
X1086Y062668D02*
Y062818D01*
X108525Y063049D02*
X108675D01*
X1086Y062974D02*
Y063124D01*
X108525Y063355D02*
X108675D01*
X1086Y06328D02*
Y06343D01*
X108525Y063661D02*
X108675D01*
X1086Y063586D02*
Y063736D01*
X108525Y063966D02*
X108675D01*
X1086Y063891D02*
Y064041D01*
X108525Y061214D02*
X108675D01*
X1086Y061139D02*
Y061289D01*
X108525Y060908D02*
X108675D01*
X1086Y060833D02*
Y060983D01*
X108525Y060603D02*
X108675D01*
X1086Y060528D02*
Y060678D01*
X108525Y060297D02*
X108675D01*
X1086Y060222D02*
Y060372D01*
X108525Y059991D02*
X108675D01*
X1086Y059916D02*
Y060066D01*
X108525Y059685D02*
X108675D01*
X1086Y05961D02*
Y05976D01*
X108525Y059379D02*
X108675D01*
X1086Y059304D02*
Y059454D01*
X108525Y059074D02*
X108675D01*
X1086Y058999D02*
Y059149D01*
X108525Y058768D02*
X108675D01*
X1086Y058693D02*
Y058843D01*
X108525Y067025D02*
X108675D01*
X1086Y06695D02*
Y0671D01*
X108525Y06733D02*
X108675D01*
X1086Y067255D02*
Y067405D01*
X108525Y067636D02*
X108675D01*
X1086Y067561D02*
Y067711D01*
X108525Y067942D02*
X108675D01*
X1086Y067867D02*
Y068017D01*
X108525Y068248D02*
X108675D01*
X1086Y068173D02*
Y068323D01*
X108525Y068554D02*
X108675D01*
X1086Y068479D02*
Y068629D01*
X108525Y068859D02*
X108675D01*
X1086Y068784D02*
Y068934D01*
X108525Y069165D02*
X108675D01*
X1086Y06909D02*
Y06924D01*
X108525Y069471D02*
X108675D01*
X1086Y069396D02*
Y069546D01*
X108525Y066719D02*
X108675D01*
X1086Y066644D02*
Y066794D01*
X108525Y066413D02*
X108675D01*
X1086Y066338D02*
Y066488D01*
X108525Y066107D02*
X108675D01*
X1086Y066032D02*
Y066182D01*
X108525Y065801D02*
X108675D01*
X1086Y065726D02*
Y065876D01*
X108525Y065495D02*
X108675D01*
X1086Y06542D02*
Y06557D01*
X108525Y06519D02*
X108675D01*
X1086Y065115D02*
Y065265D01*
X108525Y064884D02*
X108675D01*
X1086Y064809D02*
Y064959D01*
X108525Y064578D02*
X108675D01*
X1086Y064503D02*
Y064653D01*
X108525Y064272D02*
X108675D01*
X1086Y064197D02*
Y064347D01*
X108525Y071D02*
X108675D01*
X1086Y070925D02*
Y071075D01*
X108525Y070694D02*
X108675D01*
X1086Y070619D02*
Y070769D01*
X108525Y070388D02*
X108675D01*
X1086Y070313D02*
Y070463D01*
X108525Y070083D02*
X108675D01*
X1086Y070008D02*
Y070158D01*
X108525Y069777D02*
X108675D01*
X1086Y069702D02*
Y069852D01*
X106993Y071D02*
X107143D01*
X107068Y070925D02*
Y071075D01*
X107299Y071D02*
X107449D01*
X107374Y070925D02*
Y071075D01*
X107605Y071D02*
X107755D01*
X10768Y070925D02*
Y071075D01*
X107911Y071D02*
X108061D01*
X107986Y070925D02*
Y071075D01*
X108216Y071D02*
X108366D01*
X108291Y070925D02*
Y071075D01*
X101489Y071D02*
X101639D01*
X101564Y070925D02*
Y071075D01*
X101794Y071D02*
X101944D01*
X101869Y070925D02*
Y071075D01*
X1021Y071D02*
X10225D01*
X102175Y070925D02*
Y071075D01*
X102406Y071D02*
X102556D01*
X102481Y070925D02*
Y071075D01*
X102712Y071D02*
X102862D01*
X102787Y070925D02*
Y071075D01*
X103018Y071D02*
X103168D01*
X103093Y070925D02*
Y071075D01*
X103323Y071D02*
X103473D01*
X103398Y070925D02*
Y071075D01*
X103629Y071D02*
X103779D01*
X103704Y070925D02*
Y071075D01*
X103935Y071D02*
X104085D01*
X10401Y070925D02*
Y071075D01*
X106687Y071D02*
X106837D01*
X106762Y070925D02*
Y071075D01*
X106381Y071D02*
X106531D01*
X106456Y070925D02*
Y071075D01*
X106076Y071D02*
X106226D01*
X106151Y070925D02*
Y071075D01*
X10577Y071D02*
X10592D01*
X105845Y070925D02*
Y071075D01*
X105464Y071D02*
X105614D01*
X105539Y070925D02*
Y071075D01*
X105158Y071D02*
X105308D01*
X105233Y070925D02*
Y071075D01*
X104852Y071D02*
X105002D01*
X104927Y070925D02*
Y071075D01*
X104547Y071D02*
X104697D01*
X104622Y070925D02*
Y071075D01*
X104241Y071D02*
X104391D01*
X104316Y070925D02*
Y071075D01*
X095984Y071D02*
X096134D01*
X096059Y070925D02*
Y071075D01*
X09629Y071D02*
X09644D01*
X096365Y070925D02*
Y071075D01*
X096596Y071D02*
X096746D01*
X096671Y070925D02*
Y071075D01*
X096901Y071D02*
X097051D01*
X096976Y070925D02*
Y071075D01*
X097207Y071D02*
X097357D01*
X097282Y070925D02*
Y071075D01*
X097513Y071D02*
X097663D01*
X097588Y070925D02*
Y071075D01*
X097819Y071D02*
X097969D01*
X097894Y070925D02*
Y071075D01*
X098125Y071D02*
X098275D01*
X0982Y070925D02*
Y071075D01*
X098431Y071D02*
X098581D01*
X098506Y070925D02*
Y071075D01*
X101183Y071D02*
X101333D01*
X101258Y070925D02*
Y071075D01*
X100877Y071D02*
X101027D01*
X100952Y070925D02*
Y071075D01*
X100571Y071D02*
X100721D01*
X100646Y070925D02*
Y071075D01*
X100265Y071D02*
X100415D01*
X10034Y070925D02*
Y071075D01*
X09996Y071D02*
X10011D01*
X100035Y070925D02*
Y071075D01*
X099654Y071D02*
X099804D01*
X099729Y070925D02*
Y071075D01*
X099348Y071D02*
X099498D01*
X099423Y070925D02*
Y071075D01*
X099042Y071D02*
X099192D01*
X099117Y070925D02*
Y071075D01*
X098736Y071D02*
X098886D01*
X098811Y070925D02*
Y071075D01*
X09048Y071D02*
X09063D01*
X090555Y070925D02*
Y071075D01*
X090785Y071D02*
X090935D01*
X09086Y070925D02*
Y071075D01*
X091091Y071D02*
X091241D01*
X091166Y070925D02*
Y071075D01*
X091397Y071D02*
X091547D01*
X091472Y070925D02*
Y071075D01*
X091703Y071D02*
X091853D01*
X091778Y070925D02*
Y071075D01*
X092009Y071D02*
X092159D01*
X092084Y070925D02*
Y071075D01*
X092314Y071D02*
X092464D01*
X092389Y070925D02*
Y071075D01*
X09262Y071D02*
X09277D01*
X092695Y070925D02*
Y071075D01*
X092926Y071D02*
X093076D01*
X093001Y070925D02*
Y071075D01*
X095678Y071D02*
X095828D01*
X095753Y070925D02*
Y071075D01*
X095372Y071D02*
X095522D01*
X095447Y070925D02*
Y071075D01*
X095067Y071D02*
X095217D01*
X095142Y070925D02*
Y071075D01*
X094761Y071D02*
X094911D01*
X094836Y070925D02*
Y071075D01*
X094455Y071D02*
X094605D01*
X09453Y070925D02*
Y071075D01*
X094149Y071D02*
X094299D01*
X094224Y070925D02*
Y071075D01*
X093843Y071D02*
X093993D01*
X093918Y070925D02*
Y071075D01*
X093538Y071D02*
X093688D01*
X093613Y070925D02*
Y071075D01*
X093232Y071D02*
X093382D01*
X093307Y070925D02*
Y071075D01*
X087727Y071D02*
X087877D01*
X087802Y070925D02*
Y071075D01*
X088033Y071D02*
X088183D01*
X088108Y070925D02*
Y071075D01*
X088339Y071D02*
X088489D01*
X088414Y070925D02*
Y071075D01*
X088645Y071D02*
X088795D01*
X08872Y070925D02*
Y071075D01*
X08895Y071D02*
X0891D01*
X089025Y070925D02*
Y071075D01*
X089256Y071D02*
X089406D01*
X089331Y070925D02*
Y071075D01*
X089562Y071D02*
X089712D01*
X089637Y070925D02*
Y071075D01*
X089868Y071D02*
X090018D01*
X089943Y070925D02*
Y071075D01*
X090174Y071D02*
X090324D01*
X090249Y070925D02*
Y071075D01*
X087421Y071D02*
X087571D01*
X087496Y070925D02*
Y071075D01*
X087116Y071D02*
X087266D01*
X087191Y070925D02*
Y071075D01*
X08681Y071D02*
X08696D01*
X086885Y070925D02*
Y071075D01*
X086504Y071D02*
X086654D01*
X086579Y070925D02*
Y071075D01*
X086198Y071D02*
X086348D01*
X086273Y070925D02*
Y071075D01*
X085892Y071D02*
X086042D01*
X085967Y070925D02*
Y071075D01*
X085587Y071D02*
X085737D01*
X085662Y070925D02*
Y071075D01*
X085281Y071D02*
X085431D01*
X085356Y070925D02*
Y071075D01*
X084975Y071D02*
X085125D01*
X08505Y070925D02*
Y071075D01*
X096175Y0549D02*
X096325D01*
X09625Y054825D02*
Y054975D01*
X100425Y04555D02*
X100575D01*
X1005Y045475D02*
Y045625D01*
X099375Y04555D02*
X099525D01*
X09945Y045475D02*
Y045625D01*
X096175Y0464D02*
X096325D01*
X09625Y046325D02*
Y046475D01*
X096175Y04585D02*
X096325D01*
X09625Y045775D02*
Y045925D01*
X096175Y04535D02*
X096325D01*
X09625Y045275D02*
Y045425D01*
X096175Y0448D02*
X096325D01*
X09625Y044725D02*
Y044875D01*
X096175Y04425D02*
X096325D01*
X09625Y044175D02*
Y044325D01*
X096775Y04425D02*
X096925D01*
X09685Y044175D02*
Y044325D01*
X096775Y044788D02*
X096925D01*
X09685Y044713D02*
Y044862D01*
X096775Y045325D02*
X096925D01*
X09685Y04525D02*
Y0454D01*
X096775Y045862D02*
X096925D01*
X09685Y045788D02*
Y045938D01*
X096775Y0464D02*
X096925D01*
X09685Y046325D02*
Y046475D01*
X097051Y057751D02*
X097201D01*
X097126Y057676D02*
Y057826D01*
X093125Y04555D02*
X093275D01*
X0932Y045475D02*
Y045625D01*
X092075Y04555D02*
X092225D01*
X09215Y045475D02*
Y045625D01*
X102375Y045475D02*
X102525D01*
X10245Y0454D02*
Y04555D01*
X102942Y045475D02*
X103092D01*
X103017Y0454D02*
Y04555D01*
X103225Y045475D02*
X103375D01*
X1033Y0454D02*
Y04555D01*
X101125Y06265D02*
X101275D01*
X1012Y062575D02*
Y062725D01*
X090375Y06345D02*
X090525D01*
X09045Y063375D02*
Y063525D01*
X099075Y06565D02*
X099225D01*
X09915Y065575D02*
Y065725D01*
X103775Y066575D02*
X103975D01*
X103875Y066475D02*
Y066675D01*
X1019Y06655D02*
X1021D01*
X102Y06645D02*
Y06665D01*
X103825Y06655D02*
X103975D01*
X1039Y066475D02*
Y066625D01*
X099073Y066752D02*
X099223D01*
X099148Y066677D02*
Y066827D01*
X099825Y06785D02*
X099975D01*
X0999Y067775D02*
Y067925D01*
X100275Y065682D02*
X100425D01*
X10035Y065607D02*
Y065757D01*
X098825Y06635D02*
X098975D01*
X0989Y066275D02*
Y066425D01*
X100175Y06635D02*
X100325D01*
X10025Y066275D02*
Y066425D01*
X100775Y06505D02*
X100925D01*
X10085Y064975D02*
Y065125D01*
X100775Y0674D02*
X100925D01*
X10085Y067325D02*
Y067475D01*
X098525Y0674D02*
X098675D01*
X0986Y067325D02*
Y067475D01*
X08551Y0692D02*
X08701D01*
X08626Y06845D02*
Y06995D01*
X10591Y0692D02*
X10741D01*
X10666Y06845D02*
Y06995D01*
X106225Y06735D02*
X106375D01*
X1063Y067275D02*
Y067425D01*
X103425Y0633D02*
X103575D01*
X1035Y063225D02*
Y063375D01*
X106125Y0614D02*
X106275D01*
X1062Y061325D02*
Y061475D01*
X090425Y0652D02*
X090575D01*
X0905Y065125D02*
Y065275D01*
X095525Y064033D02*
X095675D01*
X0956Y063958D02*
Y064108D01*
X094625Y064033D02*
X094775D01*
X0947Y063958D02*
Y064108D01*
X089125Y064175D02*
X089275D01*
X0892Y0641D02*
Y06425D01*
X100175Y04115D02*
X100325D01*
X10025Y041075D02*
Y041225D01*
X091175Y05005D02*
X091325D01*
X09125Y049975D02*
Y050125D01*
X088375Y04035D02*
X088525D01*
X08845Y040275D02*
Y040425D01*
X088225Y0425D02*
X088375D01*
X0883Y042425D02*
Y042575D01*
X104275Y06515D02*
X104425D01*
X10435Y065075D02*
Y065225D01*
X106225Y06415D02*
X106375D01*
X1063Y064075D02*
Y064225D01*
X106225Y06495D02*
X106375D01*
X1063Y064875D02*
Y065025D01*
X106225Y06575D02*
X106375D01*
X1063Y065675D02*
Y065825D01*
X106225Y06655D02*
X106375D01*
X1063Y066475D02*
Y066625D01*
X08705Y06405D02*
X0872D01*
X087125Y063975D02*
Y064125D01*
X08705Y06485D02*
X0872D01*
X087125Y064775D02*
Y064925D01*
X08705Y06565D02*
X0872D01*
X087125Y065575D02*
Y065725D01*
X08705Y06645D02*
X0872D01*
X087125Y066375D02*
Y066525D01*
X08705Y0672D02*
X0872D01*
X087125Y067125D02*
Y067275D01*
X097019Y06405D02*
X097169D01*
X097094Y063975D02*
Y064125D01*
X093675Y0641D02*
X093825D01*
X09375Y064025D02*
Y064175D01*
X091275Y0641D02*
X091425D01*
X09135Y064025D02*
Y064175D01*
X092125Y0641D02*
X092275D01*
X0922Y064025D02*
Y064175D01*
X0968Y06075D02*
X097D01*
X0969Y06065D02*
Y06085D01*
X09715Y06075D02*
X09735D01*
X09725Y06065D02*
Y06085D01*
X09875Y06075D02*
X09895D01*
X09885Y06065D02*
Y06085D01*
X0968Y061469D02*
X097D01*
X0969Y061369D02*
Y061569D01*
X09875Y061439D02*
X09895D01*
X09885Y061339D02*
Y061539D01*
X09715Y061469D02*
X09735D01*
X09725Y061369D02*
Y061569D01*
X094088Y0549D02*
X094238D01*
X094163Y054825D02*
Y054975D01*
X1016Y06015D02*
X1018D01*
X1017Y06005D02*
Y06025D01*
X1016Y0598D02*
X1018D01*
X1017Y0597D02*
Y0599D01*
X1016Y05945D02*
X1018D01*
X1017Y05935D02*
Y05955D01*
X10591Y0379D02*
X10741D01*
X10666Y03715D02*
Y03865D01*
X08551Y0379D02*
X08701D01*
X08626Y03715D02*
Y03865D01*
X101375Y041175D02*
X101525D01*
X10145Y0411D02*
Y04125D01*
X101375Y049975D02*
X101525D01*
X10145Y0499D02*
Y05005D01*
X103225Y049975D02*
X103375D01*
X1033Y0499D02*
Y05005D01*
X100075Y04555D02*
X100225D01*
X10015Y045475D02*
Y045625D01*
X099725Y04555D02*
X099875D01*
X0998Y045475D02*
Y045625D01*
X102925Y045475D02*
X103075D01*
X103Y0454D02*
Y04555D01*
X102658Y045475D02*
X102808D01*
X102733Y0454D02*
Y04555D01*
X10275Y049525D02*
X10295D01*
X10285Y049425D02*
Y049625D01*
X099025Y042275D02*
X099175D01*
X0991Y0422D02*
Y04235D01*
X1037Y042225D02*
X1039D01*
X1038Y042125D02*
Y042325D01*
X10085Y042175D02*
X10105D01*
X10095Y042075D02*
Y042275D01*
X103725Y042225D02*
X103875D01*
X1038Y04215D02*
Y0423D01*
X100875Y042175D02*
X101025D01*
X10095Y0421D02*
Y04225D01*
X101875Y042325D02*
X102025D01*
X10195Y04225D02*
Y0424D01*
X103725Y049025D02*
X103875D01*
X1038Y04895D02*
Y0491D01*
X099725Y049775D02*
X099875D01*
X0998Y0497D02*
Y04985D01*
X093525Y050625D02*
X093675D01*
X0936Y05055D02*
Y0507D01*
X0927Y05015D02*
X0929D01*
X0928Y05005D02*
Y05025D01*
X092275Y041D02*
X092425D01*
X09235Y040925D02*
Y041075D01*
X093525Y0421D02*
X093725D01*
X093625Y042D02*
Y0422D01*
X089975Y041D02*
X090125D01*
X09005Y040925D02*
Y041075D01*
X091875Y04225D02*
X092025D01*
X09195Y042175D02*
Y042325D01*
X089575Y0456D02*
X089725D01*
X08965Y045525D02*
Y045675D01*
X089925Y0456D02*
X090075D01*
X09Y045525D02*
Y045675D01*
X092775Y04555D02*
X092925D01*
X09285Y045475D02*
Y045625D01*
X092425Y04555D02*
X092575D01*
X0925Y045475D02*
Y045625D01*
X093575Y04905D02*
X093725D01*
X09365Y048975D02*
Y049125D01*
X090025Y049927D02*
X090175D01*
X0901Y049852D02*
Y050002D01*
M02*
