G04*
G04 #@! TF.GenerationSoftware,Altium Limited,Altium Designer,18.1.6 (161)*
G04*
G04 Layer_Color=8421504*
%FSTAX24Y24*%
%MOIN*%
G70*
G01*
G75*
%ADD20R,0.0472X0.0315*%
%ADD21R,0.0500X0.0550*%
%ADD22R,0.0550X0.0500*%
G04:AMPARAMS|DCode=23|XSize=50mil|YSize=55mil|CornerRadius=0mil|HoleSize=0mil|Usage=FLASHONLY|Rotation=330.000|XOffset=0mil|YOffset=0mil|HoleType=Round|Shape=Rectangle|*
%AMROTATEDRECTD23*
4,1,4,-0.0354,-0.0113,-0.0079,0.0363,0.0354,0.0113,0.0079,-0.0363,-0.0354,-0.0113,0.0*
%
%ADD23ROTATEDRECTD23*%

G04:AMPARAMS|DCode=24|XSize=50mil|YSize=55mil|CornerRadius=0mil|HoleSize=0mil|Usage=FLASHONLY|Rotation=210.000|XOffset=0mil|YOffset=0mil|HoleType=Round|Shape=Rectangle|*
%AMROTATEDRECTD24*
4,1,4,0.0079,0.0363,0.0354,-0.0113,-0.0079,-0.0363,-0.0354,0.0113,0.0079,0.0363,0.0*
%
%ADD24ROTATEDRECTD24*%

%ADD25R,0.0550X0.0394*%
%ADD26R,0.1378X0.0630*%
%ADD27R,0.3331X0.4146*%
%ADD28R,0.1264X0.0413*%
%ADD29R,0.0394X0.0550*%
%ADD30R,0.2283X0.2441*%
%ADD31R,0.0630X0.1181*%
%ADD32R,0.0366X0.0516*%
%ADD33R,0.1276X0.0516*%
%ADD34R,0.0472X0.0335*%
G36*
X095772Y062132D02*
X095276D01*
Y062691D01*
X095772D01*
Y062132D01*
D02*
G37*
G36*
X094937D02*
X094441D01*
Y062691D01*
X094937D01*
Y062132D01*
D02*
G37*
G36*
X094103D02*
X093607D01*
Y062691D01*
X094103D01*
Y062132D01*
D02*
G37*
G36*
X093268D02*
X092772D01*
Y062691D01*
X093268D01*
Y062132D01*
D02*
G37*
G36*
X095772Y061301D02*
X095276D01*
Y06186D01*
X095772D01*
Y061301D01*
D02*
G37*
G36*
X094937D02*
X094441D01*
Y06186D01*
X094937D01*
Y061301D01*
D02*
G37*
G36*
X094103D02*
X093607D01*
Y06186D01*
X094103D01*
Y061301D01*
D02*
G37*
G36*
X093268D02*
X092772D01*
Y06186D01*
X093268D01*
Y061301D01*
D02*
G37*
G36*
X095772Y06047D02*
X095276D01*
Y06103D01*
X095772D01*
Y06047D01*
D02*
G37*
G36*
X094937D02*
X094441D01*
Y06103D01*
X094937D01*
Y06047D01*
D02*
G37*
G36*
X094103D02*
X093607D01*
Y06103D01*
X094103D01*
Y06047D01*
D02*
G37*
G36*
X093268D02*
X092772D01*
Y06103D01*
X093268D01*
Y06047D01*
D02*
G37*
G36*
X095772Y05964D02*
X095276D01*
Y060199D01*
X095772D01*
Y05964D01*
D02*
G37*
G36*
X094937D02*
X094441D01*
Y060199D01*
X094937D01*
Y05964D01*
D02*
G37*
G36*
X094103D02*
X093607D01*
Y060199D01*
X094103D01*
Y05964D01*
D02*
G37*
G36*
X093268D02*
X092772D01*
Y060199D01*
X093268D01*
Y05964D01*
D02*
G37*
G36*
X095772Y058809D02*
X095276D01*
Y059368D01*
X095772D01*
Y058809D01*
D02*
G37*
G36*
X094937D02*
X094441D01*
Y059368D01*
X094937D01*
Y058809D01*
D02*
G37*
G36*
X094103D02*
X093607D01*
Y059368D01*
X094103D01*
Y058809D01*
D02*
G37*
G36*
X093268D02*
X092772D01*
Y059368D01*
X093268D01*
Y058809D01*
D02*
G37*
D20*
X123578Y0749D02*
D03*
X120822D02*
D03*
D21*
X1098Y07055D02*
D03*
X1107D02*
D03*
X1099Y06535D02*
D03*
X1108D02*
D03*
X109865Y0664D02*
D03*
X110765D02*
D03*
X109837Y0675D02*
D03*
X110737D02*
D03*
X109837Y068649D02*
D03*
X110737D02*
D03*
X109837Y06965D02*
D03*
X110737D02*
D03*
X115183Y06665D02*
D03*
X116083D02*
D03*
X115133Y0686D02*
D03*
X116033D02*
D03*
X1197Y0685D02*
D03*
X1188D02*
D03*
X1209Y068499D02*
D03*
X1218D02*
D03*
X0995Y065D02*
D03*
X0986D02*
D03*
X10085Y067D02*
D03*
X09995D02*
D03*
X087525Y06405D02*
D03*
X088425D02*
D03*
X087525Y065625D02*
D03*
X088425D02*
D03*
X087525Y066413D02*
D03*
X088425D02*
D03*
X087525Y064837D02*
D03*
X088425D02*
D03*
X087525Y0672D02*
D03*
X088425D02*
D03*
X10595Y06735D02*
D03*
X10505D02*
D03*
X10595Y06575D02*
D03*
X10505D02*
D03*
X10595Y06655D02*
D03*
X10505D02*
D03*
X10595Y06415D02*
D03*
X10505D02*
D03*
X10595Y06495D02*
D03*
X10505D02*
D03*
X10515Y0572D02*
D03*
X10605D02*
D03*
D22*
X1118Y065313D02*
D03*
Y066213D02*
D03*
X11675Y065313D02*
D03*
Y066213D02*
D03*
Y06695D02*
D03*
Y06785D02*
D03*
X114507Y06695D02*
D03*
Y06785D02*
D03*
X1145Y065313D02*
D03*
Y066213D02*
D03*
X11295Y065313D02*
D03*
Y066213D02*
D03*
X1203Y066926D02*
D03*
Y067826D02*
D03*
Y065323D02*
D03*
Y066223D02*
D03*
X1182Y066945D02*
D03*
Y067845D02*
D03*
Y065323D02*
D03*
Y066223D02*
D03*
X12245Y066926D02*
D03*
Y067826D02*
D03*
Y065323D02*
D03*
Y066223D02*
D03*
D23*
X11685Y069211D02*
D03*
X116071Y069661D02*
D03*
D24*
X114471Y069236D02*
D03*
X11525Y069686D02*
D03*
D25*
X08885Y058D02*
D03*
Y0571D02*
D03*
D26*
X10515Y06D02*
D03*
X102945D02*
D03*
X09315Y0549D02*
D03*
X095355D02*
D03*
D27*
X094272Y06075D02*
D03*
D28*
X098063Y062089D02*
D03*
Y061419D02*
D03*
Y06075D02*
D03*
Y060081D02*
D03*
Y059411D02*
D03*
D29*
X09945Y06565D02*
D03*
X09855D02*
D03*
X0986Y067D02*
D03*
X0995D02*
D03*
X100863Y06635D02*
D03*
X099963D02*
D03*
X0995D02*
D03*
X0986D02*
D03*
X10085Y06565D02*
D03*
X09995D02*
D03*
X1044Y06415D02*
D03*
X1035D02*
D03*
X0892Y065175D02*
D03*
X0901D02*
D03*
X1045Y0572D02*
D03*
X1036D02*
D03*
D30*
X0898Y0471D02*
D03*
X1029Y043975D02*
D03*
Y046925D02*
D03*
X0999Y0442D02*
D03*
X1Y046925D02*
D03*
X0927Y0441D02*
D03*
Y0471D02*
D03*
X0898Y044077D02*
D03*
D31*
X0889Y049927D02*
D03*
X0907D02*
D03*
X102Y041148D02*
D03*
X1038D02*
D03*
Y049752D02*
D03*
X102D02*
D03*
X099Y041373D02*
D03*
X1008D02*
D03*
X1009Y049752D02*
D03*
X0991D02*
D03*
X0918Y041273D02*
D03*
X0936D02*
D03*
Y049927D02*
D03*
X0918D02*
D03*
X0889Y04125D02*
D03*
X0907D02*
D03*
D32*
X094998Y064033D02*
D03*
X0959D02*
D03*
X096802D02*
D03*
X091648Y0641D02*
D03*
X09255D02*
D03*
X093452D02*
D03*
D33*
X0959Y066667D02*
D03*
X09255Y066734D02*
D03*
D34*
X089258Y064549D02*
D03*
X08926Y063805D02*
D03*
X090242Y064175D02*
D03*
X104342Y064776D02*
D03*
X10434Y06552D02*
D03*
X103358Y06515D02*
D03*
M02*
